/* XPM */
static char * bottom_right_inactive_xpm[] = {
"28 28 3 1",
" 	c None",
".	c #FFFFFF",
"+	c #333333",
"                    .++++++.",
"                    .++++++.",
"                    .++++++.",
"                    .++++++.",
"                    .++++++.",
"                    .++++++.",
"                    .++++++.",
"                    .++++++.",
"                    .++++++.",
"                    .++++++.",
"                    .++++++.",
"                    .++++++.",
"                    .++++++.",
"                    .++++++.",
"                    .++++++.",
"                    .++++++.",
"                    .++++++.",
"                    .++++++.",
"                    .++++++.",
"                    .++++++.",
".....................++++++.",
"+++++++++++++++++++++++++++.",
"+++++++++++++++++++++++++++.",
"+++++++++++++++++++++++++++.",
"+++++++++++++++++++++++++++.",
"+++++++++++++++++++++++++++.",
"+++++++++++++++++++++++++++.",
"............................"};
