/* XPM */
static char * close_active_xpm[] = {
"20 20 4 1",
" 	c None",
".	c #333333",
"+	c #a6a6a6",
"@	c #FFFFFF",
"      ........      ",
"    ...++++++...    ",
"   ..++++++++++..   ",
"  ..++++++++++++..  ",
" ..++++++++++++++.. ",
" .+++@@++++++@@+++. ",
"..+++@@@++++@@@+++..",
".+++++@@@++@@@+++++.",
".++++++@@@@@@++++++.",
".+++++++@@@@+++++++.",
".+++++++@@@@+++++++.",
".++++++@@@@@@++++++.",
".+++++@@@++@@@+++++.",
"..+++@@@++++@@@+++..",
" .+++@@++++++@@+++. ",
" ..++++++++++++++.. ",
"  ..++++++++++++..  ",
"   ..++++++++++..   ",
"    ...++++++...    ",
"      ........      "};
