/* XPM */
static char * maximize_prelight_xpm[] = {
"20 20 4 1",
" 	c None",
".	c #333333",
"+	c #808080",
"@	c #FFFFFF",
"      ........      ",
"    ...++++++...    ",
"   ..++++++++++..   ",
"  ..++++++++++++..  ",
" ..++++++++++++++.. ",
" .+++@@@@@@@@@@+++. ",
"..+++@@@@@@@@@@+++..",
".++++@@++++++@@++++.",
".++++@@++++++@@++++.",
".++++@@++++++@@++++.",
".++++@@++++++@@++++.",
".++++@@++++++@@++++.",
".++++@@++++++@@++++.",
"..+++@@@@@@@@@@+++..",
" .+++@@@@@@@@@@+++. ",
" ..++++++++++++++.. ",
"  ..++++++++++++..  ",
"   ..++++++++++..   ",
"    ...++++++...    ",
"      ........      "};
