/* XPM */
static char * bottom_active_xpm[] = {
"1 55 22 1",
" 	c None",
".	c #080808",
"+	c #EAEFEA",
"@	c #E7EEE7",
"#	c #E5EDE5",
"$	c #E3EBE3",
"%	c #E0EAE0",
"&	c #DBEADB",
"*	c #D9E8D9",
"=	c #D5E2D6",
"-	c #D2DED3",
";	c #C7D2C7",
">	c #BAC2B9",
",	c #AB7F6B",
"'	c #C2491B",
")	c #E45416",
"!	c #E34A0E",
"~	c #BE3B08",
"{	c #351812",
"]	c #1C1C1C",
"^	c #151515",
"/	c #252525",
".",
".",
"+",
"+",
"+",
"+",
"+",
"+",
"@",
"@",
"#",
"$",
"$",
"%",
"&",
"*",
"*",
"*",
"*",
"*",
"*",
"*",
"*",
"*",
"*",
"=",
"*",
"*",
"*",
"=",
"=",
"-",
";",
">",
",",
"'",
")",
"!",
"~",
"{",
"]",
"]",
"^",
"]",
"]",
"/",
"]",
"]",
"^",
"^",
" ",
" ",
" ",
" ",
" "};
