/* XPM */
static char * close_prelight_xpm[] = {
"38 19 65 1",
" 	c None",
".	c #F49F9F",
"+	c #F5A4A4",
"@	c #F5AAAA",
"#	c #F4A3A3",
"$	c #F39494",
"%	c #F18484",
"&	c #F07F7F",
"*	c #F07B7B",
"=	c #F28B8B",
"-	c #F28F8F",
";	c #F39696",
">	c #F39A9A",
",	c #F49D9D",
"'	c #F28D8D",
")	c #C5C6C4",
"!	c #F5A6A6",
"~	c #F5ACAC",
"{	c #F07777",
"]	c #EE6565",
"^	c #EE6B6B",
"/	c #EF7070",
"(	c #F39292",
"_	c #EC5959",
":	c #EF6E6E",
"<	c #F18888",
"[	c #EA4545",
"}	c #9B1010",
"|	c #AB1212",
"1	c #E72424",
"2	c #EF7474",
"3	c #890E0E",
"4	c #DD1818",
"5	c #ED6060",
"6	c #BF1414",
"7	c #CF1616",
"8	c #E61D1D",
"9	c #F6AFAF",
"0	c #E72A2A",
"a	c #E51A1A",
"b	c #F6B5B5",
"c	c #F29191",
"d	c #EB5050",
"e	c #E83333",
"f	c #C0C1C0",
"g	c #F6ADAD",
"h	c #F18080",
"i	c #E93E3E",
"j	c #BBBFC1",
"k	c #B8BBBE",
"l	c #EC5353",
"m	c #F07979",
"n	c #F6B3B3",
"o	c #B5B5B3",
"p	c #CDCED0",
"q	c #F7B6B6",
"r	c #A3A3A2",
"s	c #E2E2E2",
"t	c #CCCDCC",
"u	c #E4E3E3",
"v	c #A8A8A7",
"w	c #AFAFAE",
"x	c #B9BAB8",
"y	c #CFD0D2",
"z	c #DFDFDE",
"..+@@@#$%&*&=-;>,;'''$#@@@+.#@@@@#.#))",
"..!~~~>{]]^/{{*&&&%='-.~~~+..@~~@#.#))",
"..!~~~(]___]:^]^/{%'-(,@~~+..@~~@#.#))",
",,+~~@<][}}|1]]]2/34:;,@~~#,.!~~@#,#))",
",,.##.%^56}|75]^^819+>$,##.,,.###,,>))",
">>>>>;'/]0||6[^]a8bb+;c;>>>>>>>>>>>;))",
"(($>>>-2]d8667e8_,b~$-$;>>$($;>>;$($f)",
"==-$$$'/_de7667[c9g>%%c$$$-='$$$$'=-f)",
"hh=ccc</dd[1778/c>(=&h'ccc=h%-ccc%h=f)",
"hh=cc-&5[d[17745h==<hh'ccc=hh-cc-%h=f)",
"&&=''h]d[[14847i^*&%&&='''%&h''''hh<j)",
"&&hh*]d[d14ei448_2{*&&%%%%h&&%%%%&&%k)",
"&&&{5_l_18^&/047i^&{*&&&&&&&&&&&&&&%k)",
"hh%*^]]4}$+$h5474](%*h%===%hh====h&%j)",
"hh%*{d73&bg>-c477e@=mh=---<hh'---hh%f)",
"&&%**%'.@@.(-$gnbn+<m&<'''<&&''''&&%op",
"hh%<%='$$('==-.9qn;%&h<'''<hh''''%h5rs",
"^^^^]^^^^^^^]^/**{:]^^^///^^^://^_[etu",
"vvvvvvvvvvvvvvvvvvvvvvvvvvvvvvvvvwxyzu"};
