/* XPM */
static char * close_inactive_xpm[] = {
"38 19 55 1",
" 	c None",
".	c #EEEFF0",
"+	c #F3F2F2",
"@	c #F5F5F5",
"#	c #F1F0F0",
"$	c #E8E7E7",
"%	c #DEDDDD",
"&	c #DADAD9",
"*	c #D6D7D9",
"=	c #E0E2E0",
"-	c #E4E3E3",
";	c #EBE9E9",
">	c #EBEBEB",
",	c #EDEDEC",
"'	c #E2E2E2",
")	c #C5C6C4",
"!	c #EEEEEE",
"~	c #F3F4F4",
"{	c #F6F7F6",
"]	c #D4D4D4",
"^	c #C9C9C9",
"/	c #CCCDCC",
"(	c #CFD0D2",
"_	c #E6E7E7",
":	c #C0C1C0",
"<	c #CDCED0",
"[	c #DFDFDE",
"}	c #B5B5B3",
"|	c #696562",
"1	c #717170",
"2	c #9C9F9C",
"3	c #D1D2D4",
"4	c #5B5C5B",
"5	c #8E928E",
"6	c #7E7E7E",
"7	c #858A85",
"8	c #979C97",
"9	c #F9F9F9",
"0	c #E8E8E8",
"a	c #A3A3A2",
"b	c #929991",
"c	c #FCFDFD",
"d	c #E4E6E4",
"e	c #B9BAB8",
"f	c #A8A8A7",
"g	c #CECFD1",
"h	c #B8BBBE",
"i	c #F8F8F8",
"j	c #DADBDD",
"k	c #AFAFAE",
"l	c #BBBFC1",
"m	c #D4D5D8",
"n	c #D7D8DA",
"o	c #FCFBFB",
"p	c #FEFDFC",
"..+@@@#$%&*&=-;>,;'''$#@@@+.#@@@@#.#))",
"!!~{{{>]^^/(]]*&&&%='-!{{{+!.@{{@#.#))",
"!!~{{{_^:::^</^/(]%'-_,@{{+!.@{{@#.#))",
",,+{{@[^}||12^^^3(45<;,@{{#,!~{{@#,#))",
",,!##!%/)6|17)^//829+>0,##!,,!###,,>))",
">>>>>;'(^a116}/^b8cc+;d;>>>>>>>>>>>;))",
"__0>>>-3^e8667f8:,c{0-$;>>0_$;>>;$_$:)",
"==-$$$'g:hf7667}d9i>%%d$$$-='$$$$'=-:)",
"jj=ddd[gee}2778gd>_=&j'ddd=j%-ddd%j=:)",
"jj=dd-&)}e}2775)j==[jj'ddd=jj-dd-%j=:)",
"&&=''j^e}}25857k/*&%&&='''%&j''''jj[l)",
"&&jj*^h}e25fk558:3]*&&%%%%j&&%%%%&&%h)",
"&&&]):l:28/&(a57k/&]*&&&&&&&&&&&&&&%h)",
"jj%*/^^5|$+$j)575^_%*j%===%jj====j&%l)",
"jj%*]h74&ci>-d577f@=mj=---[jj'---jj%:)",
"&&%nn%'!@@!_-$ioco+[m&['''[&&''''&&%}<",
"jj%[%='$0_'==-!9po;%&j['''[jj''''%j)a'",
"////^///////^/(**]<^///(((///<((/:}f/-",
"fffffffffffffffffffffffffffffffffke([-"};
