/* XPM */
static char * hide_pressed_xpm[] = {
"29 19 53 1",
" 	c None",
".	c #CCCDCC",
"+	c #F1F0F0",
"@	c #F3F2F2",
"#	c #F6F7F6",
"$	c #F5F5F5",
"%	c #EEEEEE",
"&	c #EDEDEC",
"*	c #EBE9E9",
"=	c #EBEBEB",
"-	c #E8E7E7",
";	c #E4E3E3",
">	c #E0E2E0",
",	c #DFDFDE",
"'	c #DADAD9",
")	c #DEDDDD",
"!	c #E2E2E2",
"~	c #D6D7D9",
"{	c #D1D2D4",
"]	c #CECFD1",
"^	c #C5C6C4",
"/	c #C9C9C9",
"(	c #CFD0D2",
"_	c #AFAFAE",
":	c #B9BAB8",
"<	c #C0C1C0",
"[	c #BBBFC1",
"}	c #E8E8E8",
"|	c #D4D4D4",
"1	c #7E7E7E",
"2	c #858A85",
"3	c #A3A3A2",
"4	c #8E928E",
"5	c #717170",
"6	c #696562",
"7	c #979C97",
"8	c #E6E7E7",
"9	c #E4E6E4",
"0	c #DADBDD",
"a	c #A8A8A7",
"b	c #5B5C5B",
"c	c #D4D5D8",
"d	c #4E4F4D",
"e	c #B5B5B3",
"f	c #D7D8DA",
"g	c #9C9F9C",
"h	c #CDCED0",
"i	c #BFC2C5",
"j	c #FCFBFB",
"k	c #F8F8F8",
"l	c #F3F4F4",
"m	c #F9F9F9",
"n	c #B8BBBE",
".+@##$@%%++++&&+@++%*=+$##$++",
".+$##$@&*-;>,')!;!!;!;&$##$+%",
".+@##$+&;,~{]^^/.('),!*@##$+%",
".%+@@@+*,~/_:<:[^/^[';-+@@+%&",
"/&&&&&&})|<123_[:_44~*-=&&&&&",
"/======})|._564_751/&*8*=====",
"/*=&&=*90|.^a6b665^}&;!*&&=*}",
"^!8**};,c/<[:7ddbe09>~'9**8!>",
"<,;88;>'(^:ee:3b_(')~{~!88;,)",
"<);88;>']/_64:/.](a1<f'!88;)0",
"<)!!!!,'(.<7b5gh_56e0)0>!!!)0",
"<0)'0)0'|./<gb6666<&&,''00')'",
"<0')'')'~|{].a665i@j%)''0')')",
"<),>>>,0''''))<5^@jk;'),>>,)0",
"<)!;;;,00,),!=+>ljj%)',!;;!)0",
"<)!;;!,'0!!,!9+#m$&!'',!;;!)'",
"n]>;;!,')!!!,),9*8!,0',!;;!)'",
"/n^{~'~||'''~||~''f'||~''''||",
").^<<<<[[<<<<<n<<<<<n<<<<<<[["};
