/* XPM */
static char * hide_prelight_xpm[] = {
"29 19 46 1",
" 	c None",
".	c #E4E667",
"+	c #EDEE9B",
"@	c #EEEF9E",
"#	c #EFF0A3",
"$	c #EEF0A1",
"%	c #EDEE97",
"&	c #EBEC8F",
"*	c #ECED92",
"=	c #EAEB88",
"-	c #EAEB86",
";	c #E9EB82",
">	c #E8E97A",
",	c #E8EA7F",
"'	c #E7E976",
")	c #E6E86F",
"!	c #E5E76C",
"~	c #E3E45D",
"{	c #E3E562",
"]	c #E6E76E",
"^	c #DDDF3E",
"/	c #E0E24D",
"(	c #E1E356",
"_	c #E1E352",
":	c #E6E873",
"<	c #AFB11C",
"[	c #BCBF1E",
"}	c #DADD2C",
"|	c #C8CB20",
"1	c #9C9E19",
"2	c #8D8F16",
"3	c #D6D922",
"4	c #EBEC8D",
"5	c #EBEC8B",
"6	c #E8E97C",
"7	c #DBDE33",
"8	c #7D7F14",
"9	c #E7E875",
"0	c #6B6C11",
"a	c #DEE144",
"b	c #D9DC25",
"c	c #E5E76A",
"d	c #E2E457",
"e	c #F0F1AA",
"f	c #EFF0A5",
"g	c #EFF0A7",
".+@##$@%%++++%%+@++%&*+$##$++",
".+$##$@%&&=-;>,-=--=-=%$##$+%",
".+@##$+%=;')!~~{.]>,;-&@##$+%",
".%+@@@+&;'{^/(/_~{~_>=&+@@+%%",
"{%%%%%%&,:(<[}^_/^||'&&*%%%%%",
"{******&,:.^12|^31<{%&4&*****",
"{&*%%*&56:.~728221~&%=-&%%*&&",
"~-4&&&=;9{(_/3008a65-'>5&&4--",
"(;=44=->]~/aa/}8^]>,')'-44=;,",
"(,=44=->!{^2|/{.!]7<('>-44=,6",
"(,----;>].(381bc^12a6,6----,6",
"(6,>6,6>:.{(b82222(%%;>>66>,>",
"(6>,>>,>':)!.7221d@e%,>>6>,>,",
"(,;---;6>>>>,,(1~@ef=>,;--;,6",
"(,-===;66;,;-*+-@ee%,>;-==-,6",
"(,-==-;>6--;-5+#g$%->>;-==-,>",
"/!-==-;>,---;,;5&4-;6>;-==-,>",
"{/~)'>'::>>>'::'>>'>::'>>>>::",
",.~((((__(((((/(((((/((((((__"};
