/* XPM */
static char * left_active_xpm[] = {
"29 1 20 1",
" 	c None",
".	c #979C97",
"+	c #ABB4AA",
"@	c #C3CFC3",
"#	c #D2DED3",
"$	c #DCE4DC",
"%	c #E3EBE3",
"&	c #E5EDE5",
"*	c #E9F1E8",
"=	c #F1F5F2",
"-	c #DEB79F",
";	c #DB5729",
">	c #EC5A26",
",	c #F75D27",
"'	c #C2491B",
")	c #A43F1B",
"!	c #A88C78",
"~	c #B0BEAF",
"{	c #C7D2C7",
"]	c #080808",
".+@#$%&*******=-;>,,>;')!~@{]"};
