/* XPM */
static char * maximize_prelight_xpm[] = {
"38 20 43 1",
" 	c None",
".	c #84EC61",
"+	c #96EF78",
"@	c #94EE75",
"#	c #92EE73",
"$	c #8FEE6F",
"%	c #98EF7A",
"&	c #8AED68",
"*	c #88ED66",
"=	c #7BEA55",
"-	c #71E948",
";	c #6FE946",
">	c #6DE843",
",	c #74E94C",
"'	c #83EC5F",
")	c #75EA4D",
"!	c #66E73A",
"~	c #60E633",
"{	c #5DE62F",
"]	c #69E83D",
"^	c #78EA51",
"/	c #7FEB5A",
"(	c #4BDC19",
"_	c #2D840F",
":	c #48D419",
"<	c #54E522",
"[	c #5BE62B",
"}	c #8BED6A",
"|	c #87EC65",
"1	c #28760D",
"2	c #329411",
"3	c #99EF7C",
"4	c #45CA17",
"5	c #50E41D",
"6	c #80EB5C",
"7	c #3DB215",
"8	c #38A413",
"9	c #46CF18",
"0	c #9FF083",
"a	c #9DF081",
"b	c #76EA4F",
"c	c #AFAFAE",
"d	c #A8A8A7",
"......................................",
"++@#@+++@##@+++@##++++##@++++++#$#++++",
"%%#$@%%%@&*.&&$$$$+%%%#$@%%+%%%#$#%%%+",
"%%#$#%%%$=-;>>,'&$+%%%#$#%%+%%%#$#%%%+",
"%%#$#%+#')>!~{~]^*@%%%#$#%%@%%%#$#%%%@",
"$$$$$$*'/);(_:<[!)*$$$$$$$$$###$$$###$",
"}}}}}*''''[___:[~]=*}}}}}}}&}}}}}}}}}}",
"$$}&}|&$@]__1_2(~])|$$}&}$$*}}}*|*}}}&",
"}}.'.*$3;1_(,4__5!,6}}.'.}}.***'''***|",
"||'/'.#+2(=^,]<7_!-=||'/'||6|||6=6|||.",
"||'=''*}*/)<8<~<5[-=||'='||/|||/=/|||.",
"''6=6==''=<__2(55<!=''/=6''/'''/=/''''",
"/=/=/))=6{111__95<~)==/==/==///===////",
"===/=='$]_2~$52_(~!)==/=/=============",
"''/=/'$+2<%00a.92];)''/=6''/'''/=/''''",
"..6=''}%3@#%aa%|b-b=..6='..'.../=/...'",
"..6=6'.&*'6|}$$'=)=6..6=6..''''/=/''''",
"..6=6'''/=^='''/^)='..6=6..''''/=/''''",
"))---))))--,))));-))))---));--->>>---;",
"cccccccccccccccccccccccccccddddddddddd"};
