/* XPM */
static char * maximize_active_xpm[] = {
"38 19 48 1",
" 	c None",
".	c #F5F5F5",
"+	c #F3F2F2",
"@	c #F1F0F0",
"#	c #EEEFF0",
"$	c #F6F7F6",
"%	c #EEEEEE",
"&	c #EBE9E9",
"*	c #E8E7E7",
"=	c #E4E3E3",
"-	c #EDEDEC",
";	c #DADAD9",
">	c #CFD0D2",
",	c #CDCED0",
"'	c #CCCDCC",
")	c #D1D2D4",
"!	c #E0E2E0",
"~	c #E2E2E2",
"{	c #D4D4D4",
"]	c #C5C6C4",
"^	c #C0C1C0",
"/	c #BBBFC1",
"(	c #C9C9C9",
"_	c #D6D7D9",
":	c #DEDDDD",
"<	c #CECFD1",
"[	c #A8A8A7",
"}	c #696562",
"|	c #A3A3A2",
"1	c #B5B5B3",
"2	c #B9BAB8",
"3	c #EBEBEB",
"4	c #E6E7E7",
"5	c #5B5C5B",
"6	c #717170",
"7	c #E4E6E4",
"8	c #E8E8E8",
"9	c #F8F8F8",
"0	c #979C97",
"a	c #AFAFAE",
"b	c #DFDFDE",
"c	c #858A85",
"d	c #DADBDD",
"e	c #7E7E7E",
"f	c #9C9F9C",
"g	c #FCFDFD",
"h	c #FCFBFB",
"i	c #D4D5D8",
"..+@+...+@@+...+@@....@@+......@#@....",
"$$@%+$$$+&*=&&%%%%.$$$@%+$$.$$$@%@$$$.",
"$$@%@$$$-;>,'')!&-.$$$@%@$$.$$$@%@$$$.",
"$$@-@$.@~{']^/^(_*+$$$@-@$$+$$$@-@$$$+",
"%%----*!:{<[}|12]{*-%%---%%-@@@---@@@%",
"33333*~~~!2}}}|2^(;*3333333&3333333333",
"--3&34&-+(}}5}6[^({7--3&3--*333*48333&",
"33=~=8%9<5}[)0}}a])b33=~=33=***~!~***4",
"44!:~=@.6[;_)(1c}]>;44!:~44b777bdb777=",
"44!d!~838:{1e1^1a2>d44!d!44:777:d:777=",
"~~bdb;;!!;1}}6[aa1];~~:db~~:~~~:;:~~~~",
":d:d:{{;b/555}}fa1^{dd:;d:d;:::d;d::::",
";;;:;;!-(}6^%a6}[^]{d;:;:;;;;;;;;;;;;;",
"!!:d:!-.61$ggh=f6(<{!!:db!!:!!!:d:!!!!",
"==bd!~3$9+@$hh$7i>id==bd!==!===:d:===!",
"==b;b!=&8~b73%-~;{;b==b;b==!~~~:;:~~~!",
"==b;b~!!:;_;!!!:_{d~==b;b==~~~~:d:~~~!",
"{{>>>{{{{>>){{{{<>{{{{>>>{{,>>>'''>>>,",
"aaaaaaaaaaaaaaaaaaaaaaaaaaa[[[[[[[[[[["};
