/* XPM */
static char * right_inactive_xpm[] = {
"29 1 20 1",
" 	c None",
".	c #080808",
"+	c #C7D2C7",
"@	c #C3CFC3",
"#	c #B0BEAF",
"$	c #A88C78",
"%	c #A43F1B",
"&	c #C2491B",
"*	c #DB5729",
"=	c #EC5A26",
"-	c #F75D27",
";	c #DEB79F",
">	c #F1F5F2",
",	c #E9F1E8",
"'	c #E5EDE5",
")	c #E3EBE3",
"!	c #DCE4DC",
"~	c #D2DED3",
"{	c #ABB4AA",
"]	c #979C97",
".+@#$%&*=--=*;>,,,,,,,')!~@{]"};
