/* XPM */
static char * title_1_active_xpm[] = {
"1 58 15 1",
" 	c None",
".	c #3F3F3E",
"+	c #0D0D0D",
"@	c #151515",
"#	c #A02B05",
"$	c #D2460B",
"%	c #F54F10",
"&	c #D65014",
"*	c #C5591F",
"=	c #AB7F6B",
"-	c #AFAFAE",
";	c #C0C1C0",
">	c #C0CAC0",
",	c #E4E3E3",
"'	c #080808",
" ",
" ",
" ",
" ",
" ",
" ",
" ",
" ",
" ",
" ",
" ",
".",
"+",
"@",
"@",
"@",
"@",
"@",
"@",
"#",
"$",
"%",
"&",
"*",
"=",
"-",
";",
";",
";",
">",
",",
",",
",",
",",
",",
",",
",",
",",
",",
",",
",",
",",
",",
",",
",",
",",
",",
",",
",",
",",
",",
",",
",",
",",
",",
",",
",",
"'"};
