/* XPM */
static char * bottom_left_active_xpm[] = {
"28 28 3 1",
" 	c None",
".	c #FFFFFF",
"+	c #333333",
".++++++.                    ",
".++++++.                    ",
".++++++.                    ",
".++++++.                    ",
".++++++.                    ",
".++++++.                    ",
".++++++.                    ",
".++++++.                    ",
".++++++.                    ",
".++++++.                    ",
".++++++.                    ",
".++++++.                    ",
".++++++.                    ",
".++++++.                    ",
".++++++.                    ",
".++++++.                    ",
".++++++.                    ",
".++++++.                    ",
".++++++.                    ",
".++++++.                    ",
".++++++.....................",
".+++++++++++++++++++++++++++",
".+++++++++++++++++++++++++++",
".+++++++++++++++++++++++++++",
".+++++++++++++++++++++++++++",
".+++++++++++++++++++++++++++",
".+++++++++++++++++++++++++++",
"............................"};
