/* XPM */
static char * close_inactive_xpm[] = {
"20 20 3 1",
" 	c None",
".	c #333333",
"+	c #FFFFFF",
"      ........      ",
"    ............    ",
"   ..............   ",
"  ................  ",
" .................. ",
" ....++......++.... ",
".....+++....+++.....",
"......+++..+++......",
".......++++++.......",
"........++++........",
"........++++........",
".......++++++.......",
"......+++..+++......",
".....+++....+++.....",
" ....++......++.... ",
" .................. ",
"  ................  ",
"   ..............   ",
"    ............    ",
"      ........      "};
