/* XPM */
static char * bottom_right_active_xpm[] = {
"21 85 53 1",
" 	c None",
".	c #282828",
"+	c #000000",
"@	c #343434",
"#	c #242424",
"$	c #393939",
"%	c #1D1E1D",
"&	c #000A01",
"*	c #01250A",
"=	c #0B3E0D",
"-	c #356139",
";	c #1B4A1C",
">	c #181818",
",	c #161716",
"'	c #0D2015",
")	c #08180E",
"!	c #011A06",
"~	c #21452D",
"{	c #060807",
"]	c #030605",
"^	c #1B1C1B",
"/	c #18281F",
"(	c #113E1C",
"_	c #0D0D0D",
":	c #03211A",
"<	c #2B2B2B",
"[	c #071D13",
"}	c #3E3F3E",
"|	c #0F1010",
"1	c #303030",
"2	c #313232",
"3	c #121413",
"4	c #021714",
"5	c #152E1F",
"6	c #0D3023",
"7	c #000201",
"8	c #151C18",
"9	c #1C2C24",
"0	c #000F01",
"a	c #011D0F",
"b	c #032116",
"c	c #107B0F",
"d	c #06BB06",
"e	c #09FD02",
"f	c #021911",
"g	c #02FF02",
"h	c #079106",
"i	c #0A480F",
"j	c #202221",
"k	c #02150E",
"l	c #02120B",
"m	c #010905",
"n	c #021C16",
"...+@#.$+$%%&*=-;>>,'",
"...+@##$+$$%+)!~;>>,'",
"...+@.#$+{$$%]^/(>>,'",
"...+@##.$+_$$%^^/>>,'",
"...+@#...$+_$$^^^>>,:",
"...+@##..<$+_$@^^>>,'",
"...+@.#..<<$+_$@^>,_[",
"...+}#...<<<$+|$@>>,:",
"...+}}...<<<1}+|@@>>:",
"...+}+}..<<<11}+|@.,:",
"...+}#+}.<<<112}+|@2/",
"...+}##+}<<<1122}+%@/",
"...+}#..+}<<11222}{3:",
"...+}##..+}<11222@<+4",
"...+}.#..<+}112222$}5",
"...+}#...<<+}1222@@@/",
"...+}##..<<<+}222@@@6",
"...+}.#..<<<1+}222@@/",
"...+}#...<<<11+}2@@@6",
"...+}}...<<<112+}2@@/",
"...+}+}..<<<1122+}@@/",
"...+}#+}.<<<112227$@/",
"...+}##+}<<<1122228}9",
"...+}#..+}<<11222@#0a",
"...+}##..+}<11122@@@/",
"...+}.#..<+}112222@@/",
"...+}#...<<+}1222@@@/",
"...+}##..<<<+}222@@@/",
"...+}#...<<<1+}22@@@5",
"...+}....<<<11+}2@@@/",
"...++}...<<<112+}2@@6",
"...+#+}..<<<1122+}@@9",
"...+@#+}.<<<112227$@5",
"...+@.#+}<<<1122228}9",
"...+@.#.+}<<11222@#0b",
"...+@.##.+}<11222@@@/",
"...+@..##<+}112222@@9",
"...+@.#.##<+}1222@@@9",
"...+@.#####<+}222@@@9",
"...+@.#.####1+}222@@9",
"...+@.#######1+}2@@@/",
"...+@.#.######2+}2@@9",
"...+@.#########2+}@@9",
"...+@.#.########27$@/",
"...+@.######+####@8}9",
"...+@.#.####+c#####0[",
"...+@..#####+cd###.$5",
"...+@.#.####+cde##,+f",
"...+@..#####+cdee#,+f",
"...+@.#.####+cdgee,+f",
"...+@..#####+cdeeeh+f",
"...+@.#.####1+hdeeh+f",
"...+@..######1+hdeh+f",
"...+@..#.#####1+hdh+f",
"...+@.#########1+hh+f",
"...+@.#.####+###1+i+f",
"...+@..#####+c###1++4",
"...+@.#.####+cd###j+f",
"...+@.######+cde##,+k",
"...+@.#.####+cdge#,+k",
"...+@.######+cdeee,+k",
"...+@.#.####+cdeeeh+k",
"...+@.######1+hdeeh+k",
"...+@#.######1+hdeh+k",
"...+@.########1+hdh+k",
"###+@#.########1+hh+k",
"#.#+@###########1+i+k",
"###+@#.##########1++l",
"#.#+@#############j+l",
"###+@.############,+l",
"#.#+@#############++l",
"###+@############+mn ",
"#.#+@###########++n  ",
"###+@##########++n   ",
"#.#+@#########++n    ",
"###+@########++n     ",
"#.#+@#######++n      ",
"###+@######++n       ",
"#.#+@#####++n        ",
"###+@####++n         ",
"%%%+@###++[          ",
"^^^+@##++b           ",
">>>+@#++b            ",
",,,++++b             ",
"kkfff[[              "};
