/* XPM */
static char * bottom_left_inactive_xpm[] = {
"21 85 53 1",
" 	c None",
".	c #0D2015",
"+	c #161716",
"@	c #181818",
"#	c #1B4A1C",
"$	c #356139",
"%	c #0B3E0D",
"&	c #01250A",
"*	c #000A01",
"=	c #1D1E1D",
"-	c #393939",
";	c #000000",
">	c #282828",
",	c #242424",
"'	c #343434",
")	c #21452D",
"!	c #011A06",
"~	c #08180E",
"{	c #113E1C",
"]	c #18281F",
"^	c #1B1C1B",
"/	c #030605",
"(	c #060807",
"_	c #0D0D0D",
":	c #03211A",
"<	c #2B2B2B",
"[	c #071D13",
"}	c #0F1010",
"|	c #3E3F3E",
"1	c #303030",
"2	c #313232",
"3	c #121413",
"4	c #021714",
"5	c #152E1F",
"6	c #0D3023",
"7	c #000201",
"8	c #1C2C24",
"9	c #151C18",
"0	c #011D0F",
"a	c #000F01",
"b	c #032116",
"c	c #107B0F",
"d	c #06BB06",
"e	c #021911",
"f	c #09FD02",
"g	c #02FF02",
"h	c #079106",
"i	c #0A480F",
"j	c #202221",
"k	c #02150E",
"l	c #02120B",
"m	c #021C16",
"n	c #010905",
".+@@#$%&*==-;->,';>>>",
".+@@#)!~;=--;-,,';>>>",
".+@@{]^/=--(;-,>';>>>",
".+@@]^^=--_;->,,';>>>",
":+@@^^^--_;->>>,';>>>",
".+@@^^'-_;-<>>,,';>>>",
"[_+@^'-_;-<<>>,>';>>>",
":+@@'-};-<<<>>>,|;>>>",
":@@''};|1<<<>>>||;>>>",
":+>'};|11<<<>>|;|;>>>",
"]2'};|211<<<>|;,|;>>>",
"]'=;|2211<<<|;,,|;>>>",
":3(|22211<<|;>>,|;>>>",
"4;<'22211<|;>>,,|;>>>",
"5|-222211|;<>>,>|;>>>",
"]'''2221|;<<>>>,|;>>>",
"6'''222|;<<<>>,,|;>>>",
"]''222|;1<<<>>,>|;>>>",
"6'''2|;11<<<>>>,|;>>>",
"]''2|;211<<<>>>||;>>>",
"]''|;2211<<<>>|;|;>>>",
"]'-722211<<<>|;,|;>>>",
"8|9222211<<<|;,,|;>>>",
"0a,'22211<<|;>>,|;>>>",
"]'''22111<|;>>,,|;>>>",
"]''222211|;<>>,>|;>>>",
"]'''2221|;<<>>>,|;>>>",
"]'''222|;<<<>>,,|;>>>",
"5'''22|;1<<<>>>,|;>>>",
"]'''2|;11<<<>>>>|;>>>",
"6''2|;211<<<>>>|;;>>>",
"8''|;2211<<<>>|;,;>>>",
"5'-722211<<<>|;,';>>>",
"8|9222211<<<|;,>';>>>",
"ba,'22211<<|;>,>';>>>",
"]'''22211<|;>,,>';>>>",
"8''222211|;<,,>>';>>>",
"8'''2221|;<,,>,>';>>>",
"8'''222|;<,,,,,>';>>>",
"8''222|;1,,,,>,>';>>>",
"]'''2|;1,,,,,,,>';>>>",
"8''2|;2,,,,,,>,>';>>>",
"8''|;2,,,,,,,,,>';>>>",
"]'-72,,,,,,,,>,>';>>>",
"8|9',,,,;,,,,,,>';>>>",
"[a,,,,,c;,,,,>,>';>>>",
"5->,,,dc;,,,,,>>';>>>",
"e;+,,fdc;,,,,>,>';>>>",
"e;+,ffdc;,,,,,>>';>>>",
"e;+ffgdc;,,,,>,>';>>>",
"e;hfffdc;,,,,,>>';>>>",
"e;hffdh;1,,,,>,>';>>>",
"e;hfdh;1,,,,,,>>';>>>",
"e;hdh;1,,,,,>,>>';>>>",
"e;hh;1,,,,,,,,,>';>>>",
"e;i;1,,,;,,,,>,>';>>>",
"4;;1,,,c;,,,,,>>';>>>",
"e;j,,,dc;,,,,>,>';>>>",
"k;+,,fdc;,,,,,,>';>>>",
"k;+,fgdc;,,,,>,>';>>>",
"k;+fffdc;,,,,,,>';>>>",
"k;hfffdc;,,,,>,>';>>>",
"k;hffdh;1,,,,,,>';>>>",
"k;hfdh;1,,,,,,>,';>>>",
"k;hdh;1,,,,,,,,>';>>>",
"k;hh;1,,,,,,,,>,';,,,",
"k;i;1,,,,,,,,,,,';,>,",
"l;;1,,,,,,,,,,>,';,,,",
"l;j,,,,,,,,,,,,,';,>,",
"l;+,,,,,,,,,,,,>';,,,",
"l;;,,,,,,,,,,,,,';,>,",
" mn;,,,,,,,,,,,,';,,,",
"  m;;,,,,,,,,,,,';,>,",
"   m;;,,,,,,,,,,';,,,",
"    m;;,,,,,,,,,';,>,",
"     m;;,,,,,,,,';,,,",
"      m;;,,,,,,,';,>,",
"       m;;,,,,,,';,,,",
"        m;;,,,,,';,>,",
"         m;;,,,,';,,,",
"          [;;,,,';===",
"           b;;,,';^^^",
"            b;;,';@@@",
"             b;;;;+++",
"              [[eeekk"};
