/* XPM */
static char * close_pressed_xpm[] = {
"45 28 24 1",
" 	c None",
".	c #03290D",
"+	c #032E0E",
"@	c #01250A",
"#	c #1A3E26",
"$	c #0F3419",
"%	c #02220A",
"&	c #011F0A",
"*	c #001D05",
"=	c #242424",
"-	c #1C2C24",
";	c #222C29",
">	c #282828",
",	c #202221",
"'	c #303030",
")	c #000000",
"!	c #107B0F",
"~	c #06BB06",
"{	c #079106",
"]	c #09FD02",
"^	c #02FF02",
"/	c #2B2B2B",
"(	c #06DC05",
"_	c #121413",
"..+.++@+++++++@+@+@@@.@+@.@.@@..@.+#$@%%&&%%*",
"==================-=;=====;==>===>===>=======",
"=,=,,=,,,,,,,,,,,,,,,,,,,,,,,,,,,,,,======'')",
"==,,,,,,,,,,,=,=,=,=,,=,=,=,,,,,,========'')=",
"=================,====,===,,,,,,,======='')=,",
"''''''''''''''''''''''''''====,,,,,,==='')=,,",
"!~~~~~~~~~~~~~~~~~~~~~~~~~'=,=,,,,===='')====",
"={~]^^^^^^^^^^^^^^^^^^^^^^]'==,,,,,=='')=>>>>",
"=={~]]^]]]^]]^]]^]]^]]^]]]]]',,,,,=='')=/////",
"==={~]]]^]]]]]]]]]]]]]]]^]]]]',,,,='')=''''''",
"==,={(]]]]]]]]]]]]]]]]]]]]]]]]',,='')='''''''",
"'====__________________________',=')=''''''''",
")'======,==,==,==,==,==,========'')='''''''''",
"')''''''''''''''''''''''''''''''')=''''''''''",
")))))))))))))))))))))))))))))))))='''''''''''",
"=================================''''''''''''",
"'''''''''''''''''''''''''''''''''''''''''''''",
"'''''''''''''''''''''''''''''''''''''''''''''",
"'''''''''''''''''''''''''''''''''''''''''''''",
"'''''''''''''''''''''''''''''''''''''''''''''",
"'''''''''''''''''''''''''''''''''''''''''''''",
"'''''''''''''''''''''''''''''''''''''''''''''",
"'''''''''''''''''''''''''''''''''''''''''''''",
"'''''''''''''''''''''''''''''''''''''''''''''",
"'''''''''''''''''''''''''''''''''''''''''''''",
"'''''''''''''''''''''''''''''''''''''''''''''",
"'''''''''''''''''''''''''''''''''''''''''''''",
"'''''''''''''''''''''''''''''''''''''''''''''"};
