/* XPM */
static char * close_prelight_xpm[] = {
"45 28 59 1",
" 	c None",
".	c #03290D",
"+	c #032E0E",
"@	c #01250A",
"#	c #1A3E26",
"$	c #0F3419",
"%	c #02220A",
"&	c #011F0A",
"*	c #001D05",
"=	c #242424",
"-	c #1C2C24",
";	c #222C29",
">	c #282828",
",	c #202221",
"'	c #303030",
")	c #000000",
"!	c #3B500D",
"~	c #AD1B0F",
"{	c #AA1E0F",
"]	c #A1270F",
"^	c #371C1C",
"/	c #69330A",
"(	c #B91010",
"_	c #EC2525",
":	c #EC2727",
"<	c #371D1D",
"[	c #252121",
"}	c #85180B",
"|	c #EA2725",
"1	c #362121",
"2	c #2B2B2B",
"3	c #271A1A",
"4	c #910C0C",
"5	c #E82924",
"6	c #352323",
"7	c #2A1010",
"8	c #DC1313",
"9	c #E62B24",
"0	c #DD3323",
"a	c #DC3423",
"b	c #CE4220",
"c	c #C24D1F",
"d	c #BF501E",
"e	c #B8561D",
"f	c #AF5F1C",
"g	c #A6681A",
"h	c #312D2D",
"i	c #242323",
"j	c #281717",
"k	c #140D0C",
"l	c #140D0D",
"m	c #140E0D",
"n	c #130F0E",
"o	c #13100F",
"p	c #131010",
"q	c #131110",
"r	c #131211",
"s	c #121312",
"t	c #121413",
"..+.++@+++++++@+@+@@@.@+@.@.@@..@.+#$@%%&&%%*",
"==================-=;=====;==>===>===>=======",
"=,=,,=,,,,,,,,,,,,,,,,,,,,,,,,,,,,,,======'')",
"==,,,,,,,,,,,=,=,=,=,,=,=,=,,,,,,========'')=",
"=================,====,===,,,,,,,======='')=,",
"''''''''''''''''''''''''''====,,,,,,==='')=,,",
"!~~~~~~~~~~~~~~{]]]]]]]]]]^=,=,,,,===='')====",
"=/(_::::::::::::::::::::::_<==,,,,,=='')=>>>>",
"=[}(__:___:__:__:__:__:____|1,,,,,=='')=22222",
"==34(___:_______________:___56,,,,='')=''''''",
"==,748______________90abbcdefgh,,='')='''''''",
"'==ijklmmnnopqrrssttttttttttttt',=')=''''''''",
")'======,==,==,==,==,==,========'')='''''''''",
"')''''''''''''''''''''''''''''''')=''''''''''",
")))))))))))))))))))))))))))))))))='''''''''''",
"=================================''''''''''''",
"'''''''''''''''''''''''''''''''''''''''''''''",
"'''''''''''''''''''''''''''''''''''''''''''''",
"'''''''''''''''''''''''''''''''''''''''''''''",
"'''''''''''''''''''''''''''''''''''''''''''''",
"'''''''''''''''''''''''''''''''''''''''''''''",
"'''''''''''''''''''''''''''''''''''''''''''''",
"'''''''''''''''''''''''''''''''''''''''''''''",
"'''''''''''''''''''''''''''''''''''''''''''''",
"'''''''''''''''''''''''''''''''''''''''''''''",
"'''''''''''''''''''''''''''''''''''''''''''''",
"'''''''''''''''''''''''''''''''''''''''''''''",
"'''''''''''''''''''''''''''''''''''''''''''''"};
