/* XPM */
static char * hide_prelight_xpm[] = {
"45 28 51 1",
" 	c None",
".	c #012613",
"+	c #012110",
"@	c #0D3023",
"#	c #173523",
"$	c #102A1B",
"%	c #032116",
"&	c #01250F",
"*	c #242424",
"=	c #282828",
"-	c #000000",
";	c #303030",
">	c #202221",
",	c #33332D",
"'	c #35362A",
")	c #363729",
"!	c #373728",
"~	c #383926",
"{	c #393926",
"]	c #252522",
"^	c #6C7420",
"/	c #C1C82D",
"(	c #41421C",
"_	c #262621",
":	c #7B8422",
"<	c #D5DB60",
"[	c #D0D64D",
"}	c #40421F",
"|	c #2B2B2B",
"1	c #272720",
"2	c #8A9124",
"3	c #D4D95C",
"4	c #3D3E21",
"5	c #28281F",
"6	c #818620",
"7	c #3D3E23",
"8	c #292A1D",
"9	c #8E9322",
"0	c #3A3B24",
"a	c #29291D",
"b	c #16180E",
"c	c #16170E",
"d	c #15170F",
"e	c #151610",
"f	c #141610",
"g	c #141511",
"h	c #131511",
"i	c #171814",
"j	c #171815",
"k	c #131512",
"l	c #131412",
"...++.@#$++.+++++++%+%++%+........+.++....&&.",
"*=**=*=*=*=***=*=*=***************=**=*******",
"-;;******>>*>>>>>>>>>>*>>*>>*>>*>>>>-;*******",
"*-;;*******>>>>>>>>*>>>>>>>>>>>>>>>>>-;******",
">*-;;********************************>-;*****",
"*>*-;;**,''''''''')!!!!!!!!!!!!!!~{~***-;****",
"****-;;*]^//////////////////////////(***-;***",
"====*-;;*_:/<<<<[<<<<[<<<<[<<<<[<<<<<}***-;**",
"|||||*-;;*12/<3<<<<3<<<<3<<<<3<<<3<[<<4**>-;*",
";;;;;;*-;;*56/<<<3<<<3<<<<3<<<<<<<<<<<<7*>>-;",
";;;;;;;*-;;*89/<<<<<<<<<<<<<[<<<[<<<<<<<0*>>-",
";;;;;;;;*-;;*abbbbcdddddeeeefffffghiiijkl;>**",
";;;;;;;;;*-;;*****************************;;*",
";;;;;;;;;;*-;;;;;;;;;;;;;;;;;;;;;;;;;;;;;;;;;",
";;;;;;;;;;;*---------------------------------",
";;;;;;;;;;;;*********************************",
";;;;;;;;;;;;;;;;;;;;;;;;;;;;;;;;;;;;;;;;;;;;;",
";;;;;;;;;;;;;;;;;;;;;;;;;;;;;;;;;;;;;;;;;;;;;",
";;;;;;;;;;;;;;;;;;;;;;;;;;;;;;;;;;;;;;;;;;;;;",
";;;;;;;;;;;;;;;;;;;;;;;;;;;;;;;;;;;;;;;;;;;;;",
";;;;;;;;;;;;;;;;;;;;;;;;;;;;;;;;;;;;;;;;;;;;;",
";;;;;;;;;;;;;;;;;;;;;;;;;;;;;;;;;;;;;;;;;;;;;",
";;;;;;;;;;;;;;;;;;;;;;;;;;;;;;;;;;;;;;;;;;;;;",
";;;;;;;;;;;;;;;;;;;;;;;;;;;;;;;;;;;;;;;;;;;;;",
";;;;;;;;;;;;;;;;;;;;;;;;;;;;;;;;;;;;;;;;;;;;;",
";;;;;;;;;;;;;;;;;;;;;;;;;;;;;;;;;;;;;;;;;;;;;",
";;;;;;;;;;;;;;;;;;;;;;;;;;;;;;;;;;;;;;;;;;;;;",
";;;;;;;;;;;;;;;;;;;;;;;;;;;;;;;;;;;;;;;;;;;;;"};
