/* XPM */
static char * hide_inactive_xpm[] = {
"45 28 24 1",
" 	c None",
".	c #012613",
"+	c #012110",
"@	c #0D3023",
"#	c #173523",
"$	c #102A1B",
"%	c #032116",
"&	c #01250F",
"*	c #242424",
"=	c #282828",
"-	c #000000",
";	c #303030",
">	c #202221",
",	c #34553E",
"'	c #4F8F50",
")	c #356139",
"!	c #6AB566",
"~	c #6AA378",
"{	c #313232",
"]	c #2B2B2B",
"^	c #42664D",
"/	c #7DA98A",
"(	c #121413",
"_	c #161716",
"...++.@#$++.+++++++%+%++%+........+.++....&&.",
"*=**=*=*=*=***=*=*=***************=**=*******",
"-;;******>>*>>>>>>>>>>*>>*>>*>>*>>>>-;*******",
"*-;;*******>>>>>>>>*>>>>>>>>>>>>>>>>>-;******",
">*-;;********************************>-;*****",
"*>*-;;**;;;;;;;;;;;;;;;;;;;;;;;;;;;;***-;****",
"****-;;**,'''''''''''''''''''''''''';***-;***",
"====*-;;**)'!!!!~!!!!~!!!!~!!!!~!!!!!{***-;**",
"]]]]]*-;;**^'!/!!!!/!!!!/!!!!/!!!/!~!!;**>-;*",
";;;;;;*-;;**)'!!!/!!!/!!!!/!!!!!!!!!!!!{*>>-;",
";;;;;;;*-;;**^'!!!!!!!!!!!!!~!!!~!!!!!!!;*>>-",
";;;;;;;;*-;;**(((((((((((((((((((((____((;>**",
";;;;;;;;;*-;;*****************************;;*",
";;;;;;;;;;*-;;;;;;;;;;;;;;;;;;;;;;;;;;;;;;;;;",
";;;;;;;;;;;*---------------------------------",
";;;;;;;;;;;;*********************************",
";;;;;;;;;;;;;;;;;;;;;;;;;;;;;;;;;;;;;;;;;;;;;",
";;;;;;;;;;;;;;;;;;;;;;;;;;;;;;;;;;;;;;;;;;;;;",
";;;;;;;;;;;;;;;;;;;;;;;;;;;;;;;;;;;;;;;;;;;;;",
";;;;;;;;;;;;;;;;;;;;;;;;;;;;;;;;;;;;;;;;;;;;;",
";;;;;;;;;;;;;;;;;;;;;;;;;;;;;;;;;;;;;;;;;;;;;",
";;;;;;;;;;;;;;;;;;;;;;;;;;;;;;;;;;;;;;;;;;;;;",
";;;;;;;;;;;;;;;;;;;;;;;;;;;;;;;;;;;;;;;;;;;;;",
";;;;;;;;;;;;;;;;;;;;;;;;;;;;;;;;;;;;;;;;;;;;;",
";;;;;;;;;;;;;;;;;;;;;;;;;;;;;;;;;;;;;;;;;;;;;",
";;;;;;;;;;;;;;;;;;;;;;;;;;;;;;;;;;;;;;;;;;;;;",
";;;;;;;;;;;;;;;;;;;;;;;;;;;;;;;;;;;;;;;;;;;;;",
";;;;;;;;;;;;;;;;;;;;;;;;;;;;;;;;;;;;;;;;;;;;;"};
