/* XPM */
static char * left_active_xpm[] = {
"21 1 17 1",
" 	c None",
".	c #0C2714",
"+	c #161716",
"@	c #181818",
"#	c #1B4A1C",
"$	c #398239",
"%	c #09FD02",
"&	c #056905",
"*	c #013B03",
"=	c #1D1E1D",
"-	c #393939",
";	c #000000",
">	c #242424",
",	c #282828",
"'	c #343434",
")	c #303030",
"!	c #2B2B2B",
".+@@#$%&*==-;->,';))!"};
