/* XPM */
static char * maximize_prelight_xpm[] = {
"46 28 54 1",
" 	c None",
".	c #012613",
"+	c #012A15",
"@	c #022F17",
"#	c #032E0E",
"$	c #013716",
"%	c #04340F",
"&	c #013F1D",
"*	c #04532B",
"=	c #1D5631",
"-	c #08521B",
";	c #0A480F",
">	c #024921",
",	c #014015",
"'	c #01250A",
")	c #03290D",
"!	c #242424",
"~	c #282828",
"{	c #202221",
"]	c #000201",
"^	c #303030",
"/	c #000000",
"(	c #2E322E",
"_	c #2E332D",
":	c #2C342B",
"<	c #2B352A",
"[	c #2A3629",
"}	c #2B362A",
"|	c #3FB437",
"1	c #32D223",
"2	c #243E21",
"3	c #346238",
"4	c #37C72A",
"5	c #64E259",
"6	c #51DF44",
"7	c #64E159",
"8	c #283C27",
"9	c #3C7242",
"0	c #32D124",
"a	c #60E154",
"b	c #64E05A",
"c	c #2A3728",
"d	c #2A7B26",
"e	c #65DE5A",
"f	c #2D362E",
"g	c #232523",
"h	c #2A9223",
"i	c #34CE26",
"j	c #64DF5A",
"k	c #65DA5B",
"l	c #121413",
"m	c #111512",
"n	c #141914",
"o	c #111511",
".+++++++@#@$%$&*=*-;>,$$$%#@@@#####%###%'#)#')",
"!!!!!!~!!!!!!~!~!!~~!!!~!!!!!!!~!~!!!!!!!~!!!!",
"{!{!{{{{{{!{{{{{{{{{{{{{{!{{!{{{{{{{{{]^!{!!!!",
"!{{{{{{!{{{{{{!{!{!{!{{!{{{{{{{{{{{!{{{/^!!{!!",
"!!!!!!!!!!!!!!!!{!!!{!!!!!!!!!!!!!!!!!!!/^!!!!",
"^^^^^^^(((((((((((((_:::::::::::::<[[[}!!/^!!!",
"|111111111111111111111111111111111111112!!/^!{",
"34555655556555565555655556555565555655578!!/^!",
"!9055555a5555a5555a5555a5555a5555a555565bc!!/^",
"!!d155a555a5555a5555a5555a5555a5555a55555ef!!/",
"!!ghijjjjb55555555555565555555556555556555k(!!",
"!{!!llllllllllllllllllllmmmmmmmmmmmmmmnnnnom^{",
"^!!{!!!!!!!!!!!!!!!!!!!!!!!!!!!!!!!!!!!!!!!!!^",
"/^^^^^^^^^^^^^^^^^^^^^^^^^^^^^^^^^^^^^^^^^^^^^",
"//////////////////////////////////////////////",
"!!!!!!!!!!!!!!!!!!!!!!!!!!!!!!!!!!!!!!!!!!!!!!",
"^^^^^^^^^^^^^^^^^^^^^^^^^^^^^^^^^^^^^^^^^^^^^^",
"^^^^^^^^^^^^^^^^^^^^^^^^^^^^^^^^^^^^^^^^^^^^^^",
"^^^^^^^^^^^^^^^^^^^^^^^^^^^^^^^^^^^^^^^^^^^^^^",
"^^^^^^^^^^^^^^^^^^^^^^^^^^^^^^^^^^^^^^^^^^^^^^",
"^^^^^^^^^^^^^^^^^^^^^^^^^^^^^^^^^^^^^^^^^^^^^^",
"^^^^^^^^^^^^^^^^^^^^^^^^^^^^^^^^^^^^^^^^^^^^^^",
"^^^^^^^^^^^^^^^^^^^^^^^^^^^^^^^^^^^^^^^^^^^^^^",
"^^^^^^^^^^^^^^^^^^^^^^^^^^^^^^^^^^^^^^^^^^^^^^",
"^^^^^^^^^^^^^^^^^^^^^^^^^^^^^^^^^^^^^^^^^^^^^^",
"^^^^^^^^^^^^^^^^^^^^^^^^^^^^^^^^^^^^^^^^^^^^^^",
"^^^^^^^^^^^^^^^^^^^^^^^^^^^^^^^^^^^^^^^^^^^^^^",
"^^^^^^^^^^^^^^^^^^^^^^^^^^^^^^^^^^^^^^^^^^^^^^"};
