/* XPM */
static char * maximize_inactive_xpm[] = {
"46 28 31 1",
" 	c None",
".	c #012613",
"+	c #012A15",
"@	c #022F17",
"#	c #032E0E",
"$	c #013716",
"%	c #04340F",
"&	c #013F1D",
"*	c #04532B",
"=	c #1D5631",
"-	c #08521B",
";	c #0A480F",
">	c #024921",
",	c #014015",
"'	c #01250A",
")	c #03290D",
"!	c #242424",
"~	c #282828",
"{	c #202221",
"]	c #000201",
"^	c #303030",
"/	c #000000",
"(	c #4F8F50",
"_	c #356139",
":	c #6AB566",
"<	c #6AA378",
"[	c #313232",
"}	c #42664D",
"|	c #7DA98A",
"1	c #121413",
"2	c #161716",
".+++++++@#@$%$&*=*-;>,$$$%#@@@#####%###%'#)#')",
"!!!!!!~!!!!!!~!~!!~~!!!~!!!!!!!~!~!!!!!!!~!!!!",
"{!{!{{{{{{!{{{{{{{{{{{{{{!{{!{{{{{{{{{]^!{!!!!",
"!{{{{{{!{{{{{{!{!{!{!{{!{{{{{{{{{{{!{{{/^!!{!!",
"!!!!!!!!!!!!!!!!{!!!{!!!!!!!!!!!!!!!!!!!/^!!!!",
"^^^^^^^^^^^^^^^^^^^^^^^^^^^^^^^^^^^^^^^!!/^!!!",
"(((((((((((((((((((((((((((((((((((((((^!!/^!{",
"_(:::<::::<::::<::::<::::<::::<::::<::::[!!/^!",
"!}(:::::|::::|::::|::::|::::|::::|::::<::^!!/^",
"!!_(::|:::|::::|::::|::::|::::|::::|::::::[!!/",
"!!!}(:::::::::::::::::<:::::::::<:::::<::::^!!",
"!{!!1111111111111111111111111111111111222211^{",
"^!!{!!!!!!!!!!!!!!!!!!!!!!!!!!!!!!!!!!!!!!!!!^",
"/^^^^^^^^^^^^^^^^^^^^^^^^^^^^^^^^^^^^^^^^^^^^^",
"//////////////////////////////////////////////",
"!!!!!!!!!!!!!!!!!!!!!!!!!!!!!!!!!!!!!!!!!!!!!!",
"^^^^^^^^^^^^^^^^^^^^^^^^^^^^^^^^^^^^^^^^^^^^^^",
"^^^^^^^^^^^^^^^^^^^^^^^^^^^^^^^^^^^^^^^^^^^^^^",
"^^^^^^^^^^^^^^^^^^^^^^^^^^^^^^^^^^^^^^^^^^^^^^",
"^^^^^^^^^^^^^^^^^^^^^^^^^^^^^^^^^^^^^^^^^^^^^^",
"^^^^^^^^^^^^^^^^^^^^^^^^^^^^^^^^^^^^^^^^^^^^^^",
"^^^^^^^^^^^^^^^^^^^^^^^^^^^^^^^^^^^^^^^^^^^^^^",
"^^^^^^^^^^^^^^^^^^^^^^^^^^^^^^^^^^^^^^^^^^^^^^",
"^^^^^^^^^^^^^^^^^^^^^^^^^^^^^^^^^^^^^^^^^^^^^^",
"^^^^^^^^^^^^^^^^^^^^^^^^^^^^^^^^^^^^^^^^^^^^^^",
"^^^^^^^^^^^^^^^^^^^^^^^^^^^^^^^^^^^^^^^^^^^^^^",
"^^^^^^^^^^^^^^^^^^^^^^^^^^^^^^^^^^^^^^^^^^^^^^",
"^^^^^^^^^^^^^^^^^^^^^^^^^^^^^^^^^^^^^^^^^^^^^^"};
