/* XPM */
static char * right_inactive_xpm[] = {
"21 1 17 1",
" 	c None",
".	c #2B2B2B",
"+	c #303030",
"@	c #000000",
"#	c #343434",
"$	c #282828",
"%	c #242424",
"&	c #393939",
"*	c #1D1E1D",
"=	c #013B03",
"-	c #056905",
";	c #09FD02",
">	c #398239",
",	c #1B4A1C",
"'	c #181818",
")	c #161716",
"!	c #0C2714",
".++@#$%&@&**=-;>,'')!"};
