/* XPM */
static char * title_3_active_xpm[] = {
"1 28 11 1",
" 	c None",
".	c #034429",
"+	c #1D1E1D",
"@	c #1B4A1C",
"#	c #056905",
"$	c #09FD02",
"%	c #356139",
"&	c #181818",
"*	c #000000",
"=	c #424242",
"-	c #303030",
".",
"+",
"+",
"+",
"@",
"#",
"$",
"#",
"%",
"&",
"&",
"&",
"&",
"*",
"=",
"-",
"-",
"-",
"-",
"-",
"-",
"-",
"-",
"-",
"-",
"-",
"-",
"-"};
