/* XPM */
static char * title_5_active_xpm[] = {
"1 28 7 1",
" 	c None",
".	c #032116",
"+	c #242424",
"@	c #202221",
"#	c #282828",
"$	c #2B2B2B",
"%	c #303030",
".",
"+",
"+",
"@",
"+",
"@",
"+",
"#",
"$",
"%",
"%",
"%",
"%",
"%",
"%",
"%",
"%",
"%",
"%",
"%",
"%",
"%",
"%",
"%",
"%",
"%",
"%",
"%"};
