/* XPM */
static char * title_2_inactive_xpm[] = {
"24 28 42 1",
" 	c None",
".	c #013D23",
"+	c #013927",
"@	c #013721",
"#	c #013F1D",
"$	c #014321",
"%	c #313232",
"&	c #3E3F3E",
"*	c #0D0D0D",
"=	c #0F1010",
"-	c #303030",
";	c #242424",
">	c #1D1E1D",
",	c #202221",
"'	c #2B2B2B",
")	c #121413",
"!	c #282828",
"~	c #173523",
"{	c #1A3E26",
"]	c #1B4A1C",
"^	c #000F01",
"/	c #013B03",
"(	c #035004",
"_	c #056905",
":	c #393939",
"<	c #161716",
"[	c #090D0B",
"}	c #1B1C1B",
"|	c #030E08",
"1	c #01250A",
"2	c #09FD02",
"3	c #080A09",
"4	c #001D05",
"5	c #04340F",
"6	c #181818",
"7	c #2B3F33",
"8	c #34553E",
"9	c #060807",
"0	c #343434",
"a	c #333333",
"b	c #000000",
"c	c #424242",
".+.@.@@@@+@....###$$$$.#",
"%&*=-;>>>>>>>>>>>>>>>>>>",
";%&**-;>>>>>>>>>>>>>>>>>",
",,%&=*';>>>>>>>>>>>>>>>>",
";,,-&)*'!>>>>>>>>>~{]]]]",
",;,,-&)*'!>>>>>>>)^/(___",
";;;;;-:<[!!}}}}}}})|1_22",
"!!!!!!-:<3;!}}}}}}}<45(_",
"'''''''-:63;!}}}}}}}},78",
"--------%:}9,!66666666<6",
"---------%:}9,;666666666",
"-----------0>9>;<<<<<<<<",
"------------0>9}!<<<<<<<",
"-------------a,bbbbbbbbb",
"--------------:ccccccccc",
"---------------'-'-'-'-'",
"------------------------",
"------------------------",
"------------------------",
"------------------------",
"------------------------",
"------------------------",
"------------------------",
"------------------------",
"------------------------",
"------------------------",
"------------------------",
"------------------------"};
