/* XPM */
static char * title_4_inactive_xpm[] = {
"24 28 42 1",
" 	c None",
".	c #013F1D",
"+	c #013D23",
"@	c #014321",
"#	c #013721",
"$	c #013927",
"%	c #1D1E1D",
"&	c #242424",
"*	c #303030",
"=	c #0F1010",
"-	c #0D0D0D",
";	c #3E3F3E",
">	c #313232",
",	c #2B2B2B",
"'	c #202221",
")	c #1B4A1C",
"!	c #1A3E26",
"~	c #173523",
"{	c #282828",
"]	c #121413",
"^	c #056905",
"/	c #035004",
"(	c #013B03",
"_	c #000F01",
":	c #09FD02",
"<	c #01250A",
"[	c #030E08",
"}	c #1B1C1B",
"|	c #090D0B",
"1	c #161716",
"2	c #393939",
"3	c #04340F",
"4	c #001D05",
"5	c #080A09",
"6	c #34553E",
"7	c #2B3F33",
"8	c #181818",
"9	c #060807",
"0	c #343434",
"a	c #000000",
"b	c #333333",
"c	c #424242",
".+@@@@...++++#$####+#+$+",
"%%%%%%%%%%%%%%%%%%&*=-;>",
"%%%%%%%%%%%%%%%%%&*--;>&",
"%%%%%%%%%%%%%%%%&,-=;>''",
"))))!~%%%%%%%%%{,-];*''&",
"^^^/(_]%%%%%%%{,-];*''&'",
"::^<[]}}}}}}}{{|12*&&&&&",
"^/341}}}}}}}{&512*{{{{{{",
"67'}}}}}}}}{&582*,,,,,,,",
"8188888888{'9}2>********",
"888888888&'9}2>*********",
"11111111&%9%0***********",
"1111111{}9%0************",
"aaaaaaaaa'b*************",
"ccccccccc2**************",
",*,*,*,*,***************",
"************************",
"************************",
"************************",
"************************",
"************************",
"************************",
"************************",
"************************",
"************************",
"************************",
"************************",
"************************"};
