/* XPM */
static char * top_left_inactive_xpm[] = {
"21 87 59 1",
" 	c None",
".	c #013023",
"+	c #012C1F",
"@	c #02271A",
"#	c #000000",
"$	c #242424",
"%	c #343434",
"&	c #202221",
"*	c #282828",
"=	c #2B2B2B",
"-	c #303030",
";	c #012A15",
">	c #030E08",
",	c #011D0F",
"'	c #161716",
")	c #0A480F",
"!	c #079106",
"~	c #06BB06",
"{	c #09FD02",
"]	c #107B0F",
"^	c #02FF02",
"/	c #021911",
"(	c #01190A",
"_	c #102A1B",
":	c #393939",
"<	c #011F0A",
"[	c #000F01",
"}	c #152E1F",
"|	c #3E3F3E",
"1	c #151C18",
"2	c #000201",
"3	c #313232",
"4	c #012110",
"5	c #173523",
"6	c #0F3419",
"7	c #01250A",
"8	c #011C0B",
"9	c #09230E",
"0	c #121413",
"a	c #060807",
"b	c #1D1E1D",
"c	c #0F1010",
"d	c #181818",
"e	c #0D0D0D",
"f	c #1B1C1B",
"g	c #18281F",
"h	c #113E1C",
"i	c #030605",
"j	c #1B4A1C",
"k	c #21452D",
"l	c #011A06",
"m	c #08180E",
"n	c #356139",
"o	c #0B3E0D",
"p	c #000A01",
"q	c #398239",
"r	c #035004",
"s	c #001904",
"t	c #056905",
"               ..++@@",
"              ####$$$",
"             ##$%#$$$",
"            ##$$%#&&&",
"           ##$$$%#&&$",
"          ##$$$$%#&$&",
"         ##$$$$$%#$$$",
"        ##$$$$$$%#***",
"       ##$$$$$$$%#===",
"      ##$$$$$$$$%#---",
"     ##$$$$$$$$$%#---",
"    ##$$$$$$$$$$%#---",
"  ;##$$$$$$$$$$$%#---",
" ;>#$$$$$$$$$$$$%#---",
",##$$$$$$$$$$$$$%#---",
",#'$$$$$$$$$$$$$%#---",
",#&$$$$$$$$$$$$*%#---",
",##-$$$$$$$$$$$$%#---",
",#)#-$$$$$$$$$$*%#---",
",#!!#-$$$$$$$$$$%#---",
",#!~!#-$$$$$$*$*%#---",
",#!{~!#-$$$$$$$$%#---",
",#!{{~!#-$$$$*$*%#---",
",#!{{{~]#$$$$$$*%#---",
",#'{{^~]#$$$$*$*%#---",
",#'${{~]#$$$$$$*%#---",
",#'$${~]#$$$$*$*%#---",
",#&$$$~]#$$$$$$*%#---",
",##-$$$]#$$$$*$*%#---",
"/#)#-$$$#$$$$$**%#---",
"/#!!#-$$$$$$$*$*%#---",
"(#!~!#-$$$$$$$**%#---",
"(#!{~!#-$$$$$*$*%#---",
"(#!{{~!#-$$$$$**%#---",
"(#!{{{~]#$$$$*$*%#---",
"(#'{{{~]#$$$$$**%#---",
"(#'${^~]#$$$$*$*%#---",
"(#'$${~]#$$$$$**%#---",
"_:*$$$~]#$$$$*$*%#---",
"<[$$$$$]#$$$$$**%#---",
"}|1%$&$$#$$$$*$*%#---",
"_%:23$$$$$$$$$$*%#---",
"_%%|#3$$$$$$$*$*%#---",
"_%%3|#3$$$$$$$$*%#---",
"_%%%3|#-$$$$$*$*%#---",
"_%%333|#-$$$$$$*%#---",
"_%%%333|#=$$$*$*%#---",
"_%%%333-|#=$$$$*%#---",
"_%%3333--|#=$*$*%#---",
"}%%%333--=|#*$$*%#---",
"4[$%333--==|#*$*%#---",
"5|13333--===|#$*%#---",
"}%:2333--===*|#$%#---",
"}%%|#33--===**|#$#---",
"}%%3|#3--===***|##---",
"6%%%3|#--===***$|#---",
"6%%%33|#-===****|#---",
"6%%%333|#===**$$|#---",
"5%%%333-|#==****|#---",
"5%%3333--|#=**$$|#---",
"}%%%33---=|#**$*|#---",
"7[$%333--==|#**$|#---",
"}|13333--===|#$$|#--=",
"_%:2333--===*|#$|#--=",
"_%%|#33--===**|#|#--=",
"}%%3|#3--===***||#--=",
"}%%%3|#--===****|#--=",
"_%%333|#-===**$$|#--=",
"_%%%333|#===**$*|#--=",
"_%%%333-|#==***$|#--=",
"}|:3333--|#=**$$|#--=",
"8#=%333--=|#**$*|#--=",
"90a|333--==|#**$|#--=",
"_%b#|33--===|#$$|#--=",
"_3%c#|3--===*|#$|#--=",
"9'*%c#|--===**|#|#--=",
"9'd%%c#|-===***||#--=",
"9'dd%:c#:===***$|#--=",
"4e'df%:e#:==**$$%#--=",
"9'ddff%:e#:=**$*%#--=",
"9'ddfff::e#:***$%#--=",
"9'ddgffb::e#:*$$%#--=",
"9'ddhgfib::a#:$$%#--=",
"9'ddjklm#b::#:$*%#--=",
"9'ddjno7pbb:#:*$%#--=",
"9'ddjq{rsbb:#:$$%#--=",
"9'ddjq{t7bb:#:$$%#--="};
