/* XPM */
static char * top_right_active_xpm[] = {
"21 87 59 1",
" 	c None",
".	c #02271A",
"+	c #012C1F",
"@	c #013023",
"#	c #242424",
"$	c #000000",
"%	c #343434",
"&	c #202221",
"*	c #282828",
"=	c #2B2B2B",
"-	c #303030",
";	c #012A15",
">	c #030E08",
",	c #011D0F",
"'	c #161716",
")	c #0A480F",
"!	c #079106",
"~	c #06BB06",
"{	c #09FD02",
"]	c #107B0F",
"^	c #02FF02",
"/	c #021911",
"(	c #01190A",
"_	c #393939",
":	c #102A1B",
"<	c #000F01",
"[	c #011F0A",
"}	c #151C18",
"|	c #3E3F3E",
"1	c #152E1F",
"2	c #313232",
"3	c #000201",
"4	c #012110",
"5	c #173523",
"6	c #0F3419",
"7	c #01250A",
"8	c #011C0B",
"9	c #060807",
"0	c #121413",
"a	c #09230E",
"b	c #1D1E1D",
"c	c #0F1010",
"d	c #181818",
"e	c #0D0D0D",
"f	c #1B1C1B",
"g	c #18281F",
"h	c #030605",
"i	c #113E1C",
"j	c #08180E",
"k	c #011A06",
"l	c #21452D",
"m	c #1B4A1C",
"n	c #000A01",
"o	c #0B3E0D",
"p	c #356139",
"q	c #001904",
"r	c #035004",
"s	c #398239",
"t	c #056905",
"..++@@               ",
"###$$$$              ",
"###$%#$$             ",
"&&&$%##$$            ",
"#&&$%###$$           ",
"&#&$%####$$          ",
"###$%#####$$         ",
"***$%######$$        ",
"===$%#######$$       ",
"---$%########$$      ",
"---$%#########$$     ",
"---$%##########$$    ",
"---$%###########$$;  ",
"---$%############$>; ",
"---$%#############$$,",
"---$%#############'$,",
"---$%*############&$,",
"---$%############-$$,",
"---$%*##########-$)$,",
"---$%##########-$!!$,",
"---$%*#*######-$!~!$,",
"---$%########-$!~{!$,",
"---$%*#*####-$!~{{!$,",
"---$%*######$]~{{{!$,",
"---$%*#*####$]~^{{'$,",
"---$%*######$]~{{#'$,",
"---$%*#*####$]~{##'$,",
"---$%*######$]~###&$,",
"---$%*#*####$]###-$$,",
"---$%**#####$###-$)$/",
"---$%*#*#######-$!!$/",
"---$%**#######-$!~!$(",
"---$%*#*#####-$!~{!$(",
"---$%**#####-$!~{{!$(",
"---$%*#*####$]~{{{!$(",
"---$%**#####$]~{{{'$(",
"---$%*#*####$]~^{#'$(",
"---$%**#####$]~{##'$(",
"---$%*#*####$]~###*_:",
"---$%**#####$]#####<[",
"---$%*#*####$##&#%}|1",
"---$%*##########23_%:",
"---$%*#*#######2$|%%:",
"---$%*########2$|2%%:",
"---$%*#*#####-$|2%%%:",
"---$%*######-$|222%%:",
"---$%*#*###=$|222%%%:",
"---$%*####=$|-222%%%:",
"---$%*#*#=$|--2222%%:",
"---$%*##*$|=--222%%%1",
"---$%*#*$|==--222%#<4",
"---$%*#$|===--2222}|5",
"---$%#$|*===--2223_%1",
"---$#$|**===--22$|%%1",
"---$$|***===--2$|2%%1",
"---$|#***===--$|2%%%6",
"---$|****===-$|22%%%6",
"---$|##**===$|222%%%6",
"---$|****==$|-222%%%5",
"---$|##**=$|--2222%%5",
"---$|*#**$|=---22%%%1",
"---$|#**$|==--222%#<7",
"=--$|##$|===--2222}|1",
"=--$|#$|*===--2223_%:",
"=--$|$|**===--22$|%%:",
"=--$||***===--2$|2%%1",
"=--$|****===--$|2%%%1",
"=--$|##**===-$|222%%:",
"=--$|*#**===$|222%%%:",
"=--$|#***==$|-222%%%:",
"=--$|##**=$|--2222_|1",
"=--$|*#**$|=--222%=$8",
"=--$|#**$|==--222|90a",
"=--$|##$|===--22|$b%:",
"=--$|#$|*===--2|$c%2:",
"=--$|$|**===--|$c%*'a",
"=--$||***===-|$c%%d'a",
"=--$|#***===_$c_%dd'a",
"=--$%##**==_$e_%fd'e4",
"=--$%*#**=_$e_%ffdd'a",
"=--$%#***_$e__fffdd'a",
"=--$%##*_$e__bffgdd'a",
"=--$%##_$9__bhfgidd'a",
"=--$%*#_$__b$jklmdd'a",
"=--$%#*_$_bbn7opmdd'a",
"=--$%##_$_bbqr{smdd'a",
"=--$%##_$_bb7t{smdd'a"};
