/* XPM */
static char * bottom_inactive_xpm[] = {
"28 8 3 1",
" 	c None",
".	c #FFFFFF",
"+	c #333333",
"............................",
"++++++++++++++++++++++++++++",
"++++++++++++++++++++++++++++",
"++++++++++++++++++++++++++++",
"++++++++++++++++++++++++++++",
"++++++++++++++++++++++++++++",
"++++++++++++++++++++++++++++",
"............................"};
