/* XPM */
static char * title_2_active_xpm[] = {
"40 30 6 1",
" 	c None",
".	c #FFFFFF",
"+	c #FDFEFE",
"@	c #333333",
"#	c #53a600",
"$	c #333537",
"..........+                             ",
"@@@@@@@@@@@@                            ",
"@@@@@@@@@@@@@                           ",
"@@@@@@@@@@@@@@##########################",
"@@@@@@@@@@@@@@@#########################",
"@@@@@@@@@@@@@@@#########################",
"@@@@@@@@@@@@@@@@########################",
"@@@@@@@@@@@@@@@@@#######################",
"@@@@@@@@@@@@@@@@@#######################",
"@@@@@@@@@@@@@@@@@@######################",
"@@@@@@@@@@@@@@@@@@@#####################",
"@@@@@@@@@@@@@@@@@@@#####################",
"@@@@@@@@@@@@@@@@@@@@####################",
"@@@@@@@@@@@@@@@@@@@@@###################",
"@@@@@@@@@@@@@@@@@@@@@###################",
"@@@@@@@@@@@@@@@@@@@@@@##################",
"@@@@@@@@@@@@@@@@@@@@@@@#################",
"@@@@@@@@@@@@@@@@@@@@@$@@################",
"@@@@@@@@@@@@@@@@@@@@@@@@################",
"@@@@@@@@@@@@@@@@@@@@@@@@@###############",
"@@@@@@@@@@@@@@@@@@@@@@@@@@##############",
"@@@@@@@@@@@@@@@@@@@@@@@@@@##############",
"@@@@@@@@@@@@@@@@@@@@@@@@@@@#############",
"@@@@@@@@@@@@@@@@@@@@@@@@@@@@############",
"@@@@@@@@@@@@@@@@@@@@@@@@@@@.............",
"@@@@@@@@@@@@@@@@@@@@@@@@@@@@@@@@@@@@@@@@",
"@@@@@@@@@@@@@@@@@@@@@@@@@@@@@@@@@@@@@@@@",
"@@@@@@@@@@@@@@@@@@@@@@@@@@@@@@@@@@@@@@@@",
"@@@@@@@@@@@@@@@@@@@@@@@@@@@@@@@@@@@@@@@@",
"........................................"};
