/* XPM */
static char * title_4_active_xpm[] = {
"40 30 6 1",
" 	c None",
".	c #FDFEFE",
"+	c #FFFFFF",
"@	c #333333",
"#	c #cc66cc",
"$	c #333537",
"                             .++++++++++",
"                            @@@@@@@@@@@@",
"                           @@@@@@@@@@@@@",
"##########################@@@@@@@@@@@@@@",
"#########################@@@@@@@@@@@@@@@",
"#########################@@@@@@@@@@@@@@@",
"########################@@@@@@@@@@@@@@@@",
"#######################@@@@@@@@@@@@@@@@@",
"#######################@@@@@@@@@@@@@@@@@",
"######################@@@@@@@@@@@@@@@@@@",
"#####################@@@@@@@@@@@@@@@@@@@",
"#####################@@@@@@@@@@@@@@@@@@@",
"####################@@@@@@@@@@@@@@@@@@@@",
"###################@@@@@@@@@@@@@@@@@@@@@",
"###################@@@@@@@@@@@@@@@@@@@@@",
"##################@@@@@@@@@@@@@@@@@@@@@@",
"#################@@@@@@@@@@@@@@@@@@@@@@@",
"################@@$@@@@@@@@@@@@@@@@@@@@@",
"################@@@@@@@@@@@@@@@@@@@@@@@@",
"###############@@@@@@@@@@@@@@@@@@@@@@@@@",
"##############@@@@@@@@@@@@@@@@@@@@@@@@@@",
"##############@@@@@@@@@@@@@@@@@@@@@@@@@@",
"#############@@@@@@@@@@@@@@@@@@@@@@@@@@@",
"############@@@@@@@@@@@@@@@@@@@@@@@@@@@@",
"+++++++++++++@@@@@@@@@@@@@@@@@@@@@@@@@@@",
"@@@@@@@@@@@@@@@@@@@@@@@@@@@@@@@@@@@@@@@@",
"@@@@@@@@@@@@@@@@@@@@@@@@@@@@@@@@@@@@@@@@",
"@@@@@@@@@@@@@@@@@@@@@@@@@@@@@@@@@@@@@@@@",
"@@@@@@@@@@@@@@@@@@@@@@@@@@@@@@@@@@@@@@@@",
"++++++++++++++++++++++++++++++++++++++++"};
