/* XPM */
static char * bottom_right_active_xpm[] = {
"5 5 5 1",
" 	c None",
".	c #000000",
"+	c #A1A1A1",
"@	c #9F9F9F",
"#	c #020202",
"..+. ",
"..+. ",
"@@.. ",
"#..  ",
"     "};
