/* XPM */
static char * close_pressed_xpm[] = {
"26 16 72 1",
" 	c #939393",
".	c #878787",
"+	c #777777",
"@	c #000000",
"#	c #797979",
"$	c #FFFFFF",
"%	c #DEDEDE",
"&	c #E4E4E4",
"*	c #7D7D7D",
"=	c #E0E0E0",
"-	c #585858",
";	c #646464",
">	c #717171",
",	c #707070",
"'	c #E8E8E8",
")	c #545454",
"!	c #696969",
"~	c #737373",
"{	c #6B6B6B",
"]	c #7E7E7E",
"^	c #676767",
"/	c #EEEEEE",
"(	c #3C3C3C",
"_	c #565656",
":	c #616161",
"<	c #444444",
"[	c #5A5A5A",
"}	c #F5F5F5",
"|	c #1F1F1F",
"1	c #414141",
"2	c #4B4B4B",
"3	c #3E3E3E",
"4	c #515151",
"5	c #FFF9F6",
"6	c #0C0000",
"7	c #38241B",
"8	c #402C23",
"9	c #2E211B",
"0	c #FFF8F1",
"a	c #000C30",
"b	c #00304D",
"c	c #00395A",
"d	c #002F57",
"e	c #3B3B3B",
"f	c #FFF2E5",
"g	c #002C5C",
"h	c #00496D",
"i	c #00557E",
"j	c #004B7E",
"k	c #2E2E2E",
"l	c #FFE9D8",
"m	c #004B89",
"n	c #00618D",
"o	c #006D9F",
"p	c #00559A",
"q	c #2A2A2A",
"r	c #FFE0CB",
"s	c #006DB9",
"t	c #0079B1",
"u	c #0085C2",
"v	c #0081CA",
"w	c #0091D4",
"x	c #272727",
"y	c #FAD9CA",
"z	c #0091FF",
"A	c #0097F9",
"B	c #00A6FF",
"C	c #191919",
"D	c #FFFBF3",
"E	c #FAD6C5",
"F	c #FFD7BE",
"G	c #101010",
"                        .+",
"@@@@@@@@@@@@@@@@@@@@@@@@@#",
"@$%&&&&&&&&&&&&&&&&&&&%$@*",
"@=-;;;;;;>>>;>>>;;;;;;-=@,",
"@')!!!!!~{@{]{@{~!!!!!)'@^",
"@/(_____:@$@<@$@:_____(/@[",
"@}|1111123@$@$@3211111|}@4",
"@5677777789@$@9877777765@<",
"@0abbbbbbcd@$@dcbbbbbba0@e",
"@fghhhhhij@$@$@jihhhhhgf@k",
"@lmnnnnno@$@p@$@onnnnnml@q",
"@rstttttuv@vwv@vutttttsr@x",
"@yzAAAAAABBBABBBAAAAAAzy@C",
"@DEFFFFFFFFFFFFFFFFFFFED@G",
"@@@@@@@@@@@@@@@@@@@@@@@@@@",
"@@@@@@@@@@@@@@@@@@@@@@@@@@"};
