/* XPM */
static char * close_prelight_xpm[] = {
"25 14 40 1",
" 	c #000000",
".	c #FFFFFF",
"+	c #767676",
"@	c #8B8B8B",
"#	c #A3A3A3",
"$	c #6F6F6F",
"%	c #949494",
"&	c #A6A6A6",
"*	c #989898",
"=	c #BABABA",
"-	c #444444",
";	c #727272",
">	c #868686",
",	c #525252",
"'	c #101010",
")	c #4D4D4D",
"!	c #5F5F5F",
"~	c #474747",
"{	c #3D1909",
"]	c #4B2717",
"^	c #2B1309",
"/	c #00002E",
"(	c #002E62",
"_	c #003E7A",
":	c #002C74",
"<	c #00277D",
"[	c #005B9C",
"}	c #0071BA",
"|	c #005FBA",
"1	c #005FCE",
"2	c #0086D5",
"3	c #009CF5",
"4	c #0071EC",
"5	c #009CFF",
"6	c #00B1FF",
"7	c #00C7FF",
"8	c #00BFFF",
"9	c #00DCFF",
"0	c #00E7FF",
"a	c #00FFFF",
"                         ",
" ....................... ",
" .+@@@@@@###@###@@@@@@+. ",
" .$%%%%%&* *=* *&%%%%%$. ",
" .-;;;;;> . , . >;;;;;-. ",
" .')))))!~ . . ~!)))))'. ",
" . {{{{{{]^ . ^]{{{{{{ . ",
" ./((((((_: . :_((((((/. ",
" .<[[[[[}| . . |}[[[[[<. ",
" .1222223 . 4 . 3222221. ",
" .56666678 898 87666665. ",
" .9000000aaa0aaa0000009. ",
" ....................... ",
"                         "};
