/* XPM */
static char * hide_prelight_xpm[] = {
"26 16 44 1",
" 	c #B3B3B3",
".	c #CACACA",
"+	c #E0E0E0",
"@	c #B5B5B5",
"#	c #000000",
"$	c #BEBEBE",
"%	c #FFFFFF",
"&	c #A6A6A6",
"*	c #767676",
"=	c #8B8B8B",
"-	c #969696",
";	c #6F6F6F",
">	c #949494",
",	c #7F7F7F",
"'	c #444444",
")	c #727272",
"!	c #101010",
"~	c #4D4D4D",
"{	c #575757",
"]	c #3D1909",
"^	c #474747",
"/	c #00002E",
"(	c #002E62",
"_	c #003E7A",
":	c #004F93",
"<	c #0060AC",
"[	c #2E2E2E",
"}	c #00277D",
"|	c #005B9C",
"1	c #0071BA",
"2	c #005FBA",
"3	c #272727",
"4	c #005FCE",
"5	c #0086D5",
"6	c #009CF5",
"7	c #222222",
"8	c #009CFF",
"9	c #00B1FF",
"0	c #00C7FF",
"a	c #00BFFF",
"b	c #090909",
"c	c #00DCFF",
"d	c #00E7FF",
"e	c #00FFFF",
" .++++++++++++++++++++++++",
"@#########################",
"$#%%%%%%%%%%%%%%%%%%%%%%%#",
"&#%*===================*%#",
"-#%;>>>>>>>>>>>>>>>>>>>;%#",
",#%')))))))))))))))))))'%#",
";#%!~~~~~~~~~~~~~~~~~~~!%#",
"{#%#]]]]]]]]]]]]]]]]]]]#%#",
"^#%/(((((_:<<<<<:_(((((/%#",
"[#%}||||12#######21||||}%#",
"3#%455556#%%%%%%%#655554%#",
"7#%899990a#######a099998%#",
"b#%cdddddeeeeeeeeedddddc%#",
"##%%%%%%%%%%%%%%%%%%%%%%%#",
"##########################",
"##########################"};
