/* XPM */
static char * hide_active_xpm[] = {
"26 16 63 1",
" 	c #7A7A7A",
".	c #878787",
"+	c #939393",
"@	c #7B7B7B",
"#	c #000000",
"$	c #808080",
"%	c #FFFFFF",
"&	c #DEDEDE",
"*	c #E4E4E4",
"=	c #737373",
"-	c #E0E0E0",
";	c #585858",
">	c #646464",
",	c #6A6A6A",
"'	c #E8E8E8",
")	c #545454",
"!	c #696969",
"~	c #5D5D5D",
"{	c #EEEEEE",
"]	c #3C3C3C",
"^	c #565656",
"/	c #F5F5F5",
"(	c #1F1F1F",
"_	c #414141",
":	c #474747",
"<	c #FFF9F6",
"[	c #0C0000",
"}	c #38241B",
"|	c #3E3E3E",
"1	c #FFF8F1",
"2	c #000C30",
"3	c #00304D",
"4	c #00395A",
"5	c #004268",
"6	c #004C76",
"7	c #303030",
"8	c #FFF2E5",
"9	c #002C5C",
"0	c #00496D",
"a	c #00557E",
"b	c #004B7E",
"c	c #2C2C2C",
"d	c #FFE9D8",
"e	c #004B89",
"f	c #00618D",
"g	c #006D9F",
"h	c #292929",
"i	c #FFE0CB",
"j	c #006DB9",
"k	c #0079B1",
"l	c #0085C2",
"m	c #0081CA",
"n	c #1B1B1B",
"o	c #FAD9CA",
"p	c #0091FF",
"q	c #0097F9",
"r	c #00A6FF",
"s	c #00B5FF",
"t	c #00C4FF",
"u	c #131313",
"v	c #FFFBF3",
"w	c #FAD6C5",
"x	c #FFD7BE",
" .++++++++++++++++++++++++",
"@#########################",
"$#%&*******************&%#",
"=#-;>>>>>>>>>>>>>>>>>>>;-#",
",#')!!!!!!!!!!!!!!!!!!!)'#",
"~#{]^^^^^^^^^^^^^^^^^^^]{#",
")#/(___________________(/#",
":#<[}}}}}}}}}}}}}}}}}}}[<#",
"|#12333334566666543333321#",
"7#890000ab#######ba000098#",
"c#deffffg#%%%%%%%#gffffed#",
"h#ijkkkklm#######mlkkkkji#",
"n#opqqqqqrstttttsrqqqqqpo#",
"u#vwxxxxxxxxxxxxxxxxxxxwv#",
"##########################",
"##########################"};
