/* XPM */
static char * maximize_active_xpm[] = {
"25 16 57 1",
" 	c #939393",
".	c #000000",
"+	c #FFFFFF",
"@	c #DEDEDE",
"#	c #E4E4E4",
"$	c #E0E0E0",
"%	c #585858",
"&	c #646464",
"*	c #717171",
"=	c #7E7E7E",
"-	c #8A8A8A",
";	c #E8E8E8",
">	c #545454",
",	c #696969",
"'	c #737373",
")	c #6B6B6B",
"!	c #EEEEEE",
"~	c #3C3C3C",
"{	c #565656",
"]	c #F5F5F5",
"^	c #1F1F1F",
"/	c #414141",
"(	c #595959",
"_	c #010101",
":	c #FFF9F6",
"<	c #0C0000",
"[	c #38241B",
"}	c #463933",
"|	c #FFF8F1",
"1	c #000C30",
"2	c #00304D",
"3	c #00456A",
"4	c #00000A",
"5	c #FFF2E5",
"6	c #002C5C",
"7	c #00496D",
"8	c #006596",
"9	c #00001A",
"0	c #000E42",
"a	c #FFE9D8",
"b	c #004B89",
"c	c #00618D",
"d	c #0076AD",
"e	c #FFE0CB",
"f	c #006DB9",
"g	c #0079B1",
"h	c #0085C2",
"i	c #0081CA",
"j	c #FAD9CA",
"k	c #0091FF",
"l	c #0097F9",
"m	c #00A6FF",
"n	c #00B5FF",
"o	c #00C4FF",
"p	c #FFFBF3",
"q	c #FAD6C5",
"r	c #FFD7BE",
"                         ",
".........................",
".+@###################@+.",
".$%&&&&&*=-----=*&&&&&%$.",
".;>,,,,').......)',,,,>;.",
".!~{{{{,.+++++++.,{{{{~!.",
".]^////(.+.___.+.(////^].",
".:<[[[[}.+.[[[.+.}[[[[<:.",
".|122223.+42224+.322221|.",
".5677778.+90009+.8777765.",
".abccccd.+++++++.dccccba.",
".efgggghi.......ihggggfe.",
".jklllllmnooooonmlllllkj.",
".pqrrrrrrrrrrrrrrrrrrrqp.",
".........................",
"........................."};
