/* XPM */
static char * maximize_prelight_xpm[] = {
"25 16 37 1",
" 	c #E0E0E0",
".	c #000000",
"+	c #FFFFFF",
"@	c #767676",
"#	c #8B8B8B",
"$	c #A3A3A3",
"%	c #BABABA",
"&	c #D0D0D0",
"*	c #6F6F6F",
"=	c #949494",
"-	c #A6A6A6",
";	c #989898",
">	c #444444",
",	c #727272",
"'	c #101010",
")	c #4D4D4D",
"!	c #787878",
"~	c #3D1909",
"{	c #563E34",
"]	c #00002E",
"^	c #002E62",
"/	c #005496",
"(	c #00277D",
"_	c #005B9C",
":	c #008DE5",
"<	c #000007",
"[	c #00004F",
"}	c #005FCE",
"|	c #0086D5",
"1	c #00ACFF",
"2	c #009CFF",
"3	c #00B1FF",
"4	c #00C7FF",
"5	c #00BFFF",
"6	c #00DCFF",
"7	c #00E7FF",
"8	c #00FFFF",
"                         ",
".........................",
".+++++++++++++++++++++++.",
".+@#####$%&&&&&%$#####@+.",
".+*====-;.......;-====*+.",
".+>,,,,=.+++++++.=,,,,>+.",
".+'))))!.+.....+.!))))'+.",
".+.~~~~{.+.~~~.+.{~~~~.+.",
".+]^^^^/.+.^^^.+./^^^^]+.",
".+(____:.+<[[[<+.:____(+.",
".+}||||1.+++++++.1||||}+.",
".+2333345.......5433332+.",
".+677777888888888777776+.",
".+++++++++++++++++++++++.",
".........................",
"........................."};
