/* XPM */
static char * right_active_xpm[] = {
"5 1 2 1",
" 	c #000000",
".	c #A1A1A1",
"   . "};
