/* XPM */
static char * shade_prelight_xpm[] = {
"27 16 62 1",
" 	c #AEAEAE",
".	c #CACACA",
"+	c #E0E0E0",
"@	c #B3B3B3",
"#	c #B1B1B1",
"$	c #000000",
"%	c #B5B5B5",
"&	c #B8B8B8",
"*	c #FFFFFF",
"=	c #BEBEBE",
"-	c #A1A1A1",
";	c #6D6D6D",
">	c #868686",
",	c #A6A6A6",
"'	c #919191",
")	c #696969",
"!	c #949494",
"~	c #969696",
"{	c #7A7A7A",
"]	c #3E3E3E",
"^	c #727272",
"/	c #818181",
"(	c #7F7F7F",
"_	c #0A0A0A",
":	c #4D4D4D",
"<	c #565656",
"[	c #353535",
"}	c #6F6F6F",
"|	c #525252",
"1	c #3D1909",
"2	c #3D251B",
"3	c #0E0100",
"4	c #575757",
"5	c #424242",
"6	c #000029",
"7	c #002E62",
"8	c #003E7A",
"9	c #00226B",
"0	c #000030",
"a	c #474747",
"b	c #2B2B2B",
"c	c #002278",
"d	c #005B9C",
"e	c #006DB3",
"f	c #004B9D",
"g	c #0074BE",
"h	c #2E2E2E",
"i	c #232323",
"j	c #0059C8",
"k	c #0086D5",
"l	c #0096EE",
"m	c #0083EC",
"n	c #272727",
"o	c #1E1E1E",
"p	c #0096FF",
"q	c #00B1FF",
"r	c #00C7FF",
"s	c #222222",
"t	c #050505",
"u	c #00D3FF",
"v	c #00E2FF",
"w	c #090909",
" .+++++++++++++++++++++++.@",
"#$$$$$$$$$$$$$$$$$$$$$$$$$%",
"&$***********************$=",
"-$*;>>>>>>>>>>>>>>>>>>>;*$,",
"'$*)!!!!!!!!,,,!!!!!!!!)*$~",
"{$*]^^^^^^^/)$)/^^^^^^^]*$(",
")$*_::::::<[$*$[<::::::_*$}",
"|$*$1111123$*$*$3211111$*$4",
"5$*6777789$*$0$*$9877776*$a",
"b$*cdddde$*$fgf$*$eddddc*$h",
"i$*jkkkklm$mlklm$mlkkkkj*$n",
"o$*pqqqqqrrrqqqrrrqqqqqp*$s",
"t$*uvvvvvvvvvvvvvvvvvvvu*$w",
"$$***********************$$",
"$$$$$$$$$$$$$$$$$$$$$$$$$$$",
"$$$$$$$$$$$$$$$$$$$$$$$$$$$"};
