/* XPM */
static char * shade_pressed_xpm[] = {
"27 16 76 1",
" 	c #777777",
".	c #878787",
"+	c #939393",
"@	c #7A7A7A",
"#	c #797979",
"$	c #000000",
"%	c #7B7B7B",
"&	c #7D7D7D",
"*	c #FFFFFF",
"=	c #EBEBEB",
"-	c #F2F2F2",
";	c #808080",
">	c #707070",
",	c #EDEDED",
"'	c #535353",
")	c #616161",
"!	c #737373",
"~	c #676767",
"{	c #F6F6F6",
"]	c #515151",
"^	c #696969",
"/	c #6A6A6A",
"(	c #5A5A5A",
"_	c #FCFCFC",
":	c #393939",
"<	c #565656",
"[	c #5E5E5E",
"}	c #5D5D5D",
"|	c #1C1C1C",
"1	c #414141",
"2	c #464646",
"3	c #343434",
"4	c #545454",
"5	c #444444",
"6	c #090000",
"7	c #38241B",
"8	c #382B25",
"9	c #1E1714",
"0	c #474747",
"a	c #3B3B3B",
"b	c #00092D",
"c	c #00304D",
"d	c #00395A",
"e	c #002952",
"f	c #000F31",
"g	c #3E3E3E",
"h	c #2E2E2E",
"i	c #FFFFF3",
"j	c #002959",
"k	c #00496D",
"l	c #00537A",
"m	c #00406E",
"n	c #005780",
"o	c #303030",
"p	c #2A2A2A",
"q	c #FFF7E6",
"r	c #004886",
"s	c #00618D",
"t	c #006A9B",
"u	c #005F9A",
"v	c #2C2C2C",
"w	c #272727",
"x	c #FFEED9",
"y	c #006AB6",
"z	c #0079B1",
"A	c #0085C2",
"B	c #292929",
"C	c #191919",
"D	c #FFE6D7",
"E	c #008CFE",
"F	c #0094F6",
"G	c #1B1B1B",
"H	c #101010",
"I	c #FFE3D2",
"J	c #FFE5CC",
"K	c #131313",
" .+++++++++++++++++++++++.@",
"#$$$$$$$$$$$$$$$$$$$$$$$$$%",
"&$*=-------------------=*$;",
">$,')))))))))))))))))))',$!",
"~${]^^^^^^^^!!!^^^^^^^^]{$/",
"($_:<<<<<<<[]$][<<<<<<<:_$}",
"]$*|11111123$*$32111111|*$4",
"5$*67777789$*$*$98777776*$0",
"a$*bccccde$*$f$*$edccccb*$g",
"h$ijkkkkl$*$mnm$*$lkkkkji$o",
"p$qrsssstu$utstu$utssssrq$v",
"w$xyzzzzzAAAzzzAAAzzzzzyx$B",
"C$DEFFFFFFFFFFFFFFFFFFFED$G",
"H$*IJJJJJJJJJJJJJJJJJJJI*$K",
"$$$$$$$$$$$$$$$$$$$$$$$$$$$",
"$$$$$$$$$$$$$$$$$$$$$$$$$$$"};
