/* XPM */
static char * title_1_inactive_xpm[] = {
"1 32 21 1",
" 	c #000000",
".	c #CECECE",
"+	c #8E8E8E",
"@	c #838383",
"#	c #7E7E7E",
"$	c #737373",
"%	c #6E6E6E",
"&	c #636363",
"*	c #5E5E5E",
"=	c #535353",
"-	c #4E4E4E",
";	c #434343",
">	c #3E3E3E",
",	c #333333",
"'	c #2E2E2E",
")	c #222222",
"!	c #202020",
"~	c #1F1F1F",
"{	c #131313",
"]	c #0F0F0F",
"^	c #596064",
" ",
".",
"+",
"@",
"#",
"$",
"%",
"&",
"*",
"=",
"-",
";",
">",
",",
"'",
")",
"!",
"~",
"{",
"]",
" ",
" ",
" ",
" ",
" ",
" ",
" ",
" ",
" ",
" ",
" ",
"^"};
