/* XPM */
static char * title_4_active_xpm[] = {
"7 32 78 1",
" 	c #000000",
".	c #CECECE",
"+	c #8E8E8E",
"@	c #838383",
"#	c #A9A9A9",
"$	c #9B9B9B",
"%	c #8C8C8C",
"&	c #7E7E7E",
"*	c #8F8F8F",
"=	c #737373",
"-	c #EDEDED",
";	c #E8E8E8",
">	c #FFFFFF",
",	c #969696",
"'	c #6E6E6E",
")	c #707070",
"!	c #666666",
"~	c #E9E9E9",
"{	c #898989",
"]	c #636363",
"^	c #767676",
"/	c #EFEFEF",
"(	c #808080",
"_	c #5E5E5E",
":	c #5D5D5D",
"<	c #F2F2F2",
"[	c #535353",
"}	c #6A6A6A",
"|	c #555555",
"1	c #F4F4F4",
"2	c #4E4E4E",
"3	c #4B4B4B",
"4	c #F6F6F6",
"5	c #434343",
"6	c #424242",
"7	c #F9F9F9",
"8	c #545454",
"9	c #3E3E3E",
"0	c #353535",
"a	c #FCFCFC",
"b	c #474747",
"c	c #333333",
"d	c #4D4D4D",
"e	c #2B2B2B",
"f	c #2E2E2E",
"g	c #383838",
"h	c #111111",
"i	c #303030",
"j	c #222222",
"k	c #2C211B",
"l	c #2C2C2C",
"m	c #202020",
"n	c #001728",
"o	c #292929",
"p	c #1F1F1F",
"q	c #002C41",
"r	c #00001B",
"s	c #1B1B1B",
"t	c #131313",
"u	c #00334C",
"v	c #000B2D",
"w	c #FFFFFE",
"x	c #0F0F0F",
"y	c #004563",
"z	c #00214C",
"A	c #FFFFF7",
"B	c #005177",
"C	c #003367",
"D	c #FFFDEF",
"E	c #005D88",
"F	c #004480",
"G	c #FFF8E7",
"H	c #0062AB",
"I	c #0053A8",
"J	c #FFEEE2",
"K	c #FFF2DF",
"L	c #FFECDF",
"M	c #596064",
"       ",
".......",
"+++++++",
"@@@@@@@",
"####$%&",
"     *=",
"--;> ,'",
"))!~ {]",
"^^!/ (_",
")):< =[",
"}}|1 }2",
"]]34 :5",
"::67 89",
"[[0a bc",
"dde> 9f",
"ggh> ij",
"kk > lm",
"nn > op",
"qqr> st",
"uuvw tx",
"yyzA   ",
"BBCD   ",
"EEFG   ",
"HHIJ   ",
"KKL>   ",
"       ",
"       ",
"       ",
"       ",
"       ",
"       ",
"MMMMMMM"};
