/* XPM */
static char * title_2_inactive_xpm[] = {
"7 32 78 1",
" 	c #000000",
".	c #CECECE",
"+	c #8E8E8E",
"@	c #838383",
"#	c #7E7E7E",
"$	c #8C8C8C",
"%	c #9B9B9B",
"&	c #A9A9A9",
"*	c #737373",
"=	c #8F8F8F",
"-	c #6E6E6E",
";	c #969696",
">	c #FFFFFF",
",	c #E8E8E8",
"'	c #EDEDED",
")	c #636363",
"!	c #898989",
"~	c #E9E9E9",
"{	c #666666",
"]	c #707070",
"^	c #5E5E5E",
"/	c #808080",
"(	c #EFEFEF",
"_	c #767676",
":	c #535353",
"<	c #F2F2F2",
"[	c #5D5D5D",
"}	c #4E4E4E",
"|	c #6A6A6A",
"1	c #F4F4F4",
"2	c #555555",
"3	c #434343",
"4	c #F6F6F6",
"5	c #4B4B4B",
"6	c #3E3E3E",
"7	c #545454",
"8	c #F9F9F9",
"9	c #424242",
"0	c #333333",
"a	c #474747",
"b	c #FCFCFC",
"c	c #353535",
"d	c #2E2E2E",
"e	c #2B2B2B",
"f	c #4D4D4D",
"g	c #222222",
"h	c #303030",
"i	c #111111",
"j	c #383838",
"k	c #202020",
"l	c #2C2C2C",
"m	c #2C211B",
"n	c #1F1F1F",
"o	c #292929",
"p	c #001728",
"q	c #131313",
"r	c #1B1B1B",
"s	c #00001B",
"t	c #002C41",
"u	c #0F0F0F",
"v	c #FFFFFE",
"w	c #000B2D",
"x	c #00334C",
"y	c #FFFFF7",
"z	c #00214C",
"A	c #004563",
"B	c #FFFDEF",
"C	c #003367",
"D	c #005177",
"E	c #FFF8E7",
"F	c #004480",
"G	c #005D88",
"H	c #FFEEE2",
"I	c #0053A8",
"J	c #0062AB",
"K	c #FFECDF",
"L	c #FFF2DF",
"M	c #596064",
"       ",
".......",
"+++++++",
"@@@@@@@",
"#$%&&&&",
"*=     ",
"-; >,''",
")! ~{]]",
"^/ ({__",
":* <[]]",
"}| 12||",
"3[ 45))",
"67 89[[",
"0a bc::",
"d6 >eff",
"gh >ijj",
"kl > mm",
"no > pp",
"qr >stt",
"uq vwxx",
"   yzAA",
"   BCDD",
"   EFGG",
"   HIJJ",
"   >KLL",
"       ",
"       ",
"       ",
"       ",
"       ",
"       ",
"MMMMMMM"};
