/* XPM */
static char * title_3_active_xpm[] = {
"1 32 24 1",
" 	c #000000",
".	c #CECECE",
"+	c #8E8E8E",
"@	c #838383",
"#	c #A9A9A9",
"$	c #EDEDED",
"%	c #707070",
"&	c #767676",
"*	c #6A6A6A",
"=	c #636363",
"-	c #5D5D5D",
";	c #535353",
">	c #4D4D4D",
",	c #383838",
"'	c #2C211B",
")	c #001728",
"!	c #002C41",
"~	c #00334C",
"{	c #004563",
"]	c #005177",
"^	c #005D88",
"/	c #0062AB",
"(	c #FFF2DF",
"_	c #596064",
" ",
".",
"+",
"@",
"#",
" ",
"$",
"%",
"&",
"%",
"*",
"=",
"-",
";",
">",
",",
"'",
")",
"!",
"~",
"{",
"]",
"^",
"/",
"(",
" ",
" ",
" ",
" ",
" ",
" ",
"_"};
