/* XPM */
static char * top_left_inactive_xpm[] = {
"6 31 78 1",
" 	c None",
".	c #000000",
"+	c #E0E0E0",
"@	c #E1E1E1",
"#	c #BEBEBE",
"$	c #9E9E9E",
"%	c #D5D5D5",
"&	c #A0A0A0",
"*	c #919191",
"=	c #808080",
"-	c #AAAAAA",
";	c #838383",
">	c #868686",
",	c #7B7B7B",
"'	c #7E7E7E",
")	c #959595",
"!	c #818181",
"~	c #707070",
"{	c #757575",
"]	c #7D7D7D",
"^	c #737373",
"/	c #767676",
"(	c #777777",
"_	c #787878",
":	c #747474",
"<	c #6E6E6E",
"[	c #717171",
"}	c #797979",
"|	c #676767",
"1	c #636363",
"2	c #666666",
"3	c #5E5E5E",
"4	c #616161",
"5	c #515151",
"6	c #535353",
"7	c #565656",
"8	c #848484",
"9	c #484848",
"0	c #4E4E4E",
"a	c #5A5A5A",
"b	c #878787",
"c	c #3B3B3B",
"d	c #434343",
"e	c #464646",
"f	c #8A8A8A",
"g	c #323232",
"h	c #3E3E3E",
"i	c #414141",
"j	c #444444",
"k	c #8D8D8D",
"l	c #252525",
"m	c #333333",
"n	c #363636",
"o	c #909090",
"p	c #1C1C1C",
"q	c #2E2E2E",
"r	c #303030",
"s	c #939393",
"t	c #0E0E0E",
"u	c #222222",
"v	c #242424",
"w	c #2A2A2A",
"x	c #090909",
"y	c #202020",
"z	c #272727",
"A	c #979797",
"B	c #070707",
"C	c #1F1F1F",
"D	c #191919",
"E	c #999999",
"F	c #131313",
"G	c #171717",
"H	c #101010",
"I	c #9D9D9D",
"J	c #0F0F0F",
"K	c #121212",
"L	c #9F9F9F",
"M	c #A1A1A1",
"    ..",
"  ...+",
" ..@#$",
" .%&*=",
"..-;>,",
".')'!~",
".{]^/(",
"._:<[}",
".,|12]",
".'334~",
".!567|",
".8905a",
".bcde5",
".fghij",
".klmnc",
".opqrq",
".stuvw",
".)xyuz",
".ABCuD",
".E.FGH",
".I.JK.",
".L....",
".M....",
".M....",
".M....",
".M....",
".M....",
".M....",
".M....",
".M....",
".M...."};
