/* XPM */
static char * top_right_inactive_xpm[] = {
"6 31 78 1",
" 	c None",
".	c #000000",
"+	c #E0E0E0",
"@	c #9E9E9E",
"#	c #BEBEBE",
"$	c #E1E1E1",
"%	c #808080",
"&	c #919191",
"*	c #A0A0A0",
"=	c #D5D5D5",
"-	c #7B7B7B",
";	c #868686",
">	c #838383",
",	c #AAAAAA",
"'	c #707070",
")	c #818181",
"!	c #7E7E7E",
"~	c #959595",
"{	c #777777",
"]	c #767676",
"^	c #737373",
"/	c #7D7D7D",
"(	c #757575",
"_	c #797979",
":	c #717171",
"<	c #6E6E6E",
"[	c #747474",
"}	c #787878",
"|	c #666666",
"1	c #636363",
"2	c #676767",
"3	c #616161",
"4	c #5E5E5E",
"5	c #565656",
"6	c #535353",
"7	c #515151",
"8	c #5A5A5A",
"9	c #4E4E4E",
"0	c #484848",
"a	c #848484",
"b	c #464646",
"c	c #434343",
"d	c #3B3B3B",
"e	c #878787",
"f	c #444444",
"g	c #414141",
"h	c #3E3E3E",
"i	c #323232",
"j	c #8A8A8A",
"k	c #363636",
"l	c #333333",
"m	c #252525",
"n	c #8D8D8D",
"o	c #2E2E2E",
"p	c #303030",
"q	c #1C1C1C",
"r	c #909090",
"s	c #2A2A2A",
"t	c #242424",
"u	c #222222",
"v	c #0E0E0E",
"w	c #939393",
"x	c #272727",
"y	c #202020",
"z	c #090909",
"A	c #191919",
"B	c #1F1F1F",
"C	c #070707",
"D	c #979797",
"E	c #101010",
"F	c #171717",
"G	c #131313",
"H	c #999999",
"I	c #121212",
"J	c #0F0F0F",
"K	c #9D9D9D",
"L	c #9F9F9F",
"M	c #A1A1A1",
"..    ",
"+...  ",
"@#$.. ",
"%&*=. ",
"-;>,..",
"')!~!.",
"{]^/(.",
"_:<[}.",
"/|12-.",
"'344!.",
"2567).",
"8790a.",
"7bcde.",
"fghij.",
"dklmn.",
"opoqr.",
"stuvw.",
"xuyz~.",
"AuBCD.",
"EFG.H.",
".IJ.K.",
"....L.",
"....M.",
"....M.",
"....M.",
"....M.",
"....M.",
"....M.",
"....M.",
"....M.",
"....M."};
