/* XPM */
static char * bottom_left_active_xpm[] = {
"15 198 554 2",
"  	c None",
". 	c #9C5556",
"+ 	c #CC1D1A",
"@ 	c #FF7095",
"# 	c #F9C1D6",
"$ 	c #FDE9F1",
"% 	c #FF9DA1",
"& 	c #C41E1E",
"* 	c #A22B2C",
"= 	c #2E080F",
"- 	c #182825",
"; 	c #30302F",
"> 	c #1C1C1C",
", 	c #AC0B09",
"' 	c #A05455",
") 	c #9C3940",
"! 	c #FF726B",
"~ 	c #F9CFE1",
"{ 	c #FAC2D8",
"] 	c #FFA0A3",
"^ 	c #182724",
"/ 	c #272524",
"( 	c #1B1B1C",
"_ 	c #A95457",
": 	c #A63C49",
"< 	c #FF4A6B",
"[ 	c #F9B9C8",
"} 	c #FACCE2",
"| 	c #FFA5A8",
"1 	c #C61C1B",
"2 	c #A4282A",
"3 	c #30060D",
"4 	c #7D4E58",
"5 	c #8C4908",
"6 	c #FF4448",
"7 	c #FE9D9C",
"8 	c #F8B2C1",
"9 	c #FFACAD",
"0 	c #CB221F",
"a 	c #8C5454",
"b 	c #34080E",
"c 	c #192826",
"d 	c #272624",
"e 	c #854D5B",
"f 	c #73383E",
"g 	c #C2161A",
"h 	c #FFACB0",
"i 	c #F8C0D2",
"j 	c #FF81A7",
"k 	c #A80C0A",
"l 	c #801E22",
"m 	c #270001",
"n 	c #1B2A27",
"o 	c #282625",
"p 	c #1C1D1D",
"q 	c #796951",
"r 	c #7E3D41",
"s 	c #D12424",
"t 	c #FF8183",
"u 	c #FBA7A9",
"v 	c #FF8383",
"w 	c #AD1412",
"x 	c #872127",
"y 	c #2C0005",
"z 	c #1D2928",
"A 	c #80664E",
"B 	c #8A3C41",
"C 	c #B81615",
"D 	c #C6575D",
"E 	c #FF807F",
"F 	c #FF9090",
"G 	c #B31616",
"H 	c #6A3527",
"I 	c #1C0D0D",
"J 	c #1E2827",
"K 	c #6B7874",
"L 	c #633540",
"M 	c #8F171B",
"N 	c #C92B29",
"O 	c #FF6584",
"P 	c #FF6D8C",
"Q 	c #7D1316",
"R 	c #713326",
"S 	c #1F0B0C",
"T 	c #1F2827",
"U 	c #5B4548",
"V 	c #675439",
"W 	c #854245",
"X 	c #B91916",
"Y 	c #CC6467",
"Z 	c #FF6463",
"` 	c #841618",
" .	c #773225",
"..	c #220A0A",
"+.	c #273335",
"@.	c #765A3F",
"#.	c #5F3B45",
"$.	c #991C1C",
"%.	c #A34B56",
"&.	c #FF6D70",
"*.	c #8F171A",
"=.	c #524544",
"-.	c #250909",
";.	c #202827",
">.	c #282725",
",.	c #182124",
"'.	c #6B3A3A",
").	c #72404A",
"!.	c #821116",
"~.	c #5C080C",
"{.	c #FF767F",
"].	c #6D060C",
"^.	c #5B4443",
"/.	c #290907",
"(.	c #1B2425",
"_.	c #292725",
":.	c #363B3A",
"<.	c #402519",
"[.	c #5B3C3B",
"}.	c #70291B",
"|.	c #572417",
"1.	c #E05C6C",
"2.	c #642213",
"3.	c #684544",
"4.	c #150000",
"5.	c #1E2425",
"6.	c #585A5B",
"7.	c #000000",
"8.	c #6F3F3F",
"9.	c #573A3B",
"0.	c #73291D",
"a.	c #752F22",
"b.	c #441314",
"c.	c #4D4243",
"d.	c #091313",
"e.	c #212424",
"f.	c #696767",
"g.	c #553C3C",
"h.	c #40383A",
"i.	c #521418",
"j.	c #561E21",
"k.	c #3C020C",
"l.	c #5B4444",
"m.	c #0A0F0F",
"n.	c #232424",
"o.	c #292826",
"p.	c #6D6E6D",
"q.	c #1E211F",
"r.	c #111919",
"s.	c #543E3F",
"t.	c #3E281E",
"u.	c #423329",
"v.	c #280A09",
"w.	c #3B4949",
"x.	c #070808",
"y.	c #1E1E1F",
"z.	c #2A2826",
"A.	c #696A68",
"B.	c #454545",
"C.	c #3B4445",
"D.	c #4D291F",
"E.	c #320D0E",
"F.	c #1B0100",
"G.	c #3F4545",
"H.	c #0A0909",
"I.	c #1E1F20",
"J.	c #2A2827",
"K.	c #676866",
"L.	c #404041",
"M.	c #090A0A",
"N.	c #232423",
"O.	c #272E2D",
"P.	c #202726",
"Q.	c #121516",
"R.	c #424545",
"S.	c #0B0909",
"T.	c #676765",
"U.	c #474545",
"V.	c #313131",
"W.	c #010000",
"X.	c #333332",
"Y.	c #222323",
"Z.	c #101011",
"`.	c #3D3D3D",
" +	c #0C0B0B",
".+	c #1F2020",
"++	c #666765",
"@+	c #434141",
"#+	c #414141",
"$+	c #29292A",
"%+	c #1E1D1D",
"&+	c #0D0B0B",
"*+	c #3F4040",
"=+	c #030202",
"-+	c #202021",
";+	c #424040",
">+	c #3D3D3E",
",+	c #121213",
"'+	c #0C0A0A",
")+	c #1E1F1F",
"!+	c #100E0E",
"~+	c #373736",
"{+	c #050303",
"]+	c #202122",
"^+	c #2A2927",
"/+	c #696967",
"(+	c #434142",
"_+	c #383939",
":+	c #2E2E2C",
"<+	c #1D1C1C",
"[+	c #080707",
"}+	c #383937",
"|+	c #060404",
"1+	c #1E1D1E",
"2+	c #4F5050",
"3+	c #484646",
"4+	c #3E3E3E",
"5+	c #353535",
"6+	c #0F0F11",
"7+	c #050508",
"8+	c #393A38",
"9+	c #060405",
"0+	c #1F1E1E",
"a+	c #2C2C2C",
"b+	c #4E4D4D",
"c+	c #141212",
"d+	c #040404",
"e+	c #3A3B39",
"f+	c #171717",
"g+	c #545252",
"h+	c #404040",
"i+	c #2E2E2E",
"j+	c #262727",
"k+	c #000001",
"l+	c #3B3B3A",
"m+	c #252523",
"n+	c #464646",
"o+	c #2D2D2D",
"p+	c #3C3D3B",
"q+	c #060505",
"r+	c #585858",
"s+	c #4E4E4D",
"t+	c #212121",
"u+	c #1A1818",
"v+	c #363533",
"w+	c #6A6969",
"x+	c #363736",
"y+	c #323232",
"z+	c #202020",
"A+	c #2B2A2A",
"B+	c #040303",
"C+	c #201F20",
"D+	c #70716F",
"E+	c #1D1B19",
"F+	c #101010",
"G+	c #393939",
"H+	c #1F1F1F",
"I+	c #1D1D1D",
"J+	c #030403",
"K+	c #191717",
"L+	c #232122",
"M+	c #696A69",
"N+	c #0C0C0E",
"O+	c #232222",
"P+	c #686867",
"Q+	c #434343",
"R+	c #080606",
"S+	c #252626",
"T+	c #1B1B1B",
"U+	c #111113",
"V+	c #484647",
"W+	c #292A28",
"X+	c #252525",
"Y+	c #2A2A2A",
"Z+	c #212020",
"`+	c #434242",
" @	c #434344",
".@	c #181717",
"+@	c #090708",
"@@	c #3B3B39",
"#@	c #080607",
"$@	c #1F1E1F",
"%@	c #0E0C0C",
"&@	c #0F0D0D",
"*@	c #1B1A1A",
"=@	c #393938",
"-@	c #686967",
";@	c #2E2F2D",
">@	c #090808",
",@	c #4F4F4F",
"'@	c #545353",
")@	c #343535",
"!@	c #454646",
"~@	c #4D4D4D",
"{@	c #363433",
"]@	c #6B6A6A",
"^@	c #363636",
"/@	c #2D2E2E",
"(@	c #040202",
"_@	c #656464",
":@	c #1D1C1A",
"<@	c #030303",
"[@	c #6A6C69",
"}@	c #414142",
"|@	c #3E3F3F",
"1@	c #686868",
"2@	c #434444",
"3@	c #1F1D1D",
"4@	c #100F0E",
"5@	c #111213",
"6@	c #494747",
"7@	c #2A2A28",
"8@	c #282626",
"9@	c #262424",
"0@	c #181616",
"a@	c #3B3C3A",
"b@	c #0D0B0C",
"c@	c #0E0D0D",
"d@	c #686968",
"e@	c #474546",
"f@	c #323333",
"g@	c #4E4C4C",
"h@	c #040504",
"i@	c #181818",
"j@	c #272727",
"k@	c #010101",
"l@	c #343434",
"m@	c #242424",
"n@	c #090707",
"o@	c #555656",
"p@	c #4D4E4E",
"q@	c #6C6B6B",
"r@	c #363737",
"s@	c #666465",
"t@	c #191716",
"u@	c #6B6C6A",
"v@	c #3E3F3E",
"w@	c #030302",
"x@	c #060706",
"y@	c #000101",
"z@	c #6D6B6B",
"A@	c #3F3F3F",
"B@	c #666565",
"C@	c #6C6D6B",
"D@	c #414242",
"E@	c #242323",
"F@	c #000103",
"G@	c #282727",
"H@	c #565858",
"I@	c #545253",
"J@	c #333232",
"K@	c #565656",
"L@	c #6D6C6C",
"M@	c #313232",
"N@	c #161717",
"O@	c #161414",
"P@	c #383838",
"Q@	c #404141",
"R@	c #202121",
"S@	c #0D0C0C",
"T@	c #1A1919",
"U@	c #1E1D1C",
"V@	c #323131",
"W@	c #2E2F2F",
"X@	c #444444",
"Y@	c #545555",
"Z@	c #4C4C4C",
"`@	c #212222",
" #	c #676666",
".#	c #020202",
"+#	c #232120",
"@#	c #0B0C0E",
"##	c #020303",
"$#	c #696968",
"%#	c #0F0E0D",
"&#	c #686866",
"*#	c #494748",
"=#	c #21201E",
"-#	c #242525",
";#	c #0C0A0B",
">#	c #444243",
",#	c #0F0E0E",
"'#	c #393A3A",
")#	c #262422",
"!#	c #575858",
"~#	c #464545",
"{#	c #353636",
"]#	c #383634",
"^#	c #4D4C4C",
"/#	c #060606",
"(#	c #2B2927",
"_#	c #191919",
":#	c #535252",
"<#	c #2F2F2F",
"[#	c #363432",
"}#	c #6E6C6C",
"|#	c #050608",
"1#	c #201F1F",
"2#	c #686666",
"3#	c #222020",
"4#	c #222121",
"5#	c #6D6D6B",
"6#	c #3B3B3B",
"7#	c #444445",
"8#	c #494848",
"9#	c #22201E",
"0#	c #010203",
"a#	c #1E1C1C",
"b#	c #565757",
"c#	c #151313",
"d#	c #050507",
"e#	c #4D4B4B",
"f#	c #131111",
"g#	c #050304",
"h#	c #070606",
"i#	c #6F6D6D",
"j#	c #424343",
"k#	c #040507",
"l#	c #111111",
"m#	c #22201F",
"n#	c #6D6E6C",
"o#	c #3B3B3C",
"p#	c #020302",
"q#	c #070505",
"r#	c #242524",
"s#	c #444545",
"t#	c #262525",
"u#	c #3A3A3A",
"v#	c #272523",
"w#	c #383735",
"x#	c #1A1A1A",
"y#	c #2F302F",
"z#	c #505050",
"A#	c #222222",
"B#	c #424242",
"C#	c #696868",
"D#	c #101111",
"E#	c #373737",
"F#	c #211F1F",
"G#	c #6E6E6C",
"H#	c #0B0B0D",
"I#	c #080908",
"J#	c #6A6A68",
"K#	c #1B1C1C",
"L#	c #272828",
"M#	c #030101",
"N#	c #191818",
"O#	c #626161",
"P#	c #454344",
"Q#	c #3E3F3D",
"R#	c #4C4A4A",
"S#	c #535151",
"T#	c #6F6E6D",
"U#	c #6A6867",
"V#	c #6F6F6C",
"W#	c #6B6B69",
"X#	c #090A09",
"Y#	c #4A4849",
"Z#	c #272827",
"`#	c #201E1F",
" $	c #626060",
".$	c #4B4A4A",
"+$	c #303030",
"@$	c #030404",
"#$	c #505150",
"$$	c #4B4C4C",
"%$	c #706E6E",
"&$	c #484949",
"*$	c #6A6868",
"=$	c #0E0C0D",
"-$	c #222021",
";$	c #6F6F6D",
">$	c #373738",
",$	c #090909",
"'$	c #030201",
")$	c #413F40",
"!$	c #3A3B3B",
"~$	c #413F3F",
"{$	c #403E3F",
"]$	c #605D5D",
"^$	c #424141",
"/$	c #454343",
"($	c #4A4848",
"_$	c #3D3E3E",
":$	c #010202",
"<$	c #1F1F20",
"[$	c #080909",
"}$	c #232325",
"|$	c #2B2B29",
"1$	c #3F3F40",
"2$	c #100F0F",
"3$	c #3C3A3A",
"4$	c #1A1B1B",
"5$	c #4E4E4C",
"6$	c #535353",
"7$	c #020000",
"8$	c #3C3C3C",
"9$	c #595959",
"0$	c #343433",
"a$	c #282624",
"b$	c #191A1A",
"c$	c #575757",
"d$	c #131313",
"e$	c #0F0D0E",
"f$	c #333432",
"g$	c #555555",
"h$	c #3C3C3B",
"i$	c #282828",
"j$	c #363635",
"k$	c #302F2D",
"l$	c #373836",
"m$	c #515151",
"n$	c #333333",
"o$	c #0B0A0A",
"p$	c #353634",
"q$	c #050404",
"r$	c #1A1A1B",
"s$	c #3E3E3F",
"t$	c #201E1E",
"u$	c #4A4A4A",
"v$	c #4C4C4D",
"w$	c #2E2E2F",
"x$	c #323233",
"y$	c #454644",
"z$	c #282827",
"A$	c #272826",
"B$	c #2A2B29",
"C$	c #3C3D3D",
"D$	c #302E2C",
"E$	c #41403F",
"F$	c #242221",
"G$	c #252321",
"H$	c #212122",
"I$	c #484848",
"J$	c #1E1E1E",
"K$	c #161515",
"L$	c #151414",
"M$	c #383837",
"N$	c #171616",
"O$	c #9F0A08",
"P$	c #1D1B1B",
"Q$	c #131211",
"R$	c #111010",
"S$	c #232323",
"T$	c #750807",
"U$	c #1A1A1C",
"V$	c #101112",
"W$	c #0E0F11",
"X$	c #0A0B0D",
"Y$	c #800A09",
"Z$	c #191817",
"`$	c #070707",
" %	c #0B0B0B",
".%	c #530B0A",
". + @ # $ % & * = - ; > ,     ",
"' ) ! ~ { ] & * = ^ / ( ,     ",
"_ : < [ } | 1 2 3 - ; > ,     ",
"4 5 6 7 8 9 0 a b c d > ,     ",
"e f g h i j k l m n o p ,     ",
"q r s t u v w x y z o p ,     ",
"A B C D E F G H I J o p ,     ",
"K L M N O P Q R S T o p ,     ",
"U V W X Y Z `  ...T o p ,     ",
"+.@.#.$.%.&.*.=.-.;.>.p ,     ",
",.'.).!.~.{.].^./.(._.p ,     ",
":.<.[.}.|.1.2.3.4.5._.p ,     ",
"6.7.8.9.0.a.b.c.d.e._.p ,     ",
"f.7.g.h.i.j.k.l.m.n.o.p ,     ",
"p.q.r.s.t.u.v.w.x.y.z.p ,     ",
"A.B.7.C.D.E.F.G.H.I.J.p ,     ",
"K.L.M.N.O.P.Q.R.S.I.J.p ,     ",
"T.U.V.W.X.Y.Z.`. +.+J.p ,     ",
"++@+#+7.$+%+&+*+=+-+J.p ,     ",
"++;+>+,+'+)+!+~+{+]+^+p ,     ",
"/+(+_+:+7.<+[+}+|+1+^+p ,     ",
"2+3+4+5+7.6+7+8+9+0+^+p ,     ",
"a+b+`.V.c+d+|+e+9+0+^+p ,     ",
"f+g+h+i+j+7.k+l+9+0+^+p ,     ",
"_+m+n+o+n.[+7.p+q+0+^+p ,     ",
"r+7.s+i+t+u+7.v+[+0+^+p ,     ",
"w+7.x+y+z+)+7.A+B+C+^+p ,     ",
"D+E+F+G+H+I+J+K+7.L+^+p ,     ",
"M+*+7.4+t+> N+7.7.O+^+p ,     ",
"P+Q+R+%+S+T+!+U+7.O+^+p ,     ",
"T.V+W+7.X+p '+Y+7.Z+^+p ,     ",
"++`+ @7.z+.@+@@@#@$@^+p ,     ",
"++;+4+%@&@*@[+=@9+0+^+p ,     ",
"-@(+G+;@7.%+>@8+9+0+^+p ,     ",
",@3+4+5+7.6+7+8+9+0+^+p ,     ",
"a+b+`.V.c+d+|+e+9+0+^+p ,     ",
"f+'@h+i+j+7.k+l+9+0+^+p ,     ",
")@m+!@o+n.[+7.p+q+0+^+p ,     ",
"r+7.~@i+t+u+7.{@[+0+^+p ,     ",
"]@7.^@y+z+)+7./@(@C+^+p ,     ",
"_@:@F+G+H+I+<@K+7.L+^+p ,     ",
"[@}@7.|@t+> N+7.7.O+^+p ,     ",
"1@2@7.3@S+T+4@5@7.O+^+p ,     ",
"T.6@7@7.X+> '+8@7.Z+^+p ,     ",
"++`+ @7.9@0@>@a@[+$@^+p ,     ",
"++;+4+b@c@*@[+=@9+0+^+p ,     ",
"d@(+G+;@7.%+>@8+9+0+^+p ,     ",
"2+e@4+5+7.6+7+8+9+0+^+p ,     ",
"f@g@`.V.c+h@|+e+9+0+^+p ,     ",
"i@g+h+i+j@7.k@l+9+0+^+p ,     ",
"l@m+!@o+m@n@7.p+q+0+^+p ,     ",
"o@7.p@i+t+u+7.{@[+0+^+p ,     ",
"q@7.r@y+z+)+7./@(@C+^+p ,     ",
"s@:@F+G+H+I+<@t@7.L+^+p ,     ",
"u@}@7.v@t+> N+w@7.O+^+p ,     ",
"1@2@7.t+X+T+!+U+7.O+^+p ,     ",
"T.6@W+7.X+> '+8@7.Z+^+p ,     ",
"++`+ @7.9@0@>@a@[+$@^+p ,     ",
"++;+4+b@c@*@[+=@9+0+^+p ,     ",
"d@(+G+;@7.%+>@8+9+0+^+p ,     ",
"2+e@4+5+7.6+7+8+9+0+^+p ,     ",
"f@g@`.V.c+x@|+e+9+0+^+p ,     ",
"i@g+h+i+j@7.y@l+9+0+^+p ,     ",
"l@m+!@o+m@n@7.p+q+0+^+p ,     ",
"o@7.~@i+t+u+7.{@[+0+^+p ,     ",
"z@7.A@y+z+)+7./@(@C+^+p ,     ",
"B@f+F+G+H+I+<@t@7.L+^+p ,     ",
"C@D@7.v@t+> N+<@7.E@^+p ,     ",
"P+2@7.t+X+T+!+5@7.O+^+p ,     ",
"T.6@7@F@X+> '+G@7.Z+^+p ,     ",
"++`+2@7.9@0@>@a@[+$@^+p ,     ",
"++;+|@%@&@*@[+=@9+0+^+p ,     ",
"-@@+G+;@7.3@>@8+9+0+^+p ,     ",
"H@U.4+5+7.6+7+8+9+0+^+p ,     ",
"y+g@`.V.c+x@|+e+9+0+^+p ,     ",
"i@I@h+i+j@7.y@l+9+0+^+p ,     ",
"J@m+!@o+m@n@7.p+q+0+^+p ,     ",
"K@7.~@i+t+u+7.{@[+0+^+p ,     ",
"L@7.|@M@z+)+7./@(@C+^+p ,     ",
"B@N@O@P@H+I+<@t@7.L+^+p ,     ",
"C@Q@7.4+t+> N+<@7.E@^+p ,     ",
"P+ @7.R@X+T+!+5@7.O+^+p ,     ",
"T.6@7@F@X+> '+G@7.Z+^+p ,     ",
"++`+2@7.9@0@>@a@[+$@^+p ,     ",
"++;+|@S@c@T@[+=@9+0+^+p ,     ",
"-@@+G+:+7.U@>@8+9+0+^+p ,     ",
"H@U.4+5+7.6+7+8+9+0+^+p ,     ",
"y+g@`.V.c+x@|+e+9+0+^+p ,     ",
"i@g+A@i+j@7.k@l+9+0+^+p ,     ",
"V@W@X@o+m@<@7.p+q+0+^+p ,     ",
"Y@7.Z@i+`@u+7.{@[+0+^+p ,     ",
"L@7.4+M@z+)+7.o+=+C+^+p ,     ",
" #N@O@P@H+I+.#+#7.L+^+p ,     ",
"C@Q@7.`.t+> @###7.E@^+p ,     ",
"$#2@7.j@X+T+!+%#7.O+^+p ,     ",
"&#*#=#F@-#> ;#G@7.Z+^+p ,     ",
"K.>#X@7.9@0@>@a@[+$@^+p ,     ",
"K.;+A@%@,#T@[+=@9+0+^+p ,     ",
"A.@+'#)#7.U@>@8+9+0+^+p ,     ",
"!#~#|@{#7.6+7+8+9+0+^+p ,     ",
"]#^#`.V.c+/#|+e+9+0+(#I+,     ",
"_#:#A@i+j@7.y@l+9+0+-#I+,     ",
"J@<#X@o+m@##7.p+q+0+(#I+,     ",
",@W.Z@i+`@u+7.[##@0+^+p ,     ",
"}#7.4+M@z+)+7.o+|#1#^+p ,     ",
"2#f+O@P@H+I+.#3#7.4#^+p ,     ",
"5#6#7.4+t+> @###7.E@^+p ,     ",
"A.7#7.t+X+T+4@!+7.O+^+p ,     ",
"&#8#9#0#X+>  +Y.7.Z+^+p ,     ",
"K.>#X@7.9@0@>@a@[+$@^+p ,     ",
"K.;+A@%@,#T@[+=@9+0+^+p ,     ",
"/+@+'#)#7.a#+@8+9+0+^+p ,     ",
"b#~#|@{#7.c#d#8+9+0+^+p ,     ",
"v+e#`.V.f#/#g#e+9+0+^+p ,     ",
"_#:#A@i+j@7.y@l+9+0+^+p ,     ",
"/@<#X@o+m@##7.p+q+0+^+p ,     ",
"2+W.Z@i+`@u+7.[#h#0+^+p ,     ",
"i#7.j#V.z+)+7.f@k#1#^+p ,     ",
"1@l#O@P@H+I+.#m#7.4#^+p ,     ",
"n#o#7.4+t+> @#p#7.O+^+p ,     ",
"A.7#7.j@-#T+4@!+7.O+^+p ,     ",
"P+8#=#q#r#>  +Y.7.Z+^+p ,     ",
"P+>#s#7.t#0@>@a@[+$@^+p ,     ",
"P+;+*+(@,#T@[+=@9+0+^+p ,     ",
"A.@+u#v#7.a#+@8+9+0+^+p ,     ",
"r+~#|@{#7.c#d#8+9+0+^+p ,     ",
"w#e#`.V.f#/#g#e+9+0+^+p ,     ",
"x#:#A@i+j@7.y@l+9+0+^+p ,     ",
"y#<#X@o+-#<@7.p+q+0+^+p ,     ",
"z#W.Z@i+A#!+7.[#h#0+^+p ,     ",
"i#7.B#V.z+H+7.f@k#1#^+p ,     ",
"C#D#i@E#H+I+k@F#7.4#^+p ,     ",
"G#6#7.`.t+> H#I#7.O+^+p ,     ",
"J#X@7.j@-#T+!+%#7.O+^+p ,     ",
"$#8#=#q#m@K#'+Y.7.3#(#I+,     ",
"P+>#s#7.L#I++@a@[+1#-#I+,     ",
"P+;+*+M#K+N#R+=@9+0+(#I+,     ",
"$#;+u#)#7.<++@8+9+0+^+p ,     ",
"O#P#|@{#7.c#d#8+9+0+^+p ,     ",
"Q#R#`.V.f#/#g#e+9+0+^+p ,     ",
"x#S#A@i+j@7.y@l+9+0+^+p ,     ",
"y#<#X@o+-#<@7.p+q+0+^+p ,     ",
"z#W.Z@i+A#!+7.[#h#0+^+p ,     ",
"T#7.B#V.z+H+7.f@k#1#^+p ,     ",
"U#l#i@E#H+I+k@F#7.4#^+p ,     ",
"V#E#7.`.t+> H#I#7.O+^+p ,     ",
"W#B.7.j@m@T+!+X#7.O+^+p ,     ",
"/+Y#> q#Y+T+;#n.7.Z+^+p ,     ",
"&#>#B.7.Z#p +@a@[+`#^+p ,     ",
"&#;+h+=+N#N#R+=@9+0+^+p ,     ",
"/+;+u#)#7.<++@8+9+0+^+p ,     ",
" $P#|@{#7.c#d#8+9+0+^+p ,     ",
"Q#.$`.V.c+/#g#e+9+0+^+p ,     ",
"( S#A@i+t+7.y@l+9+0+^+p ,     ",
"+$<#X@o+X+@$7.p+q+0+^+p ,     ",
"#$W.$$o+A#!+7.[#h#0+^+p ,     ",
"%$7.&$V.z+H+7.f@k#1#^+p ,     ",
"*$=$i@E#H+I+k@F#7.-$^+p ,     ",
";$>$7.`.t+> H#I#7.O+^+p ,     ",
"W#B.7.j@m@T+!+,$7.O+^+p ,     ",
"/+Y#K#q#Y+T+;#n.7.Z+^+p ,     ",
"&#>#s#7.j@p +@a@[+`#^+p ,     ",
"&#;+h+'$N#N#R+=@9+0+(#I+,     ",
"&#)$!$z+7.<++@8+9+0+X+I+,     ",
"&#~$A@^@7.c#d#8+9+0+X+I+,     ",
"&#{$`.V.c+/#g#e+9+0+(#I+,     ",
"/+~$`.i+t+7.y@l+9+0+^+p ,     ",
"]$^$`.o+X+@$7.p+q+0+^+p ,     ",
"!#/$`.o+A#!+7.[#h#0+^+p ,     ",
"~@($_$o+z+H+7.f@k#1#^+p ,     ",
"E#X@A@o+H+I+:$F#7.-$^+p ,     ",
"<$`.Q+o+H+> n@[$7.O+^+p ,     ",
"}$|$1$i+H+T+2$X#7.O+^+p ,     ",
"3$H.h+<#H+4$;#n.7.Z+^+p ,     ",
"5$7.#+y+H+4$n@a@[+`#^+p ,     ",
"6$7$A#r@H+4$q#=@9+0+^+p ,     ",
"r+t+7.8$.+4$q#=@9+0+^+p ,     ",
"9$^@7.0$a$b$q#=@9+0+^+p ,     ",
"c$P@d$e$f$i@q#=@9+0+^+p ,     ",
"g$^@P@7.#+i@q+=@9+0+^+p ,     ",
"g$G+h$7.i$`@B+}+9+0+^+p ,     ",
"g$P@j$z+|+k$b@l$9+0+(#I+,     ",
"m$n$^@A@7.8+o$p$q$0+X+I+,     ",
"6$l@l@u#'+r$.@s$B+t$S+I+,     ",
"z#y+y+E#|$7.>.L.q$0+X+I+,     ",
"u$a+a+o+V.|@7.k$o$Z+(#I+,     ",
"v$<#<#<#w$x$1$W.7.Z+^+p ,     ",
"y$z$z$z$z$A$B$C$[+L+D$t+,     ",
"E$F$F$F$F$F$+#G$'#c@7.H+,     ",
"A@H$H$H$H$H$H$z+z+8$I$z+,     ",
"6#J$J$J$J$J$J$J$I+T+> I+,     ",
"r@x#x#x#x#x#x#x#x#x#x#z+,     ",
"X.K$K$K$K$K$K$K$K$K$L$t+,     ",
"M$*@N#N#N#N#N#N#N#N#N$A#O$    ",
"  P$Q$R$R$R$R$R$R$R$&@S$T$, , ",
"    U$V$W$W$W$W$W$W$X$m@d+Y$, ",
"      Z$4@&@&@&@&@&@&+i$`$ %.%",
"        Y+L#L#L#L#L#j@S$S$X+X+"};
