/* XPM */
static char * bottom_right_inactive_xpm[] = {
"15 198 550 2",
"  	c None",
". 	c #AC0B09",
"+ 	c #1C1C1C",
"@ 	c #30302F",
"# 	c #182825",
"$ 	c #2E080F",
"% 	c #A22B2C",
"& 	c #C41E1E",
"* 	c #FF9DA1",
"= 	c #FDE9F1",
"- 	c #F9C1D6",
"; 	c #FF7095",
"> 	c #CC1D1A",
", 	c #9C5556",
"' 	c #1B1B1C",
") 	c #272524",
"! 	c #182724",
"~ 	c #FFA0A3",
"{ 	c #FAC2D8",
"] 	c #F9CFE1",
"^ 	c #FF726B",
"/ 	c #9C3940",
"( 	c #A05455",
"_ 	c #30060D",
": 	c #A4282A",
"< 	c #C61C1B",
"[ 	c #FFA5A8",
"} 	c #FACCE2",
"| 	c #F9B9C8",
"1 	c #FF4A6B",
"2 	c #A63C49",
"3 	c #A95457",
"4 	c #272624",
"5 	c #192826",
"6 	c #34080E",
"7 	c #8C5454",
"8 	c #CB221F",
"9 	c #FFACAD",
"0 	c #F8B2C1",
"a 	c #FE9D9C",
"b 	c #FF4448",
"c 	c #8C4908",
"d 	c #7D4E58",
"e 	c #1C1D1D",
"f 	c #282625",
"g 	c #1B2A27",
"h 	c #270001",
"i 	c #801E22",
"j 	c #A80C0A",
"k 	c #FF81A7",
"l 	c #F8C0D2",
"m 	c #FFACB0",
"n 	c #C2161A",
"o 	c #73383E",
"p 	c #854D5B",
"q 	c #1D2928",
"r 	c #2C0005",
"s 	c #872127",
"t 	c #AD1412",
"u 	c #FF8383",
"v 	c #FBA7A9",
"w 	c #FF8183",
"x 	c #D12424",
"y 	c #7E3D41",
"z 	c #796951",
"A 	c #1E2827",
"B 	c #1C0D0D",
"C 	c #6A3527",
"D 	c #B31616",
"E 	c #FF9090",
"F 	c #FF807F",
"G 	c #C6575D",
"H 	c #B81615",
"I 	c #8A3C41",
"J 	c #80664E",
"K 	c #1F2827",
"L 	c #1F0B0C",
"M 	c #713326",
"N 	c #7D1316",
"O 	c #FF6D8C",
"P 	c #FF6584",
"Q 	c #C92B29",
"R 	c #8F171B",
"S 	c #633540",
"T 	c #6B7874",
"U 	c #220A0A",
"V 	c #773225",
"W 	c #841618",
"X 	c #FF6463",
"Y 	c #CC6467",
"Z 	c #B91916",
"` 	c #854245",
" .	c #675439",
"..	c #5B4548",
"+.	c #282725",
"@.	c #202827",
"#.	c #250909",
"$.	c #524544",
"%.	c #8F171A",
"&.	c #FF6D70",
"*.	c #A34B56",
"=.	c #991C1C",
"-.	c #5F3B45",
";.	c #765A3F",
">.	c #273335",
",.	c #292725",
"'.	c #1B2425",
").	c #290907",
"!.	c #5B4443",
"~.	c #6D060C",
"{.	c #FF767F",
"].	c #5C080C",
"^.	c #821116",
"/.	c #72404A",
"(.	c #6B3A3A",
"_.	c #182124",
":.	c #1E2425",
"<.	c #150000",
"[.	c #684544",
"}.	c #642213",
"|.	c #E05C6C",
"1.	c #572417",
"2.	c #70291B",
"3.	c #5B3C3B",
"4.	c #402519",
"5.	c #363B3A",
"6.	c #212424",
"7.	c #091313",
"8.	c #4D4243",
"9.	c #441314",
"0.	c #752F22",
"a.	c #73291D",
"b.	c #573A3B",
"c.	c #6F3F3F",
"d.	c #000000",
"e.	c #585A5B",
"f.	c #292826",
"g.	c #232424",
"h.	c #0A0F0F",
"i.	c #5B4444",
"j.	c #3C020C",
"k.	c #561E21",
"l.	c #521418",
"m.	c #40383A",
"n.	c #553C3C",
"o.	c #696767",
"p.	c #2A2826",
"q.	c #1E1E1F",
"r.	c #070808",
"s.	c #3B4949",
"t.	c #280A09",
"u.	c #423329",
"v.	c #3E281E",
"w.	c #543E3F",
"x.	c #111919",
"y.	c #1E211F",
"z.	c #6D6E6D",
"A.	c #2A2827",
"B.	c #1E1F20",
"C.	c #0A0909",
"D.	c #3F4545",
"E.	c #1B0100",
"F.	c #320D0E",
"G.	c #4D291F",
"H.	c #3B4445",
"I.	c #454545",
"J.	c #696A68",
"K.	c #0B0909",
"L.	c #424545",
"M.	c #121516",
"N.	c #202726",
"O.	c #272E2D",
"P.	c #232423",
"Q.	c #090A0A",
"R.	c #404041",
"S.	c #676866",
"T.	c #1F2020",
"U.	c #0C0B0B",
"V.	c #3D3D3D",
"W.	c #101011",
"X.	c #222323",
"Y.	c #333332",
"Z.	c #010000",
"`.	c #313131",
" +	c #474545",
".+	c #676765",
"++	c #202021",
"@+	c #030202",
"#+	c #3F4040",
"$+	c #0D0B0B",
"%+	c #1E1D1D",
"&+	c #29292A",
"*+	c #414141",
"=+	c #434141",
"-+	c #666765",
";+	c #2A2927",
">+	c #202122",
",+	c #050303",
"'+	c #373736",
")+	c #100E0E",
"!+	c #1E1F1F",
"~+	c #0C0A0A",
"{+	c #121213",
"]+	c #3D3D3E",
"^+	c #424040",
"/+	c #1E1D1E",
"(+	c #060404",
"_+	c #383937",
":+	c #080707",
"<+	c #1D1C1C",
"[+	c #2E2E2C",
"}+	c #383939",
"|+	c #434142",
"1+	c #696967",
"2+	c #1F1E1E",
"3+	c #060405",
"4+	c #393A38",
"5+	c #050508",
"6+	c #0F0F11",
"7+	c #353535",
"8+	c #3E3E3E",
"9+	c #484646",
"0+	c #4F5050",
"a+	c #3A3B39",
"b+	c #040404",
"c+	c #141212",
"d+	c #4E4D4D",
"e+	c #2C2C2C",
"f+	c #3B3B3A",
"g+	c #000001",
"h+	c #262727",
"i+	c #2E2E2E",
"j+	c #404040",
"k+	c #545252",
"l+	c #171717",
"m+	c #060505",
"n+	c #3C3D3B",
"o+	c #2D2D2D",
"p+	c #464646",
"q+	c #252523",
"r+	c #363533",
"s+	c #1A1818",
"t+	c #212121",
"u+	c #4E4E4D",
"v+	c #585858",
"w+	c #201F20",
"x+	c #040303",
"y+	c #2B2A2A",
"z+	c #202020",
"A+	c #323232",
"B+	c #363736",
"C+	c #6A6969",
"D+	c #232122",
"E+	c #191717",
"F+	c #030403",
"G+	c #1D1D1D",
"H+	c #1F1F1F",
"I+	c #393939",
"J+	c #101010",
"K+	c #1D1B19",
"L+	c #70716F",
"M+	c #232222",
"N+	c #0C0C0E",
"O+	c #696A69",
"P+	c #111113",
"Q+	c #1B1B1B",
"R+	c #252626",
"S+	c #080606",
"T+	c #434343",
"U+	c #686867",
"V+	c #212020",
"W+	c #2A2A2A",
"X+	c #252525",
"Y+	c #292A28",
"Z+	c #484647",
"`+	c #1F1E1F",
" @	c #080607",
".@	c #3B3B39",
"+@	c #090708",
"@@	c #181717",
"#@	c #434344",
"$@	c #434242",
"%@	c #393938",
"&@	c #1B1A1A",
"*@	c #0F0D0D",
"=@	c #0E0C0C",
"-@	c #090808",
";@	c #2E2F2D",
">@	c #686967",
",@	c #4F4F4F",
"'@	c #545353",
")@	c #454646",
"!@	c #343535",
"~@	c #363433",
"{@	c #4D4D4D",
"]@	c #040202",
"^@	c #2D2E2E",
"/@	c #363636",
"(@	c #6B6A6A",
"_@	c #030303",
":@	c #1D1C1A",
"<@	c #656464",
"[@	c #3E3F3F",
"}@	c #414142",
"|@	c #6A6C69",
"1@	c #111213",
"2@	c #100F0E",
"3@	c #1F1D1D",
"4@	c #434444",
"5@	c #686868",
"6@	c #282626",
"7@	c #2A2A28",
"8@	c #494747",
"9@	c #3B3C3A",
"0@	c #181616",
"a@	c #262424",
"b@	c #0E0D0D",
"c@	c #0D0B0C",
"d@	c #686968",
"e@	c #474546",
"f@	c #040504",
"g@	c #4E4C4C",
"h@	c #323333",
"i@	c #010101",
"j@	c #272727",
"k@	c #181818",
"l@	c #090707",
"m@	c #242424",
"n@	c #343434",
"o@	c #4D4E4E",
"p@	c #555656",
"q@	c #363737",
"r@	c #6C6B6B",
"s@	c #191716",
"t@	c #666465",
"u@	c #030302",
"v@	c #3E3F3E",
"w@	c #6B6C6A",
"x@	c #060706",
"y@	c #000101",
"z@	c #3F3F3F",
"A@	c #6D6B6B",
"B@	c #666565",
"C@	c #242323",
"D@	c #414242",
"E@	c #6C6D6B",
"F@	c #282727",
"G@	c #000103",
"H@	c #565858",
"I@	c #545253",
"J@	c #333232",
"K@	c #565656",
"L@	c #313232",
"M@	c #6D6C6C",
"N@	c #383838",
"O@	c #161414",
"P@	c #161717",
"Q@	c #404141",
"R@	c #202121",
"S@	c #1A1919",
"T@	c #0D0C0C",
"U@	c #1E1D1C",
"V@	c #444444",
"W@	c #2E2F2F",
"X@	c #323131",
"Y@	c #212222",
"Z@	c #4C4C4C",
"`@	c #545555",
" #	c #232120",
".#	c #020202",
"+#	c #676666",
"@#	c #020303",
"##	c #0B0C0E",
"$#	c #0F0E0D",
"%#	c #696968",
"&#	c #0C0A0B",
"*#	c #242525",
"=#	c #21201E",
"-#	c #494748",
";#	c #686866",
">#	c #444243",
",#	c #0F0E0E",
"'#	c #262422",
")#	c #393A3A",
"!#	c #353636",
"~#	c #464545",
"{#	c #575858",
"]#	c #2B2927",
"^#	c #060606",
"/#	c #4D4C4C",
"(#	c #383634",
"_#	c #535252",
":#	c #191919",
"<#	c #2F2F2F",
"[#	c #363432",
"}#	c #201F1F",
"|#	c #050608",
"1#	c #6E6C6C",
"2#	c #222121",
"3#	c #222020",
"4#	c #686666",
"5#	c #3B3B3B",
"6#	c #6D6D6B",
"7#	c #444445",
"8#	c #010203",
"9#	c #22201E",
"0#	c #494848",
"a#	c #1E1C1C",
"b#	c #050507",
"c#	c #151313",
"d#	c #565757",
"e#	c #050304",
"f#	c #131111",
"g#	c #4D4B4B",
"h#	c #070606",
"i#	c #040507",
"j#	c #424343",
"k#	c #6F6D6D",
"l#	c #22201F",
"m#	c #111111",
"n#	c #020302",
"o#	c #3B3B3C",
"p#	c #6D6E6C",
"q#	c #242524",
"r#	c #070505",
"s#	c #262525",
"t#	c #444545",
"u#	c #272523",
"v#	c #3A3A3A",
"w#	c #383735",
"x#	c #1A1A1A",
"y#	c #2F302F",
"z#	c #222222",
"A#	c #505050",
"B#	c #424242",
"C#	c #211F1F",
"D#	c #373737",
"E#	c #101111",
"F#	c #696868",
"G#	c #080908",
"H#	c #0B0B0D",
"I#	c #6E6E6C",
"J#	c #6A6A68",
"K#	c #1B1C1C",
"L#	c #272828",
"M#	c #191818",
"N#	c #030101",
"O#	c #454344",
"P#	c #626161",
"Q#	c #4C4A4A",
"R#	c #3E3F3D",
"S#	c #535151",
"T#	c #6F6E6D",
"U#	c #6A6867",
"V#	c #6F6F6C",
"W#	c #090A09",
"X#	c #6B6B69",
"Y#	c #4A4849",
"Z#	c #201E1F",
"`#	c #272827",
" $	c #626060",
".$	c #4B4A4A",
"+$	c #030404",
"@$	c #303030",
"#$	c #4B4C4C",
"$$	c #505150",
"%$	c #484949",
"&$	c #706E6E",
"*$	c #222021",
"=$	c #0E0C0D",
"-$	c #6A6868",
";$	c #373738",
">$	c #6F6F6D",
",$	c #090909",
"'$	c #030201",
")$	c #3A3B3B",
"!$	c #413F40",
"~$	c #413F3F",
"{$	c #403E3F",
"]$	c #424141",
"^$	c #605D5D",
"/$	c #454343",
"($	c #3D3E3E",
"_$	c #4A4848",
":$	c #010202",
"<$	c #080909",
"[$	c #1F1F20",
"}$	c #100F0F",
"|$	c #3F3F40",
"1$	c #2B2B29",
"2$	c #232325",
"3$	c #1A1B1B",
"4$	c #3C3A3A",
"5$	c #4E4E4C",
"6$	c #020000",
"7$	c #535353",
"8$	c #3C3C3C",
"9$	c #191A1A",
"0$	c #282624",
"a$	c #343433",
"b$	c #595959",
"c$	c #333432",
"d$	c #0F0D0E",
"e$	c #131313",
"f$	c #575757",
"g$	c #555555",
"h$	c #282828",
"i$	c #3C3C3B",
"j$	c #373836",
"k$	c #302F2D",
"l$	c #363635",
"m$	c #050404",
"n$	c #353634",
"o$	c #0B0A0A",
"p$	c #333333",
"q$	c #515151",
"r$	c #201E1E",
"s$	c #3E3E3F",
"t$	c #1A1A1B",
"u$	c #4A4A4A",
"v$	c #323233",
"w$	c #2E2E2F",
"x$	c #4C4C4D",
"y$	c #302E2C",
"z$	c #3C3D3D",
"A$	c #2A2B29",
"B$	c #272826",
"C$	c #282827",
"D$	c #454644",
"E$	c #252321",
"F$	c #242221",
"G$	c #41403F",
"H$	c #484848",
"I$	c #212122",
"J$	c #1E1E1E",
"K$	c #151414",
"L$	c #161515",
"M$	c #171616",
"N$	c #383837",
"O$	c #232323",
"P$	c #111010",
"Q$	c #131211",
"R$	c #1D1B1B",
"S$	c #0A0B0D",
"T$	c #0E0F11",
"U$	c #101112",
"V$	c #1A1A1C",
"W$	c #530B0A",
"X$	c #070707",
"Y$	c #191817",
"  . . + @ # $ % & * = - ; > , ",
". . . ' ) ! $ % & ~ { ] ^ / ( ",
". . . + @ # _ : < [ } | 1 2 3 ",
". . . + 4 5 6 7 8 9 0 a b c d ",
". . . e f g h i j k l m n o p ",
". . . e f q r s t u v w x y z ",
". . . e f A B C D E F G H I J ",
". . . e f K L M N O P Q R S T ",
". . . e f K U V W X Y Z `  ...",
". . . e +.@.#.$.%.&.*.=.-.;.>.",
". . . e ,.'.).!.~.{.].^./.(._.",
". . . e ,.:.<.[.}.|.1.2.3.4.5.",
". . . e ,.6.7.8.9.0.a.b.c.d.e.",
". . . e f.g.h.i.j.k.l.m.n.d.o.",
". . . e p.q.r.s.t.u.v.w.x.y.z.",
". . . e A.B.C.D.E.F.G.H.d.I.J.",
". . . e A.B.K.L.M.N.O.P.Q.R.S.",
". . . e A.T.U.V.W.X.Y.Z.`. +.+",
". . . e A.++@+#+$+%+&+d.*+=+-+",
". . . e ;+>+,+'+)+!+~+{+]+^+-+",
". . . e ;+/+(+_+:+<+d.[+}+|+1+",
". . . e ;+2+3+4+5+6+d.7+8+9+0+",
". . . e ;+2+3+a+(+b+c+`.V.d+e+",
". . . e ;+2+3+f+g+d.h+i+j+k+l+",
". . . e ;+2+m+n+d.:+g.o+p+q+}+",
". . . e ;+2+:+r+d.s+t+i+u+d.v+",
". . . e ;+w+x+y+d.!+z+A+B+d.C+",
". . . e ;+D+d.E+F+G+H+I+J+K+L+",
". . . e ;+M+d.d.N++ t+8+d.#+O+",
". . . e ;+M+d.P+)+Q+R+%+S+T+U+",
". . . e ;+V+d.W+~+e X+d.Y+Z+.+",
". . . e ;+`+ @.@+@@@z+d.#@$@-+",
". . . e ;+2+3+%@:+&@*@=@8+^+-+",
". . . e ;+2+3+4+-@%+d.;@I+|+>@",
". . . e ;+2+3+4+5+6+d.7+8+9+,@",
". . . e ;+2+3+a+(+b+c+`.V.d+e+",
". . . e ;+2+3+f+g+d.h+i+j+'@l+",
". . . e ;+2+m+n+d.:+g.o+)@q+!@",
". . . e ;+2+:+~@d.s+t+i+{@d.v+",
". . . e ;+w+]@^@d.!+z+A+/@d.(@",
". . . e ;+D+d.E+_@G+H+I+J+:@<@",
". . . e ;+M+d.d.N++ t+[@d.}@|@",
". . . e ;+M+d.1@2@Q+R+3@d.4@5@",
". . . e ;+V+d.6@~++ X+d.7@8@.+",
". . . e ;+`+:+9@-@0@a@d.#@$@-+",
". . . e ;+2+3+%@:+&@b@c@8+^+-+",
". . . e ;+2+3+4+-@%+d.;@I+|+d@",
". . . e ;+2+3+4+5+6+d.7+8+e@0+",
". . . e ;+2+3+a+(+f@c+`.V.g@h@",
". . . e ;+2+3+f+i@d.j@i+j+k+k@",
". . . e ;+2+m+n+d.l@m@o+)@q+n@",
". . . e ;+2+:+~@d.s+t+i+o@d.p@",
". . . e ;+w+]@^@d.!+z+A+q@d.r@",
". . . e ;+D+d.s@_@G+H+I+J+:@t@",
". . . e ;+M+d.u@N++ t+v@d.}@w@",
". . . e ;+M+d.P+)+Q+X+t+d.4@5@",
". . . e ;+V+d.6@~++ X+d.Y+8@.+",
". . . e ;+`+:+9@-@0@a@d.#@$@-+",
". . . e ;+2+3+%@:+&@b@c@8+^+-+",
". . . e ;+2+3+4+-@%+d.;@I+|+d@",
". . . e ;+2+3+4+5+6+d.7+8+e@0+",
". . . e ;+2+3+a+(+x@c+`.V.g@h@",
". . . e ;+2+3+f+y@d.j@i+j+k+k@",
". . . e ;+2+m+n+d.l@m@o+)@q+n@",
". . . e ;+2+:+~@d.s+t+i+{@d.p@",
". . . e ;+w+]@^@d.!+z+A+z@d.A@",
". . . e ;+D+d.s@_@G+H+I+J+l+B@",
". . . e ;+C@d._@N++ t+v@d.D@E@",
". . . e ;+M+d.1@)+Q+X+t+d.4@U+",
". . . e ;+V+d.F@~++ X+G@7@8@.+",
". . . e ;+`+:+9@-@0@a@d.4@$@-+",
". . . e ;+2+3+%@:+&@*@=@[@^+-+",
". . . e ;+2+3+4+-@3@d.;@I+=+>@",
". . . e ;+2+3+4+5+6+d.7+8+ +H@",
". . . e ;+2+3+a+(+x@c+`.V.g@A+",
". . . e ;+2+3+f+y@d.j@i+j+I@k@",
". . . e ;+2+m+n+d.l@m@o+)@q+J@",
". . . e ;+2+:+~@d.s+t+i+{@d.K@",
". . . e ;+w+]@^@d.!+z+L@[@d.M@",
". . . e ;+D+d.s@_@G+H+N@O@P@B@",
". . . e ;+C@d._@N++ t+8+d.Q@E@",
". . . e ;+M+d.1@)+Q+X+R@d.#@U+",
". . . e ;+V+d.F@~++ X+G@7@8@.+",
". . . e ;+`+:+9@-@0@a@d.4@$@-+",
". . . e ;+2+3+%@:+S@b@T@[@^+-+",
". . . e ;+2+3+4+-@U@d.[+I+=+>@",
". . . e ;+2+3+4+5+6+d.7+8+ +H@",
". . . e ;+2+3+a+(+x@c+`.V.g@A+",
". . . e ;+2+3+f+i@d.j@i+z@k+k@",
". . . e ;+2+m+n+d._@m@o+V@W@X@",
". . . e ;+2+:+~@d.s+Y@i+Z@d.`@",
". . . e ;+w+@+o+d.!+z+L@8+d.M@",
". . . e ;+D+d. #.#G+H+N@O@P@+#",
". . . e ;+C@d.@###+ t+V.d.Q@E@",
". . . e ;+M+d.$#)+Q+X+j@d.4@%#",
". . . e ;+V+d.F@&#+ *#G@=#-#;#",
". . . e ;+`+:+9@-@0@a@d.V@>#S.",
". . . e ;+2+3+%@:+S@,#=@z@^+S.",
". . . e ;+2+3+4+-@U@d.'#)#=+J.",
". . . e ;+2+3+4+5+6+d.!#[@~#{#",
". . . G+]#2+3+a+(+^#c+`.V./#(#",
". . . G+*#2+3+f+y@d.j@i+z@_#:#",
". . . G+]#2+m+n+d.@#m@o+V@<#J@",
". . . e ;+2+ @[#d.s+Y@i+Z@Z.,@",
". . . e ;+}#|#o+d.!+z+L@8+d.1#",
". . . e ;+2#d.3#.#G+H+N@O@l+4#",
". . . e ;+C@d.@###+ t+8+d.5#6#",
". . . e ;+M+d.)+2@Q+X+t+d.7#J.",
". . . e ;+V+d.X.U.+ X+8#9#0#;#",
". . . e ;+`+:+9@-@0@a@d.V@>#S.",
". . . e ;+2+3+%@:+S@,#=@z@^+S.",
". . . e ;+2+3+4++@a#d.'#)#=+1+",
". . . e ;+2+3+4+b#c#d.!#[@~#d#",
". . . e ;+2+3+a+e#^#f#`.V.g#r+",
". . . e ;+2+3+f+y@d.j@i+z@_#:#",
". . . e ;+2+m+n+d.@#m@o+V@<#^@",
". . . e ;+2+h#[#d.s+Y@i+Z@Z.0+",
". . . e ;+}#i#h@d.!+z+`.j#d.k#",
". . . e ;+2#d.l#.#G+H+N@O@m#5@",
". . . e ;+M+d.n###+ t+8+d.o#p#",
". . . e ;+M+d.)+2@Q+*#j@d.7#J.",
". . . e ;+V+d.X.U.+ q#r#=#0#U+",
". . . e ;+`+:+9@-@0@s#d.t#>#U+",
". . . e ;+2+3+%@:+S@,#]@#+^+U+",
". . . e ;+2+3+4++@a#d.u#v#=+J.",
". . . e ;+2+3+4+b#c#d.!#[@~#v+",
". . . e ;+2+3+a+e#^#f#`.V.g#w#",
". . . e ;+2+3+f+y@d.j@i+z@_#x#",
". . . e ;+2+m+n+d._@*#o+V@<#y#",
". . . e ;+2+h#[#d.)+z#i+Z@Z.A#",
". . . e ;+}#i#h@d.H+z+`.B#d.k#",
". . . e ;+2#d.C#i@G+H+D#k@E#F#",
". . . e ;+M+d.G#H#+ t+V.d.5#I#",
". . . e ;+M+d.$#)+Q+*#j@d.V@J#",
". . . G+]#3#d.X.~+K#m@r#=#0#%#",
". . . G+*#}#:+9@+@G+L#d.t#>#U+",
". . . G+]#2+3+%@S+M#E+N##+^+U+",
". . . e ;+2+3+4++@<+d.'#v#^+%#",
". . . e ;+2+3+4+b#c#d.!#[@O#P#",
". . . e ;+2+3+a+e#^#f#`.V.Q#R#",
". . . e ;+2+3+f+y@d.j@i+z@S#x#",
". . . e ;+2+m+n+d._@*#o+V@<#y#",
". . . e ;+2+h#[#d.)+z#i+Z@Z.A#",
". . . e ;+}#i#h@d.H+z+`.B#d.T#",
". . . e ;+2#d.C#i@G+H+D#k@m#U#",
". . . e ;+M+d.G#H#+ t+V.d.D#V#",
". . . e ;+M+d.W#)+Q+m@j@d.I.X#",
". . . e ;+V+d.g.&#Q+W+r#+ Y#1+",
". . . e ;+Z#:+9@+@e `#d.I.>#;#",
". . . e ;+2+3+%@S+M#M#@+j+^+;#",
". . . e ;+2+3+4++@<+d.'#v#^+1+",
". . . e ;+2+3+4+b#c#d.!#[@O# $",
". . . e ;+2+3+a+e#^#c+`.V..$R#",
". . . e ;+2+3+f+y@d.t+i+z@S#' ",
". . . e ;+2+m+n+d.+$X+o+V@<#@$",
". . . e ;+2+h#[#d.)+z#o+#$Z.$$",
". . . e ;+}#i#h@d.H+z+`.%$d.&$",
". . . e ;+*$d.C#i@G+H+D#k@=$-$",
". . . e ;+M+d.G#H#+ t+V.d.;$>$",
". . . e ;+M+d.,$)+Q+m@j@d.I.X#",
". . . e ;+V+d.g.&#Q+W+r#K#Y#1+",
". . . e ;+Z#:+9@+@e j@d.t#>#;#",
". . . G+]#2+3+%@S+M#M#'$j+^+;#",
". . . G+X+2+3+4++@<+d.z+)$!$;#",
". . . G+X+2+3+4+b#c#d./@z@~$;#",
". . . G+]#2+3+a+e#^#c+`.V.{$;#",
". . . e ;+2+3+f+y@d.t+i+V.~$1+",
". . . e ;+2+m+n+d.+$X+o+V.]$^$",
". . . e ;+2+h#[#d.)+z#o+V./${#",
". . . e ;+}#i#h@d.H+z+o+($_${@",
". . . e ;+*$d.C#:$G+H+o+z@V@D#",
". . . e ;+M+d.<$l@+ H+o+T+V.[$",
". . . e ;+M+d.W#}$Q+H+i+|$1$2$",
". . . e ;+V+d.g.&#3$H+<#j+C.4$",
". . . e ;+Z#:+9@l@3$H+A+*+d.5$",
". . . e ;+2+3+%@r#3$H+q@z#6$7$",
". . . e ;+2+3+%@r#3$T.8$d.t+v+",
". . . e ;+2+3+%@r#9$0$a$d./@b$",
". . . e ;+2+3+%@r#k@c$d$e$N@f$",
". . . e ;+2+3+%@m+k@*+d.N@/@g$",
". . . e ;+2+3+_+x+Y@h$d.i$I+g$",
". . . G+]#2+3+j$c@k$(+z+l$N@g$",
". . . G+X+2+m$n$o$4+d.z@/@p$q$",
". . . G+R+r$x+s$@@t$~+v#n@n@7$",
". . . G+X+2+m$R.+.d.1$D#A+A+A#",
". . . G+]#V+o$k$d.[@`.o+e+e+u$",
". . . e ;+V+d.Z.|$v$w$<#<#<#x$",
". . . t+y$D+:+z$A$B$C$C$C$C$D$",
". . . H+d.b@)#E$ #F$F$F$F$F$G$",
". . . z+H$8$z+z+I$I$I$I$I$I$z@",
". . . G++ Q+G+J$J$J$J$J$J$J$5#",
". . . z+x#x#x#x#x#x#x#x#x#x#q@",
". . . t+K$L$L$L$L$L$L$L$L$L$Y.",
". . . z#M$M#M#M#M#M#M#M#M#&@N$",
". . . O$*@P$P$P$P$P$P$P$Q$R$  ",
". . . m@S$T$T$T$T$T$T$U$V$    ",
"W$. X$h$$+*@*@*@*@*@2@Y$      ",
"X+X+O$O$j@L#L#L#L#L#W+        "};
