/* XPM */
static char * close_active_xpm[] = {
"43 27 210 2",
"  	c None",
". 	c #282D2D",
"+ 	c #212D2F",
"@ 	c #3C1B11",
"# 	c #182C30",
"$ 	c #432F2F",
"% 	c #413031",
"& 	c #361C0F",
"* 	c #162F2F",
"= 	c #433231",
"- 	c #1B3535",
"; 	c #371A0F",
"> 	c #463032",
", 	c #1E2E30",
"' 	c #242E2E",
") 	c #282C2D",
"! 	c #2B2B2C",
"~ 	c #242424",
"{ 	c #242525",
"] 	c #596764",
"^ 	c #723E3E",
"/ 	c #7D6649",
"( 	c #844550",
"_ 	c #6C6143",
": 	c #79444C",
"< 	c #79444B",
"[ 	c #78444B",
"} 	c #7B444D",
"| 	c #7E424C",
"1 	c #736246",
"2 	c #643E3C",
"3 	c #723E3C",
"4 	c #556563",
"5 	c #535657",
"6 	c #5A5A5B",
"7 	c #5D5C5C",
"8 	c #130302",
"9 	c #33010B",
"0 	c #380000",
"a 	c #65040F",
"b 	c #58020B",
"c 	c #741419",
"d 	c #711418",
"e 	c #731318",
"f 	c #562819",
"g 	c #65030E",
"h 	c #53030D",
"i 	c #2D020C",
"j 	c #1D0606",
"k 	c #000000",
"l 	c #3E3629",
"m 	c #2F1513",
"n 	c #650E11",
"o 	c #831616",
"p 	c #B3110F",
"q 	c #AE0C0A",
"r 	c #AC0B09",
"s 	c #AE0909",
"t 	c #B30F0E",
"u 	c #801111",
"v 	c #600C0F",
"w 	c #461900",
"x 	c #4B1A1C",
"y 	c #50392D",
"z 	c #130003",
"A 	c #000204",
"B 	c #664A47",
"C 	c #FF757A",
"D 	c #FF6165",
"E 	c #FF8A8B",
"F 	c #FFB5B9",
"G 	c #FFAEB2",
"H 	c #FF8885",
"I 	c #FF7192",
"J 	c #FF7376",
"K 	c #704651",
"L 	c #453429",
"M 	c #0F0000",
"N 	c #040808",
"O 	c #624A48",
"P 	c #64080E",
"Q 	c #FF585B",
"R 	c #FFB7B8",
"S 	c #F9C3D3",
"T 	c #F9B6C7",
"U 	c #F9B3C6",
"V 	c #F9BDD1",
"W 	c #FFABAC",
"X 	c #FF6382",
"Y 	c #861512",
"Z 	c #712E1F",
"` 	c #2B1312",
" .	c #0A1314",
"..	c #030505",
"+.	c #4C151D",
"@.	c #672D1E",
"#.	c #850E13",
"$.	c #FF5F81",
"%.	c #FF80A9",
"&.	c #FFAEAF",
"*.	c #FFA9AD",
"=.	c #FFABAE",
"-.	c #FFAFB8",
";.	c #FF8487",
">.	c #AB404D",
",.	c #7C1416",
"'.	c #330F18",
").	c #1E1211",
"!.	c #050C0D",
"~.	c #371C1B",
"{.	c #370000",
"].	c #974B4E",
"^.	c #964E0C",
"/.	c #AC0605",
"(.	c #CC1C19",
"_.	c #C81A19",
":.	c #C61C1B",
"<.	c #C41E1E",
"[.	c #CA1B1B",
"}.	c #A70205",
"|.	c #8D4305",
"1.	c #884447",
"2.	c #600B11",
"3.	c #281C19",
"4.	c #260202",
"5.	c #010607",
"6.	c #110F0F",
"7.	c #0F0002",
"8.	c #2F1B18",
"9.	c #370B16",
"0.	c #754C56",
"a.	c #994F53",
"b.	c #8E4F51",
"c.	c #895050",
"d.	c #A4292B",
"e.	c #A2282B",
"f.	c #A3262A",
"g.	c #A22B2C",
"h.	c #865253",
"i.	c #A92A2D",
"j.	c #935156",
"k.	c #A75357",
"l.	c #4F2023",
"m.	c #3B0A0E",
"n.	c #1F0303",
"o.	c #030A0B",
"p.	c #0E0F0F",
"q.	c #252525",
"r.	c #0A0F0F",
"s.	c #110103",
"t.	c #1A0000",
"u.	c #2B0000",
"v.	c #310305",
"w.	c #290206",
"x.	c #3A0200",
"y.	c #321118",
"z.	c #321017",
"A.	c #2C382A",
"B.	c #320E16",
"C.	c #2D382C",
"D.	c #330E17",
"E.	c #2E382D",
"F.	c #330F17",
"G.	c #311118",
"H.	c #341017",
"I.	c #370500",
"J.	c #3C0300",
"K.	c #2A0609",
"L.	c #240000",
"M.	c #140000",
"N.	c #0B0001",
"O.	c #000707",
"P.	c #232121",
"Q.	c #1A1A1A",
"R.	c #060908",
"S.	c #070B04",
"T.	c #0A1313",
"U.	c #051110",
"V.	c #011110",
"W.	c #0E0406",
"X.	c #250807",
"Y.	c #090304",
"Z.	c #240404",
"`.	c #0A0002",
" +	c #250303",
".+	c #0A0003",
"++	c #180400",
"@+	c #0A0004",
"#+	c #1F0800",
"$+	c #021716",
"%+	c #240605",
"&+	c #0A0406",
"*+	c #0C0507",
"=+	c #100507",
"-+	c #041211",
";+	c #091111",
">+	c #020707",
",+	c #101010",
"'+	c #232222",
")+	c #1A1B1B",
"!+	c #040406",
"~+	c #201F1F",
"{+	c #535453",
"]+	c #535353",
"^+	c #525352",
"/+	c #4C4C4C",
"(+	c #202020",
"_+	c #191919",
":+	c #131313",
"<+	c #161616",
". + @ # $ % & * = & * = & * = & * = & * = & * = & * = & * = & * = & - ; > , ' ) ! ~ { ",
"] ^ / ( _ : < < < < < < < < < < < < < < < < < < < < < < < < < < < [ } | 1 2 3 4 5 6 7 ",
"8 9 0 a b c d d d d d d d d d d d d d d d d d d d d d d d d d d d d e f g h i j k k k ",
"l m n o p q r r r r r r r r r r r r r r r r r r r r r r r r r r r r s t u v w x y z A ",
"B C D E F G G G G G G G G G G G G G G G G G G G G G G G G G G G G G G F H I J K L M N ",
"O P Q R S T U U U U U U U U U U U U U U U U U U U U U U U U U U U U U V W X Y Z `  ...",
"+.@.#.$.%.&.*.*.*.*.*.*.*.*.*.*.*.*.*.*.*.*.*.*.*.*.*.*.*.*.*.*.*.*.=.-.;.>.,.'.).!.k ",
"~.{.].^./.(._.:.<.<.<.<.<.<.<.<.<.<.<.<.<.<.<.<.<.<.<.<.<.<.<.<.:.:.[.}.|.1.2.3.4.5.6.",
"7.8.9.0.a.b.c.d.e.e.f.e.f.e.f.e.f.e.f.e.f.e.f.e.f.e.f.e.f.e.e.g.d.h.i.j.k.l.m.n.o.p.q.",
"r.s.t.u.v.w.x.y.z.A.B.C.D.E.D.E.D.E.D.E.D.E.D.E.D.E.D.E.D.E.F.G.H.I.J.K.L.M.N.O.p.P.Q.",
"R.S.T.U.V.W.X.Y.Z.`. +.+++.+++.+++.+++.+++.+++.+++.+++.+++@+#+$+%+&+*+=+-+;+>+,+'+)+Q.",
"k k k k k k k k k k k k k k k k k k k k k k k k k k k k k k k k k k k k k k !+~+Q.Q.Q.",
"{+{+{+{+{+{+]+]+]+{+{+]+]+]+]+]+]+]+]+]+]+]+]+]+]+]+]+]+]+]+{+{+]+]+]+{+{+^+/+(+_+Q.Q.",
",+,+,+,+,+,+,+,+,+,+,+,+,+,+,+,+,+,+,+,+,+,+,+,+,+,+,+,+,+,+,+,+,+,+,+,+,+,+:+<+Q.Q.Q.",
"Q.Q.Q.Q.Q.Q.Q.Q.Q.Q.Q.Q.Q.Q.Q.Q.Q.Q.Q.Q.Q.Q.Q.Q.Q.Q.Q.Q.Q.Q.Q.Q.Q.Q.Q.Q.Q.Q.Q.Q.Q.Q.Q.",
"Q.Q.Q.Q.Q.Q.Q.Q.Q.Q.Q.Q.Q.Q.Q.Q.Q.Q.Q.Q.Q.Q.Q.Q.Q.Q.Q.Q.Q.Q.Q.Q.Q.Q.Q.Q.Q.Q.Q.Q.Q.Q.Q.",
"Q.Q.Q.Q.Q.Q.Q.Q.Q.Q.Q.Q.Q.Q.Q.Q.Q.Q.Q.Q.Q.Q.Q.Q.Q.Q.Q.Q.Q.Q.Q.Q.Q.Q.Q.Q.Q.Q.Q.Q.Q.Q.Q.",
"Q.Q.Q.Q.Q.Q.Q.Q.Q.Q.Q.Q.Q.Q.Q.Q.Q.Q.Q.Q.Q.Q.Q.Q.Q.Q.Q.Q.Q.Q.Q.Q.Q.Q.Q.Q.Q.Q.Q.Q.Q.Q.Q.",
"Q.Q.Q.Q.Q.Q.Q.Q.Q.Q.Q.Q.Q.Q.Q.Q.Q.Q.Q.Q.Q.Q.Q.Q.Q.Q.Q.Q.Q.Q.Q.Q.Q.Q.Q.Q.Q.Q.Q.Q.Q.Q.Q.",
"Q.Q.Q.Q.Q.Q.Q.Q.Q.Q.Q.Q.Q.Q.Q.Q.Q.Q.Q.Q.Q.Q.Q.Q.Q.Q.Q.Q.Q.Q.Q.Q.Q.Q.Q.Q.Q.Q.Q.Q.Q.Q.Q.",
"Q.Q.Q.Q.Q.Q.Q.Q.Q.Q.Q.Q.Q.Q.Q.Q.Q.Q.Q.Q.Q.Q.Q.Q.Q.Q.Q.Q.Q.Q.Q.Q.Q.Q.Q.Q.Q.Q.Q.Q.Q.Q.Q.",
"Q.Q.Q.Q.Q.Q.Q.Q.Q.Q.Q.Q.Q.Q.Q.Q.Q.Q.Q.Q.Q.Q.Q.Q.Q.Q.Q.Q.Q.Q.Q.Q.Q.Q.Q.Q.Q.Q.Q.Q.Q.Q.Q.",
"Q.Q.Q.Q.Q.Q.Q.Q.Q.Q.Q.Q.Q.Q.Q.Q.Q.Q.Q.Q.Q.Q.Q.Q.Q.Q.Q.Q.Q.Q.Q.Q.Q.Q.Q.Q.Q.Q.Q.Q.Q.Q.Q.",
"Q.Q.Q.Q.Q.Q.Q.Q.Q.Q.Q.Q.Q.Q.Q.Q.Q.Q.Q.Q.Q.Q.Q.Q.Q.Q.Q.Q.Q.Q.Q.Q.Q.Q.Q.Q.Q.Q.Q.Q.Q.Q.Q.",
"Q.Q.Q.Q.Q.Q.Q.Q.Q.Q.Q.Q.Q.Q.Q.Q.Q.Q.Q.Q.Q.Q.Q.Q.Q.Q.Q.Q.Q.Q.Q.Q.Q.Q.Q.Q.Q.Q.Q.Q.Q.Q.Q.",
"Q.Q.Q.Q.Q.Q.Q.Q.Q.Q.Q.Q.Q.Q.Q.Q.Q.Q.Q.Q.Q.Q.Q.Q.Q.Q.Q.Q.Q.Q.Q.Q.Q.Q.Q.Q.Q.Q.Q.Q.Q.Q.Q.",
"Q.Q.Q.Q.Q.Q.Q.Q.Q.Q.Q.Q.Q.Q.Q.Q.Q.Q.Q.Q.Q.Q.Q.Q.Q.Q.Q.Q.Q.Q.Q.Q.Q.Q.Q.Q.Q.Q.Q.Q.Q.Q.Q."};
