/* XPM */
static char * close_prelight_xpm[] = {
"43 27 171 2",
"  	c None",
". 	c #282D2D",
"+ 	c #212D2F",
"@ 	c #3C1B11",
"# 	c #182C30",
"$ 	c #432F2F",
"% 	c #413031",
"& 	c #361C0F",
"* 	c #162F2F",
"= 	c #433231",
"- 	c #1B3535",
"; 	c #371A0F",
"> 	c #463032",
", 	c #1E2E30",
"' 	c #242E2E",
") 	c #282C2D",
"! 	c #2B2B2C",
"~ 	c #242424",
"{ 	c #242525",
"] 	c #C54443",
"^ 	c #F21515",
"/ 	c #F43B3B",
"( 	c #F22121",
"_ 	c #F33232",
": 	c #F21D1D",
"< 	c #F01E1E",
"[ 	c #EA1F20",
"} 	c #EB3A38",
"| 	c #E91414",
"1 	c #E91818",
"2 	c #E83737",
"3 	c #E82727",
"4 	c #E92D2D",
"5 	c #994949",
"6 	c #7E0707",
"7 	c #AA0909",
"8 	c #AC0909",
"9 	c #BD0A0A",
"0 	c #B60909",
"a 	c #D00B0B",
"b 	c #CE0B0B",
"c 	c #DA0B0B",
"d 	c #9F0808",
"e 	c #8B0707",
"f 	c #040000",
"g 	c #B81713",
"h 	c #C70A0A",
"i 	c #D40B0B",
"j 	c #DF0C0C",
"k 	c #D60B0B",
"l 	c #DC0B0B",
"m 	c #C30A0A",
"n 	c #C50A0A",
"o 	c #CA0B0B",
"p 	c #EB0C0C",
"q 	c #450305",
"r 	c #000204",
"s 	c #D22727",
"t 	c #F77070",
"u 	c #F65D5D",
"v 	c #F88787",
"w 	c #FAB1B1",
"x 	c #FAA9A9",
"y 	c #F88383",
"z 	c #C41411",
"A 	c #100000",
"B 	c #040808",
"C 	c #D52424",
"D 	c #C10A0A",
"E 	c #F55454",
"F 	c #FAB3B3",
"G 	c #FBBEBE",
"H 	c #FAAFAF",
"I 	c #FBB8B8",
"J 	c #FAA7A7",
"K 	c #F66161",
"L 	c #E70C0C",
"M 	c #511110",
"N 	c #0A1314",
"O 	c #030505",
"P 	c #B30C0D",
"Q 	c #E30C0C",
"R 	c #F87F7F",
"S 	c #FAA5A5",
"T 	c #FAADAD",
"U 	c #F32626",
"V 	c #D20B0B",
"W 	c #920B0E",
"X 	c #1E1211",
"Y 	c #050C0D",
"Z 	c #000000",
"` 	c #B10D0D",
" .	c #F32C2C",
"..	c #EE0D0D",
"+.	c #ED0C0C",
"@.	c #CC0B0B",
"#.	c #F21919",
"$.	c #C00A0A",
"%.	c #431916",
"&.	c #260202",
"*.	c #010607",
"=.	c #110F0F",
"-.	c #7B0606",
";.	c #F32424",
">.	c #F33030",
",.	c #F10E0E",
"'.	c #F00D0D",
").	c #F11010",
"!.	c #F43737",
"~.	c #870A0C",
"{.	c #1F0303",
"].	c #030A0B",
"^.	c #0E0F0F",
"/.	c #252525",
"(.	c #0A0F0F",
"_.	c #2A0204",
":.	c #5D0404",
"<.	c #6F0505",
"[.	c #740607",
"}.	c #760608",
"|.	c #800605",
"1.	c #840D10",
"2.	c #830C0F",
"3.	c #971E18",
"4.	c #981E19",
"5.	c #850C0F",
"6.	c #800705",
"7.	c #820705",
"8.	c #790809",
"9.	c #720505",
"0.	c #6A0505",
"a.	c #1B0102",
"b.	c #000707",
"c.	c #232121",
"d.	c #1A1A1A",
"e.	c #060908",
"f.	c #070B04",
"g.	c #0A1313",
"h.	c #051110",
"i.	c #011110",
"j.	c #0E0406",
"k.	c #250807",
"l.	c #090304",
"m.	c #240404",
"n.	c #0A0002",
"o.	c #250303",
"p.	c #0A0003",
"q.	c #180400",
"r.	c #0A0004",
"s.	c #1F0800",
"t.	c #021716",
"u.	c #240605",
"v.	c #0A0406",
"w.	c #0C0507",
"x.	c #100507",
"y.	c #041211",
"z.	c #091111",
"A.	c #020707",
"B.	c #101010",
"C.	c #232222",
"D.	c #1A1B1B",
"E.	c #040406",
"F.	c #201F1F",
"G.	c #535453",
"H.	c #535353",
"I.	c #525352",
"J.	c #4C4C4C",
"K.	c #202020",
"L.	c #191919",
"M.	c #131313",
"N.	c #161616",
". + @ # $ % & * = & * = & * = & * = & * = & * = & * = & * = & * = & - ; > , ' ) ! ~ { ",
"] ^ / ( _ : : : : : : : : : : : : : : : : : : : : : : : : : : : : : < [ } | 1 2 3 4 5 ",
"6 7 8 9 0 a a a a a a a a a a a a a a a a a a a a a a a a a a a a a b c 9 0 7 7 d e f ",
"g 9 h i j k i i i i i i i i i i i i i i i i i i i i i i i i i i i i i l a m n o p q r ",
"s t u v w x x x x x x x x x x x x x x x x x x x x x x x x x x x x x x w y t t : z A B ",
"C D E F G w H H H H H H H H H H H H H H H H H H H H H H H H H H H H H I J K k L M N O ",
"P Q a u R x S S S S S S S S S S S S S S S S S S S S S S S S S S S S J T R U V W X Y Z ",
"` 8  .U a ..p ......................................................+.@.#.( $.%.&.*.=.",
"-.m 0 ;.>. . .,.'.'...'...'...'...'...'...'...'...'...'...'.'.,.,. .).>.!.a ~.{.].^./.",
"(._.:.<.[.}.|.1.2.3.2.4.2.4.2.4.2.4.2.4.2.4.2.4.2.4.2.4.2.4.2.1.5.6.7.8.9.0.a.b.^.c.d.",
"e.f.g.h.i.j.k.l.m.n.o.p.q.p.q.p.q.p.q.p.q.p.q.p.q.p.q.p.q.r.s.t.u.v.w.x.y.z.A.B.C.D.d.",
"Z Z Z Z Z Z Z Z Z Z Z Z Z Z Z Z Z Z Z Z Z Z Z Z Z Z Z Z Z Z Z Z Z Z Z Z Z Z E.F.d.d.d.",
"G.G.G.G.G.G.H.H.H.G.G.H.H.H.H.H.H.H.H.H.H.H.H.H.H.H.H.H.H.H.G.G.H.H.H.G.G.I.J.K.L.d.d.",
"B.B.B.B.B.B.B.B.B.B.B.B.B.B.B.B.B.B.B.B.B.B.B.B.B.B.B.B.B.B.B.B.B.B.B.B.B.B.M.N.d.d.d.",
"d.d.d.d.d.d.d.d.d.d.d.d.d.d.d.d.d.d.d.d.d.d.d.d.d.d.d.d.d.d.d.d.d.d.d.d.d.d.d.d.d.d.d.",
"d.d.d.d.d.d.d.d.d.d.d.d.d.d.d.d.d.d.d.d.d.d.d.d.d.d.d.d.d.d.d.d.d.d.d.d.d.d.d.d.d.d.d.",
"d.d.d.d.d.d.d.d.d.d.d.d.d.d.d.d.d.d.d.d.d.d.d.d.d.d.d.d.d.d.d.d.d.d.d.d.d.d.d.d.d.d.d.",
"d.d.d.d.d.d.d.d.d.d.d.d.d.d.d.d.d.d.d.d.d.d.d.d.d.d.d.d.d.d.d.d.d.d.d.d.d.d.d.d.d.d.d.",
"d.d.d.d.d.d.d.d.d.d.d.d.d.d.d.d.d.d.d.d.d.d.d.d.d.d.d.d.d.d.d.d.d.d.d.d.d.d.d.d.d.d.d.",
"d.d.d.d.d.d.d.d.d.d.d.d.d.d.d.d.d.d.d.d.d.d.d.d.d.d.d.d.d.d.d.d.d.d.d.d.d.d.d.d.d.d.d.",
"d.d.d.d.d.d.d.d.d.d.d.d.d.d.d.d.d.d.d.d.d.d.d.d.d.d.d.d.d.d.d.d.d.d.d.d.d.d.d.d.d.d.d.",
"d.d.d.d.d.d.d.d.d.d.d.d.d.d.d.d.d.d.d.d.d.d.d.d.d.d.d.d.d.d.d.d.d.d.d.d.d.d.d.d.d.d.d.",
"d.d.d.d.d.d.d.d.d.d.d.d.d.d.d.d.d.d.d.d.d.d.d.d.d.d.d.d.d.d.d.d.d.d.d.d.d.d.d.d.d.d.d.",
"d.d.d.d.d.d.d.d.d.d.d.d.d.d.d.d.d.d.d.d.d.d.d.d.d.d.d.d.d.d.d.d.d.d.d.d.d.d.d.d.d.d.d.",
"d.d.d.d.d.d.d.d.d.d.d.d.d.d.d.d.d.d.d.d.d.d.d.d.d.d.d.d.d.d.d.d.d.d.d.d.d.d.d.d.d.d.d.",
"d.d.d.d.d.d.d.d.d.d.d.d.d.d.d.d.d.d.d.d.d.d.d.d.d.d.d.d.d.d.d.d.d.d.d.d.d.d.d.d.d.d.d.",
"d.d.d.d.d.d.d.d.d.d.d.d.d.d.d.d.d.d.d.d.d.d.d.d.d.d.d.d.d.d.d.d.d.d.d.d.d.d.d.d.d.d.d."};
