/* XPM */
static char * hide_prelight_xpm[] = {
"47 27 78 1",
" 	c None",
".	c #242525",
"+	c #5F5D5D",
"@	c #000000",
"#	c #000001",
"$	c #524815",
"%	c #887823",
"&	c #5E5318",
"*	c #2A2A2A",
"=	c #1E1C1C",
"-	c #0A0B0A",
";	c #000102",
">	c #18181A",
",	c #37362D",
"'	c #D3BD44",
")	c #FFE142",
"!	c #FFE244",
"~	c #AF9A2D",
"{	c #191919",
"]	c #211F1F",
"^	c #202121",
"/	c #0E0C0C",
"(	c #030203",
"_	c #090909",
":	c #434133",
"<	c #E2CB50",
"[	c #FFE246",
"}	c #1A1A1A",
"|	c #191A1A",
"1	c #1E1F1F",
"2	c #131212",
"3	c #020302",
"4	c #010001",
"5	c #020102",
"6	c #000100",
"7	c #4A4734",
"8	c #EBD456",
"9	c #FEE34D",
"0	c #B09B2E",
"a	c #252626",
"b	c #1C1A1A",
"c	c #070707",
"d	c #4C4527",
"e	c #F5DC58",
"f	c #FEE249",
"g	c #242424",
"h	c #1A1918",
"i	c #080908",
"j	c #595432",
"k	c #ADA367",
"l	c #AEA369",
"m	c #B1A56A",
"n	c #BAAD6C",
"o	c #BCAF6C",
"p	c #C5B76F",
"q	c #C7B96F",
"r	c #D1C172",
"s	c #D2C372",
"t	c #DCCC74",
"u	c #DDCC75",
"v	c #E8D677",
"w	c #E8D779",
"x	c #E6D36C",
"y	c #AC9D4F",
"z	c #212020",
"A	c #202020",
"B	c #0D0B0B",
"C	c #040304",
"D	c #232323",
"E	c #151313",
"F	c #1D1B1B",
"G	c #464646",
"H	c #515151",
"I	c #535353",
"J	c #535453",
"K	c #171717",
"L	c #131313",
"M	c #101010",
"...............................................",
"+++++++++++++++++++++++++++++++++++++++++++++++",
"@@@@@@@@@@@@@@@@@@@@@@@@@@@@@@@@@@@@@@@@@@@@@@@",
"@@@@@@#@$%%%%%%%%%%%%%%%%%%%%%%%%%%%%%%%%%%%%%&",
"*=-@#;@>,'))!!!!!!!!!!!!!!!!!!!!!!!!!!!!!!))))~",
"{]^/@((@_:<[))))))))))))))))))))))))))))))!))!~",
"}|]12345@6789)[[[[[[[[[[[[[[[[[[[[[[[[[[[[))))0",
"}}}}abc@(@@def))))))))))))))))))))))))))))))))~",
"}}}}|ghi@(5@jkklllmnnnnnopppppqrrrrrstttttuvwxy",
"}}}}}}zAB@54@@@@@@@@@@@@@@@@@@@@@@@@@@@@@@@@@@@",
"}}}}}}|]1234(CCCCCCCCCCCCCCCCCCCCCCCCCCCCCCCCCC",
"}}}}}}}}}DE@@@@@@@@@@@@@@@@@@@@@@@@@@@@@@@@@@@@",
"}}}}}}}}{FGHIJJJJJJJJJJJJJJJJJJJJJJJJJJJJJJJJJJ",
"}}}}}}}}}KLMMMMMMMMMMMMMMMMMMMMMMMMMMMMMMMMMMMM",
"}}}}}}}}}}}}}}}}}}}}}}}}}}}}}}}}}}}}}}}}}}}}}}}",
"}}}}}}}}}}}}}}}}}}}}}}}}}}}}}}}}}}}}}}}}}}}}}}}",
"}}}}}}}}}}}}}}}}}}}}}}}}}}}}}}}}}}}}}}}}}}}}}}}",
"}}}}}}}}}}}}}}}}}}}}}}}}}}}}}}}}}}}}}}}}}}}}}}}",
"}}}}}}}}}}}}}}}}}}}}}}}}}}}}}}}}}}}}}}}}}}}}}}}",
"}}}}}}}}}}}}}}}}}}}}}}}}}}}}}}}}}}}}}}}}}}}}}}}",
"}}}}}}}}}}}}}}}}}}}}}}}}}}}}}}}}}}}}}}}}}}}}}}}",
"}}}}}}}}}}}}}}}}}}}}}}}}}}}}}}}}}}}}}}}}}}}}}}}",
"}}}}}}}}}}}}}}}}}}}}}}}}}}}}}}}}}}}}}}}}}}}}}}}",
"}}}}}}}}}}}}}}}}}}}}}}}}}}}}}}}}}}}}}}}}}}}}}}}",
"}}}}}}}}}}}}}}}}}}}}}}}}}}}}}}}}}}}}}}}}}}}}}}}",
"}}}}}}}}}}}}}}}}}}}}}}}}}}}}}}}}}}}}}}}}}}}}}}}",
"}}}}}}}}}}}}}}}}}}}}}}}}}}}}}}}}}}}}}}}}}}}}}}}"};
