/* XPM */
static char * hide_inactive_xpm[] = {
"47 27 71 1",
" 	c None",
".	c #242525",
"+	c #5F5D5D",
"@	c #000000",
"#	c #000001",
"$	c #2A2A2A",
"%	c #1E1C1C",
"&	c #0A0B0A",
"*	c #000102",
"=	c #18181A",
"-	c #2B2B2A",
";	c #121314",
">	c #020103",
",	c #050305",
"'	c #060406",
")	c #060506",
"!	c #010103",
"~	c #010102",
"{	c #191919",
"]	c #211F1F",
"^	c #202121",
"/	c #0E0C0C",
"(	c #030203",
"_	c #090909",
":	c #2D2D2D",
"<	c #1E1D1C",
"[	c #060706",
"}	c #020102",
"|	c #040204",
"1	c #000002",
"2	c #1A1A1A",
"3	c #191A1A",
"4	c #1E1F1F",
"5	c #131212",
"6	c #020302",
"7	c #010001",
"8	c #000100",
"9	c #2C2D2C",
"0	c #232323",
"a	c #0F1011",
"b	c #030403",
"c	c #070707",
"d	c #080908",
"e	c #030103",
"f	c #040304",
"g	c #252626",
"h	c #1C1A1A",
"i	c #1D1B1B",
"j	c #252323",
"k	c #0C0B0A",
"l	c #242424",
"m	c #1A1918",
"n	c #232424",
"o	c #505151",
"p	c #505150",
"q	c #525252",
"r	c #525352",
"s	c #545454",
"t	c #444542",
"u	c #323130",
"v	c #212020",
"w	c #202020",
"x	c #0D0B0B",
"y	c #151313",
"z	c #464646",
"A	c #515151",
"B	c #535353",
"C	c #535453",
"D	c #171717",
"E	c #131313",
"F	c #101010",
"...............................................",
"+++++++++++++++++++++++++++++++++++++++++++++++",
"@@@@@@@@@@@@@@@@@@@@@@@@@@@@@@@@@@@@@@@@@@@@@@@",
"@@@@@@#@@@@@@@@@@@@@@@@@@@@@@@@@@@@@@@@@@@@@@@@",
"$%&@#*@=-;@>,'''''''''''''''''''''''''''')@!!~@",
"{]^/@((@_:<[@}(((((((((((((((((((((((((((|,1*)@",
"23]4567}@890abcdddddddddddddddddddddddddd_ef##}",
"2222ghc@(@@ijk@@@@@@@@@@@@@@@@@@@@@@@@@@@@@@@@@",
"22223lmd@(}@nopqqqqqqqqqqqqqqqqqqqqqqqqqqqqrstu",
"222222vwx@}7@@@@@@@@@@@@@@@@@@@@@@@@@@@@@@@@@@@",
"2222223]4567(ffffffffffffffffffffffffffffffffff",
"2222222220y@@@@@@@@@@@@@@@@@@@@@@@@@@@@@@@@@@@@",
"22222222{izABCCCCCCCCCCCCCCCCCCCCCCCCCCCCCCCCCC",
"222222222DEFFFFFFFFFFFFFFFFFFFFFFFFFFFFFFFFFFFF",
"22222222222222222222222222222222222222222222222",
"22222222222222222222222222222222222222222222222",
"22222222222222222222222222222222222222222222222",
"22222222222222222222222222222222222222222222222",
"22222222222222222222222222222222222222222222222",
"22222222222222222222222222222222222222222222222",
"22222222222222222222222222222222222222222222222",
"22222222222222222222222222222222222222222222222",
"22222222222222222222222222222222222222222222222",
"22222222222222222222222222222222222222222222222",
"22222222222222222222222222222222222222222222222",
"22222222222222222222222222222222222222222222222",
"22222222222222222222222222222222222222222222222"};
