/* XPM */
static char * left_active_xpm[] = {
"15 1 14 1",
" 	c None",
".	c #965658",
"+	c #C91A18",
"@	c #FFA0A2",
"#	c #FDE7EF",
"$	c #FDE4EE",
"%	c #FF9BA0",
"&	c #C41E1E",
"*	c #A22B2C",
"=	c #2E080F",
"-	c #182825",
";	c #272624",
">	c #1C1C1C",
",	c #AC0B09",
".+@#$%&*=-;>,  "};
