/* XPM */
static char * maximize_prelight_xpm[] = {
"46 27 51 1",
" 	c None",
".	c #242525",
"+	c #232324",
"@	c #5F5D5D",
"#	c #5F5F5D",
"$	c #5E675E",
"%	c #5D705E",
"&	c #5D715E",
"*	c #5D775F",
"=	c #5C7B5F",
"-	c #5C7E5F",
";	c #5B8560",
">	c #567B5C",
",	c #0BC325",
"'	c #0CD528",
")	c #0AAD20",
"!	c #04490E",
"~	c #1C1A1A",
"{	c #09941D",
"]	c #0CD729",
"^	c #302E2E",
"/	c #1D321F",
"(	c #0DD229",
"_	c #0CD929",
":	c #000000",
"<	c #1E1D1D",
"[	c #23782E",
"}	c #0DE62C",
"|	c #0DDA2A",
"1	c #141412",
"2	c #1EBB34",
"3	c #0DEA2C",
"4	c #010002",
"5	c #020102",
"6	c #122F15",
"7	c #45E45B",
"8	c #45E85B",
"9	c #47E85D",
"0	c #47E45D",
"a	c #48DE5C",
"b	c #48DC5C",
"c	c #48D35C",
"d	c #49D45D",
"e	c #44D258",
"f	c #25AE3A",
"g	c #010001",
"h	c #040304",
"i	c #020103",
"j	c #535453",
"k	c #101010",
"l	c #1A1A1A",
".............................................+",
"@@@@@#$$$$$$$$$$$$%&&&&&&&&&&&*===========-;;>",
",'''''''''''''''''''''''''''''''''''''''''''')",
"!'''''''''''''''''''''''''''''''''''''''''''')",
"~{']]]]]]]]]]]]]]]]]]]]]]]]]]]]]]]]]]]]]]'''')",
"^/('''''''''''''''''''''''''''''''''''''']''_)",
":<[}'_||||||||||||||||||||||||||||||||||||''')",
"::123'''''''''''''''''''''''''''''''''''''''')",
"45:67899999999990aaaaaaaaaaaaaaaaaaaaabccccdef",
"gh5:::::::::::::::::::::::::::::::::::::::::::",
"hhhhhhhhhhhhhhhhhhhhhhhhhhhhhhhhhhhhhhhhhhhhhi",
"::::::::::::::::::::::::::::::::::::::::::::::",
"jjjjjjjjjjjjjjjjjjjjjjjjjjjjjjjjjjjjjjjjjjjjjj",
"kkkkkkkkkkkkkkkkkkkkkkkkkkkkkkkkkkkkkkkkkkkkkk",
"llllllllllllllllllllllllllllllllllllllllllllll",
"llllllllllllllllllllllllllllllllllllllllllllll",
"llllllllllllllllllllllllllllllllllllllllllllll",
"llllllllllllllllllllllllllllllllllllllllllllll",
"llllllllllllllllllllllllllllllllllllllllllllll",
"llllllllllllllllllllllllllllllllllllllllllllll",
"llllllllllllllllllllllllllllllllllllllllllllll",
"llllllllllllllllllllllllllllllllllllllllllllll",
"llllllllllllllllllllllllllllllllllllllllllllll",
"llllllllllllllllllllllllllllllllllllllllllllll",
"llllllllllllllllllllllllllllllllllllllllllllll",
"llllllllllllllllllllllllllllllllllllllllllllll",
"llllllllllllllllllllllllllllllllllllllllllllll"};
