/* XPM */
static char * maximize_pressed_xpm[] = {
"46 27 45 1",
" 	c None",
".	c #242525",
"+	c #232324",
"@	c #5F5D5D",
"#	c #5E5D5D",
"$	c #585A5A",
"%	c #000000",
"&	c #1C1A1A",
"*	c #030404",
"=	c #020002",
"-	c #040304",
";	c #060406",
">	c #000102",
",	c #010103",
"'	c #302E2E",
")	c #1E1D1D",
"!	c #0E0D0D",
"~	c #030203",
"{	c #000001",
"]	c #060506",
"^	c #292828",
"/	c #141312",
"(	c #020202",
"_	c #060606",
":	c #080808",
"<	c #080908",
"[	c #090909",
"}	c #040204",
"|	c #272828",
"1	c #171515",
"2	c #010002",
"3	c #020102",
"4	c #131211",
"5	c #505151",
"6	c #4F504F",
"7	c #515251",
"8	c #525252",
"9	c #525352",
"0	c #535453",
"a	c #4E4F4E",
"b	c #2B3030",
"c	c #010001",
"d	c #020103",
"e	c #101010",
"f	c #1A1A1A",
".............................................+",
"@@@@@@@@@@@@@@@@@@@@@@@@@@@@@@@@@@@@@@@@@@@@#$",
"%%%%%%%%%%%%%%%%%%%%%%%%%%%%%%%%%%%%%%%%%%%%%%",
"%%%%%%%%%%%%%%%%%%%%%%%%%%%%%%%%%%%%%%%%%%%%%%",
"&*=-;;;;;;;;;;;;;;;;;;;;;;;;;;;;;;;;;;;;;>,,>%",
"')!%=~~~~~~~~~~~~~~~~~~~~~~~~~~~~~~~~~~~~-{>]%",
"%)^/(_:<<<<<<<<<<<<<<<<<<<<<<<<<<<<<<<<<<[}{{%",
"%%/|1%%%%%%%%%%%%%%%%%%%%%%%%%%%%%%%%%%%%%%%%%",
"23%45678888888888888888888888888888888888890ab",
"c-3%%%%%%%%%%%%%%%%%%%%%%%%%%%%%%%%%%%%%%%%%%%",
"---------------------------------------------d",
"%%%%%%%%%%%%%%%%%%%%%%%%%%%%%%%%%%%%%%%%%%%%%%",
"0000000000000000000000000000000000000000000000",
"eeeeeeeeeeeeeeeeeeeeeeeeeeeeeeeeeeeeeeeeeeeeee",
"ffffffffffffffffffffffffffffffffffffffffffffff",
"ffffffffffffffffffffffffffffffffffffffffffffff",
"ffffffffffffffffffffffffffffffffffffffffffffff",
"ffffffffffffffffffffffffffffffffffffffffffffff",
"ffffffffffffffffffffffffffffffffffffffffffffff",
"ffffffffffffffffffffffffffffffffffffffffffffff",
"ffffffffffffffffffffffffffffffffffffffffffffff",
"ffffffffffffffffffffffffffffffffffffffffffffff",
"ffffffffffffffffffffffffffffffffffffffffffffff",
"ffffffffffffffffffffffffffffffffffffffffffffff",
"ffffffffffffffffffffffffffffffffffffffffffffff",
"ffffffffffffffffffffffffffffffffffffffffffffff",
"ffffffffffffffffffffffffffffffffffffffffffffff"};
