/* XPM */
static char * right_inactive_xpm[] = {
"15 1 14 1",
" 	c None",
".	c #AC0B09",
"+	c #1C1C1C",
"@	c #272624",
"#	c #182825",
"$	c #2E080F",
"%	c #A22B2C",
"&	c #C41E1E",
"*	c #FF9BA0",
"=	c #FDE4EE",
"-	c #FDE7EF",
";	c #FFA0A2",
">	c #C91A18",
",	c #965658",
"...+@#$%&*=-;>,"};
