/* XPM */
static char * title_4_inactive_xpm[] = {
"1 39 14 1",
" 	c None",
".	c #4F5050",
"+	c #3A3A3A",
"@	c #3C3C3C",
"#	c #363636",
"$	c #333333",
"%	c #323232",
"&	c #242525",
"*	c #5F5D5D",
"=	c #000000",
"-	c #666565",
";	c #0C0C0C",
">	c #1A1A1A",
",	c #AC0B09",
".",
"+",
"@",
"#",
"$",
"%",
"&",
"*",
"=",
"-",
";",
">",
">",
">",
">",
">",
">",
">",
">",
">",
">",
">",
">",
">",
">",
">",
">",
">",
">",
">",
">",
">",
">",
">",
">",
">",
">",
">",
","};
