/* XPM */
static char * top_right_active_xpm[] = {
"16 199 523 2",
"  	c None",
". 	c #575757",
"+ 	c #595958",
"@ 	c #4D4D4D",
"# 	c #5F5F5F",
"$ 	c #3A3A3A",
"% 	c #3B3B3B",
"& 	c #434343",
"* 	c #4A4A4A",
"= 	c #646464",
"- 	c #3C3C3C",
"; 	c #444444",
"> 	c #4B4B4B",
", 	c #686868",
"' 	c #363636",
") 	c #3D3D3D",
"! 	c #4E4F4E",
"~ 	c #333333",
"{ 	c #393939",
"] 	c #323232",
"^ 	c #373737",
"/ 	c #545454",
"( 	c #242525",
"_ 	c #272727",
": 	c #292929",
"< 	c #2C2C2C",
"[ 	c #424242",
"} 	c #5F5D5D",
"| 	c #5D5B5B",
"1 	c #2F2F2F",
"2 	c #444445",
"3 	c #000000",
"4 	c #252524",
"5 	c #262624",
"6 	c #262625",
"7 	c #3C3C3A",
"8 	c #666565",
"9 	c #646262",
"0 	c #373838",
"a 	c #292A28",
"b 	c #282928",
"c 	c #2A2A29",
"d 	c #3F3F3E",
"e 	c #0C0C0C",
"f 	c #0F0F0F",
"g 	c #090708",
"h 	c #22211F",
"i 	c #22201F",
"j 	c #242221",
"k 	c #383635",
"l 	c #1A1A1A",
"m 	c #19191A",
"n 	c #171717",
"o 	c #0E0C0D",
"p 	c #393A3A",
"q 	c #1F2020",
"r 	c #212122",
"s 	c #353535",
"t 	c #181818",
"u 	c #2C2B29",
"v 	c #1F1E1E",
"w 	c #080606",
"x 	c #3E3F3F",
"y 	c #1B1C1C",
"z 	c #1C1C1D",
"A 	c #1E1E1E",
"B 	c #161717",
"C 	c #2A2927",
"D 	c #212020",
"E 	c #0B0909",
"F 	c #323231",
"G 	c #1C1A1A",
"H 	c #191919",
"I 	c #222021",
"J 	c #202121",
"K 	c #2B2A28",
"L 	c #161616",
"M 	c #2D2D2D",
"N 	c #201F1F",
"O 	c #030406",
"P 	c #3F4040",
"Q 	c #151515",
"R 	c #2E2E2E",
"S 	c #060505",
"T 	c #383836",
"U 	c #0E0C0C",
"V 	c #262626",
"W 	c #181819",
"X 	c #040303",
"Y 	c #3D3E3E",
"Z 	c #1C1D1D",
"` 	c #050404",
" .	c #353634",
"..	c #100E0F",
"+.	c #151414",
"@.	c #161515",
"#.	c #292828",
"$.	c #030202",
"%.	c #444545",
"&.	c #292725",
"*.	c #363735",
"=.	c #1D1B1C",
"-.	c #171616",
";.	c #2A2929",
">.	c #141212",
",.	c #171818",
"'.	c #2D2B29",
").	c #121111",
"!.	c #0C0A0B",
"~.	c #312F2D",
"{.	c #414242",
"].	c #100F0F",
"^.	c #060405",
"/.	c #373836",
"(.	c #0D0B0C",
"_.	c #000002",
":.	c #2E2C2A",
"<.	c #1D1C1C",
"[.	c #2B2A29",
"}.	c #383937",
"|.	c #040203",
"1.	c #282828",
"2.	c #222222",
"3.	c #060404",
"4.	c #131112",
"5.	c #222120",
"6.	c #393938",
"7.	c #222020",
"8.	c #070505",
"9.	c #343433",
"0.	c #0F0D0E",
"a.	c #222323",
"b.	c #1F1E1D",
"c.	c #191A1A",
"d.	c #282624",
"e.	c #343432",
"f.	c #3A3A38",
"g.	c #262525",
"h.	c #1A1B1B",
"i.	c #3C3D3D",
"j.	c #302F2D",
"k.	c #252424",
"l.	c #1F1F1F",
"m.	c #383838",
"n.	c #1A1818",
"o.	c #1F1E1F",
"p.	c #080707",
"q.	c #3B3C3A",
"r.	c #484846",
"s.	c #282727",
"t.	c #0B0A0A",
"u.	c #303030",
"v.	c #414142",
"w.	c #010000",
"x.	c #232222",
"y.	c #0F0E0D",
"z.	c #100E0E",
"A.	c #1B1B1B",
"B.	c #404141",
"C.	c #242220",
"D.	c #242323",
"E.	c #020303",
"F.	c #0B0C0E",
"G.	c #1C1C1C",
"H.	c #101010",
"I.	c #232122",
"J.	c #232120",
"K.	c #020202",
"L.	c #1D1D1D",
"M.	c #404040",
"N.	c #292727",
"O.	c #201F20",
"P.	c #1E1F1F",
"Q.	c #202020",
"R.	c #3E3E3E",
"S.	c #4C4A4A",
"T.	c #363433",
"U.	c #212222",
"V.	c #464444",
"W.	c #4B4C4C",
"X.	c #3C3D3B",
"Y.	c #030303",
"Z.	c #242424",
"`.	c #434141",
" +	c #5B5A5A",
".+	c #3B3B3A",
"++	c #010101",
"@+	c #413F3F",
"#+	c #656563",
"$+	c #3A3B39",
"%+	c #060706",
"&+	c #313131",
"*+	c #403E3F",
"=+	c #646462",
"-+	c #AC0B09",
";+	c #393A38",
">+	c #050508",
",+	c #0F0F11",
"'+	c #090808",
")+	c #1E1D1C",
"!+	c #2E2E2C",
"~+	c #413F40",
"{+	c #1A1919",
"]+	c #0E0D0D",
"^+	c #0D0C0C",
"/+	c #424040",
"(+	c #181616",
"_+	c #262424",
":+	c #434444",
"<+	c #434242",
"[+	c #0C0A0A",
"}+	c #252525",
"|+	c #000103",
"1+	c #2A2A28",
"2+	c #494747",
"3+	c #111213",
"4+	c #434344",
"5+	c #666664",
"6+	c #0C0C0E",
"7+	c #212121",
"8+	c #6A6A68",
"9+	c #191716",
"0+	c #161414",
"a+	c #040202",
"b+	c #2D2E2E",
"c+	c #313232",
"d+	c #6B6969",
"e+	c #515252",
"f+	c #090707",
"g+	c #454646",
"h+	c #252523",
"i+	c #2D2B2C",
"j+	c #000101",
"k+	c #545353",
"l+	c #4E4C4C",
"m+	c #474546",
"n+	c #4C4C4C",
"o+	c #1E1D1D",
"p+	c #2E2F2D",
"q+	c #434142",
"r+	c #666765",
"s+	c #1B1A1A",
"t+	c #0F0E0E",
"u+	c #181717",
"v+	c #252626",
"w+	c #3E3F3E",
"x+	c #696967",
"y+	c #646363",
"z+	c #3F3F3F",
"A+	c #6A6969",
"B+	c #525353",
"C+	c #545252",
"D+	c #111111",
"E+	c #666764",
"F+	c #646463",
"G+	c #282626",
"H+	c #656564",
"I+	c #111113",
"J+	c #181919",
"K+	c #030302",
"L+	c #1D1C1A",
"M+	c #363737",
"N+	c #4D4E4E",
"O+	c #232424",
"P+	c #000001",
"Q+	c #262727",
"R+	c #040404",
"S+	c #100F0E",
"T+	c #1F1D1D",
"U+	c #404041",
"V+	c #696A68",
"W+	c #191717",
"X+	c #1D1B19",
"Y+	c #6F6F6D",
"Z+	c #6A6868",
"`+	c #555555",
" @	c #2F3030",
".@	c #121212",
"+@	c #4E4D4D",
"@@	c #484646",
"#@	c #4E4E4E",
"$@	c #0F0D0D",
"%@	c #080607",
"&@	c #3B3B39",
"*@	c #2A2A2A",
"=@	c #484647",
"-@	c #030403",
";@	c #2B2A2A",
">@	c #363736",
",@	c #373634",
"'@	c #4E4E4D",
")@	c #070606",
"!@	c #353331",
"~@	c #464646",
"{@	c #3C3C3B",
"]@	c #010102",
"^@	c #636462",
"/@	c #292A2A",
"(@	c #656664",
"_@	c #242223",
":@	c #121010",
"<@	c #484949",
"[@	c #686867",
"}@	c #1C1B19",
"|@	c #6E6E6D",
"1@	c #696868",
"2@	c #474747",
"3@	c #484848",
"4@	c #131313",
"5@	c #131111",
"6@	c #303131",
"7@	c #4F4D4D",
"8@	c #262526",
"9@	c #020000",
"0@	c #646563",
"a@	c #131315",
"b@	c #2C2A2A",
"c@	c #373533",
"d@	c #555656",
"e@	c #343331",
"f@	c #474748",
"g@	c #333838",
"h@	c #414141",
"i@	c #4F4E4E",
"j@	c #192424",
"k@	c #0E0F11",
"l@	c #343434",
"m@	c #384846",
"n@	c #2D2E2B",
"o@	c #5A6764",
"p@	c #08080A",
"q@	c #5B6462",
"r@	c #5F6463",
"s@	c #030101",
"t@	c #333434",
"u@	c #474646",
"v@	c #636564",
"w@	c #181918",
"x@	c #696966",
"y@	c #242523",
"z@	c #6E6F6D",
"A@	c #363637",
"B@	c #5B5C5C",
"C@	c #282726",
"D@	c #676766",
"E@	c #646564",
"F@	c #353533",
"G@	c #686966",
"H@	c #3A3B3B",
"I@	c #0A0808",
"J@	c #5B5B5C",
"K@	c #1C1A18",
"L@	c #3B3A38",
"M@	c #030404",
"N@	c #050608",
"O@	c #0C0B0B",
"P@	c #676866",
"Q@	c #111010",
"R@	c #474848",
"S@	c #686967",
"T@	c #6D6E6C",
"U@	c #333334",
"V@	c #2C2C2B",
"W@	c #4F4F4F",
"X@	c #5C5D5D",
"Y@	c #3D3B39",
"Z@	c #494949",
"`@	c #151517",
" #	c #504E4E",
".#	c #0D0B0B",
"+#	c #020101",
"@#	c #464747",
"##	c #696A66",
"$#	c #1C1B1A",
"%#	c #08090B",
"&#	c #676765",
"*#	c #676865",
"=#	c #6E6E6C",
"-#	c #2C2C2A",
";#	c #383634",
">#	c #5C5D5C",
",#	c #0B0B0D",
"'#	c #232323",
")#	c #3E3C39",
"!#	c #151618",
"~#	c #030405",
"{#	c #333433",
"]#	c #1E1D1E",
"^#	c #202122",
"/#	c #050303",
"(#	c #3B3C3C",
"_#	c #2A2827",
":#	c #202021",
"<#	c #424041",
"[#	c #0A0809",
"}#	c #232425",
"|#	c #383939",
"1#	c #454344",
"2#	c #1E1F20",
"3#	c #434546",
"4#	c #121616",
"5#	c #242726",
"6#	c #2C2F2E",
"7#	c #111212",
"8#	c #4B494A",
"9#	c #0A0909",
"0#	c #3F4545",
"a#	c #1B0100",
"b#	c #350C0C",
"c#	c #283436",
"d#	c #3A4040",
"e#	c #676767",
"f#	c #2A2826",
"g#	c #1E1E1F",
"h#	c #070808",
"i#	c #3D4949",
"j#	c #2A0A09",
"k#	c #473228",
"l#	c #40281D",
"m#	c #583F40",
"n#	c #080E0F",
"o#	c #282C2D",
"p#	c #6C6D6B",
"q#	c #292826",
"r#	c #0A0F0F",
"s#	c #5F4645",
"t#	c #1C0707",
"u#	c #5D1E20",
"v#	c #541316",
"w#	c #44393B",
"x#	c #49281C",
"y#	c #03090A",
"z#	c #676666",
"A#	c #212424",
"B#	c #0C1313",
"C#	c #544546",
"D#	c #2C000C",
"E#	c #7F3028",
"F#	c #4E3A3F",
"G#	c #5A3B3B",
"H#	c #734040",
"I#	c #606060",
"J#	c #1F2425",
"K#	c #190100",
"L#	c #474445",
"M#	c #551400",
"N#	c #C06127",
"O#	c #5E2119",
"P#	c #75261A",
"Q#	c #633C3C",
"R#	c #122523",
"S#	c #3F4240",
"T#	c #1D2526",
"U#	c #140100",
"V#	c #634747",
"W#	c #760813",
"X#	c #FF7B8A",
"Y#	c #600914",
"Z#	c #60281A",
"`#	c #793F4A",
" $	c #483637",
".$	c #1A1F22",
"+$	c #282725",
"@$	c #212827",
"#$	c #260A09",
"$$	c #564745",
"%$	c #61070C",
"&$	c #FF7174",
"*$	c #B31A1A",
"=$	c #9E1E20",
"-$	c #673A45",
";$	c #785A3F",
">$	c #283235",
",$	c #282625",
"'$	c #1F2827",
")$	c #220A0A",
"!$	c #7A3326",
"~$	c #88181C",
"{$	c #FF6A6D",
"]$	c #D46B73",
"^$	c #82191B",
"/$	c #8B4447",
"($	c #675439",
"_$	c #5D4549",
":$	c #1F0B0C",
"<$	c #713326",
"[$	c #7E1419",
"}$	c #FF5C5F",
"|$	c #FF5659",
"1$	c #A81312",
"2$	c #95191C",
"3$	c #633540",
"4$	c #6D7973",
"5$	c #1E2827",
"6$	c #1C0D0D",
"7$	c #6A3527",
"8$	c #B51719",
"9$	c #FF9296",
"0$	c #FF8787",
"a$	c #CD5C62",
"b$	c #BE1A18",
"c$	c #8A3C41",
"d$	c #82674E",
"e$	c #1D2928",
"f$	c #2C0005",
"g$	c #872127",
"h$	c #AD1412",
"i$	c #FF8687",
"j$	c #FEAFAF",
"k$	c #E15A79",
"l$	c #D42A26",
"m$	c #7E3D41",
"n$	c #7A684F",
"o$	c #1B2A27",
"p$	c #270001",
"q$	c #801E22",
"r$	c #A80C0A",
"s$	c #FF83AB",
"t$	c #F99E9C",
"u$	c #FF7FA5",
"v$	c #C51C1C",
"w$	c #73383E",
"x$	c #854D5A",
". . . . . . . . . + @ #         ",
"$ $ $ $ $ $ $ $ $ % & * =       ",
"- - - - - - - - - - - ; > ,     ",
"' ' ' ' ' ' ' ' ' ' ' ' ) !     ",
"~ ~ ~ ~ ~ ~ ~ ~ ~ ~ ~ ~ ~ { >   ",
"] ] ] ] ] ] ] ] ] ] ] ] ] ] ^ / ",
"( ( ( ( _ : < < < < < < < < < [ ",
"} } } } | ] 1 1 1 1 1 1 1 1 1 2 ",
"3 3 3 3 3 4 5 6 6 6 6 6 6 6 6 7 ",
"8 8 8 8 9 0 a b c c c c c c c d ",
"e e e e f g 0 h i j j j j j j k ",
"l l l l m n o p q q r r r r r s ",
"l l l l t u v w x y z A A A A ] ",
"l l l l B C D 3 E F G n H H H < ",
"l l l l B C I 3 J B K L l l l M ",
"l l l l B C N O M 3 P Q H l l R ",
"l l l l B C v S T U V ( W y y 1 ",
"l l l l B C v X Y Z `  ...+.@.#.",
"l l l l B C v $.%.&.3 *.=.+.-.;.",
"l l l l B C v X Y y >.,.'.).-.;.",
"l l l l B C v `  .!.~.3 {.].@.;.",
"l l l l B C v ^./.(.~._.:.<.+.[.",
"l l l l B C v ^.}.|.1.2.3./.4.5.",
"l l l l B C v ^.6.^.t {.3 & ).7.",
"l l l l B C v ^.6.8.t 9.0.v a.b.",
"l l l l B C v ^.6.8.c.d.e.3 f.g.",
"l l l l B C v ^.6.8.h.q i.3 j.k.",
"l l l l B C v ^.6.8.h.l.m.n.).p ",
"l l l l B C o.p.q.p.h.l.~ p 3 r.",
"l l l l B C D 3 s.t.h.l.u.v.w.s ",
"l l l l B C x.3 y.z.A.l.R B.C.<.",
"l l l l B C D.3 E.F.G.l.M ; x H.",
"l l l l B C I.3 J.K.L.l.M M.Y N.",
"l l l l B C O.$.M 3 P.Q.M R.S.M.",
"l l l l B C v p.T.3 n.U.M ) V.W.",
"l l l l B C v S X.3 Y.Z.M ) `. +",
"l l l l B C v ^..+++3 _ R ) @+#+",
"l l l l B C v ^.$+3.%+>.&+) *+=+",
"  l -+l B C v ^.;+>+,+3 s R.@+=+",
"  -+-+-+B C v ^.;+'+)+3 !+{ ~+=+",
"  -+-+-+B C v ^.6.p.{+]+^+x /+=+",
"  -+-+-+B C o.p.q.'+(+_+3 :+<+=+",
"  -+-+-+B C D 3 s.[+G.}+|+1+2+#+",
"  -+-+-+B C x.3 3+z.A.}+J 3 4+5+",
"  -+-+-+B C D.3 Y.6+G.7+R.3 B.8+",
"  -+-+-+B C I.3 9+Y.L.l.m.0+B 9 ",
"  -+-+-+B C O.a+b+3 P.Q.c+x 3 d+",
"  -+-+-+B C v p.T.3 n.7+R @ 3 e+",
"  -+-+-+B C v S X.3 f+Z.M g+h+i+",
"  -+-+-+B C v ^..+j+3 _ R M.k+H.",
"  -+-+-+B C v ^.$+3.%+>.&+) l+< ",
"  -+-+-+B C v ^.;+>+,+3 s R.m+n+",
"  -+-+-+B C v ^.;+'+o+3 p+{ q+r+",
"  -+-+-+B C v ^.6.p.s+t+U x /+=+",
"  -+-+-+B C o.p.q.'+u+J 3 :+<+=+",
"  -+-+-+B C D 3 s.[+Z v+3 1+2+#+",
"  -+-+-+B C x.3 3+z.A.}+7+3 :+5+",
"  -+-+-+B C D.3 Y.6+G.7+w+3 {.x+",
"  -+-+-+B C I.3 9+Y.L.l.{ H.n y+",
"  -+-+-+B C O.a+b+3 P.Q.] z+3 A+",
"  -+-+-+B C v p.T.3 n.7+R @ 3 B+",
"  -+-+-+B C v S X.3 f+Z.M g+h+u.",
"  -+-+-+B C v ^..+j+3 _ R M.C+D+",
"  -+-+-+B C v ^.$+3.%+>.&+) l+M ",
"  -+-+-+B C v ^.;+>+,+3 s R.m+n+",
"  -+-+-+B C v ^.;+'+o+3 p+{ q+E+",
"  -+-+-+B C v ^.6.p.s+]+(.R./+F+",
"  -+-+-+B C o.p.q.'+(+_+3 4+<+F+",
"  -+-+-+B C D 3 G+[+G.}+3 a 2+H+",
"  -+-+-+B C x.3 I+z.A.}+7+3 :+5+",
"  -+-+-+J+C x.3 K+6+G.7+w+3 v.x+",
"  -+-+-+h.C I.3 9+Y.L.l.{ H.L+y+",
"  -+-+-+Z C O.a+b+3 P.Q.] M+3 A+",
"  -+-+-+Z C v p.T.3 n.7+R N+3 B+",
"  -+-+-+Z C v S X.3 p.O+M g+h+u.",
"  -+-+-+Z C v ^..+P+3 Q+R M.C+D+",
"  -+-+-+Z C v ^.$+3.R+>.&+) l+M ",
"  -+-+-+Z C v ^.;+>+,+3 s R.m+n+",
"  -+-+-+Z C v ^.;+'+o+3 p+{ q+E+",
"  -+-+-+Z C v ^.6.p.s+]+(.R./+F+",
"  -+-+-+Z C o.p.q.'+(+_+3 4+<+F+",
"  -+-+-+Z C D 3 G+[+G.}+3 1+2+H+",
"  -+-+-+Z C x.3 3+S+A.v+T+3 :+5+",
"  -+-+-+Z C x.3 3 6+G.7+x 3 U+V+",
"  -+-+-+Z C I.3 W+Y.L.l.{ H.X+Y+",
"  -+-+-+Z C O.a+b+3 P.Q.] ' 3 Z+",
"  -+-+-+Z C v p.T.3 n.7+R @ 3 `+",
"  -+-+-+Z C v S X.3 p.O+M g+h+ @",
"  -+-+-+Z C v ^..+P+3 Q+R M.k+.@",
"  -+-+-+Z C v ^.$+3.R+>.&+) +@1.",
"  -+-+-+Z C v ^.;+>+,+3 s R.@@#@",
"  -+-+-+Z C v ^.;+'+o+3 p+{ q+r+",
"  -+-+-+Z C v ^.6.p.s+$@U R./+=+",
"  -+-+-+Z C o.%@&@g u+Q.3 4+<+=+",
"  -+-+-+Z C D 3 *@[+Z }+3 a =@#+",
"  -+-+-+Z C x.3 I+z.A.v+o+w & 5+",
"  -+-+-+Z C x.3 3 6+G.7+R.3 P V+",
"  -+-+-+Z C I.3 W+-@L.l.{ H.X+Y+",
"  -+-+-+Z C O.X ;@3 P.Q.] >@3 Z+",
"  -+-+-+Z C v '+,@3 n.7+R '@3 `+",
"  -+-+-+Z C v )@!@3 f+O+M ~@h+' ",
"  -+-+-+Z C v S {@]@3 Q+R M.C+.@",
"  -+-+-+Z C v ^.$+3.R+>.&+) +@1.",
"  -+-+-+Z C v ^.;+>+,+3 s R.@@N+",
"  -+-+-+Z C v ^.;+'+o+3 p+{ q+5+",
"  -+-+-+Z C v ^.6.p.s+$@U R./+^@",
"  -+-+-+Z C v )@$+g u+Q.3 :+<+^@",
"  -+-+-+Z C O.$./@t.Z v+3 a =@=+",
"  -+-+-+Z C I.3 @.t+A.V T+w & (@",
"  -+-+-+Z C _@3 3 :@y 7+z+3 <@[@",
"  -+-+-+Z C I.3 W+Y.L.l.$ '+}@|@",
"  -+-+-+Z C O.X ;@3 P.Q.~ M+3 1@",
"  -+-+-+Z C v '+,@3 n.7+R @ 3 `+",
"  -+-+-+Z C v )@!@3 f+O+M 2@h+' ",
"  -+-+-+Z C v S {@]@3 Q+R B.3@4@",
"  -+-+-+Z C v ^.$+3.R+5@6@Y 7@8@",
"  -+-+-+Z C v ^.;+>+,+9@s R.@@N+",
"  -+-+-+Z C v ^.;+'+)+3 !+{ q+r+",
"  -+-+-+Z C v ^.6.p.s+$@U R./+0@",
"  -+-+-+Z C v )@$+g u+Q.3 :+<+0@",
"  -+-+-+Z C O.$./@t.Z v+3 a =@#+",
"  -+-+-+Z C I.3 @.t+A.V T+w & (@",
"  -+-+-+Z C _@3 3 :@y 7+z+3 <@[@",
"  -+-+-+Z C I.3 a@-@L.l.$ '+}@|@",
"  -+-+-+Z C O.X b@3 P.Q.~ ^ 3 1@",
"  -+-+-+Z C v '+c@3 n.7+R #@3 d@",
"  -+-+-+Z C v )@e@3 p.O+M f@X+g@",
"  -+-+-+Z C v S q.++3 V R h@<@4@",
"  -+-+-+Z C v ^.$+3.Y.H u.Y i@j@",
"  -+-+-+Z C v ^.;+>+k@9@l@Y @@m@",
"  -+-+-+Z C v ^.;+'+o+3 n@B.`.o@",
"  -+-+-+Z C v ^.6.p.G p@4@) ~+q@",
"  -+-+-+Z C v )@$+p.u+Q.3 [ `.r@",
"  -+-+-+Z C O.s@ @E Z v+3 t@u@v@",
"  -+-+-+Z C I.3 @.$@A.V w@w [ (@",
"  -+-+-+Z C _@3 3 :@y 2.z+3 3@x@",
"  -+-+-+Z C I.3 a@-@L.l.$ f+y@z@",
"  -+-+-+Z C O.X b@3 P.Q.~ A@3 Z+",
"  -+-+-+Z C v '+c@3 n.7+R #@3 B@",
"  -+-+-+Z C v )@e@3 p.O+M f@X+0 ",
"  -+-+-+Z C v S q.++3 V R h@<@4@",
"  -+-+-+Z C v ^.$+3.Y.H u.Y i@C@",
"  -+-+-+Z C v ^.;+>+k@9@l@Y @@<@",
"  -+-+-+Z C v ^.;+'+o+3 n@B.`.D@",
"  -+-+-+Z C v ^.6.p.G p@4@) ~+E@",
"  -+-+-+Z C v )@$+p.u+Q.3 [ `.E@",
"  -+-+-+Z C O.s@ @E Z V 3 t@u@H+",
"  -+-+-+Z C I.3 @.$@A._ H w [ (@",
"  -+-+-+Z C _@3 3 :@y 2.F@3 3@G@",
"  -+-+-+Z C I.3 a@-@L.Q.H@I@y@z@",
"  -+-+-+Z C O.X b@3 P.Q.~ A@3 1@",
"  -+-+-+Z C v '+c@3 n.7+R #@3 J@",
"  -+-+-+Z C v )@e@3 p.O+M f@K@L@",
"  -+-+-+Z C v S q.++3 V R h@3@a@",
"  -+-+-+Z C v ^.$+3.M@c.u.Y 7@G+",
"  -+-+-+Z C v ^.;+N@O@9@l@Y @@<@",
"  -+-+-+Z C v ^.;+'+T+3 n@B.`.P@",
"  -+-+-+Z C v ^.6.p.G p@4@) ~+E@",
"  -+-+-+Z C v )@$+p.u+Q.3 [ `.E@",
"  -+-+-+Z C O.s@ @E Z V 3 t@u@5+",
"  -+-+-+Z C I.3 0+$@A._ H w [ r+",
"  -+-+-+Z C x.3 K.Q@A.2.F@3 R@S@",
"  -+-+-+Z C x.3 a@f+Z Q.% I@h+T@",
"  -+-+-+Z C D 3 V 3 A Q.U@V@3 1@",
"  -+-+-+Z C o.'+,@3 n.7+1 W@3 X@",
"  -+-+-+Z C v )@e@3 p.O+M 3@L Y@",
"  -+-+-+Z C v S q.++3 V R h@Z@`@",
"  -+-+-+Z C v ^.$+3.M@c.u.Y  #Z.",
"  -+-+-+Z C v ^.;+N@.#+#l@Y =@@#",
"  -+-+-+Z C v ^.;+'+b.3 !+B.q+##",
"  -+-+-+Z C v ^.6.p.$#%#4@i.~+5+",
"  -+-+-+Z C v )@$+p.u+Q.3 [ `.5+",
"  -+-+-+Z C O.s@ @E Z v+3 t@u@&#",
"  -+-+-+Z C I.3 0+$@A._ H w [ *#",
"  -+-+-+Z C x.3 K.Q@A.2.F@3 R@x+",
"  -+-+-+Z C x.3 a@f+Z Q.% g y@=#",
"  -+-+-+Z C D 3 V 3 A Q.U@-#w.Z+",
"  -+-+-+Z C o.'+;#3 n.7+1 W@3 >#",
"  -+-+-+Z C v )@!@3 ,#'#M 3@n )#",
"  -+-+-+Z C v S {@++3 V R [ h@!#",
"  -+-+-+Z C v ^.$+3.Y.H u.R. #Z.",
"  -+-+-+Z C v ^.;+>+k@~#{#) =@@#",
"  -+-+-+Z C ]#3.;+'+)+3 ^ P q+G@",
"  -+-+-+Z C ^#/#/.S {+[+(+(#~+(@",
"  -+-+-+Z _#:#$.B.]+D I 3 B.<#(@",
"  -+-+-+Z _#q O@Y [#}#u 3 |#1#(@",
"  -+-+-+Z _#2#E 3#4#5#6#c.7#8#5+",
"  -+-+-+Z _#2#9#0#a#b#c#d#3 4+e#",
"  -+-+-+Z f#g#h#i#j#k#l#m#n#o#p#",
"  -+-+-+Z q#O+r#s#t#u#v#w#x#y#z#",
"  -+-+-+Z &.A#B#C#D#E#F#G#H#3 I#",
"  -+-+-+Z &.J#K#L#M#N#O#P#Q#R#S#",
"  -+-+-+Z &.T#U#V#W#X#Y#Z#`# $.$",
"  -+-+-+Z +$@$#$$$%$&$*$=$-$;$>$",
"  -+-+-+Z ,$'$)$!$~${$]$^$/$($_$",
"  -+-+-+Z ,$'$:$<$[$}$|$1$2$3$4$",
"  -+-+-+Z ,$5$6$7$8$9$0$a$b$c$d$",
"  -+-+-+Z ,$e$f$g$h$i$j$k$l$m$n$",
"  -+-+-+Z ,$o$p$q$r$s$t$u$v$w$x$"};
