/* XPM */
static char * top_left_inactive_xpm[] = {
"16 199 525 2",
"  	c None",
". 	c #5F5F5F",
"+ 	c #4D4D4D",
"@ 	c #595958",
"# 	c #575757",
"$ 	c #646464",
"% 	c #4A4A4A",
"& 	c #434343",
"* 	c #3B3B3B",
"= 	c #3A3A3A",
"- 	c #686868",
"; 	c #4B4B4B",
"> 	c #444444",
", 	c #3C3C3C",
"' 	c #4E4F4E",
") 	c #3D3D3D",
"! 	c #363636",
"~ 	c #393939",
"{ 	c #333333",
"] 	c #545454",
"^ 	c #373737",
"/ 	c #323232",
"( 	c #424242",
"_ 	c #2C2C2C",
": 	c #292929",
"< 	c #272727",
"[ 	c #242525",
"} 	c #444445",
"| 	c #2F2F2F",
"1 	c #5D5B5B",
"2 	c #5F5D5D",
"3 	c #3C3C3A",
"4 	c #262625",
"5 	c #262624",
"6 	c #252524",
"7 	c #000000",
"8 	c #3F3F3E",
"9 	c #2A2A29",
"0 	c #282928",
"a 	c #292A28",
"b 	c #373838",
"c 	c #646262",
"d 	c #666565",
"e 	c #383635",
"f 	c #242221",
"g 	c #22201F",
"h 	c #22211F",
"i 	c #090708",
"j 	c #0F0F0F",
"k 	c #0C0C0C",
"l 	c #353535",
"m 	c #212122",
"n 	c #1F2020",
"o 	c #393A3A",
"p 	c #0E0C0D",
"q 	c #171717",
"r 	c #19191A",
"s 	c #1A1A1A",
"t 	c #1E1E1E",
"u 	c #1C1C1D",
"v 	c #1B1C1C",
"w 	c #3E3F3F",
"x 	c #080606",
"y 	c #1F1E1E",
"z 	c #2C2B29",
"A 	c #181818",
"B 	c #191919",
"C 	c #1C1A1A",
"D 	c #323231",
"E 	c #0B0909",
"F 	c #212020",
"G 	c #2A2927",
"H 	c #161717",
"I 	c #2D2D2D",
"J 	c #161616",
"K 	c #2B2A28",
"L 	c #202121",
"M 	c #222021",
"N 	c #2E2E2E",
"O 	c #151515",
"P 	c #3F4040",
"Q 	c #030406",
"R 	c #201F1F",
"S 	c #181819",
"T 	c #262626",
"U 	c #0E0C0C",
"V 	c #383836",
"W 	c #060505",
"X 	c #292828",
"Y 	c #161515",
"Z 	c #151414",
"` 	c #100E0F",
" .	c #353634",
"..	c #050404",
"+.	c #1C1D1D",
"@.	c #3D3E3E",
"#.	c #040303",
"$.	c #2A2929",
"%.	c #171616",
"&.	c #1D1B1C",
"*.	c #363735",
"=.	c #292725",
"-.	c #444545",
";.	c #030202",
">.	c #121111",
",.	c #2D2B29",
"'.	c #171818",
").	c #141212",
"!.	c #100F0F",
"~.	c #414242",
"{.	c #312F2D",
"].	c #0C0A0B",
"^.	c #2B2A29",
"/.	c #1D1C1C",
"(.	c #2E2C2A",
"_.	c #000002",
":.	c #0D0B0C",
"<.	c #373836",
"[.	c #060405",
"}.	c #222120",
"|.	c #131112",
"1.	c #060404",
"2.	c #222222",
"3.	c #282828",
"4.	c #040203",
"5.	c #383937",
"6.	c #222020",
"7.	c #393938",
"8.	c #1F1E1D",
"9.	c #222323",
"0.	c #0F0D0E",
"a.	c #343433",
"b.	c #070505",
"c.	c #262525",
"d.	c #3A3A38",
"e.	c #343432",
"f.	c #282624",
"g.	c #191A1A",
"h.	c #252424",
"i.	c #302F2D",
"j.	c #3C3D3D",
"k.	c #1A1B1B",
"l.	c #1A1818",
"m.	c #383838",
"n.	c #1F1F1F",
"o.	c #484846",
"p.	c #080707",
"q.	c #3B3C3A",
"r.	c #1F1E1F",
"s.	c #010000",
"t.	c #414142",
"u.	c #303030",
"v.	c #0B0A0A",
"w.	c #282727",
"x.	c #242220",
"y.	c #404141",
"z.	c #1B1B1B",
"A.	c #100E0E",
"B.	c #0F0E0D",
"C.	c #232222",
"D.	c #101010",
"E.	c #1C1C1C",
"F.	c #0B0C0E",
"G.	c #020303",
"H.	c #242323",
"I.	c #292727",
"J.	c #404040",
"K.	c #1D1D1D",
"L.	c #020202",
"M.	c #232120",
"N.	c #232122",
"O.	c #4C4A4A",
"P.	c #3E3E3E",
"Q.	c #202020",
"R.	c #1E1F1F",
"S.	c #201F20",
"T.	c #4B4C4C",
"U.	c #464444",
"V.	c #212222",
"W.	c #363433",
"X.	c #5B5A5A",
"Y.	c #434141",
"Z.	c #242424",
"`.	c #030303",
" +	c #3C3D3B",
".+	c #656563",
"++	c #413F3F",
"@+	c #010101",
"#+	c #3B3B3A",
"$+	c #646462",
"%+	c #403E3F",
"&+	c #313131",
"*+	c #060706",
"=+	c #3A3B39",
"-+	c #0F0F11",
";+	c #050508",
">+	c #393A38",
",+	c #413F40",
"'+	c #2E2E2C",
")+	c #1E1D1C",
"!+	c #090808",
"~+	c #424040",
"{+	c #0D0C0C",
"]+	c #0E0D0D",
"^+	c #1A1919",
"/+	c #5B1312",
"(+	c #434242",
"_+	c #434444",
":+	c #262424",
"<+	c #181616",
"[+	c #A00C0A",
"}+	c #494747",
"|+	c #2A2A28",
"1+	c #000103",
"2+	c #252525",
"3+	c #0C0A0A",
"4+	c #AC0B09",
"5+	c #666664",
"6+	c #434344",
"7+	c #111213",
"8+	c #6A6A68",
"9+	c #212121",
"0+	c #0C0C0E",
"a+	c #161414",
"b+	c #191716",
"c+	c #6B6969",
"d+	c #313232",
"e+	c #2D2E2E",
"f+	c #040202",
"g+	c #515252",
"h+	c #2D2B2C",
"i+	c #252523",
"j+	c #454646",
"k+	c #090707",
"l+	c #545353",
"m+	c #000101",
"n+	c #4E4C4C",
"o+	c #4C4C4C",
"p+	c #474546",
"q+	c #666765",
"r+	c #434142",
"s+	c #2E2F2D",
"t+	c #1E1D1D",
"u+	c #0F0E0E",
"v+	c #1B1A1A",
"w+	c #181717",
"x+	c #252626",
"y+	c #696967",
"z+	c #3E3F3E",
"A+	c #646363",
"B+	c #6A6969",
"C+	c #3F3F3F",
"D+	c #525353",
"E+	c #111111",
"F+	c #545252",
"G+	c #666764",
"H+	c #646463",
"I+	c #656564",
"J+	c #282626",
"K+	c #111113",
"L+	c #030302",
"M+	c #181919",
"N+	c #1D1C1A",
"O+	c #363737",
"P+	c #4D4E4E",
"Q+	c #232424",
"R+	c #262727",
"S+	c #000001",
"T+	c #040404",
"U+	c #1F1D1D",
"V+	c #100F0E",
"W+	c #696A68",
"X+	c #404041",
"Y+	c #6F6F6D",
"Z+	c #1D1B19",
"`+	c #191717",
" @	c #6A6868",
".@	c #555555",
"+@	c #2F3030",
"@@	c #121212",
"#@	c #4E4D4D",
"$@	c #4E4E4E",
"%@	c #484646",
"&@	c #0F0D0D",
"*@	c #3B3B39",
"=@	c #080607",
"-@	c #484647",
";@	c #2A2A2A",
">@	c #030403",
",@	c #363736",
"'@	c #2B2A2A",
")@	c #4E4E4D",
"!@	c #373634",
"~@	c #464646",
"{@	c #353331",
"]@	c #070606",
"^@	c #010102",
"/@	c #3C3C3B",
"(@	c #636462",
"_@	c #292A2A",
":@	c #656664",
"<@	c #686867",
"[@	c #484949",
"}@	c #121010",
"|@	c #242223",
"1@	c #6E6E6D",
"2@	c #1C1B19",
"3@	c #696868",
"4@	c #474747",
"5@	c #131313",
"6@	c #484848",
"7@	c #262526",
"8@	c #4F4D4D",
"9@	c #303131",
"0@	c #131111",
"a@	c #020000",
"b@	c #646563",
"c@	c #131315",
"d@	c #2C2A2A",
"e@	c #555656",
"f@	c #373533",
"g@	c #333838",
"h@	c #474748",
"i@	c #343331",
"j@	c #414141",
"k@	c #192424",
"l@	c #4F4E4E",
"m@	c #384846",
"n@	c #343434",
"o@	c #0E0F11",
"p@	c #5A6764",
"q@	c #2D2E2B",
"r@	c #5B6462",
"s@	c #08080A",
"t@	c #5F6463",
"u@	c #636564",
"v@	c #474646",
"w@	c #333434",
"x@	c #030101",
"y@	c #181918",
"z@	c #696966",
"A@	c #6E6F6D",
"B@	c #242523",
"C@	c #363637",
"D@	c #5B5C5C",
"E@	c #282726",
"F@	c #676766",
"G@	c #646564",
"H@	c #686966",
"I@	c #353533",
"J@	c #0A0808",
"K@	c #3A3B3B",
"L@	c #5B5B5C",
"M@	c #3B3A38",
"N@	c #1C1A18",
"O@	c #030404",
"P@	c #0C0B0B",
"Q@	c #050608",
"R@	c #676866",
"S@	c #686967",
"T@	c #474848",
"U@	c #111010",
"V@	c #6D6E6C",
"W@	c #2C2C2B",
"X@	c #333334",
"Y@	c #5C5D5D",
"Z@	c #4F4F4F",
"`@	c #3D3B39",
" #	c #151517",
".#	c #494949",
"+#	c #504E4E",
"@#	c #464747",
"##	c #020101",
"$#	c #0D0B0B",
"%#	c #696A66",
"&#	c #08090B",
"*#	c #1C1B1A",
"=#	c #676765",
"-#	c #676865",
";#	c #6E6E6C",
">#	c #2C2C2A",
",#	c #5C5D5C",
"'#	c #383634",
")#	c #3E3C39",
"!#	c #232323",
"~#	c #0B0B0D",
"{#	c #151618",
"]#	c #333433",
"^#	c #030405",
"/#	c #1E1D1E",
"(#	c #3B3C3C",
"_#	c #050303",
":#	c #202122",
"<#	c #424041",
"[#	c #202021",
"}#	c #2A2827",
"|#	c #454344",
"1#	c #383939",
"2#	c #232425",
"3#	c #0A0809",
"4#	c #4B494A",
"5#	c #111212",
"6#	c #2C2F2E",
"7#	c #242726",
"8#	c #121616",
"9#	c #434546",
"0#	c #1E1F20",
"a#	c #676767",
"b#	c #3A4040",
"c#	c #283436",
"d#	c #350C0C",
"e#	c #1B0100",
"f#	c #3F4545",
"g#	c #0A0909",
"h#	c #6C6D6B",
"i#	c #282C2D",
"j#	c #080E0F",
"k#	c #583F40",
"l#	c #40281D",
"m#	c #473228",
"n#	c #2A0A09",
"o#	c #3D4949",
"p#	c #070808",
"q#	c #1E1E1F",
"r#	c #2A2826",
"s#	c #676666",
"t#	c #03090A",
"u#	c #49281C",
"v#	c #44393B",
"w#	c #541316",
"x#	c #5D1E20",
"y#	c #1C0707",
"z#	c #5F4645",
"A#	c #0A0F0F",
"B#	c #292826",
"C#	c #606060",
"D#	c #734040",
"E#	c #5A3B3B",
"F#	c #4E3A3F",
"G#	c #7F3028",
"H#	c #2C000C",
"I#	c #544546",
"J#	c #0C1313",
"K#	c #212424",
"L#	c #3F4240",
"M#	c #122523",
"N#	c #633C3C",
"O#	c #75261A",
"P#	c #5E2119",
"Q#	c #C06127",
"R#	c #551400",
"S#	c #474445",
"T#	c #190100",
"U#	c #1F2425",
"V#	c #1A1F22",
"W#	c #483637",
"X#	c #793F4A",
"Y#	c #60281A",
"Z#	c #600914",
"`#	c #FF7B8A",
" $	c #760813",
".$	c #634747",
"+$	c #140100",
"@$	c #1D2526",
"#$	c #283235",
"$$	c #785A3F",
"%$	c #673A45",
"&$	c #9E1E20",
"*$	c #B31A1A",
"=$	c #FF7174",
"-$	c #61070C",
";$	c #564745",
">$	c #260A09",
",$	c #212827",
"'$	c #282725",
")$	c #5D4549",
"!$	c #675439",
"~$	c #8B4447",
"{$	c #82191B",
"]$	c #D46B73",
"^$	c #FF6A6D",
"/$	c #88181C",
"($	c #7A3326",
"_$	c #220A0A",
":$	c #1F2827",
"<$	c #282625",
"[$	c #6D7973",
"}$	c #633540",
"|$	c #95191C",
"1$	c #A81312",
"2$	c #FF5659",
"3$	c #FF5C5F",
"4$	c #7E1419",
"5$	c #713326",
"6$	c #1F0B0C",
"7$	c #82674E",
"8$	c #8A3C41",
"9$	c #BE1A18",
"0$	c #CD5C62",
"a$	c #FF8787",
"b$	c #FF9296",
"c$	c #B51719",
"d$	c #6A3527",
"e$	c #1C0D0D",
"f$	c #1E2827",
"g$	c #7A684F",
"h$	c #7E3D41",
"i$	c #D42A26",
"j$	c #E15A79",
"k$	c #FEAFAF",
"l$	c #FF8687",
"m$	c #AD1412",
"n$	c #872127",
"o$	c #2C0005",
"p$	c #1D2928",
"q$	c #854D5A",
"r$	c #73383E",
"s$	c #C51C1C",
"t$	c #FF7FA5",
"u$	c #F99E9C",
"v$	c #FF83AB",
"w$	c #A80C0A",
"x$	c #801E22",
"y$	c #270001",
"z$	c #1B2A27",
"        . + @ # # # # # # # # # ",
"      $ % & * = = = = = = = = = ",
"    - ; > , , , , , , , , , , , ",
"    ' ) ! ! ! ! ! ! ! ! ! ! ! ! ",
"  ; ~ { { { { { { { { { { { { { ",
"] ^ / / / / / / / / / / / / / / ",
"( _ _ _ _ _ _ _ _ _ : < [ [ [ [ ",
"} | | | | | | | | | / 1 2 2 2 2 ",
"3 4 4 4 4 4 4 4 4 5 6 7 7 7 7 7 ",
"8 9 9 9 9 9 9 9 0 a b c d d d d ",
"e f f f f f f g h b i j k k k k ",
"l m m m m m n n o p q r s s s s ",
"/ t t t t u v w x y z A s s s s ",
"_ B B B q C D E 7 F G H s s s s ",
"I s s s J K H L 7 M G H s s s s ",
"N s s B O P 7 I Q R G H s s s s ",
"| v v S [ T U V W y G H s s s s ",
"X Y Z `  ...+.@.#.y G H s s s s ",
"$.%.Z &.*.7 =.-.;.y G H s s s s ",
"$.%.>.,.'.).v @.#.y G H s s s s ",
"$.Y !.~.7 {.]. ...y G H s s s s ",
"^.Z /.(._.{.:.<.[.y G H s s s s ",
"}.|.<.1.2.3.4.5.[.y G H s s s s ",
"6.>.& 7 ~.A [.7.[.y G H s s s s ",
"8.9.y 0.a.A b.7.[.y G H s s s s ",
"c.d.7 e.f.g.b.7.[.y G H s s s s ",
"h.i.7 j.n k.b.7.[.y G H s s s s ",
"o >.l.m.n.k.b.7.[.y G H s s s s ",
"o.7 o { n.k.p.q.p.r.G H s s s s ",
"l s.t.u.n.k.v.w.7 F G H s s s s ",
"/.x.y.N n.z.A.B.7 C.G H s s s s ",
"D.w > I n.E.F.G.7 H.G H s s s s ",
"I.@.J.I n.K.L.M.7 N.G H s s s s ",
"J.O.P.I Q.R.7 I ;.S.G H s s s s ",
"T.U.) I V.l.7 W.p.y G H s s s s ",
"X.Y.) I Z.`.7  +W y G H s s s s ",
".+++) N < 7 @+#+[.y G H s s s s ",
"$+%+) &+).*+1.=+[.y G H s s s s ",
"$+++P.l 7 -+;+>+[.y G H s s s   ",
"$+,+~ '+7 )+!+>+[.y G H s       ",
"$+~+w {+]+^+p.7.[.y G H /+      ",
"$+(+_+7 :+<+!+q.p.r.G H [+      ",
".+}+|+1+2+E.3+w.7 F G H 4+      ",
"5+6+7 L 2+z.A.7+7 C.G H 4+      ",
"8+y.7 P.9+E.0+`.7 H.G H 4+      ",
"c H a+m.n.K.`.b+7 N.G H 4+      ",
"c+7 w d+Q.R.7 e+f+S.G H 4+      ",
"g+7 + N 9+l.7 W.p.y G H 4+      ",
"h+i+j+I Z.k+7  +W y G H 4+      ",
"D.l+J.N < 7 m+#+[.y G H 4+      ",
"_ n+) &+).*+1.=+[.y G H 4+      ",
"o+p+P.l 7 -+;+>+[.y G H 4+      ",
"q+r+~ s+7 t+!+>+[.y G H 4+      ",
"$+~+w U u+v+p.7.[.y G H 4+      ",
"$+(+_+7 L w+!+q.p.r.G H 4+      ",
".+}+|+7 x++.3+w.7 F G H 4+      ",
"5+_+7 9+2+z.A.7+7 C.G H 4+      ",
"y+~.7 z+9+E.0+`.7 H.G H 4+      ",
"A+q D.~ n.K.`.b+7 N.G H 4+      ",
"B+7 C+/ Q.R.7 e+f+S.G H 4+      ",
"D+7 + N 9+l.7 W.p.y G H 4+      ",
"u.i+j+I Z.k+7  +W y G H 4+      ",
"E+F+J.N < 7 m+#+[.y G H 4+      ",
"I n+) &+).*+1.=+[.y G H 4+      ",
"o+p+P.l 7 -+;+>+[.y G H 4+      ",
"G+r+~ s+7 t+!+>+[.y G H 4+      ",
"H+~+P.:.]+v+p.7.[.y G H 4+      ",
"H+(+6+7 :+<+!+q.p.r.G H 4+      ",
"I+}+a 7 2+E.3+J+7 F G H 4+      ",
"5+_+7 9+2+z.A.K+7 C.G H 4+      ",
"y+t.7 z+9+E.0+L+7 C.G M+4+      ",
"A+N+D.~ n.K.`.b+7 N.G k.4+      ",
"B+7 O+/ Q.R.7 e+f+S.G +.4+      ",
"D+7 P+N 9+l.7 W.p.y G +.4+      ",
"u.i+j+I Q+p.7  +W y G +.4+      ",
"E+F+J.N R+7 S+#+[.y G +.4+      ",
"I n+) &+).T+1.=+[.y G +.4+      ",
"o+p+P.l 7 -+;+>+[.y G +.4+      ",
"G+r+~ s+7 t+!+>+[.y G +.4+      ",
"H+~+P.:.]+v+p.7.[.y G +.4+      ",
"H+(+6+7 :+<+!+q.p.r.G +.4+      ",
"I+}+|+7 2+E.3+J+7 F G +.4+      ",
"5+_+7 U+x+z.V+7+7 C.G +.4+      ",
"W+X+7 w 9+E.0+7 7 C.G +.4+      ",
"Y+Z+D.~ n.K.`.`+7 N.G +.4+      ",
" @7 ! / Q.R.7 e+f+S.G +.4+      ",
".@7 + N 9+l.7 W.p.y G +.4+      ",
"+@i+j+I Q+p.7  +W y G +.4+      ",
"@@l+J.N R+7 S+#+[.y G +.4+      ",
"3.#@) &+).T+1.=+[.y G +.4+      ",
"$@%@P.l 7 -+;+>+[.y G +.4+      ",
"q+r+~ s+7 t+!+>+[.y G +.4+      ",
"$+~+P.U &@v+p.7.[.y G +.4+      ",
"$+(+6+7 Q.w+i *@=@r.G +.4+      ",
".+-@a 7 2++.3+;@7 F G +.4+      ",
"5+& x t+x+z.A.K+7 C.G +.4+      ",
"W+P 7 P.9+E.0+7 7 C.G +.4+      ",
"Y+Z+D.~ n.K.>@`+7 N.G +.4+      ",
" @7 ,@/ Q.R.7 '@#.S.G +.4+      ",
".@7 )@N 9+l.7 !@!+y G +.4+      ",
"! i+~@I Q+k+7 {@]@y G +.4+      ",
"@@F+J.N R+7 ^@/@W y G +.4+      ",
"3.#@) &+).T+1.=+[.y G +.4+      ",
"P+%@P.l 7 -+;+>+[.y G +.4+      ",
"5+r+~ s+7 t+!+>+[.y G +.4+      ",
"(@~+P.U &@v+p.7.[.y G +.4+      ",
"(@(+_+7 Q.w+i =+]@y G +.4+      ",
"$+-@a 7 x++.v._@;.S.G +.4+      ",
":@& x U+T z.u+Y 7 N.G +.4+      ",
"<@[@7 C+9+v }@7 7 |@G +.4+      ",
"1@2@!+= n.K.`.`+7 N.G +.4+      ",
"3@7 O+{ Q.R.7 '@#.S.G +.4+      ",
".@7 + N 9+l.7 !@!+y G +.4+      ",
"! i+4@I Q+k+7 {@]@y G +.4+      ",
"5@6@y.N R+7 ^@/@W y G +.4+      ",
"7@8@@.9@0@T+1.=+[.y G +.4+      ",
"P+%@P.l a@-+;+>+[.y G +.4+      ",
"q+r+~ '+7 )+!+>+[.y G +.4+      ",
"b@~+P.U &@v+p.7.[.y G +.4+      ",
"b@(+_+7 Q.w+i =+]@y G +.4+      ",
".+-@a 7 x++.v._@;.S.G +.4+      ",
":@& x U+T z.u+Y 7 N.G +.4+      ",
"<@[@7 C+9+v }@7 7 |@G +.4+      ",
"1@2@!+= n.K.>@c@7 N.G +.4+      ",
"3@7 ^ { Q.R.7 d@#.S.G +.4+      ",
"e@7 $@N 9+l.7 f@!+y G +.4+      ",
"g@Z+h@I Q+p.7 i@]@y G +.4+      ",
"5@[@j@N T 7 @+q.W y G +.4+      ",
"k@l@@.u.B `.1.=+[.y G +.4+      ",
"m@%@@.n@a@o@;+>+[.y G +.4+      ",
"p@Y.y.q@7 t+!+>+[.y G +.4+      ",
"r@,+) 5@s@C p.7.[.y G +.4+      ",
"t@Y.( 7 Q.w+p.=+]@y G +.4+      ",
"u@v@w@7 x++.E +@x@S.G +.4+      ",
":@( x y@T z.&@Y 7 N.G +.4+      ",
"z@6@7 C+2.v }@7 7 |@G +.4+      ",
"A@B@k+= n.K.>@c@7 N.G +.4+      ",
" @7 C@{ Q.R.7 d@#.S.G +.4+      ",
"D@7 $@N 9+l.7 f@!+y G +.4+      ",
"b Z+h@I Q+p.7 i@]@y G +.4+      ",
"5@[@j@N T 7 @+q.W y G +.4+      ",
"E@l@@.u.B `.1.=+[.y G +.4+      ",
"[@%@@.n@a@o@;+>+[.y G +.4+      ",
"F@Y.y.q@7 t+!+>+[.y G +.4+      ",
"G@,+) 5@s@C p.7.[.y G +.4+      ",
"G@Y.( 7 Q.w+p.=+]@y G +.4+      ",
"I+v@w@7 T +.E +@x@S.G +.4+      ",
":@( x B < z.&@Y 7 N.G +.4+      ",
"H@6@7 I@2.v }@7 7 |@G +.4+      ",
"A@B@J@K@Q.K.>@c@7 N.G +.4+      ",
"3@7 C@{ Q.R.7 d@#.S.G +.4+      ",
"L@7 $@N 9+l.7 f@!+y G +.4+      ",
"M@N@h@I Q+p.7 i@]@y G +.4+      ",
"c@6@j@N T 7 @+q.W y G +.4+      ",
"J+8@@.u.g.O@1.=+[.y G +.4+      ",
"[@%@@.n@a@P@Q@>+[.y G +.4+      ",
"R@Y.y.q@7 U+!+>+[.y G +.4+      ",
"G@,+) 5@s@C p.7.[.y G +.4+      ",
"G@Y.( 7 Q.w+p.=+]@y G +.4+      ",
"5+v@w@7 T +.E +@x@S.G +.4+      ",
"q+( x B < z.&@a+7 N.G +.4+      ",
"S@T@7 I@2.z.U@L.7 C.G +.4+      ",
"V@i+J@* Q.+.k+c@7 C.G +.4+      ",
"3@7 W@X@Q.t 7 T 7 F G +.4+      ",
"Y@7 Z@| 9+l.7 !@!+r.G +.4+      ",
"`@J 6@I Q+p.7 i@]@y G +.4+      ",
" #.#j@N T 7 @+q.W y G +.4+      ",
"Z.+#@.u.g.O@1.=+[.y G +.4+      ",
"@#-@@.n@##$#Q@>+[.y G +.4+      ",
"%#r+y.'+7 8.!+>+[.y G +.4+      ",
"5+,+j.5@&#*#p.7.[.y G +.4+      ",
"5+Y.( 7 Q.w+p.=+]@y G +.4+      ",
"=#v@w@7 x++.E +@x@S.G +.4+      ",
"-#( x B < z.&@a+7 N.G +.4+      ",
"y+T@7 I@2.z.U@L.7 C.G +.4+      ",
";#B@i * Q.+.k+c@7 C.G +.4+      ",
" @s.>#X@Q.t 7 T 7 F G +.4+      ",
",#7 Z@| 9+l.7 '#!+r.G +.4+      ",
")#q 6@I !#~#7 {@]@y G +.4+      ",
"{#j@( N T 7 @+/@W y G +.4+      ",
"Z.+#P.u.B `.1.=+[.y G +.4+      ",
"@#-@) ]#^#o@;+>+[.y G +.4+      ",
"H@r+P ^ 7 )+!+>+1./#G +.4+      ",
":@,+(#<+3+^+W <._#:#G +.4+      ",
":@<#y.7 M F ]+y.;.[#}#+.4+      ",
":@|#1#7 z 2#3#@.P@n }#+.4+      ",
"5+4#5#g.6#7#8#9#E 0#}#+.4+      ",
"a#6+7 b#c#d#e#f#g#0#}#+.4+      ",
"h#i#j#k#l#m#n#o#p#q#r#+.4+      ",
"s#t#u#v#w#x#y#z#A#Q+B#+.4+      ",
"C#7 D#E#F#G#H#I#J#K#=.+.4+      ",
"L#M#N#O#P#Q#R#S#T#U#=.+.4+      ",
"V#W#X#Y#Z#`# $.$+$@$=.+.4+      ",
"#$$$%$&$*$=$-$;$>$,$'$+.4+      ",
")$!$~${$]$^$/$($_$:$<$+.4+      ",
"[$}$|$1$2$3$4$5$6$:$<$+.4+      ",
"7$8$9$0$a$b$c$d$e$f$<$+.4+      ",
"g$h$i$j$k$l$m$n$o$p$<$+.4+      ",
"q$r$s$t$u$v$w$x$y$z$<$+.4+      "};
