/* XPM */
static char * bottom_active_xpm[] = {
"28 8 3 1",
" 	c None",
".	c #FFFFFF",
"+	c #333333",
"............................",
"++++++++++++++++++++++++++++",
"++++++++++++++++++++++++++++",
"++++++++++++++++++++++++++++",
"++++++++++++++++++++++++++++",
"++++++++++++++++++++++++++++",
"++++++++++++++++++++++++++++",
"............................"};
