/* XPM */
static char * top_right_active_xpm[] = {
"8 30 3 1",
" 	c None",
".	c #FFFFFF",
"+	c #333333",
"........",
"+++++++.",
"+++++++.",
"+++++++.",
"+++++++.",
"+++++++.",
"+++++++.",
"+++++++.",
"+++++++.",
"+++++++.",
"+++++++.",
"+++++++.",
"+++++++.",
"+++++++.",
"+++++++.",
"+++++++.",
"+++++++.",
"+++++++.",
"+++++++.",
"+++++++.",
"+++++++.",
"+++++++.",
"+++++++.",
"+++++++.",
"+++++++.",
"+++++++.",
"+++++++.",
"+++++++.",
"+++++++.",
".++++++."};
