/* XPM */
static char * bottom_right_active_xpm[] = {
"23 87 350 2",
"  	c None",
". 	c #302E30",
"+ 	c #282728",
"@ 	c #373637",
"# 	c #000000",
"$ 	c #4B4D4F",
"% 	c #201F20",
"& 	c #1E1E1F",
"* 	c #545657",
"= 	c #57595A",
"- 	c #131314",
"; 	c #251B15",
"> 	c #001130",
", 	c #053847",
"' 	c #00FFFF",
") 	c #547171",
"! 	c #12334A",
"~ 	c #160A03",
"{ 	c #171717",
"] 	c #0F0C09",
"^ 	c #000003",
"/ 	c #251E19",
"( 	c #001023",
"_ 	c #0D194B",
": 	c #547471",
"< 	c #13354A",
"[ 	c #1F1F20",
"} 	c #1E1D1E",
"| 	c #26221F",
"1 	c #131D34",
"2 	c #515D8A",
"3 	c #12394C",
"4 	c #100C09",
"5 	c #242223",
"6 	c #545557",
"7 	c #100F10",
"8 	c #242221",
"9 	c #090E20",
"0 	c #00111A",
"a 	c #576685",
"b 	c #144154",
"c 	c #57585A",
"d 	c #484A4B",
"e 	c #1A191A",
"f 	c #020D18",
"g 	c #00010D",
"h 	c #354657",
"i 	c #184A62",
"j 	c #160C05",
"k 	c #202021",
"l 	c #4F5152",
"m 	c #4E5051",
"n 	c #4B4D4E",
"o 	c #1D1B1B",
"p 	c #1B1716",
"q 	c #1F1E1E",
"r 	c #153353",
"s 	c #160F09",
"t 	c #222223",
"u 	c #2A2829",
"v 	c #525456",
"w 	c #494B4E",
"x 	c #181818",
"y 	c #151618",
"z 	c #201C19",
"A 	c #1F2834",
"B 	c #16120F",
"C 	c #100D09",
"D 	c #272526",
"E 	c #292728",
"F 	c #515354",
"G 	c #4A4B4E",
"H 	c #464749",
"I 	c #0C0D0F",
"J 	c #131315",
"K 	c #212020",
"L 	c #161513",
"M 	c #242425",
"N 	c #292829",
"O 	c #262425",
"P 	c #2B2C2D",
"Q 	c #555659",
"R 	c #4B4C4F",
"S 	c #46484A",
"T 	c #141618",
"U 	c #161616",
"V 	c #191919",
"W 	c #120E0B",
"X 	c #000004",
"Y 	c #4A4C4D",
"Z 	c #282627",
"` 	c #27292A",
" .	c #2A2B2C",
"..	c #545659",
"+.	c #47484A",
"@.	c #0E0F12",
"#.	c #141313",
"$.	c #121212",
"%.	c #000002",
"&.	c #5D5F62",
"*.	c #19191A",
"=.	c #262526",
"-.	c #292B2C",
";.	c #262728",
">.	c #2D2E2F",
",.	c #535558",
"'.	c #414243",
").	c #0C0C0B",
"!.	c #151515",
"~.	c #606265",
"{.	c #4E5053",
"].	c #252425",
"^.	c #28292A",
"/.	c #292A2B",
"(.	c #353534",
"_.	c #525357",
":.	c #4C4D50",
"<.	c #434446",
"[.	c #0E0D0D",
"}.	c #0E0A06",
"|.	c #595B5E",
"1.	c #252324",
"2.	c #2A2B2D",
"3.	c #313030",
"4.	c #343333",
"5.	c #515357",
"6.	c #474849",
"7.	c #2E3032",
"8.	c #060200",
"9.	c #636568",
"0.	c #222122",
"a.	c #272829",
"b.	c #323231",
"c.	c #2F2F2E",
"d.	c #333332",
"e.	c #55575A",
"f.	c #36322E",
"g.	c #00000A",
"h.	c #5F6064",
"i.	c #202020",
"j.	c #585A5D",
"k.	c #303030",
"l.	c #2E2E2D",
"m.	c #353538",
"n.	c #555759",
"o.	c #1B1A1C",
"p.	c #413F3D",
"q.	c #00000F",
"r.	c #1B1B1C",
"s.	c #2F2D2E",
"t.	c #302E2F",
"u.	c #30302F",
"v.	c #303033",
"w.	c #343437",
"x.	c #080400",
"y.	c #2E2C2E",
"z.	c #2F2D2F",
"A.	c #58595C",
"B.	c #2A2C2D",
"C.	c #302F2F",
"D.	c #302F32",
"E.	c #393B3B",
"F.	c #2C2E2F",
"G.	c #2D2B2C",
"H.	c #313334",
"I.	c #56585B",
"J.	c #2E2E2E",
"K.	c #323235",
"L.	c #313033",
"M.	c #303032",
"N.	c #444546",
"O.	c #514F4F",
"P.	c #00091C",
"Q.	c #2F3032",
"R.	c #303233",
"S.	c #333232",
"T.	c #313134",
"U.	c #333535",
"V.	c #313233",
"W.	c #302E2B",
"X.	c #000007",
"Y.	c #2E2F30",
"Z.	c #343536",
"`.	c #55565A",
" +	c #343636",
".+	c #333435",
"++	c #32302E",
"@+	c #000009",
"#+	c #303133",
"$+	c #3C3C3B",
"%+	c #343436",
"&+	c #2F2F31",
"*+	c #000008",
"=+	c #5C5D60",
"-+	c #383837",
";+	c #3A3A3A",
">+	c #343336",
",+	c #363636",
"'+	c #545558",
")+	c #333235",
"!+	c #323334",
"~+	c #3C3C40",
"{+	c #373839",
"]+	c #312F2D",
"^+	c #363635",
"/+	c #3C3B3E",
"(+	c #48494C",
"_+	c #33312E",
":+	c #000011",
"<+	c #373739",
"[+	c #3A3A3C",
"}+	c #090A0C",
"|+	c #545150",
"1+	c #000719",
"2+	c #363738",
"3+	c #3B3C3C",
"4+	c #3B3937",
"5+	c #00010F",
"6+	c #313133",
"7+	c #32302D",
"8+	c #000012",
"9+	c #1B1B1B",
"0+	c #232425",
"a+	c #2E2E2C",
"b+	c #33302C",
"c+	c #2F2E31",
"d+	c #262525",
"e+	c #333335",
"f+	c #323434",
"g+	c #515355",
"h+	c #272728",
"i+	c #2A2A2B",
"j+	c #00071A",
"k+	c #4A4C4E",
"l+	c #312F30",
"m+	c #29292A",
"n+	c #3C3935",
"o+	c #000218",
"p+	c #252526",
"q+	c #323435",
"r+	c #262627",
"s+	c #242324",
"t+	c #363839",
"u+	c #212122",
"v+	c #212021",
"w+	c #232325",
"x+	c #40403F",
"y+	c #232324",
"z+	c #403F3F",
"A+	c #545658",
"B+	c #3F3F3E",
"C+	c #322F2B",
"D+	c #414144",
"E+	c #33312D",
"F+	c #000010",
"G+	c #2B2B2C",
"H+	c #2D2320",
"I+	c #241B17",
"J+	c #444646",
"K+	c #0A0B0D",
"L+	c #54514F",
"M+	c #2F2F30",
"N+	c #1091CA",
"O+	c #270500",
"P+	c #23140F",
"Q+	c #24272B",
"R+	c #137BAA",
"S+	c #1FD0FF",
"T+	c #280000",
"U+	c #260F08",
"V+	c #4F4C4B",
"W+	c #000A21",
"X+	c #146D96",
"Y+	c #24AFE5",
"Z+	c #2E0000",
"`+	c #28110A",
" @	c #131212",
".@	c #299CCA",
"+@	c #00DBFF",
"@@	c #00F3FF",
"#@	c #330000",
"$@	c #200900",
"%@	c #00C8FF",
"&@	c #00CDFF",
"*@	c #250000",
"=@	c #1179A9",
"-@	c #29B3EA",
";@	c #00D3FF",
">@	c #00BFFF",
",@	c #00E5FF",
"'@	c #1D688E",
")@	c #473D39",
"!@	c #116289",
"~@	c #2BA8DA",
"{@	c #00CFFF",
"]@	c #00E1FF",
"^@	c #1D5F81",
"/@	c #453C37",
"(@	c #00F1FF",
"_@	c #1A6388",
":@	c #413A3B",
"<@	c #28C5FF",
"[@	c #186F98",
"}@	c #117AA8",
"|@	c #198CBE",
"1@	c #221916",
"2@	c #0E4572",
"3@	c #21120D",
"4@	c #48433F",
"5@	c #240D06",
"6@	c #2D2F32",
"7@	c #2E2E30",
"8@	c #136C96",
"9@	c #29120B",
"0@	c #1B1A1A",
"a@	c #302F30",
"b@	c #383638",
"c@	c #242526",
"d@	c #323234",
"e@	c #2B2B2D",
"f@	c #333334",
"g@	c #453B37",
"h@	c #473E3D",
"i@	c #4C4E4F",
"j@	c #282829",
"k@	c #1D1D1D",
"l@	c #2E2D2E",
"m@	c #4D4E50",
"n@	c #1C1B1C",
"o@	c #0C0E10",
"p@	c #343435",
"q@	c #2D2C2D",
"r@	c #282828",
"s@	c #212326",
"t@	c #1E1F22",
"u@	c #1E2023",
"v@	c #1B1A1B",
"w@	c #1F1E1F",
"x@	c #1E1E1E",
"y@	c #141619",
"z@	c #16171A",
"A@	c #16181A",
"B@	c #202124",
"C@	c #17181B",
"D@	c #18191C",
"E@	c #181A1D",
"F@	c #161615",
"G@	c #171616",
"H@	c #1F1F1F",
"I@	c #57595B",
". + + + @ # $ % & * # = - ; > , ' ) ! ~ { ] ^ ",
". + + + @ # $ % & * # = - / ( _ ' : < ~ { ] ^ ",
". + + + @ # $ [ } * # = - | ^ 1 ' 2 3 ~ { 4 ^ ",
". + + + @ # $ [ 5 * # 6 7 8 # 9 0 a b ~ { 4 ^ ",
". + + + @ # $ [ } * # c d e # f g h i j { 4 ^ ",
". + + + @ # $ % k l # # m n o # p q r s { 4 ^ ",
". + + + @ # $ [ t u v # # w n x y z A B { C ^ ",
". + + + @ # $ [ u D E F # # G H I J K L { C ^ ",
". + + + @ # $ [ M N O P Q # # R S I T U V W X ",
". + + + @ # Y & M N Z `  ...# # R +.@.#.$.# %.",
". + + + @ # &.*.=.+ Z -.;.>.,.# # R '.).!.W X ",
". + + + @ # ~.{.Z ].Z -.^./.(._.# # :.<.[.}.^ ",
". + + + @ # ~.# |.Z 1.-.^.2.3.4.5.# # 6.7.8.# ",
". + + + @ # 9.0.# |.D a.^.2.b.c.d.e.# # H f.g.",
". + + + @ # h.i. .# j./.;.2.b.k.l.m.n.# o.p.q.",
". + + + @ # h.r.s.t.# j.^.` b.k.u.v.w.Q # x.%.",
". + + + @ # h.r.M y.z.# A.B.C.k.u.c.D.E.F.# # ",
". + + + @ # h.r.M N G.H.# I.d.J.u.K.L.M.N.O.P.",
". + + + @ # h.r.u N Z Q.R.# e.S.l.T.L.U.V.W.X.",
". + + + @ # h.r.M N Z -.Y.Z.# `.b.M.L. +.+++@+",
". + + + @ # h.r.M N Z -.^.#+$+# ..%+&+D..+++*+",
". + + + @ # =+x =.+ Z -.^.2.-+;+# ..>+.+Z.++q.",
". + + + @ # ~.{.Z ].Z -.^.2.b.,+;+# '+)+!+++*+",
". + + + @ # ~.# |.Z 1.-.^.2.b.k.,+~+# '+{+]+*+",
". + + + @ # 9.0.# |.D a.^.2.b.k.u.^+/+# (+_+:+",
". + + + @ # h.i. .# j./.;.2.b.k.u.K.<+[+}+|+1+",
". + + + @ # h.r.s.t.# j.^.` b.k.u.T.L.E.q # # ",
". + + + @ # h.r.M y.z.# A.B.C.k.u.K.L.2+3+4+5+",
". + + + @ # h.r.M N G.H.# I.d.J.k.u.6+D..+++*+",
". + + + @ # h.r.u N Z Q.R.# e.S.J.u.T. +.+7+8+",
". + + + @ # h.9+0++ Z -.Y.Z.# `.b.a+L.Z..+b+8+",
". + + + @ # h.9+u + Z -.^.#+$+# ..w.c+Z..+b+8+",
". + + + @ # 9.[ d++ Z -.^.2.-+;+# ..e+f+.+b+8+",
". + + + @ # # |.Z ].Z -.^.2.b.,+;+# '+)+!+7+8+",
". + + + @ # <+# |.Z 1.-.^.2.b.k.,+~+# '+{+]+*+",
". + + + @ # g+h+# |.D a.^.2.b.k.u.^+/+# (+_+X.",
". + + + @ # n u i+# j./.;.2.b.k.u.K.<+[+}+|+j+",
". + + + @ # k+1.^.l+# j.^.` b.k.u.T.L.E.q # # ",
". + + + @ # k+1.M m+t.# A.B.C.k.u.K.L.2+3+n+o+",
". + + + @ # k+1.M p+m+q+# I.d.J.k.u.6+D..+b+8+",
". + + + @ # k+1.M p+].m+q+# e.S.J.u.T. +.+b+8+",
". + + + @ # k+1.M p+p+r+s+t+# `.b.a+6+ +.+b+8+",
". + + + @ # k+1.M p+r+u+v+w+x+# ..w.&+D..+b+8+",
". + + + @ # k+1.M p+r+u+t k y+z+# ..>+.+Z.b+8+",
". + + + @ # k+1.M p+r+h+t t k y+z+# A+)+!+b+8+",
". + + + @ # k+1.M p+p+k u+t t k y+B+# '+{+C+8+",
". + + + @ # k+1.M p+p+h+u+r+r+r+k y+D+# (+E+F+",
". + + + @ # k+1.M p+p+r+u+G+# H+I+k t J+K+L+1+",
". + + + @ # k+1.M p+p+r+u+M+# N+O+P+k % Q+# # ",
". + + + @ # k+1.M p+p+r+u+M+# R+S+T+U+t 2+V+W+",
". + + + @ # k+1.M p+p+h+u+M+# X+Y+' Z+`+ @# # ",
". + + + @ # k+1.M p+p+k u+M+# X+.@+@@@#@$@# X ",
". + + + @ # k+1.M p+p+h+u+M+# X+.@%@&@' *@# X ",
". + + + @ # k+1.M p+p+r+u+m+# =@-@;@>@,@'@# X ",
". + + + @ # k+1.M p+p+r+u+p+)@# !@~@{@]@^@# X ",
". + + + @ # k+1.M p+p+h+u+k y+/@# !@~@(@_@# X ",
". + + + @ # k+1.u p+r+u+t t k y+:@# !@<@[@# X ",
". + + + @ # k+1.M p+r+u+t r+r+p+y+/@# }@|@# X ",
". + + + @ # k+1.M p+r+u+t G+# H+1@y+/@# 2@# X ",
". + + + @ # k+1.M p+r+u+t M+# N+O+3@y+4@# # X ",
". + + + @ # k+1.M p+r+u+t M+# R+S+T+5@r+6@# X ",
". + + + @ # k+1.M p+r+u+t 7@# 8@Y+' Z+9@0@# X ",
". + + + @ # k+1.M p+r+u+t M+# 8@.@+@@@#@$@# X ",
". + + + @ # k+1.M p+r+u+t M+# 8@.@%@&@' *@# X ",
". + + + @ # k+1.M p+r+u+t m+# =@-@;@>@,@'@# X ",
"a@N N N b@# n 1.c@p+r+u+t p+)@# !@~@{@]@^@# X ",
"G+M M M d@# n [ p+p+r+u+t k y+/@# !@~@(@_@# X ",
"e@p+p+p+f@# $ % p+p+r+h+u+t k y+g@# !@<@[@# X ",
"e@p+p+p+f@# $ % p+r+[ h+u+t t k y+h@# }@|@# X ",
"e@p+p+p+f@# $ % p+r+k h+u+t t t k y+g@# 2@# g.",
"e@p+p+p+f@# $ % p+r+k h+u+t t t t k y+4@# # @+",
"e@p+p+p+f@# $ % p+r+k h+u+t t t t t k r+6@# g.",
"e@p+p+p+f@# i@v+r+h+u+j@u+t t t t t t j@k@# ^ ",
"e@p+p+p+f@# i@r.u+u+u+t t t t t t t r+l@# # # ",
"e@p+p+p+f@# m@n@t t t t t t t t t r+M+# o@    ",
"e@p+p+p+f@# m@n@t t t t t t t t r+M+# #       ",
"e@p+p+p+f@# m@n@t t t t t t t r+M+# #         ",
"e@p+p+p+f@# m@n@t t t t t t r+M+# #           ",
"e@p+p+p+f@# m@n@t t t t t r+M+# #             ",
"e@p+p+r+p@# m@n@t t t t r+M+# #               ",
"q@h+r@t &+# m@n@t t t r+M+# #                 ",
"s@t@u@v@h+# m@n@t t r+M+# #                   ",
"w@} x@w@m+# m@n@t r+M+# #                     ",
"y@z@z@A@B@# m@n@r+M+# #                       ",
"C@t D@E@s@# m@k M+# #                         ",
"!.F@F@G@H@# I@M+# #                           ",
"# # # # # # # # #                             "};
