/* XPM */
static char * bottom_left_active_xpm[] = {
"23 87 350 2",
"  	c None",
". 	c #000003",
"+ 	c #0F0C09",
"@ 	c #171717",
"# 	c #160A03",
"$ 	c #12334A",
"% 	c #547171",
"& 	c #00FFFF",
"* 	c #053847",
"= 	c #001130",
"- 	c #251B15",
"; 	c #131314",
"> 	c #57595A",
", 	c #000000",
"' 	c #545657",
") 	c #1E1E1F",
"! 	c #201F20",
"~ 	c #4B4D4F",
"{ 	c #373637",
"] 	c #282728",
"^ 	c #302E30",
"/ 	c #13354A",
"( 	c #547471",
"_ 	c #0D194B",
": 	c #001023",
"< 	c #251E19",
"[ 	c #100C09",
"} 	c #12394C",
"| 	c #515D8A",
"1 	c #131D34",
"2 	c #26221F",
"3 	c #1E1D1E",
"4 	c #1F1F20",
"5 	c #144154",
"6 	c #576685",
"7 	c #00111A",
"8 	c #090E20",
"9 	c #242221",
"0 	c #100F10",
"a 	c #545557",
"b 	c #242223",
"c 	c #160C05",
"d 	c #184A62",
"e 	c #354657",
"f 	c #00010D",
"g 	c #020D18",
"h 	c #1A191A",
"i 	c #484A4B",
"j 	c #57585A",
"k 	c #160F09",
"l 	c #153353",
"m 	c #1F1E1E",
"n 	c #1B1716",
"o 	c #1D1B1B",
"p 	c #4B4D4E",
"q 	c #4E5051",
"r 	c #4F5152",
"s 	c #202021",
"t 	c #100D09",
"u 	c #16120F",
"v 	c #1F2834",
"w 	c #201C19",
"x 	c #151618",
"y 	c #181818",
"z 	c #494B4E",
"A 	c #525456",
"B 	c #2A2829",
"C 	c #222223",
"D 	c #161513",
"E 	c #212020",
"F 	c #131315",
"G 	c #0C0D0F",
"H 	c #464749",
"I 	c #4A4B4E",
"J 	c #515354",
"K 	c #292728",
"L 	c #272526",
"M 	c #000004",
"N 	c #120E0B",
"O 	c #191919",
"P 	c #161616",
"Q 	c #141618",
"R 	c #46484A",
"S 	c #4B4C4F",
"T 	c #555659",
"U 	c #2B2C2D",
"V 	c #262425",
"W 	c #292829",
"X 	c #242425",
"Y 	c #000002",
"Z 	c #121212",
"` 	c #141313",
" .	c #0E0F12",
"..	c #47484A",
"+.	c #545659",
"@.	c #2A2B2C",
"#.	c #27292A",
"$.	c #282627",
"%.	c #4A4C4D",
"&.	c #151515",
"*.	c #0C0C0B",
"=.	c #414243",
"-.	c #535558",
";.	c #2D2E2F",
">.	c #262728",
",.	c #292B2C",
"'.	c #262526",
").	c #19191A",
"!.	c #5D5F62",
"~.	c #0E0A06",
"{.	c #0E0D0D",
"].	c #434446",
"^.	c #4C4D50",
"/.	c #525357",
"(.	c #353534",
"_.	c #292A2B",
":.	c #28292A",
"<.	c #252425",
"[.	c #4E5053",
"}.	c #606265",
"|.	c #060200",
"1.	c #2E3032",
"2.	c #474849",
"3.	c #515357",
"4.	c #343333",
"5.	c #313030",
"6.	c #2A2B2D",
"7.	c #252324",
"8.	c #595B5E",
"9.	c #00000A",
"0.	c #36322E",
"a.	c #55575A",
"b.	c #333332",
"c.	c #2F2F2E",
"d.	c #323231",
"e.	c #272829",
"f.	c #222122",
"g.	c #636568",
"h.	c #00000F",
"i.	c #413F3D",
"j.	c #1B1A1C",
"k.	c #555759",
"l.	c #353538",
"m.	c #2E2E2D",
"n.	c #303030",
"o.	c #585A5D",
"p.	c #202020",
"q.	c #5F6064",
"r.	c #080400",
"s.	c #343437",
"t.	c #303033",
"u.	c #30302F",
"v.	c #302E2F",
"w.	c #2F2D2E",
"x.	c #1B1B1C",
"y.	c #2C2E2F",
"z.	c #393B3B",
"A.	c #302F32",
"B.	c #302F2F",
"C.	c #2A2C2D",
"D.	c #58595C",
"E.	c #2F2D2F",
"F.	c #2E2C2E",
"G.	c #00091C",
"H.	c #514F4F",
"I.	c #444546",
"J.	c #303032",
"K.	c #313033",
"L.	c #323235",
"M.	c #2E2E2E",
"N.	c #56585B",
"O.	c #313334",
"P.	c #2D2B2C",
"Q.	c #000007",
"R.	c #302E2B",
"S.	c #313233",
"T.	c #333535",
"U.	c #313134",
"V.	c #333232",
"W.	c #303233",
"X.	c #2F3032",
"Y.	c #000009",
"Z.	c #32302E",
"`.	c #333435",
" +	c #343636",
".+	c #55565A",
"++	c #343536",
"@+	c #2E2F30",
"#+	c #000008",
"$+	c #2F2F31",
"%+	c #343436",
"&+	c #3C3C3B",
"*+	c #303133",
"=+	c #343336",
"-+	c #3A3A3A",
";+	c #383837",
">+	c #5C5D60",
",+	c #323334",
"'+	c #333235",
")+	c #545558",
"!+	c #363636",
"~+	c #312F2D",
"{+	c #373839",
"]+	c #3C3C40",
"^+	c #000011",
"/+	c #33312E",
"(+	c #48494C",
"_+	c #3C3B3E",
":+	c #363635",
"<+	c #000719",
"[+	c #545150",
"}+	c #090A0C",
"|+	c #3A3A3C",
"1+	c #373739",
"2+	c #00010F",
"3+	c #3B3937",
"4+	c #3B3C3C",
"5+	c #363738",
"6+	c #313133",
"7+	c #000012",
"8+	c #32302D",
"9+	c #33302C",
"0+	c #2E2E2C",
"a+	c #232425",
"b+	c #1B1B1B",
"c+	c #2F2E31",
"d+	c #323434",
"e+	c #333335",
"f+	c #262525",
"g+	c #272728",
"h+	c #515355",
"i+	c #00071A",
"j+	c #2A2A2B",
"k+	c #312F30",
"l+	c #4A4C4E",
"m+	c #000218",
"n+	c #3C3935",
"o+	c #29292A",
"p+	c #323435",
"q+	c #252526",
"r+	c #363839",
"s+	c #242324",
"t+	c #262627",
"u+	c #40403F",
"v+	c #232325",
"w+	c #212021",
"x+	c #212122",
"y+	c #403F3F",
"z+	c #232324",
"A+	c #545658",
"B+	c #322F2B",
"C+	c #3F3F3E",
"D+	c #000010",
"E+	c #33312D",
"F+	c #414144",
"G+	c #54514F",
"H+	c #0A0B0D",
"I+	c #444646",
"J+	c #241B17",
"K+	c #2D2320",
"L+	c #2B2B2C",
"M+	c #24272B",
"N+	c #23140F",
"O+	c #270500",
"P+	c #1091CA",
"Q+	c #2F2F30",
"R+	c #000A21",
"S+	c #4F4C4B",
"T+	c #260F08",
"U+	c #280000",
"V+	c #1FD0FF",
"W+	c #137BAA",
"X+	c #131212",
"Y+	c #28110A",
"Z+	c #2E0000",
"`+	c #24AFE5",
" @	c #146D96",
".@	c #200900",
"+@	c #330000",
"@@	c #00F3FF",
"#@	c #00DBFF",
"$@	c #299CCA",
"%@	c #250000",
"&@	c #00CDFF",
"*@	c #00C8FF",
"=@	c #1D688E",
"-@	c #00E5FF",
";@	c #00BFFF",
">@	c #00D3FF",
",@	c #29B3EA",
"'@	c #1179A9",
")@	c #1D5F81",
"!@	c #00E1FF",
"~@	c #00CFFF",
"{@	c #2BA8DA",
"]@	c #116289",
"^@	c #473D39",
"/@	c #1A6388",
"(@	c #00F1FF",
"_@	c #453C37",
":@	c #186F98",
"<@	c #28C5FF",
"[@	c #413A3B",
"}@	c #198CBE",
"|@	c #117AA8",
"1@	c #0E4572",
"2@	c #221916",
"3@	c #48433F",
"4@	c #21120D",
"5@	c #2D2F32",
"6@	c #240D06",
"7@	c #1B1A1A",
"8@	c #29120B",
"9@	c #136C96",
"0@	c #2E2E30",
"a@	c #242526",
"b@	c #383638",
"c@	c #302F30",
"d@	c #323234",
"e@	c #453B37",
"f@	c #333334",
"g@	c #2B2B2D",
"h@	c #473E3D",
"i@	c #1D1D1D",
"j@	c #282829",
"k@	c #4C4E4F",
"l@	c #2E2D2E",
"m@	c #0C0E10",
"n@	c #1C1B1C",
"o@	c #4D4E50",
"p@	c #343435",
"q@	c #282828",
"r@	c #2D2C2D",
"s@	c #1B1A1B",
"t@	c #1E2023",
"u@	c #1E1F22",
"v@	c #212326",
"w@	c #1F1E1F",
"x@	c #1E1E1E",
"y@	c #202124",
"z@	c #16181A",
"A@	c #16171A",
"B@	c #141619",
"C@	c #181A1D",
"D@	c #18191C",
"E@	c #17181B",
"F@	c #57595B",
"G@	c #1F1F1F",
"H@	c #171616",
"I@	c #161615",
". + @ # $ % & * = - ; > , ' ) ! ~ , { ] ] ] ^ ",
". + @ # / ( & _ : < ; > , ' ) ! ~ , { ] ] ] ^ ",
". [ @ # } | & 1 . 2 ; > , ' 3 4 ~ , { ] ] ] ^ ",
". [ @ # 5 6 7 8 , 9 0 a , ' b 4 ~ , { ] ] ] ^ ",
". [ @ c d e f g , h i j , ' 3 4 ~ , { ] ] ] ^ ",
". [ @ k l m n , o p q , , r s ! ~ , { ] ] ] ^ ",
". t @ u v w x y p z , , A B C 4 ~ , { ] ] ] ^ ",
". t @ D E F G H I , , J K L B 4 ~ , { ] ] ] ^ ",
"M N O P Q G R S , , T U V W X 4 ~ , { ] ] ] ^ ",
"Y , Z `  ...S , , +.@.#.$.W X ) %., { ] ] ] ^ ",
"M N &.*.=.S , , -.;.>.,.$.] '.).!., { ] ] ] ^ ",
". ~.{.].^., , /.(._.:.,.$.<.$.[.}., { ] ] ] ^ ",
", |.1.2., , 3.4.5.6.:.,.7.$.8., }., { ] ] ] ^ ",
"9.0.H , , a.b.c.d.6.:.e.L 8., f.g., { ] ] ] ^ ",
"h.i.j., k.l.m.n.d.6.>._.o., @.p.q., { ] ] ] ^ ",
"Y r., T s.t.u.n.d.#.:.o., v.w.x.q., { ] ] ] ^ ",
", , y.z.A.c.u.n.B.C.D., E.F.X x.q., { ] ] ] ^ ",
"G.H.I.J.K.L.u.M.b.N., O.P.W X x.q., { ] ] ] ^ ",
"Q.R.S.T.K.U.m.V.a., W.X.$.W B x.q., { ] ] ] ^ ",
"Y.Z.`. +K.J.d..+, ++@+,.$.W X x.q., { ] ] ] ^ ",
"#+Z.`.A.$+%++., &+*+:.,.$.W X x.q., { ] ] ] ^ ",
"h.Z.++`.=++., -+;+6.:.,.$.] '.y >+, { ] ] ] ^ ",
"#+Z.,+'+)+, -+!+d.6.:.,.$.<.$.[.}., { ] ] ] ^ ",
"#+~+{+)+, ]+!+n.d.6.:.,.7.$.8., }., { ] ] ] ^ ",
"^+/+(+, _+:+u.n.d.6.:.e.L 8., f.g., { ] ] ] ^ ",
"<+[+}+|+1+L.u.n.d.6.>._.o., @.p.q., { ] ] ] ^ ",
", , m z.K.U.u.n.d.#.:.o., v.w.x.q., { ] ] ] ^ ",
"2+3+4+5+K.L.u.n.B.C.D., E.F.X x.q., { ] ] ] ^ ",
"#+Z.`.A.6+u.n.M.b.N., O.P.W X x.q., { ] ] ] ^ ",
"7+8+`. +U.u.M.V.a., W.X.$.W B x.q., { ] ] ] ^ ",
"7+9+`.++K.0+d..+, ++@+,.$.] a+b+q., { ] ] ] ^ ",
"7+9+`.++c+s.+., &+*+:.,.$.] B b+q., { ] ] ] ^ ",
"7+9+`.d+e++., -+;+6.:.,.$.] f+4 g., { ] ] ] ^ ",
"7+8+,+'+)+, -+!+d.6.:.,.$.<.$.8., , { ] ] ] ^ ",
"#+~+{+)+, ]+!+n.d.6.:.,.7.$.8., 1+, { ] ] ] ^ ",
"Q./+(+, _+:+u.n.d.6.:.e.L 8., g+h+, { ] ] ] ^ ",
"i+[+}+|+1+L.u.n.d.6.>._.o., j+B p , { ] ] ] ^ ",
", , m z.K.U.u.n.d.#.:.o., k+:.7.l+, { ] ] ] ^ ",
"m+n+4+5+K.L.u.n.B.C.D., v.o+X 7.l+, { ] ] ] ^ ",
"7+9+`.A.6+u.n.M.b.N., p+o+q+X 7.l+, { ] ] ] ^ ",
"7+9+`. +U.u.M.V.a., p+o+<.q+X 7.l+, { ] ] ] ^ ",
"7+9+`. +6+0+d..+, r+s+t+q+q+X 7.l+, { ] ] ] ^ ",
"7+9+`.A.$+s.+., u+v+w+x+t+q+X 7.l+, { ] ] ] ^ ",
"7+9+++`.=++., y+z+s C x+t+q+X 7.l+, { ] ] ] ^ ",
"7+9+,+'+A+, y+z+s C C g+t+q+X 7.l+, { ] ] ] ^ ",
"7+B+{+)+, C+z+s C C x+s q+q+X 7.l+, { ] ] ] ^ ",
"D+E+(+, F+z+s t+t+t+x+g+q+q+X 7.l+, { ] ] ] ^ ",
"<+G+H+I+C s J+K+, L+x+t+q+q+X 7.l+, { ] ] ] ^ ",
", , M+! s N+O+P+, Q+x+t+q+q+X 7.l+, { ] ] ] ^ ",
"R+S+5+C T+U+V+W+, Q+x+t+q+q+X 7.l+, { ] ] ] ^ ",
", , X+Y+Z+& `+ @, Q+x+g+q+q+X 7.l+, { ] ] ] ^ ",
"M , .@+@@@#@$@ @, Q+x+s q+q+X 7.l+, { ] ] ] ^ ",
"M , %@& &@*@$@ @, Q+x+g+q+q+X 7.l+, { ] ] ] ^ ",
"M , =@-@;@>@,@'@, o+x+t+q+q+X 7.l+, { ] ] ] ^ ",
"M , )@!@~@{@]@, ^@q+x+t+q+q+X 7.l+, { ] ] ] ^ ",
"M , /@(@{@]@, _@z+s x+g+q+q+X 7.l+, { ] ] ] ^ ",
"M , :@<@]@, [@z+s C C x+t+q+B 7.l+, { ] ] ] ^ ",
"M , }@|@, _@z+q+t+t+C x+t+q+X 7.l+, { ] ] ] ^ ",
"M , 1@, _@z+2@K+, L+C x+t+q+X 7.l+, { ] ] ] ^ ",
"M , , 3@z+4@O+P+, Q+C x+t+q+X 7.l+, { ] ] ] ^ ",
"M , 5@t+6@U+V+W+, Q+C x+t+q+X 7.l+, { ] ] ] ^ ",
"M , 7@8@Z+& `+9@, 0@C x+t+q+X 7.l+, { ] ] ] ^ ",
"M , .@+@@@#@$@9@, Q+C x+t+q+X 7.l+, { ] ] ] ^ ",
"M , %@& &@*@$@9@, Q+C x+t+q+X 7.l+, { ] ] ] ^ ",
"M , =@-@;@>@,@'@, o+C x+t+q+X 7.l+, { ] ] ] ^ ",
"M , )@!@~@{@]@, ^@q+C x+t+q+a@7.p , b@W W W c@",
"M , /@(@{@]@, _@z+s C x+t+q+q+4 p , d@X X X L+",
"M , :@<@]@, e@z+s C x+g+t+q+q+! ~ , f@q+q+q+g@",
"M , }@|@, h@z+s C C x+g+4 t+q+! ~ , f@q+q+q+g@",
"9., 1@, e@z+s C C C x+g+s t+q+! ~ , f@q+q+q+g@",
"Y., , 3@z+s C C C C x+g+s t+q+! ~ , f@q+q+q+g@",
"9., 5@t+s C C C C C x+g+s t+q+! ~ , f@q+q+q+g@",
". , i@j@C C C C C C x+j@x+g+t+w+k@, f@q+q+q+g@",
", , , l@t+C C C C C C C x+x+x+x.k@, f@q+q+q+g@",
"    m@, Q+t+C C C C C C C C C n@o@, f@q+q+q+g@",
"      , , Q+t+C C C C C C C C n@o@, f@q+q+q+g@",
"        , , Q+t+C C C C C C C n@o@, f@q+q+q+g@",
"          , , Q+t+C C C C C C n@o@, f@q+q+q+g@",
"            , , Q+t+C C C C C n@o@, f@q+q+q+g@",
"              , , Q+t+C C C C n@o@, p@t+q+q+g@",
"                , , Q+t+C C C n@o@, $+C q@g+r@",
"                  , , Q+t+C C n@o@, g+s@t@u@v@",
"                    , , Q+t+C n@o@, o+w@x@3 w@",
"                      , , Q+t+n@o@, y@z@A@A@B@",
"                        , , Q+s o@, v@C@D@C E@",
"                          , , Q+F@, G@H@I@I@&.",
"                            , , , , , , , , , "};
