/* XPM */
static char * close_active_xpm[] = {
"44 29 118 2",
"  	c None",
". 	c #000000",
"+ 	c #212122",
"@ 	c #1B1D20",
"# 	c #1C1D20",
"$ 	c #1C1E20",
"% 	c #222122",
"& 	c #1F1F20",
"* 	c #1C1C1D",
"= 	c #3C3C3B",
"- 	c #424241",
"; 	c #222223",
"> 	c #232323",
", 	c #242324",
"' 	c #242424",
") 	c #1D1F21",
"! 	c #202021",
"~ 	c #1D1D1E",
"{ 	c #3B3B3B",
"] 	c #40403F",
"^ 	c #29292A",
"/ 	c #1C1E21",
"( 	c #262627",
"_ 	c #29221C",
": 	c #241D15",
"< 	c #2C2621",
"[ 	c #171513",
"} 	c #212021",
"| 	c #282829",
"1 	c #252526",
"2 	c #7E9FBA",
"3 	c #718AA1",
"4 	c #6B8098",
"5 	c #697A92",
"6 	c #71849D",
"7 	c #23140F",
"8 	c #160F0D",
"9 	c #272729",
"0 	c #2A2A2B",
"a 	c #385478",
"b 	c #6B7F91",
"c 	c #76C3DC",
"d 	c #6FB4CC",
"e 	c #6EAFC6",
"f 	c #73B7D0",
"g 	c #82CEED",
"h 	c #200C03",
"i 	c #160F0E",
"j 	c #1D1F22",
"k 	c #262628",
"l 	c #2F2C2D",
"m 	c #292728",
"n 	c #140C05",
"o 	c #354D6F",
"p 	c #687485",
"q 	c #72B3CA",
"r 	c #6BA4BA",
"s 	c #699EB4",
"t 	c #70ACC5",
"u 	c #80C9E7",
"v 	c #200C04",
"w 	c #100B0C",
"x 	c #222222",
"y 	c #1A191A",
"z 	c #1E1F22",
"A 	c #242426",
"B 	c #2D2F31",
"C 	c #282A2B",
"D 	c #27292A",
"E 	c #252220",
"F 	c #1A120C",
"G 	c #37496F",
"H 	c #676F84",
"I 	c #70ADC8",
"J 	c #68A2B9",
"K 	c #81C9E7",
"L 	c #210D04",
"M 	c #110C0D",
"N 	c #242425",
"O 	c #3A3A3A",
"P 	c #343333",
"Q 	c #333232",
"R 	c #1E1C1A",
"S 	c #150805",
"T 	c #299381",
"U 	c #A1A0AE",
"V 	c #89D6F6",
"W 	c #8AD3F1",
"X 	c #8AD2F1",
"Y 	c #89D2F0",
"Z 	c #90E0FF",
"` 	c #A0FDFF",
" .	c #362F2C",
"..	c #3D3D3D",
"+.	c #3A3A39",
"@.	c #323232",
"#.	c #303030",
"$.	c #232324",
"%.	c #20181A",
"&.	c #180E0E",
"*.	c #3D3D3C",
"=.	c #17191C",
"-.	c #414141",
";.	c #212123",
">.	c #1F1E20",
",.	c #272728",
"'.	c #232325",
").	c #222224",
"!.	c #1B1B1D",
"~.	c #4C4C4B",
"{.	c #474747",
"].	c #464645",
"^.	c #2F2F31",
"/.	c #29292B",
"(.	c #393939",
"_.	c #343434",
":.	c #333333",
"<.	c #313131",
". . . . . . . . . . . . . . . . . . . . . . . . . . . . . . . . . . . . . . . . . . . . ",
"+ + @ # # # # # # # # # # # # # # # # # # # # # # # # # # # $ # % + + + + + + & * = - . ",
"; ; > > > > > > > > > > > > > > > > > > > > > > > , , , , , ' ) > ; ; ; ; ; ! ~ { ] . ^ ",
"~ ~ ~ ~ ~ ~ ~ ~ ~ ~ ~ ~ ~ ~ ~ ~ ~ ~ ~ ~ ~ ~ ~ ~ & + / > / ) , ) > ; ; ; ; ! ~ { ] . ^ ( ",
"_ : : : : : : : : : : : : : : : : : : : : : : : < [ } > > , ) > ; ; ; ; ! ~ { ] . | 1 + ",
"2 3 4 5 5 5 5 5 5 5 5 5 5 5 5 5 5 5 5 5 5 5 5 5 6 7 8 ! ; > ) , ; ; ; ! ~ { ] . 9 0 1 1 ",
"a b c d e e e e e e e e e e e e e e e e e e e e f g h i + , j ' / ; ! ~ { ] . k l m m m ",
"n o p q r s s s s s s s s s s s s s s s s s s s s t u v w x y z > + ~ { ] . A B C D D D ",
"E F G H I J s s s s s s s s s s s s s s s s s s s s t K L M ; j + ~ { ] . N O P Q Q Q Q ",
"! R S T U V W X X X X X Y X X X Y X X X Y X X X Y Y Y Z `  .@ + & ..] . N +.@.#.#.#.#.#.",
"$.! %.&.. . . . . . . . . . . . . . . . . . . . . . . . . . *.=.! -.. N +.@.#.#.#.#.#.#.",
"-.;.~ >.,.$.'.$.$.$.$.$.).$.$.$.).$.$.$.).$.$.$.).).).).).& !.= - . N +.@.#.#.#.#.#.#.#.",
". ~.{.{.{.{.{.{.{.{.{.{.{.{.{.{.{.{.{.{.{.{.{.{.{.{.{.{.{.{.].].. N +.@.#.#.#.#.#.#.#.#.",
". . . . . . . . . . . . . . . . . . . . . . . . . . . . . . . . '.+.@.#.#.#.#.#.#.#.#.#.",
"^.^.^.^.^.^.^.^.^.^.^.^.^.^.^.^.^.^.^.^.^.^.^.^.^.^.^.^.^.^.^./.(.@.#.#.#.#.#.#.#.#.#.#.",
"_._._._._._._._._._._._._._._._._._._._._._._._._._._._._._._.:.<.#.#.#.#.#.#.#.#.#.#.#.",
"#.#.#.#.#.#.#.#.#.#.#.#.#.#.#.#.#.#.#.#.#.#.#.#.#.#.#.#.#.#.#.#.#.#.#.#.#.#.#.#.#.#.#.#.",
"#.#.#.#.#.#.#.#.#.#.#.#.#.#.#.#.#.#.#.#.#.#.#.#.#.#.#.#.#.#.#.#.#.#.#.#.#.#.#.#.#.#.#.#.",
"#.#.#.#.#.#.#.#.#.#.#.#.#.#.#.#.#.#.#.#.#.#.#.#.#.#.#.#.#.#.#.#.#.#.#.#.#.#.#.#.#.#.#.#.",
"#.#.#.#.#.#.#.#.#.#.#.#.#.#.#.#.#.#.#.#.#.#.#.#.#.#.#.#.#.#.#.#.#.#.#.#.#.#.#.#.#.#.#.#.",
"#.#.#.#.#.#.#.#.#.#.#.#.#.#.#.#.#.#.#.#.#.#.#.#.#.#.#.#.#.#.#.#.#.#.#.#.#.#.#.#.#.#.#.#.",
"#.#.#.#.#.#.#.#.#.#.#.#.#.#.#.#.#.#.#.#.#.#.#.#.#.#.#.#.#.#.#.#.#.#.#.#.#.#.#.#.#.#.#.#.",
"#.#.#.#.#.#.#.#.#.#.#.#.#.#.#.#.#.#.#.#.#.#.#.#.#.#.#.#.#.#.#.#.#.#.#.#.#.#.#.#.#.#.#.#.",
"#.#.#.#.#.#.#.#.#.#.#.#.#.#.#.#.#.#.#.#.#.#.#.#.#.#.#.#.#.#.#.#.#.#.#.#.#.#.#.#.#.#.#.#.",
"#.#.#.#.#.#.#.#.#.#.#.#.#.#.#.#.#.#.#.#.#.#.#.#.#.#.#.#.#.#.#.#.#.#.#.#.#.#.#.#.#.#.#.#.",
"#.#.#.#.#.#.#.#.#.#.#.#.#.#.#.#.#.#.#.#.#.#.#.#.#.#.#.#.#.#.#.#.#.#.#.#.#.#.#.#.#.#.#.#.",
"#.#.#.#.#.#.#.#.#.#.#.#.#.#.#.#.#.#.#.#.#.#.#.#.#.#.#.#.#.#.#.#.#.#.#.#.#.#.#.#.#.#.#.#.",
"#.#.#.#.#.#.#.#.#.#.#.#.#.#.#.#.#.#.#.#.#.#.#.#.#.#.#.#.#.#.#.#.#.#.#.#.#.#.#.#.#.#.#.#.",
"Q Q Q Q Q Q Q Q Q Q Q Q Q Q Q Q Q Q Q Q Q Q Q Q Q Q Q Q Q Q Q Q Q Q Q Q Q Q Q Q Q Q Q Q "};
