/* XPM */
static char * close_prelight_xpm[] = {
"44 29 113 2",
"  	c None",
". 	c #000000",
"+ 	c #212122",
"@ 	c #1B1D20",
"# 	c #1C1D20",
"$ 	c #1C1E20",
"% 	c #222122",
"& 	c #1F1F20",
"* 	c #1C1C1D",
"= 	c #3C3C3B",
"- 	c #424241",
"; 	c #222223",
"> 	c #232323",
", 	c #242324",
"' 	c #242424",
") 	c #1D1F21",
"! 	c #202021",
"~ 	c #1D1D1E",
"{ 	c #3B3B3B",
"] 	c #40403F",
"^ 	c #29292A",
"/ 	c #1C1E21",
"( 	c #262627",
"_ 	c #2F1815",
": 	c #281410",
"< 	c #341A18",
"[ 	c #181311",
"} 	c #212021",
"| 	c #282829",
"1 	c #252526",
"2 	c #D35B5C",
"3 	c #D23737",
"4 	c #C82D2D",
"5 	c #C22B2B",
"6 	c #D03131",
"7 	c #230A09",
"8 	c #160E0C",
"9 	c #272729",
"0 	c #2A2A2B",
"a 	c #772429",
"b 	c #C72C2C",
"c 	c #E38282",
"d 	c #DE6B6B",
"e 	c #DC6767",
"f 	c #DF7272",
"g 	c #E79696",
"h 	c #180705",
"i 	c #160F0E",
"j 	c #1D1F22",
"k 	c #262628",
"l 	c #2F2C2D",
"m 	c #292728",
"n 	c #130804",
"o 	c #781B1B",
"p 	c #B82929",
"q 	c #DE6D6D",
"r 	c #D95656",
"s 	c #D74E4E",
"t 	c #DC6363",
"u 	c #E58E8E",
"v 	c #190705",
"w 	c #100B0C",
"x 	c #222222",
"y 	c #1A191A",
"z 	c #1E1F22",
"A 	c #242426",
"B 	c #2D2F31",
"C 	c #282A2B",
"D 	c #27292A",
"E 	c #252220",
"F 	c #1A0D0A",
"G 	c #731A1A",
"H 	c #B22727",
"I 	c #D85353",
"J 	c #1D0905",
"K 	c #110C0D",
"L 	c #242425",
"M 	c #3A3A3A",
"N 	c #343333",
"O 	c #333232",
"P 	c #1E1C1A",
"Q 	c #130604",
"R 	c #C42E2E",
"S 	c #EAA3A3",
"T 	c #E99E9E",
"U 	c #EDB2B2",
"V 	c #F6D9D9",
"W 	c #3F2321",
"X 	c #3D3D3D",
"Y 	c #3A3A39",
"Z 	c #323232",
"` 	c #303030",
" .	c #232324",
"..	c #20181A",
"+.	c #180C0C",
"@.	c #3D3D3C",
"#.	c #17191C",
"$.	c #414141",
"%.	c #212123",
"&.	c #1F1E20",
"*.	c #272728",
"=.	c #232325",
"-.	c #222224",
";.	c #1B1B1D",
">.	c #4C4C4B",
",.	c #474747",
"'.	c #464645",
").	c #2F2F31",
"!.	c #29292B",
"~.	c #393939",
"{.	c #343434",
"].	c #333333",
"^.	c #313131",
". . . . . . . . . . . . . . . . . . . . . . . . . . . . . . . . . . . . . . . . . . . . ",
"+ + @ # # # # # # # # # # # # # # # # # # # # # # # # # # # $ # % + + + + + + & * = - . ",
"; ; > > > > > > > > > > > > > > > > > > > > > > > , , , , , ' ) > ; ; ; ; ; ! ~ { ] . ^ ",
"~ ~ ~ ~ ~ ~ ~ ~ ~ ~ ~ ~ ~ ~ ~ ~ ~ ~ ~ ~ ~ ~ ~ ~ & + / > / ) , ) > ; ; ; ; ! ~ { ] . ^ ( ",
"_ : : : : : : : : : : : : : : : : : : : : : : : < [ } > > , ) > ; ; ; ; ! ~ { ] . | 1 + ",
"2 3 4 5 5 5 5 5 5 5 5 5 5 5 5 5 5 5 5 5 5 5 5 5 6 7 8 ! ; > ) , ; ; ; ! ~ { ] . 9 0 1 1 ",
"a b c d e e e e e e e e e e e e e e e e e e e e f g h i + , j ' / ; ! ~ { ] . k l m m m ",
"n o p q r s s s s s s s s s s s s s s s s s s s s t u v w x y z > + ~ { ] . A B C D D D ",
"E F G H t I s s s s s s s s s s s s s s s s s s s s t u J K ; j + ~ { ] . L M N O O O O ",
"! P Q R t S T T T T T T T T T T T T T T T T T T T T T U V W @ + & X ] . L Y Z ` ` ` ` ` ",
" .! ..+.. . . . . . . . . . . . . . . . . . . . . . . . . . @.#.! $.. L Y Z ` ` ` ` ` ` ",
"$.%.~ &.*. .=. . . . . .-. . . .-. . . .-. . . .-.-.-.-.-.& ;.= - . L Y Z ` ` ` ` ` ` ` ",
". >.,.,.,.,.,.,.,.,.,.,.,.,.,.,.,.,.,.,.,.,.,.,.,.,.,.,.,.,.'.'.. L Y Z ` ` ` ` ` ` ` ` ",
". . . . . . . . . . . . . . . . . . . . . . . . . . . . . . . . =.Y Z ` ` ` ` ` ` ` ` ` ",
").).).).).).).).).).).).).).).).).).).).).).).).).).).).).).).!.~.Z ` ` ` ` ` ` ` ` ` ` ",
"{.{.{.{.{.{.{.{.{.{.{.{.{.{.{.{.{.{.{.{.{.{.{.{.{.{.{.{.{.{.{.].^.` ` ` ` ` ` ` ` ` ` ` ",
"` ` ` ` ` ` ` ` ` ` ` ` ` ` ` ` ` ` ` ` ` ` ` ` ` ` ` ` ` ` ` ` ` ` ` ` ` ` ` ` ` ` ` ` ",
"` ` ` ` ` ` ` ` ` ` ` ` ` ` ` ` ` ` ` ` ` ` ` ` ` ` ` ` ` ` ` ` ` ` ` ` ` ` ` ` ` ` ` ` ",
"` ` ` ` ` ` ` ` ` ` ` ` ` ` ` ` ` ` ` ` ` ` ` ` ` ` ` ` ` ` ` ` ` ` ` ` ` ` ` ` ` ` ` ` ",
"` ` ` ` ` ` ` ` ` ` ` ` ` ` ` ` ` ` ` ` ` ` ` ` ` ` ` ` ` ` ` ` ` ` ` ` ` ` ` ` ` ` ` ` ",
"` ` ` ` ` ` ` ` ` ` ` ` ` ` ` ` ` ` ` ` ` ` ` ` ` ` ` ` ` ` ` ` ` ` ` ` ` ` ` ` ` ` ` ` ",
"` ` ` ` ` ` ` ` ` ` ` ` ` ` ` ` ` ` ` ` ` ` ` ` ` ` ` ` ` ` ` ` ` ` ` ` ` ` ` ` ` ` ` ` ",
"` ` ` ` ` ` ` ` ` ` ` ` ` ` ` ` ` ` ` ` ` ` ` ` ` ` ` ` ` ` ` ` ` ` ` ` ` ` ` ` ` ` ` ` ",
"` ` ` ` ` ` ` ` ` ` ` ` ` ` ` ` ` ` ` ` ` ` ` ` ` ` ` ` ` ` ` ` ` ` ` ` ` ` ` ` ` ` ` ` ",
"` ` ` ` ` ` ` ` ` ` ` ` ` ` ` ` ` ` ` ` ` ` ` ` ` ` ` ` ` ` ` ` ` ` ` ` ` ` ` ` ` ` ` ` ",
"` ` ` ` ` ` ` ` ` ` ` ` ` ` ` ` ` ` ` ` ` ` ` ` ` ` ` ` ` ` ` ` ` ` ` ` ` ` ` ` ` ` ` ` ",
"` ` ` ` ` ` ` ` ` ` ` ` ` ` ` ` ` ` ` ` ` ` ` ` ` ` ` ` ` ` ` ` ` ` ` ` ` ` ` ` ` ` ` ` ",
"` ` ` ` ` ` ` ` ` ` ` ` ` ` ` ` ` ` ` ` ` ` ` ` ` ` ` ` ` ` ` ` ` ` ` ` ` ` ` ` ` ` ` ` ",
"O O O O O O O O O O O O O O O O O O O O O O O O O O O O O O O O O O O O O O O O O O O O "};
