/* XPM */
static char * hide_active_xpm[] = {
"45 29 120 2",
"  	c None",
". 	c #000000",
"+ 	c #424241",
"@ 	c #3C3C3B",
"# 	c #1C1C1D",
"$ 	c #1F1F20",
"% 	c #212122",
"& 	c #1B1D20",
"* 	c #1C1D20",
"= 	c #202124",
"- 	c #444443",
"; 	c #222223",
"> 	c #29292A",
", 	c #40403F",
"' 	c #3B3B3B",
") 	c #1D1D1E",
"! 	c #202021",
"~ 	c #232323",
"{ 	c #272728",
"] 	c #2A292A",
"^ 	c #434343",
"/ 	c #232324",
"( 	c #262627",
"_ 	c #252526",
": 	c #232528",
"< 	c #282829",
"[ 	c #3A3836",
"} 	c #302C28",
"| 	c #29221C",
"1 	c #241D15",
"2 	c #2C2621",
"3 	c #171513",
"4 	c #191615",
"5 	c #2A2A2B",
"6 	c #272729",
"7 	c #1B1B1D",
"8 	c #1A1818",
"9 	c #3E5366",
"0 	c #7E9FBA",
"a 	c #718AA1",
"b 	c #6B8098",
"c 	c #697A92",
"d 	c #71849D",
"e 	c #23140F",
"f 	c #160F0D",
"g 	c #15100C",
"h 	c #292728",
"i 	c #2F2C2D",
"j 	c #262628",
"k 	c #130C07",
"l 	c #385478",
"m 	c #6B7F91",
"n 	c #76C3DC",
"o 	c #6FB4CC",
"p 	c #6EAFC6",
"q 	c #73B7D0",
"r 	c #82CEED",
"s 	c #200C03",
"t 	c #160F0E",
"u 	c #222224",
"v 	c #1C1713",
"w 	c #27292A",
"x 	c #282A2B",
"y 	c #2D2F31",
"z 	c #242426",
"A 	c #1A1716",
"B 	c #120B04",
"C 	c #364D6F",
"D 	c #687485",
"E 	c #72B3CA",
"F 	c #6BA4BA",
"G 	c #699EB4",
"H 	c #70ACC5",
"I 	c #80C9E7",
"J 	c #242528",
"K 	c #434342",
"L 	c #1F1D1B",
"M 	c #333232",
"N 	c #343333",
"O 	c #3A3A3A",
"P 	c #242425",
"Q 	c #191715",
"R 	c #19110A",
"S 	c #16100E",
"T 	c #242629",
"U 	c #454544",
"V 	c #303030",
"W 	c #323232",
"X 	c #3A3A39",
"Y 	c #120A04",
"Z 	c #3B547A",
"` 	c #76879D",
" .	c #8BD8F7",
"..	c #8AD2F1",
"+.	c #8AD3F1",
"@.	c #89D2F0",
"#.	c #90E0FF",
"$.	c #A0FDFF",
"%.	c #362F2C",
"&.	c #222122",
"*.	c #202224",
"=.	c #1E1815",
"-.	c #3D3D3C",
";.	c #18191C",
">.	c #1C1C1E",
",.	c #202022",
"'.	c #232325",
").	c #363635",
"!.	c #373737",
"~.	c #1F1F21",
"{.	c #464645",
"].	c #474747",
"^.	c #444444",
"/.	c #4A4A4A",
"(.	c #393939",
"_.	c #29292B",
":.	c #2F2F31",
"<.	c #313131",
"[.	c #333333",
"}.	c #343434",
". . . . . . . . . . . . . . . . . . . . . . . . . . . . . . . . . . . . . . . . . . . . . ",
". + @ # $ % % % % % % % & * * * * * * * * * * * * * * * * * * * * * * = . - ; $ % % % % % ",
"> . , ' ) ! ; ; ; ; ; ; ~ ~ ~ ~ ~ ~ ~ ~ ~ ~ ~ ~ ~ ~ ~ ~ ~ ~ ~ ~ ~ ~ ~ { ] . ^ / ! ; ; ; ; ",
"( > . , ' ) ! ! $ ) ) ) ) ) ) ) ) ) ) ) ) ) ) ) ) ) ) ) ) ) ) ) ) ) ) $ _ : . ^ / ! ; ; ! ",
"% _ < . , ' ) $ [ } | 1 1 1 1 1 1 1 1 1 1 1 1 1 1 1 1 1 1 1 1 1 1 1 1 2 3 _ > . ^ / ! ; 4 ",
"_ _ 5 6 . , ' 7 8 9 0 a b c c c c c c c c c c c c c c c c c c c c c c d e f _ > . ^ / ! g ",
"h h h i j . , ' 8 k l m n o p p p p p p p p p p p p p p p p p p p p p q r s t _ > . ^ u v ",
"w w w x y z . , ' A B C D E F G G G G G G G G G G G G G G G G G G G G G H I s t _ J . K L ",
"M M M M N O P . , ' Q R C D E F G G G G G G G G G G G G G G G G G G G G G H I s S = T . U ",
"V V V V V W X P . , ' Q Y Z `  ...+...................................@.@.@.#.$.%.&.*.T . ",
"V V V V V V W X P . , ' Q =.. . . . . . . . . . . . . . . . . . . . . . . . . . . -.;.P / ",
"V V V V V V V W X P . , ' >.,./ / './ / / / / / / / / / / / / / / / / u u u u u $ 7 ).!.~.",
"V V V V V V V V W X P . {.{.].].].].].].].].].].].].].].].].].].].].].].].].].].].{.^.^./.",
"V V V V V V V V V W X '.. . . . . . . . . . . . . . . . . . . . . . . . . . . . . . . . . ",
"V V V V V V V V V V W (._.:.:.:.:.:.:.:.:.:.:.:.:.:.:.:.:.:.:.:.:.:.:.:.:.:.:.:.:.:.:.:.:.",
"V V V V V V V V V V V <.[.}.}.}.}.}.}.}.}.}.}.}.}.}.}.}.}.}.}.}.}.}.}.}.}.}.}.}.}.}.}.}.}.",
"V V V V V V V V V V V V V V V V V V V V V V V V V V V V V V V V V V V V V V V V V V V V V ",
"V V V V V V V V V V V V V V V V V V V V V V V V V V V V V V V V V V V V V V V V V V V V V ",
"V V V V V V V V V V V V V V V V V V V V V V V V V V V V V V V V V V V V V V V V V V V V V ",
"V V V V V V V V V V V V V V V V V V V V V V V V V V V V V V V V V V V V V V V V V V V V V ",
"V V V V V V V V V V V V V V V V V V V V V V V V V V V V V V V V V V V V V V V V V V V V V ",
"V V V V V V V V V V V V V V V V V V V V V V V V V V V V V V V V V V V V V V V V V V V V V ",
"V V V V V V V V V V V V V V V V V V V V V V V V V V V V V V V V V V V V V V V V V V V V V ",
"V V V V V V V V V V V V V V V V V V V V V V V V V V V V V V V V V V V V V V V V V V V V V ",
"V V V V V V V V V V V V V V V V V V V V V V V V V V V V V V V V V V V V V V V V V V V V V ",
"V V V V V V V V V V V V V V V V V V V V V V V V V V V V V V V V V V V V V V V V V V V V V ",
"V V V V V V V V V V V V V V V V V V V V V V V V V V V V V V V V V V V V V V V V V V V V V ",
"V V V V V V V V V V V V V V V V V V V V V V V V V V V V V V V V V V V V V V V V V V V V V ",
"M M M M M M M M M M M M M M M M M M M M M M M M M M M M M M M M M M M M M M M M M M M M M "};
