/* XPM */
static char * hide_prelight_xpm[] = {
"45 29 134 2",
"  	c None",
". 	c #000000",
"+ 	c #424241",
"@ 	c #3C3C3B",
"# 	c #1C1C1D",
"$ 	c #1F1F20",
"% 	c #212122",
"& 	c #1B1D20",
"* 	c #1C1D20",
"= 	c #202124",
"- 	c #444443",
"; 	c #222223",
"> 	c #29292A",
", 	c #40403F",
"' 	c #3B3B3B",
") 	c #1D1D1E",
"! 	c #202021",
"~ 	c #232323",
"{ 	c #272728",
"] 	c #2A292A",
"^ 	c #434343",
"/ 	c #232324",
"( 	c #262627",
"_ 	c #1E1E1D",
": 	c #1E1E1C",
"< 	c #252526",
"[ 	c #232528",
"} 	c #282829",
"| 	c #3A3836",
"1 	c #3F3D17",
"2 	c #3C3C07",
"3 	c #323105",
"4 	c #313006",
"5 	c #302E07",
"6 	c #2F2D08",
"7 	c #2E2C09",
"8 	c #2D2A0A",
"9 	c #383414",
"0 	c #171513",
"a 	c #191615",
"b 	c #2A2A2B",
"c 	c #272729",
"d 	c #1B1B1D",
"e 	c #1A1818",
"f 	c #435760",
"g 	c #DEE052",
"h 	c #E5E324",
"i 	c #DCD919",
"j 	c #D5D218",
"k 	c #E4E21D",
"l 	c #262008",
"m 	c #160F0D",
"n 	c #15100C",
"o 	c #292728",
"p 	c #2F2C2D",
"q 	c #262628",
"r 	c #130C07",
"s 	c #4F635C",
"t 	c #DAD819",
"u 	c #EFED76",
"v 	c #ECEA5D",
"w 	c #EBE958",
"x 	c #EDEB64",
"y 	c #F1F08C",
"z 	c #1B1402",
"A 	c #160F0E",
"B 	c #222224",
"C 	c #1C1713",
"D 	c #27292A",
"E 	c #282A2B",
"F 	c #2D2F31",
"G 	c #242426",
"H 	c #1A1716",
"I 	c #120B04",
"J 	c #656E35",
"K 	c #CAC817",
"L 	c #ECEA5F",
"M 	c #E9E746",
"N 	c #E8E63D",
"O 	c #EBE954",
"P 	c #F0EF83",
"Q 	c #242528",
"R 	c #434342",
"S 	c #1F1D1B",
"T 	c #333232",
"U 	c #343333",
"V 	c #3A3A3A",
"W 	c #242425",
"X 	c #191715",
"Y 	c #19120A",
"Z 	c #777A1E",
"` 	c #1B1502",
" .	c #16110D",
"..	c #242629",
"+.	c #454544",
"@.	c #303030",
"#.	c #323232",
"$.	c #3A3A39",
"%.	c #8D8B13",
"&.	c #E5E222",
"*.	c #F3F29C",
"=.	c #F2F195",
"-.	c #EEF099",
";.	c #EBEF9B",
">.	c #E6ED9F",
",.	c #E4EDA1",
"'.	c #DFEBA6",
").	c #DDEBA7",
"!.	c #D7E9AD",
"~.	c #D6E9AD",
"{.	c #DAEFC1",
"].	c #E2FAE0",
"^.	c #433E1D",
"/.	c #222122",
"(.	c #202224",
"_.	c #1F1914",
":.	c #3D3D3C",
"<.	c #18191C",
"[.	c #1C1C1E",
"}.	c #202022",
"|.	c #232325",
"1.	c #363635",
"2.	c #373737",
"3.	c #1F1F21",
"4.	c #464645",
"5.	c #474747",
"6.	c #444444",
"7.	c #4A4A4A",
"8.	c #393939",
"9.	c #29292B",
"0.	c #2F2F31",
"a.	c #313131",
"b.	c #333333",
"c.	c #343434",
". . . . . . . . . . . . . . . . . . . . . . . . . . . . . . . . . . . . . . . . . . . . . ",
". + @ # $ % % % % % % % & * * * * * * * * * * * * * * * * * * * * * * = . - ; $ % % % % % ",
"> . , ' ) ! ; ; ; ; ; ; ~ ~ ~ ~ ~ ~ ~ ~ ~ ~ ~ ~ ~ ~ ~ ~ ~ ~ ~ ~ ~ ~ ~ { ] . ^ / ! ; ; ; ; ",
"( > . , ' ) ! ! $ _ : ) ) ) ) ) ) ) ) ) ) ) ) ) ) ) ) ) ) ) ) ) ) ) ) $ < [ . ^ / ! ; ; ! ",
"% < } . , ' ) $ | 1 2 3 3 3 3 4 4 4 4 5 5 5 5 6 6 6 6 7 7 7 7 8 8 8 8 9 0 < > . ^ / ! ; a ",
"< < b c . , ' d e f g h i j j j j j j j j j j j j j j j j j j j j j j k l m < > . ^ / ! n ",
"o o o p q . , ' e r s t u v w w w w w w w w w w w w w w w w w w w w w x y z A < > . ^ B C ",
"D D D E F G . , ' H I J K L M N N N N N N N N N N N N N N N N N N N N N O P z A < Q . R S ",
"T T T T U V W . , ' X Y Z K L M N N N N N N N N N N N N N N N N N N N N N O P `  .= ... +.",
"@.@.@.@.@.#.$.W . , ' X I %.&.*.=.=.=.=.-.;.;.;.;.>.,.,.,.,.'.).).).).!.~.~.{.].^./.(.... ",
"@.@.@.@.@.@.#.$.W . , ' X _.. . . . . . . . . . . . . . . . . . . . . . . . . . . :.<.W / ",
"@.@.@.@.@.@.@.#.$.W . , ' [.}./ / |./ / / / / / / / / / / / / / / / / B B B B B $ d 1.2.3.",
"@.@.@.@.@.@.@.@.#.$.W . 4.4.5.5.5.5.5.5.5.5.5.5.5.5.5.5.5.5.5.5.5.5.5.5.5.5.5.5.5.4.6.6.7.",
"@.@.@.@.@.@.@.@.@.#.$.|.. . . . . . . . . . . . . . . . . . . . . . . . . . . . . . . . . ",
"@.@.@.@.@.@.@.@.@.@.#.8.9.0.0.0.0.0.0.0.0.0.0.0.0.0.0.0.0.0.0.0.0.0.0.0.0.0.0.0.0.0.0.0.0.",
"@.@.@.@.@.@.@.@.@.@.@.a.b.c.c.c.c.c.c.c.c.c.c.c.c.c.c.c.c.c.c.c.c.c.c.c.c.c.c.c.c.c.c.c.c.",
"@.@.@.@.@.@.@.@.@.@.@.@.@.@.@.@.@.@.@.@.@.@.@.@.@.@.@.@.@.@.@.@.@.@.@.@.@.@.@.@.@.@.@.@.@.",
"@.@.@.@.@.@.@.@.@.@.@.@.@.@.@.@.@.@.@.@.@.@.@.@.@.@.@.@.@.@.@.@.@.@.@.@.@.@.@.@.@.@.@.@.@.",
"@.@.@.@.@.@.@.@.@.@.@.@.@.@.@.@.@.@.@.@.@.@.@.@.@.@.@.@.@.@.@.@.@.@.@.@.@.@.@.@.@.@.@.@.@.",
"@.@.@.@.@.@.@.@.@.@.@.@.@.@.@.@.@.@.@.@.@.@.@.@.@.@.@.@.@.@.@.@.@.@.@.@.@.@.@.@.@.@.@.@.@.",
"@.@.@.@.@.@.@.@.@.@.@.@.@.@.@.@.@.@.@.@.@.@.@.@.@.@.@.@.@.@.@.@.@.@.@.@.@.@.@.@.@.@.@.@.@.",
"@.@.@.@.@.@.@.@.@.@.@.@.@.@.@.@.@.@.@.@.@.@.@.@.@.@.@.@.@.@.@.@.@.@.@.@.@.@.@.@.@.@.@.@.@.",
"@.@.@.@.@.@.@.@.@.@.@.@.@.@.@.@.@.@.@.@.@.@.@.@.@.@.@.@.@.@.@.@.@.@.@.@.@.@.@.@.@.@.@.@.@.",
"@.@.@.@.@.@.@.@.@.@.@.@.@.@.@.@.@.@.@.@.@.@.@.@.@.@.@.@.@.@.@.@.@.@.@.@.@.@.@.@.@.@.@.@.@.",
"@.@.@.@.@.@.@.@.@.@.@.@.@.@.@.@.@.@.@.@.@.@.@.@.@.@.@.@.@.@.@.@.@.@.@.@.@.@.@.@.@.@.@.@.@.",
"@.@.@.@.@.@.@.@.@.@.@.@.@.@.@.@.@.@.@.@.@.@.@.@.@.@.@.@.@.@.@.@.@.@.@.@.@.@.@.@.@.@.@.@.@.",
"@.@.@.@.@.@.@.@.@.@.@.@.@.@.@.@.@.@.@.@.@.@.@.@.@.@.@.@.@.@.@.@.@.@.@.@.@.@.@.@.@.@.@.@.@.",
"@.@.@.@.@.@.@.@.@.@.@.@.@.@.@.@.@.@.@.@.@.@.@.@.@.@.@.@.@.@.@.@.@.@.@.@.@.@.@.@.@.@.@.@.@.",
"T T T T T T T T T T T T T T T T T T T T T T T T T T T T T T T T T T T T T T T T T T T T T "};
