/* XPM */
static char * maximize_pressed_xpm[] = {
"47 29 86 1",
" 	c None",
".	c #000000",
"+	c #212122",
"@	c #1B1D20",
"#	c #1C1D20",
"$	c #202124",
"%	c #444443",
"&	c #222223",
"*	c #1F1F20",
"=	c #232323",
"-	c #272728",
";	c #29292A",
">	c #434343",
",	c #232324",
"'	c #202021",
")	c #1D1D1E",
"!	c #272729",
"~	c #2E2823",
"{	c #241D15",
"]	c #2C2621",
"^	c #1B1918",
"/	c #1E1C1C",
"(	c #322E2A",
"_	c #82A5C1",
":	c #718AA1",
"<	c #6B8098",
"[	c #697A92",
"}	c #71849D",
"|	c #23140F",
"1	c #1A1312",
"2	c #1C1A1A",
"3	c #405567",
"4	c #3A587E",
"5	c #6B7F91",
"6	c #76C3DC",
"7	c #6FB4CC",
"8	c #6EAFC6",
"9	c #73B7D0",
"0	c #82CEED",
"a	c #200C03",
"b	c #201E1E",
"c	c #130C07",
"d	c #120A04",
"e	c #364D6F",
"f	c #687485",
"g	c #72B3CA",
"h	c #6BA4BA",
"i	c #699EB4",
"j	c #70ACC5",
"k	c #80C9E7",
"l	c #454544",
"m	c #211F1D",
"n	c #1A130C",
"o	c #242425",
"p	c #1E1C1A",
"q	c #130C05",
"r	c #3A5479",
"s	c #76879D",
"t	c #8BD8F7",
"u	c #8AD2F1",
"v	c #89D2F0",
"w	c #90E0FF",
"x	c #A0FDFF",
"y	c #352F2B",
"z	c #252526",
"A	c #252426",
"B	c #252220",
"C	c #1F1A16",
"D	c #3D3D3C",
"E	c #1B1D21",
"F	c #3F3F3E",
"G	c #1C1C1D",
"H	c #1E1E1F",
"I	c #202022",
"J	c #222224",
"K	c #1B1B1D",
"L	c #3A3A39",
"M	c #4C4C4B",
"N	c #474747",
"O	c #464645",
"P	c #4A4A4A",
"Q	c #4E4E4E",
"R	c #2F2F31",
"S	c #343434",
"T	c #303030",
"U	c #333232",
"...............................................",
"++@##################################$.%&*+++++",
"&&===================================-;.>,'&&&&",
"*))))))))))))))))))))))))))))))))))))),!.>,'&'*",
"~{{{{{{{{{{{{{{{{{{{{{{{{{{{{{{{{{{{{{]^-.>,'/(",
"_:<[[[[[[[[[[[[[[[[[[[[[[[[[[[[[[[[[[[}|1!.>,23",
"4567888888888888888888888888888888888890a1!.>bc",
"defghiiiiiiiiiiiiiiiiiiiiiiiiiiiiiiiiiijka1!.lm",
"mnefghiiiiiiiiiiiiiiiiiiiiiiiiiiiiiiiiiijka1!.o",
"opqrstuuuuuvuuuvuuuvuuuvuuuvuuuvuuuuuuvvvwxyz,A",
"z'BC........................................DEF",
"F+GHI,,,,,,J,,,J,,,J,,,J,,,J,,,J,,,,,,JJJJJ*KL.",
".MNNNNNNNNNNNNNNNNNNNNNNNNNNNNNNNNNNNNNNNNNNOPQ",
"...............................................",
"RRRRRRRRRRRRRRRRRRRRRRRRRRRRRRRRRRRRRRRRRRRRRRR",
"SSSSSSSSSSSSSSSSSSSSSSSSSSSSSSSSSSSSSSSSSSSSSSS",
"TTTTTTTTTTTTTTTTTTTTTTTTTTTTTTTTTTTTTTTTTTTTTTT",
"TTTTTTTTTTTTTTTTTTTTTTTTTTTTTTTTTTTTTTTTTTTTTTT",
"TTTTTTTTTTTTTTTTTTTTTTTTTTTTTTTTTTTTTTTTTTTTTTT",
"TTTTTTTTTTTTTTTTTTTTTTTTTTTTTTTTTTTTTTTTTTTTTTT",
"TTTTTTTTTTTTTTTTTTTTTTTTTTTTTTTTTTTTTTTTTTTTTTT",
"TTTTTTTTTTTTTTTTTTTTTTTTTTTTTTTTTTTTTTTTTTTTTTT",
"TTTTTTTTTTTTTTTTTTTTTTTTTTTTTTTTTTTTTTTTTTTTTTT",
"TTTTTTTTTTTTTTTTTTTTTTTTTTTTTTTTTTTTTTTTTTTTTTT",
"TTTTTTTTTTTTTTTTTTTTTTTTTTTTTTTTTTTTTTTTTTTTTTT",
"TTTTTTTTTTTTTTTTTTTTTTTTTTTTTTTTTTTTTTTTTTTTTTT",
"TTTTTTTTTTTTTTTTTTTTTTTTTTTTTTTTTTTTTTTTTTTTTTT",
"TTTTTTTTTTTTTTTTTTTTTTTTTTTTTTTTTTTTTTTTTTTTTTT",
"UUUUUUUUUUUUUUUUUUUUUUUUUUUUUUUUUUUUUUUUUUUUUUU"};
