/* XPM */
static char * maximize_prelight_xpm[] = {
"47 29 88 1",
" 	c None",
".	c #000000",
"+	c #212122",
"@	c #1B1D20",
"#	c #1C1D20",
"$	c #202124",
"%	c #444443",
"&	c #222223",
"*	c #1F1F20",
"=	c #232323",
"-	c #272728",
";	c #29292A",
">	c #434343",
",	c #232324",
"'	c #202021",
")	c #1D1D1E",
"!	c #272729",
"~	c #223123",
"{	c #192417",
"]	c #222E21",
"^	c #1B1918",
"/	c #1E1C1C",
"(	c #322E2A",
"_	c #61D79A",
":	c #31D878",
"<	c #27CE6E",
"[	c #25C86A",
"}	c #2BD673",
"|	c #161B11",
"1	c #1A1312",
"2	c #1C1A1A",
"3	c #405567",
"4	c #1F8253",
"5	c #26CD6D",
"6	c #7FE6AA",
"7	c #67E29B",
"8	c #62E198",
"9	c #6EE39F",
"0	c #93EAB8",
"a	c #151007",
"b	c #201E1E",
"c	c #130C07",
"d	c #0A0D06",
"e	c #177C42",
"f	c #24BD65",
"g	c #69E29C",
"h	c #51DE8D",
"i	c #49DC87",
"j	c #5FE095",
"k	c #8BE8B3",
"l	c #170F06",
"m	c #454544",
"n	c #211F1D",
"o	c #10180E",
"p	c #8BE7B3",
"q	c #180F06",
"r	c #242425",
"s	c #1E1C1A",
"t	c #0C0F07",
"u	c #198647",
"v	c #30D777",
"w	c #A2EDC2",
"x	c #9BECBD",
"y	c #B0EFCB",
"z	c #D6F7E6",
"A	c #2C362B",
"B	c #252526",
"C	c #252426",
"D	c #252220",
"E	c #181E16",
"F	c #3D3D3C",
"G	c #1B1D21",
"H	c #3F3F3E",
"I	c #1C1C1D",
"J	c #1E1E1F",
"K	c #202022",
"L	c #222224",
"M	c #1B1B1D",
"N	c #3A3A39",
"O	c #4C4C4B",
"P	c #474747",
"Q	c #464645",
"R	c #4A4A4A",
"S	c #4E4E4E",
"T	c #2F2F31",
"U	c #343434",
"V	c #303030",
"W	c #333232",
"...............................................",
"++@##################################$.%&*+++++",
"&&===================================-;.>,'&&&&",
"*))))))))))))))))))))))))))))))))))))),!.>,'&'*",
"~{{{{{{{{{{{{{{{{{{{{{{{{{{{{{{{{{{{{{]^-.>,'/(",
"_:<[[[[[[[[[[[[[[[[[[[[[[[[[[[[[[[[[[[}|1!.>,23",
"4567888888888888888888888888888888888890a1!.>bc",
"defghiiiiiiiiiiiiiiiiiiiiiiiiiiiiiiiiiijkl1!.mn",
"noefghiiiiiiiiiiiiiiiiiiiiiiiiiiiiiiiiiijpq1!.r",
"rstuvwxxxxxxxxxxxxxxxxxxxxxxxxxxxxxxxxxxxyzAB,C",
"B'DE........................................FGH",
"H+IJK,,,,,,L,,,L,,,L,,,L,,,L,,,L,,,,,,LLLLL*MN.",
".OPPPPPPPPPPPPPPPPPPPPPPPPPPPPPPPPPPPPPPPPPPQRS",
"...............................................",
"TTTTTTTTTTTTTTTTTTTTTTTTTTTTTTTTTTTTTTTTTTTTTTT",
"UUUUUUUUUUUUUUUUUUUUUUUUUUUUUUUUUUUUUUUUUUUUUUU",
"VVVVVVVVVVVVVVVVVVVVVVVVVVVVVVVVVVVVVVVVVVVVVVV",
"VVVVVVVVVVVVVVVVVVVVVVVVVVVVVVVVVVVVVVVVVVVVVVV",
"VVVVVVVVVVVVVVVVVVVVVVVVVVVVVVVVVVVVVVVVVVVVVVV",
"VVVVVVVVVVVVVVVVVVVVVVVVVVVVVVVVVVVVVVVVVVVVVVV",
"VVVVVVVVVVVVVVVVVVVVVVVVVVVVVVVVVVVVVVVVVVVVVVV",
"VVVVVVVVVVVVVVVVVVVVVVVVVVVVVVVVVVVVVVVVVVVVVVV",
"VVVVVVVVVVVVVVVVVVVVVVVVVVVVVVVVVVVVVVVVVVVVVVV",
"VVVVVVVVVVVVVVVVVVVVVVVVVVVVVVVVVVVVVVVVVVVVVVV",
"VVVVVVVVVVVVVVVVVVVVVVVVVVVVVVVVVVVVVVVVVVVVVVV",
"VVVVVVVVVVVVVVVVVVVVVVVVVVVVVVVVVVVVVVVVVVVVVVV",
"VVVVVVVVVVVVVVVVVVVVVVVVVVVVVVVVVVVVVVVVVVVVVVV",
"VVVVVVVVVVVVVVVVVVVVVVVVVVVVVVVVVVVVVVVVVVVVVVV",
"WWWWWWWWWWWWWWWWWWWWWWWWWWWWWWWWWWWWWWWWWWWWWWW"};
