/* XPM */
static char * right_inactive_xpm[] = {
"23 1 21 1",
" 	c None",
".	c #323435",
"+	c #2B2C2F",
"@	c #323130",
"#	c #303030",
"$	c #424242",
"%	c #000000",
"&	c #4B4D4F",
"*	c #201F20",
"=	c #1E1E1F",
"-	c #545657",
";	c #57595A",
">	c #131314",
",	c #251813",
"'	c #012136",
")	c #053344",
"!	c #00FCFF",
"~	c #547171",
"{	c #12334A",
"]	c #160A03",
"^	c #171717",
".+@#$%&*=-%;>,')!~{]^^%"};
