/* XPM */
static char * title_4_active_xpm[] = {
"23 29 140 2",
"  	c None",
". 	c #000000",
"+ 	c #000104",
"@ 	c #1D1D1E",
"# 	c #1C1C1D",
"$ 	c #19191A",
"% 	c #2F2D2E",
"& 	c #3A3C40",
"* 	c #545559",
"= 	c #373635",
"- 	c #1E120D",
"; 	c #1C130E",
"> 	c #1B1511",
", 	c #1B1817",
"' 	c #1C1B1B",
") 	c #29292A",
"! 	c #393B3C",
"~ 	c #373636",
"{ 	c #1B1B1C",
"] 	c #233F52",
"^ 	c #224356",
"/ 	c #20495D",
"( 	c #3B4555",
"_ 	c #2A3541",
": 	c #252527",
"< 	c #1E1E1F",
"[ 	c #302E2F",
"} 	c #353638",
"| 	c #000205",
"1 	c #535558",
"2 	c #363635",
"3 	c #202021",
"4 	c #002D3E",
"5 	c #003A51",
"6 	c #00526F",
"7 	c #093155",
"8 	c #001F44",
"9 	c #100E0B",
"0 	c #1F1F20",
"a 	c #1E1E1E",
"b 	c #1D1D1D",
"c 	c #191A1B",
"d 	c #353739",
"e 	c #060605",
"f 	c #535457",
"g 	c #363534",
"h 	c #1A1A1B",
"i 	c #212122",
"j 	c #00FFFF",
"k 	c #035B77",
"l 	c #050411",
"m 	c #17120D",
"n 	c #1A1B1E",
"o 	c #15171A",
"p 	c #201F20",
"q 	c #141618",
"r 	c #121417",
"s 	c #2A2B2C",
"t 	c #343233",
"u 	c #4E5053",
"v 	c #343433",
"w 	c #232425",
"x 	c #252526",
"y 	c #002E41",
"z 	c #050720",
"A 	c #001928",
"B 	c #000514",
"C 	c #1F1C1B",
"D 	c #1A1B1D",
"E 	c #232222",
"F 	c #16181A",
"G 	c #222121",
"H 	c #16171A",
"I 	c #111315",
"J 	c #323031",
"K 	c #2E2E2F",
"L 	c #0D0D0C",
"M 	c #343333",
"N 	c #242123",
"O 	c #272526",
"P 	c #292728",
"Q 	c #585861",
"R 	c #46434C",
"S 	c #232123",
"T 	c #261F1C",
"U 	c #18191C",
"V 	c #17191C",
"W 	c #181A1D",
"X 	c #131312",
"Y 	c #333131",
"Z 	c #2F2F30",
"` 	c #0F1114",
" .	c #494A4C",
"..	c #323131",
"+.	c #232526",
"@.	c #262829",
"#.	c #27292A",
"$.	c #0E0B09",
"%.	c #0F0C08",
"&.	c #13110E",
"*.	c #151413",
"=.	c #161615",
"-.	c #171615",
";.	c #111110",
">.	c #0F1014",
",.	c #494B4C",
"'.	c #313130",
").	c #30302F",
"!.	c #323231",
"~.	c #333232",
"{.	c #171616",
"].	c #191B1F",
"^.	c #171716",
"/.	c #151514",
"(.	c #14161A",
"_.	c #353334",
":.	c #242629",
"<.	c #1A191A",
"[.	c #45464A",
"}.	c #2F2F2F",
"|.	c #303030",
"1.	c #171717",
"2.	c #121211",
"3.	c #353435",
"4.	c #202020",
"5.	c #3F3D3F",
"6.	c #1F2124",
"7.	c #3F4141",
"8.	c #1B1C1F",
"9.	c #404141",
"0.	c #2A2B2F",
"a.	c #676766",
"b.	c #656463",
"c.	c #434447",
"d.	c #2A2B2E",
"e.	c #313030",
"f.	c #202223",
"g.	c #212324",
"h.	c #26282B",
"i.	c #313131",
". . . . . . . . . . . . . . . . . . . . . . + ",
"@ @ @ @ @ @ @ @ @ @ @ @ @ @ @ # $ % & . . * = ",
"- - - ; > , ' @ @ @ @ @ @ @ # $ ) ! . . * ~ { ",
"] ] ^ / ( _ : < @ @ @ @ @ # $ [ } . | 1 2 { 3 ",
"4 5 6 7 8 . 9 0 < a < a b c [ d . e f g h 0 i ",
"j j k l . m n o p q p r { s t . e u v 0 w x x ",
"y z A B C D E F G H p I J K . L u M N O P P P ",
"Q R S T h U U V W X r Y Z . `  ...+.@.#.#.#.#.",
"$.%.&.*.W =.-.=.*.;.t ) . >.,.'.).!.~.~.~.~.~.",
"{.].^.].^.^.]./.(._.:.. <.[.'.}.|.|.|.|.|.|.|.",
"^.1.^.1.1.1./.2.3.3 . <.[.'.}.|.|.|.|.|.|.|.|.",
"4.4.4.4.4.4.a 5.: . 6.7...}.|.|.|.|.|.|.|.|.|.",
". . . . . . . . . 8.9.0.|.|.|.|.|.|.|.|.|.|.|.",
"a.a.a.a.a.a.a.a.b.c.d.e.e.|.|.|.|.|.|.|.|.|.|.",
"f.f.f.f.f.f.f.f.g.h.).e.|.|.|.|.|.|.|.|.|.|.|.",
"!.!.!.!.!.!.!.!...i.e.|.|.|.|.|.|.|.|.|.|.|.|.",
"|.|.|.|.|.|.|.|.|.|.|.|.|.|.|.|.|.|.|.|.|.|.|.",
"|.|.|.|.|.|.|.|.|.|.|.|.|.|.|.|.|.|.|.|.|.|.|.",
"|.|.|.|.|.|.|.|.|.|.|.|.|.|.|.|.|.|.|.|.|.|.|.",
"|.|.|.|.|.|.|.|.|.|.|.|.|.|.|.|.|.|.|.|.|.|.|.",
"|.|.|.|.|.|.|.|.|.|.|.|.|.|.|.|.|.|.|.|.|.|.|.",
"|.|.|.|.|.|.|.|.|.|.|.|.|.|.|.|.|.|.|.|.|.|.|.",
"|.|.|.|.|.|.|.|.|.|.|.|.|.|.|.|.|.|.|.|.|.|.|.",
"|.|.|.|.|.|.|.|.|.|.|.|.|.|.|.|.|.|.|.|.|.|.|.",
"|.|.|.|.|.|.|.|.|.|.|.|.|.|.|.|.|.|.|.|.|.|.|.",
"|.|.|.|.|.|.|.|.|.|.|.|.|.|.|.|.|.|.|.|.|.|.|.",
"|.|.|.|.|.|.|.|.|.|.|.|.|.|.|.|.|.|.|.|.|.|.|.",
"|.|.|.|.|.|.|.|.|.|.|.|.|.|.|.|.|.|.|.|.|.|.|.",
"~.~.~.~.~.~.~.~.~.~.~.~.~.~.~.~.~.~.~.~.~.~.~."};
