/* XPM */
static char * title_1_inactive_xpm[] = {
"1 29 9 1",
" 	c None",
".	c #000000",
"+	c #212122",
"@	c #222223",
"#	c #262627",
"$	c #2A2728",
"%	c #28292B",
"&	c #333232",
"*	c #303030",
".",
"+",
"@",
"@",
"+",
"#",
"$",
"%",
"&",
"*",
"*",
"*",
"*",
"*",
"*",
"*",
"*",
"*",
"*",
"*",
"*",
"*",
"*",
"*",
"*",
"*",
"*",
"*",
"&"};
