/* XPM */
static char * title_3_active_xpm[] = {
"1 29 17 1",
" 	c None",
".	c #000000",
"+	c #1D1D1E",
"@	c #1E120D",
"#	c #233F52",
"$	c #002D3E",
"%	c #00FFFF",
"&	c #002636",
"*	c #5B617D",
"=	c #0A0300",
"-	c #171717",
";	c #1F1F1F",
">	c #676666",
",	c #202223",
"'	c #323231",
")	c #303030",
"!	c #313131",
".",
"+",
"@",
"#",
"$",
"%",
"&",
"*",
"=",
"-",
"-",
";",
".",
">",
",",
"'",
")",
")",
")",
")",
")",
")",
")",
")",
")",
")",
")",
")",
"!"};
