/* XPM */
static char * title_2_inactive_xpm[] = {
"23 29 140 2",
"  	c None",
". 	c #000104",
"+ 	c #000000",
"@ 	c #373635",
"# 	c #545559",
"$ 	c #3A3C40",
"% 	c #2F2D2E",
"& 	c #19191A",
"* 	c #1C1C1D",
"= 	c #1D1D1E",
"- 	c #1B1B1C",
"; 	c #373636",
"> 	c #393B3C",
", 	c #29292A",
"' 	c #1C1B1B",
") 	c #1B1817",
"! 	c #1B1511",
"~ 	c #1C130E",
"{ 	c #1E120D",
"] 	c #202021",
"^ 	c #363635",
"/ 	c #535558",
"( 	c #000205",
"_ 	c #353638",
": 	c #302E2F",
"< 	c #1E1E1F",
"[ 	c #252527",
"} 	c #2A3541",
"| 	c #3B4555",
"1 	c #20495D",
"2 	c #224356",
"3 	c #233F52",
"4 	c #212122",
"5 	c #1F1F20",
"6 	c #1A1A1B",
"7 	c #363534",
"8 	c #535457",
"9 	c #060605",
"0 	c #353739",
"a 	c #191A1B",
"b 	c #1D1D1D",
"c 	c #1E1E1E",
"d 	c #100E0B",
"e 	c #001F44",
"f 	c #093155",
"g 	c #00526F",
"h 	c #003A51",
"i 	c #002D3E",
"j 	c #252526",
"k 	c #232425",
"l 	c #343433",
"m 	c #4E5053",
"n 	c #343233",
"o 	c #2A2B2C",
"p 	c #121417",
"q 	c #201F20",
"r 	c #141618",
"s 	c #15171A",
"t 	c #1A1B1E",
"u 	c #17120D",
"v 	c #050411",
"w 	c #035B77",
"x 	c #00FFFF",
"y 	c #292728",
"z 	c #272526",
"A 	c #242123",
"B 	c #343333",
"C 	c #0D0D0C",
"D 	c #2E2E2F",
"E 	c #323031",
"F 	c #111315",
"G 	c #16171A",
"H 	c #222121",
"I 	c #16181A",
"J 	c #232222",
"K 	c #1A1B1D",
"L 	c #1F1C1B",
"M 	c #000514",
"N 	c #001928",
"O 	c #050720",
"P 	c #002E41",
"Q 	c #27292A",
"R 	c #262829",
"S 	c #232526",
"T 	c #323131",
"U 	c #494A4C",
"V 	c #0F1114",
"W 	c #2F2F30",
"X 	c #333131",
"Y 	c #131312",
"Z 	c #181A1D",
"` 	c #17191C",
" .	c #18191C",
"..	c #261F1C",
"+.	c #232123",
"@.	c #46434C",
"#.	c #585861",
"$.	c #333232",
"%.	c #323231",
"&.	c #30302F",
"*.	c #313130",
"=.	c #494B4C",
"-.	c #0F1014",
";.	c #111110",
">.	c #151413",
",.	c #161615",
"'.	c #171615",
").	c #13110E",
"!.	c #0F0C08",
"~.	c #0E0B09",
"{.	c #303030",
"].	c #2F2F2F",
"^.	c #45464A",
"/.	c #1A191A",
"(.	c #242629",
"_.	c #353334",
":.	c #14161A",
"<.	c #151514",
"[.	c #191B1F",
"}.	c #171716",
"|.	c #171616",
"1.	c #353435",
"2.	c #121211",
"3.	c #171717",
"4.	c #3F4141",
"5.	c #1F2124",
"6.	c #3F3D3F",
"7.	c #202020",
"8.	c #2A2B2F",
"9.	c #404141",
"0.	c #1B1C1F",
"a.	c #313030",
"b.	c #2A2B2E",
"c.	c #434447",
"d.	c #656463",
"e.	c #676766",
"f.	c #26282B",
"g.	c #212324",
"h.	c #202223",
"i.	c #313131",
". + + + + + + + + + + + + + + + + + + + + + + ",
"@ # + + $ % & * = = = = = = = = = = = = = = = ",
"- ; # + + > , & * = = = = = = = ' ) ! ~ { { { ",
"] - ^ / ( + _ : & * = = = = = < [ } | 1 2 3 3 ",
"4 5 6 7 8 9 + 0 : a b c < c < 5 d + e f g h i ",
"j j k 5 l m 9 + n o - p q r q s t u + v w x x ",
"y y y z A B m C + D E F q G H I J K L M N O P ",
"Q Q Q Q R S T U V + W X p Y Z `  . .6 ..+.@.#.",
"$.$.$.$.$.%.&.*.=.-.+ , n ;.>.,.'.,.Z >.).!.~.",
"{.{.{.{.{.{.{.].*.^./.+ (._.:.<.[.}.}.[.}.[.|.",
"{.{.{.{.{.{.{.{.].*.^./.+ ] 1.2.<.3.3.3.}.3.}.",
"{.{.{.{.{.{.{.{.{.].T 4.5.+ [ 6.c 7.7.7.7.7.7.",
"{.{.{.{.{.{.{.{.{.{.{.8.9.0.+ + + + + + + + + ",
"{.{.{.{.{.{.{.{.{.{.a.a.b.c.d.e.e.e.e.e.e.e.e.",
"{.{.{.{.{.{.{.{.{.{.{.a.&.f.g.h.h.h.h.h.h.h.h.",
"{.{.{.{.{.{.{.{.{.{.{.{.a.i.T %.%.%.%.%.%.%.%.",
"{.{.{.{.{.{.{.{.{.{.{.{.{.{.{.{.{.{.{.{.{.{.{.",
"{.{.{.{.{.{.{.{.{.{.{.{.{.{.{.{.{.{.{.{.{.{.{.",
"{.{.{.{.{.{.{.{.{.{.{.{.{.{.{.{.{.{.{.{.{.{.{.",
"{.{.{.{.{.{.{.{.{.{.{.{.{.{.{.{.{.{.{.{.{.{.{.",
"{.{.{.{.{.{.{.{.{.{.{.{.{.{.{.{.{.{.{.{.{.{.{.",
"{.{.{.{.{.{.{.{.{.{.{.{.{.{.{.{.{.{.{.{.{.{.{.",
"{.{.{.{.{.{.{.{.{.{.{.{.{.{.{.{.{.{.{.{.{.{.{.",
"{.{.{.{.{.{.{.{.{.{.{.{.{.{.{.{.{.{.{.{.{.{.{.",
"{.{.{.{.{.{.{.{.{.{.{.{.{.{.{.{.{.{.{.{.{.{.{.",
"{.{.{.{.{.{.{.{.{.{.{.{.{.{.{.{.{.{.{.{.{.{.{.",
"{.{.{.{.{.{.{.{.{.{.{.{.{.{.{.{.{.{.{.{.{.{.{.",
"{.{.{.{.{.{.{.{.{.{.{.{.{.{.{.{.{.{.{.{.{.{.{.",
"$.$.$.$.$.$.$.$.$.$.$.$.$.$.$.$.$.$.$.$.$.$.$."};
