/* XPM */
static char * top_right_active_xpm[] = {
"23 86 359 2",
"  	c None",
". 	c #000000",
"+ 	c #212122",
"@ 	c #2E2E2F",
"# 	c #57595B",
"$ 	c #222223",
"% 	c #2F2F30",
"& 	c #4D4E50",
"* 	c #202021",
"= 	c #1C1B1C",
"- 	c #262627",
"; 	c #252526",
"> 	c #333335",
", 	c #292728",
"' 	c #383537",
") 	c #27292A",
"! 	c #37393B",
"~ 	c #333232",
"{ 	c #444443",
"] 	c #303030",
"^ 	c #424242",
"/ 	c #4C4E4F",
"( 	c #1B1B1C",
"_ 	c #303031",
": 	c #212021",
"< 	c #272728",
"[ 	c #282829",
"} 	c #1D1D1D",
"| 	c #4B4D4F",
"1 	c #201F20",
"2 	c #2D2F32",
"3 	c #232324",
"4 	c #48433F",
"5 	c #453C37",
"6 	c #0E4572",
"7 	c #1F1F20",
"8 	c #117AA8",
"9 	c #198CBE",
"0 	c #116289",
"a 	c #28C5FF",
"b 	c #186F98",
"c 	c #4B4D4E",
"d 	c #2BA8DA",
"e 	c #00F1FF",
"f 	c #1A6388",
"g 	c #252324",
"h 	c #242526",
"i 	c #473D39",
"j 	c #00CFFF",
"k 	c #00E1FF",
"l 	c #1D5F81",
"m 	c #4A4C4E",
"n 	c #242425",
"o 	c #29292A",
"p 	c #1179A9",
"q 	c #29B3EA",
"r 	c #00D3FF",
"s 	c #00BFFF",
"t 	c #00E5FF",
"u 	c #1D688E",
"v 	c #136C96",
"w 	c #299CCA",
"x 	c #00C8FF",
"y 	c #00CDFF",
"z 	c #00FFFF",
"A 	c #250000",
"B 	c #00DBFF",
"C 	c #00F3FF",
"D 	c #330000",
"E 	c #200900",
"F 	c #2E2E30",
"G 	c #24AFE5",
"H 	c #2E0000",
"I 	c #29120B",
"J 	c #1B1A1A",
"K 	c #137BAA",
"L 	c #1FD0FF",
"M 	c #280000",
"N 	c #240D06",
"O 	c #1091CA",
"P 	c #270500",
"Q 	c #21120D",
"R 	c #2B2B2C",
"S 	c #2D2320",
"T 	c #221916",
"U 	c #2A2829",
"V 	c #146D96",
"W 	c #00236E",
"X 	c #28110A",
"Y 	c #131212",
"Z 	c #00002C",
"` 	c #260F08",
" .	c #363738",
"..	c #5A514B",
"+.	c #000003",
"@.	c #23140F",
"#.	c #24272B",
"$.	c #241B17",
"%.	c #444646",
"&.	c #0A0B0D",
"*.	c #5F534C",
"=.	c #000014",
"-.	c #414144",
";.	c #48494C",
">.	c #3D2D21",
",.	c #00054F",
"'.	c #3F3F3E",
").	c #545558",
"!.	c #373839",
"~.	c #3B2B1E",
"{.	c #003181",
"].	c #403F3F",
"^.	c #545658",
"/.	c #333235",
"(.	c #323334",
"_.	c #3C2E22",
":.	c #000024",
"<.	c #545659",
"[.	c #343336",
"}.	c #333435",
"|.	c #343536",
"1.	c #3E3127",
"2.	c #00002A",
"3.	c #232325",
"4.	c #40403F",
"5.	c #343437",
"6.	c #2F2F31",
"7.	c #302F32",
"8.	c #3D3026",
"9.	c #000029",
"0.	c #242324",
"a.	c #363839",
"b.	c #55565A",
"c.	c #323231",
"d.	c #2E2E2C",
"e.	c #313133",
"f.	c #343636",
"g.	c #3D2F24",
"h.	c #000337",
"i.	c #252425",
"j.	c #323435",
"k.	c #55575A",
"l.	c #2E2E2E",
"m.	c #30302F",
"n.	c #313134",
"o.	c #3C2B1C",
"p.	c #00054C",
"q.	c #56585B",
"r.	c #333332",
"s.	c #3A2615",
"t.	c #003595",
"u.	c #302E2F",
"v.	c #58595C",
"w.	c #2A2C2D",
"x.	c #302F2F",
"y.	c #323235",
"z.	c #313033",
"A.	c #3B3C3C",
"B.	c #412A17",
"C.	c #004EA2",
"D.	c #28292A",
"E.	c #312F30",
"F.	c #585A5D",
"G.	c #393B3B",
"H.	c #1F1E1E",
"I.	c #00328E",
"J.	c #2A2A2B",
"K.	c #292A2B",
"L.	c #262728",
"M.	c #2A2B2D",
"N.	c #373739",
"O.	c #3A3A3C",
"P.	c #090A0C",
"Q.	c #5A3D27",
"R.	c #006CE7",
"S.	c #515355",
"T.	c #595B5E",
"U.	c #272526",
"V.	c #272829",
"W.	c #363635",
"X.	c #3C3B3E",
"Y.	c #3B1B01",
"Z.	c #0063DD",
"`.	c #282627",
" +	c #292B2C",
".+	c #363636",
"++	c #3C3C40",
"@+	c #381901",
"#+	c #0065E0",
"$+	c #3A3A3A",
"%+	c #391A02",
"&+	c #005EC6",
"*+	c #636568",
"=+	c #262525",
"-+	c #282728",
";+	c #383837",
">+	c #323434",
",+	c #391A04",
"'+	c #0065E1",
")+	c #5F6064",
"!+	c #1B1B1B",
"~+	c #303133",
"{+	c #3C3C3B",
"]+	c #2F2E31",
"^+	c #232425",
"/+	c #2E2F30",
"(+	c #292829",
"_+	c #2F3032",
":+	c #303233",
"<+	c #2D2B2C",
"[+	c #313334",
"}+	c #2E2C2E",
"|+	c #2F2D2F",
"1+	c #42230A",
"2+	c #0065CD",
"3+	c #333333",
"4+	c #2F2D2E",
"5+	c #004ACB",
"6+	c #202020",
"7+	c #2A2B2C",
"8+	c #5B3B23",
"9+	c #006AE3",
"0+	c #393939",
"a+	c #222122",
"b+	c #3A1B03",
"c+	c #0063DE",
"d+	c #606265",
"e+	c #4E5053",
"f+	c #5C5D60",
"g+	c #181818",
"h+	c #262526",
"i+	c #343436",
"j+	c #303032",
"k+	c #371A04",
"l+	c #005EC8",
"m+	c #2E2E2D",
"n+	c #333535",
"o+	c #313233",
"p+	c #331803",
"q+	c #0063C4",
"r+	c #444546",
"s+	c #533927",
"t+	c #006CCD",
"u+	c #2F2F2E",
"v+	c #2C2E2F",
"w+	c #0047AE",
"x+	c #303033",
"y+	c #555659",
"z+	c #0C0000",
"A+	c #005CC6",
"B+	c #353538",
"C+	c #555759",
"D+	c #1B1A1C",
"E+	c #462914",
"F+	c #0064CF",
"G+	c #464749",
"H+	c #3B1C05",
"I+	c #0065D0",
"J+	c #313030",
"K+	c #343333",
"L+	c #515357",
"M+	c #474849",
"N+	c #2E3032",
"O+	c #0A0000",
"P+	c #0046AF",
"Q+	c #353534",
"R+	c #525357",
"S+	c #4C4D50",
"T+	c #434446",
"U+	c #0E0D0D",
"V+	c #130000",
"W+	c #0056AA",
"X+	c #5D5F62",
"Y+	c #19191A",
"Z+	c #2D2E2F",
"`+	c #535558",
" @	c #4B4C4F",
".@	c #414243",
"+@	c #0C0C0B",
"@@	c #151515",
"#@	c #190400",
"$@	c #001B7A",
"%@	c #4A4C4D",
"&@	c #1E1E1F",
"*@	c #47484A",
"=@	c #0E0F12",
"-@	c #141313",
";@	c #121212",
">@	c #080000",
",@	c #00003D",
"'@	c #262425",
")@	c #2B2C2D",
"!@	c #46484A",
"~@	c #0C0D0F",
"{@	c #141618",
"]@	c #161616",
"^@	c #191919",
"/@	c #1D0F01",
"(@	c #515354",
"_@	c #4A4B4E",
":@	c #131415",
"<@	c #222121",
"[@	c #161513",
"}@	c #171717",
"|@	c #1A0E04",
"1@	c #00001E",
"2@	c #525456",
"3@	c #494B4E",
"4@	c #161618",
"5@	c #161413",
"6@	c #1F2834",
"7@	c #16120F",
"8@	c #180F07",
"9@	c #4F5152",
"0@	c #4E5051",
"a@	c #1D1B1B",
"b@	c #1C1816",
"c@	c #201E1E",
"d@	c #153353",
"e@	c #160F09",
"f@	c #171008",
"g@	c #000004",
"h@	c #1E1D1E",
"i@	c #545657",
"j@	c #57585A",
"k@	c #484A4B",
"l@	c #1A191A",
"m@	c #020D18",
"n@	c #00010D",
"o@	c #354657",
"p@	c #184A62",
"q@	c #160C05",
"r@	c #160E07",
"s@	c #242223",
"t@	c #545557",
"u@	c #100F10",
"v@	c #242221",
"w@	c #090E20",
"x@	c #00111A",
"y@	c #576685",
"z@	c #144154",
"A@	c #160A03",
"B@	c #180E06",
"C@	c #00041F",
"D@	c #57595A",
"E@	c #131314",
"F@	c #26221F",
"G@	c #131D34",
"H@	c #515D8A",
"I@	c #12394C",
"J@	c #1A1008",
"K@	c #000013",
"L@	c #141314",
"M@	c #261E19",
"N@	c #000F23",
"O@	c #0D184A",
"P@	c #547471",
"Q@	c #13354A",
"R@	c #1C140D",
". . . . . .                                   ",
"+ + + + @ . #                                 ",
"$ $ $ $ % . & * %                             ",
"$ $ $ $ % . & = - %                           ",
"+ + + + @ . & = $ - %                         ",
"; ; ; ; > . & = $ $ - %                       ",
", , , , ' . & = $ $ $ - %                     ",
") ) ) ) ! . & = $ $ $ $ - %                   ",
"~ ~ ~ ~ { . & = $ $ $ $ $ - %                 ",
"] ] ] ] ^ . & = $ $ $ $ $ $ - %               ",
"] ] ] ] ^ . & = $ $ $ $ $ $ $ - %             ",
"] ] ] ] ^ . & = $ $ $ $ $ $ $ $ - % .         ",
"] ] ] ] ^ . & = $ $ $ $ $ $ $ $ $ - % .       ",
"] ] ] ] ^ . / ( + + + $ $ $ $ $ $ $ - _ .     ",
"] ] ] ] ^ . / : - < + [ + $ $ $ $ $ $ [ } . . ",
"] ] ] ] ^ . | 1 ; - * < + $ $ $ $ $ * - 2 . . ",
"] ] ] ] ^ . | 1 ; - * < + $ $ $ $ * 3 4 . . . ",
"] ] ] ] ^ . | 1 ; - * < + $ $ $ * 3 5 . 6 . . ",
"] ] ] ] ^ . | 1 ; - 7 < + $ $ * 3 5 . 8 9 . . ",
"] ] ] ] ^ . | 1 ; ; - < + $ * 3 5 . 0 a b . . ",
"] ] ] ] ^ . c 7 ; ; - + $ * 3 5 . 0 d e f . . ",
"] ] ] ] ^ . c g h ; - + $ ; i . 0 d j k l . . ",
"] ] ] ] ^ . m g n ; - + $ o . p q r s t u . . ",
"] ] ] ] ^ . m g n ; - + $ % . v w x y z A . . ",
"] ] ] ] ^ . m g n ; - + $ % . v w B C D E . . ",
"] ] ] ] ^ . m g n ; - + $ F . v G z H I J . . ",
"] ] ] ] ^ . m g n ; - + $ % . K L M N - 2 . . ",
"] ] ] ] ^ . m g n ; - + $ % . O P Q 3 4 . . . ",
"] ] ] ] ^ . m g n ; - + $ R . S T 3 5 . 6 . . ",
"] ] ] ] ^ . m g n ; - + $ - - ; 3 5 . 8 9 . . ",
"] ] ] ] ^ . m g U ; - + $ $ * 3 5 . 0 a b . . ",
"] ] ] ] ^ . m g n ; ; < + * 3 5 . 0 d e f . . ",
"] ] ] ] ^ . m g n ; ; - + ; i . 0 d j k l . . ",
"] ] ] ] ^ . m g n ; ; - + o . p q r s t u . . ",
"] ] ] ] ^ . m g n ; ; < + % . V w x y z A . . ",
"] ] ] ] ^ . m g n ; ; * + % . V w B C D E . W ",
"] ] ] ] ^ . m g n ; ; < + % . V G z H X Y . Z ",
"] ] ] ] ^ . m g n ; ; - + % . K L M ` $  ...+.",
"] ] ] ] ^ . m g n ; ; - + % . O P @.* 1 #.. . ",
"] ] ] ] ^ . m g n ; ; - + R . S $.* $ %.&.*.=.",
"] ] ] ] ^ . m g n ; ; < + - - - * 3 -.. ;.>.,.",
"] ] ] ] ^ . m g n ; ; * + $ $ * 3 '.. ).!.~.{.",
"] ] ] ] ^ . m g n ; - < $ $ * 3 ].. ^./.(._.:.",
"] ] ] ] ^ . m g n ; - + $ * 3 ].. <.[.}.|.1.2.",
"] ] ] ] ^ . m g n ; - + : 3.4.. <.5.6.7.}.8.9.",
"] ] ] ] ^ . m g n ; ; - 0.a.. b.c.d.e.f.}.g.h.",
"] ] ] ] ^ . m g n ; i.o j.. k.~ l.m.n.f.}.o.p.",
"] ] ] ] ^ . m g n ; o j.. q.r.l.] m.e.7.}.s.t.",
"] ] ] ] ^ . m g n o u.. v.w.x.] m.y.z. .A.B.C.",
"] ] ] ] ^ . m g D.E.. F.D.) c.] m.n.z.G.H.. I.",
"] ] ] ] ^ . c U J.. F.K.L.M.c.] m.y.N.O.P.Q.R.",
"] ] ] ] ^ . S.< . T.U.V.D.M.c.] m.W.X.. ;.Y.Z.",
"] ] ] ] ^ . N.. T.`.g  +D.M.c.] .+++. ).!.@+#+",
"] ] ] ] ^ . . T.`.i.`. +D.M.c..+$+. )./.(.%+&+",
"] ] ] ] ^ . *+7 =+-+`. +D.M.;+$+. <.> >+}.,+'+",
"] ] ] ] ^ . )+!+U -+`. +D.~+{+. <.5.]+|.}.%+&+",
"] ] ] ] ^ . )+!+^+-+`. +/+|.. b.c.d.z.|.}.,+'+",
"] ] ] ] ^ . )+( U (+`._+:+. k.~ l.m.n.f.}.%+&+",
"] ] ] ] ^ . )+( n (+<+[+. q.r.l.] m.e.7.}.,+'+",
"] ] ] ] ^ . )+( n }+|+. v.w.x.] m.y.z. .A.1+2+",
"3+] ] ] ^ . )+( 4+u.. F.D.) c.] m.n.z.G.H.. 5+",
".+] ] ] ^ . )+6+7+. F.K.L.M.c.] m.y.N.O.P.8+9+",
"0+] ] ] ^ . *+a+. T.U.V.D.M.c.] m.W.X.. ;.b+c+",
"0+] ] ] ^ . d+. T.`.g  +D.M.c.] .+++. ).!.@+&+",
"0+] ] ] ^ . d+e+`.i.`. +D.M.c..+$+. )./.(.,+'+",
"0+] ] ] ^ . f+g+h+-+`. +D.M.;+$+. <.[.}.|.%+&+",
"0+] ] ] ^ . )+( n (+`. +D.~+{+. <.i+6.7.}.,+'+",
"0+] ] ] ^ . )+( n (+`. +/+|.. b.c.j+z.f.}.k+l+",
"0+] ] ] ^ . )+( U (+`._+:+. k.~ m+n.z.n+o+p+q+",
"0+] ] ] ^ . )+( n (+<+[+. q.r.l.m.y.z.j+r+s+t+",
"0+] ] ] ^ . )+( n }+|+. v.w.x.] m.u+7.G.v+. w+",
"0+] ] ] ^ . )+( 4+u.. F.D.) c.] m.x+5.y+. z+A+",
"0+] ] ] ^ . )+6+7+. F.K.L.M.c.] m+B+C+. D+E+F+",
"0+] ] ] ^ . *+a+. T.U.V.D.M.c.u+r.k.. . G+H+I+",
"0+] ] ] ^ . d+. T.`.g  +D.M.J+K+L+. . M+N+O+P+",
"0+] ] ] ^ . d+e+`.i.`. +D.K.Q+R+. . S+T+U+V+W+",
"0+] ] ] ^ . X+Y+h+-+`. +L.Z+`+. .  @.@+@@@#@$@",
"0+] ] ] ^ . %@&@n (+`.) 7+<.. .  @*@=@-@;@>@,@",
"0+] ] ] ^ . | 7 n (+'@)@y+. .  @!@~@{@]@^@/@Z ",
"0+] ] ] ^ . | 7 U U., (@. . _@G+~@:@<@[@}@|@1@",
"0+] ] ] ^ . | 7 $ U 2@. . 3@c g+4@5@6@7@}@8@+.",
"0+] ] ] ^ . | 1 * 9@. . 0@c a@. b@c@d@e@}@f@g@",
"0+] ] ] ^ . | 7 h@i@. j@k@l@. m@n@o@p@q@}@r@+.",
"0+] ] ] ^ . | 7 s@i@. t@u@v@. w@x@y@z@A@}@B@C@",
"0+] ] ] ^ . | 7 h@i@. D@E@F@+.G@z H@I@A@}@J@K@",
"0+] ] ] ^ . | 1 &@i@. D@L@M@N@O@z P@Q@A@}@R@. "};
