/* XPM */
static char * top_left_inactive_xpm[] = {
"23 86 359 2",
"  	c None",
". 	c #000000",
"+ 	c #57595B",
"@ 	c #2E2E2F",
"# 	c #212122",
"$ 	c #2F2F30",
"% 	c #202021",
"& 	c #4D4E50",
"* 	c #222223",
"= 	c #262627",
"- 	c #1C1B1C",
"; 	c #333335",
"> 	c #252526",
", 	c #383537",
"' 	c #292728",
") 	c #37393B",
"! 	c #27292A",
"~ 	c #444443",
"{ 	c #333232",
"] 	c #424242",
"^ 	c #303030",
"/ 	c #303031",
"( 	c #1B1B1C",
"_ 	c #4C4E4F",
": 	c #1D1D1D",
"< 	c #282829",
"[ 	c #272728",
"} 	c #212021",
"| 	c #2D2F32",
"1 	c #201F20",
"2 	c #4B4D4F",
"3 	c #48433F",
"4 	c #232324",
"5 	c #0E4572",
"6 	c #453C37",
"7 	c #198CBE",
"8 	c #117AA8",
"9 	c #1F1F20",
"0 	c #186F98",
"a 	c #28C5FF",
"b 	c #116289",
"c 	c #1A6388",
"d 	c #00F1FF",
"e 	c #2BA8DA",
"f 	c #4B4D4E",
"g 	c #1D5F81",
"h 	c #00E1FF",
"i 	c #00CFFF",
"j 	c #473D39",
"k 	c #242526",
"l 	c #252324",
"m 	c #1D688E",
"n 	c #00E5FF",
"o 	c #00BFFF",
"p 	c #00D3FF",
"q 	c #29B3EA",
"r 	c #1179A9",
"s 	c #29292A",
"t 	c #242425",
"u 	c #4A4C4E",
"v 	c #250000",
"w 	c #00FFFF",
"x 	c #00CDFF",
"y 	c #00C8FF",
"z 	c #299CCA",
"A 	c #136C96",
"B 	c #200900",
"C 	c #330000",
"D 	c #00F3FF",
"E 	c #00DBFF",
"F 	c #1B1A1A",
"G 	c #29120B",
"H 	c #2E0000",
"I 	c #24AFE5",
"J 	c #2E2E30",
"K 	c #240D06",
"L 	c #280000",
"M 	c #1FD0FF",
"N 	c #137BAA",
"O 	c #21120D",
"P 	c #270500",
"Q 	c #1091CA",
"R 	c #221916",
"S 	c #2D2320",
"T 	c #2B2B2C",
"U 	c #2A2829",
"V 	c #146D96",
"W 	c #00236E",
"X 	c #00002C",
"Y 	c #131212",
"Z 	c #28110A",
"` 	c #000003",
" .	c #5A514B",
"..	c #363738",
"+.	c #260F08",
"@.	c #24272B",
"#.	c #23140F",
"$.	c #000014",
"%.	c #5F534C",
"&.	c #0A0B0D",
"*.	c #444646",
"=.	c #241B17",
"-.	c #00054F",
";.	c #3D2D21",
">.	c #48494C",
",.	c #414144",
"'.	c #003181",
").	c #3B2B1E",
"!.	c #373839",
"~.	c #545558",
"{.	c #3F3F3E",
"].	c #000024",
"^.	c #3C2E22",
"/.	c #323334",
"(.	c #333235",
"_.	c #545658",
":.	c #403F3F",
"<.	c #00002A",
"[.	c #3E3127",
"}.	c #343536",
"|.	c #333435",
"1.	c #343336",
"2.	c #545659",
"3.	c #000029",
"4.	c #3D3026",
"5.	c #302F32",
"6.	c #2F2F31",
"7.	c #343437",
"8.	c #40403F",
"9.	c #232325",
"0.	c #000337",
"a.	c #3D2F24",
"b.	c #343636",
"c.	c #313133",
"d.	c #2E2E2C",
"e.	c #323231",
"f.	c #55565A",
"g.	c #363839",
"h.	c #242324",
"i.	c #00054C",
"j.	c #3C2B1C",
"k.	c #313134",
"l.	c #30302F",
"m.	c #2E2E2E",
"n.	c #55575A",
"o.	c #323435",
"p.	c #252425",
"q.	c #003595",
"r.	c #3A2615",
"s.	c #333332",
"t.	c #56585B",
"u.	c #004EA2",
"v.	c #412A17",
"w.	c #3B3C3C",
"x.	c #313033",
"y.	c #323235",
"z.	c #302F2F",
"A.	c #2A2C2D",
"B.	c #58595C",
"C.	c #302E2F",
"D.	c #00328E",
"E.	c #1F1E1E",
"F.	c #393B3B",
"G.	c #28292A",
"H.	c #585A5D",
"I.	c #312F30",
"J.	c #006CE7",
"K.	c #5A3D27",
"L.	c #090A0C",
"M.	c #3A3A3C",
"N.	c #373739",
"O.	c #2A2B2D",
"P.	c #262728",
"Q.	c #292A2B",
"R.	c #2A2A2B",
"S.	c #0063DD",
"T.	c #3B1B01",
"U.	c #3C3B3E",
"V.	c #363635",
"W.	c #272829",
"X.	c #272526",
"Y.	c #595B5E",
"Z.	c #515355",
"`.	c #0065E0",
" +	c #381901",
".+	c #3C3C40",
"++	c #363636",
"@+	c #292B2C",
"#+	c #282627",
"$+	c #005EC6",
"%+	c #391A02",
"&+	c #3A3A3A",
"*+	c #0065E1",
"=+	c #391A04",
"-+	c #323434",
";+	c #383837",
">+	c #282728",
",+	c #262525",
"'+	c #636568",
")+	c #2F2E31",
"!+	c #3C3C3B",
"~+	c #303133",
"{+	c #1B1B1B",
"]+	c #5F6064",
"^+	c #2E2F30",
"/+	c #232425",
"(+	c #303233",
"_+	c #2F3032",
":+	c #292829",
"<+	c #313334",
"[+	c #2D2B2C",
"}+	c #0065CD",
"|+	c #42230A",
"1+	c #2F2D2F",
"2+	c #2E2C2E",
"3+	c #004ACB",
"4+	c #2F2D2E",
"5+	c #333333",
"6+	c #006AE3",
"7+	c #5B3B23",
"8+	c #2A2B2C",
"9+	c #202020",
"0+	c #0063DE",
"a+	c #3A1B03",
"b+	c #222122",
"c+	c #393939",
"d+	c #606265",
"e+	c #4E5053",
"f+	c #262526",
"g+	c #181818",
"h+	c #5C5D60",
"i+	c #343436",
"j+	c #005EC8",
"k+	c #371A04",
"l+	c #303032",
"m+	c #0063C4",
"n+	c #331803",
"o+	c #313233",
"p+	c #333535",
"q+	c #2E2E2D",
"r+	c #006CCD",
"s+	c #533927",
"t+	c #444546",
"u+	c #0047AE",
"v+	c #2C2E2F",
"w+	c #2F2F2E",
"x+	c #005CC6",
"y+	c #0C0000",
"z+	c #555659",
"A+	c #303033",
"B+	c #0064CF",
"C+	c #462914",
"D+	c #1B1A1C",
"E+	c #555759",
"F+	c #353538",
"G+	c #0065D0",
"H+	c #3B1C05",
"I+	c #464749",
"J+	c #0046AF",
"K+	c #0A0000",
"L+	c #2E3032",
"M+	c #474849",
"N+	c #515357",
"O+	c #343333",
"P+	c #313030",
"Q+	c #0056AA",
"R+	c #130000",
"S+	c #0E0D0D",
"T+	c #434446",
"U+	c #4C4D50",
"V+	c #525357",
"W+	c #353534",
"X+	c #001B7A",
"Y+	c #190400",
"Z+	c #151515",
"`+	c #0C0C0B",
" @	c #414243",
".@	c #4B4C4F",
"+@	c #535558",
"@@	c #2D2E2F",
"#@	c #19191A",
"$@	c #5D5F62",
"%@	c #00003D",
"&@	c #080000",
"*@	c #121212",
"=@	c #141313",
"-@	c #0E0F12",
";@	c #47484A",
">@	c #1E1E1F",
",@	c #4A4C4D",
"'@	c #1D0F01",
")@	c #191919",
"!@	c #161616",
"~@	c #141618",
"{@	c #0C0D0F",
"]@	c #46484A",
"^@	c #2B2C2D",
"/@	c #262425",
"(@	c #00001E",
"_@	c #1A0E04",
":@	c #171717",
"<@	c #161513",
"[@	c #222121",
"}@	c #131415",
"|@	c #4A4B4E",
"1@	c #515354",
"2@	c #180F07",
"3@	c #16120F",
"4@	c #1F2834",
"5@	c #161413",
"6@	c #161618",
"7@	c #494B4E",
"8@	c #525456",
"9@	c #000004",
"0@	c #171008",
"a@	c #160F09",
"b@	c #153353",
"c@	c #201E1E",
"d@	c #1C1816",
"e@	c #1D1B1B",
"f@	c #4E5051",
"g@	c #4F5152",
"h@	c #160E07",
"i@	c #160C05",
"j@	c #184A62",
"k@	c #354657",
"l@	c #00010D",
"m@	c #020D18",
"n@	c #1A191A",
"o@	c #484A4B",
"p@	c #57585A",
"q@	c #545657",
"r@	c #1E1D1E",
"s@	c #00041F",
"t@	c #180E06",
"u@	c #160A03",
"v@	c #144154",
"w@	c #576685",
"x@	c #00111A",
"y@	c #090E20",
"z@	c #242221",
"A@	c #100F10",
"B@	c #545557",
"C@	c #242223",
"D@	c #000013",
"E@	c #1A1008",
"F@	c #12394C",
"G@	c #515D8A",
"H@	c #131D34",
"I@	c #26221F",
"J@	c #131314",
"K@	c #57595A",
"L@	c #1C140D",
"M@	c #13354A",
"N@	c #547471",
"O@	c #0D184A",
"P@	c #000F23",
"Q@	c #261E19",
"R@	c #141314",
"                                  . . . . . . ",
"                                + . @ # # # # ",
"                            $ % & . $ * * * * ",
"                          $ = - & . $ * * * * ",
"                        $ = * - & . @ # # # # ",
"                      $ = * * - & . ; > > > > ",
"                    $ = * * * - & . , ' ' ' ' ",
"                  $ = * * * * - & . ) ! ! ! ! ",
"                $ = * * * * * - & . ~ { { { { ",
"              $ = * * * * * * - & . ] ^ ^ ^ ^ ",
"            $ = * * * * * * * - & . ] ^ ^ ^ ^ ",
"        . $ = * * * * * * * * - & . ] ^ ^ ^ ^ ",
"      . $ = * * * * * * * * * - & . ] ^ ^ ^ ^ ",
"    . / = * * * * * * * # # # ( _ . ] ^ ^ ^ ^ ",
". . : < * * * * * * # < # [ = } _ . ] ^ ^ ^ ^ ",
". . | = % * * * * * # [ % = > 1 2 . ] ^ ^ ^ ^ ",
". . . 3 4 % * * * * # [ % = > 1 2 . ] ^ ^ ^ ^ ",
". . 5 . 6 4 % * * * # [ % = > 1 2 . ] ^ ^ ^ ^ ",
". . 7 8 . 6 4 % * * # [ 9 = > 1 2 . ] ^ ^ ^ ^ ",
". . 0 a b . 6 4 % * # [ = > > 1 2 . ] ^ ^ ^ ^ ",
". . c d e b . 6 4 % * # = > > 9 f . ] ^ ^ ^ ^ ",
". . g h i e b . j > * # = > k l f . ] ^ ^ ^ ^ ",
". . m n o p q r . s * # = > t l u . ] ^ ^ ^ ^ ",
". . v w x y z A . $ * # = > t l u . ] ^ ^ ^ ^ ",
". . B C D E z A . $ * # = > t l u . ] ^ ^ ^ ^ ",
". . F G H w I A . J * # = > t l u . ] ^ ^ ^ ^ ",
". . | = K L M N . $ * # = > t l u . ] ^ ^ ^ ^ ",
". . . 3 4 O P Q . $ * # = > t l u . ] ^ ^ ^ ^ ",
". . 5 . 6 4 R S . T * # = > t l u . ] ^ ^ ^ ^ ",
". . 7 8 . 6 4 > = = * # = > t l u . ] ^ ^ ^ ^ ",
". . 0 a b . 6 4 % * * # = > U l u . ] ^ ^ ^ ^ ",
". . c d e b . 6 4 % # [ > > t l u . ] ^ ^ ^ ^ ",
". . g h i e b . j > # = > > t l u . ] ^ ^ ^ ^ ",
". . m n o p q r . s # = > > t l u . ] ^ ^ ^ ^ ",
". . v w x y z V . $ # [ > > t l u . ] ^ ^ ^ ^ ",
"W . B C D E z V . $ # % > > t l u . ] ^ ^ ^ ^ ",
"X . Y Z H w I V . $ # [ > > t l u . ] ^ ^ ^ ^ ",
"`  ...* +.L M N . $ # = > > t l u . ] ^ ^ ^ ^ ",
". . @.1 % #.P Q . $ # = > > t l u . ] ^ ^ ^ ^ ",
"$.%.&.*.* % =.S . T # = > > t l u . ] ^ ^ ^ ^ ",
"-.;.>.. ,.4 % = = = # [ > > t l u . ] ^ ^ ^ ^ ",
"'.).!.~.. {.4 % * * # % > > t l u . ] ^ ^ ^ ^ ",
"].^./.(._.. :.4 % * * [ = > t l u . ] ^ ^ ^ ^ ",
"<.[.}.|.1.2.. :.4 % * # = > t l u . ] ^ ^ ^ ^ ",
"3.4.|.5.6.7.2.. 8.9.} # = > t l u . ] ^ ^ ^ ^ ",
"0.a.|.b.c.d.e.f.. g.h.= > > t l u . ] ^ ^ ^ ^ ",
"i.j.|.b.k.l.m.{ n.. o.s p.> t l u . ] ^ ^ ^ ^ ",
"q.r.|.5.c.l.^ m.s.t.. o.s > t l u . ] ^ ^ ^ ^ ",
"u.v.w...x.y.l.^ z.A.B.. C.s t l u . ] ^ ^ ^ ^ ",
"D.. E.F.x.k.l.^ e.! G.H.. I.G.l u . ] ^ ^ ^ ^ ",
"J.K.L.M.N.y.l.^ e.O.P.Q.H.. R.U f . ] ^ ^ ^ ^ ",
"S.T.>.. U.V.l.^ e.O.G.W.X.Y.. [ Z.. ] ^ ^ ^ ^ ",
"`. +!.~.. .+++^ e.O.G.@+l #+Y.. N.. ] ^ ^ ^ ^ ",
"$+%+/.(.~.. &+++e.O.G.@+#+p.#+Y.. . ] ^ ^ ^ ^ ",
"*+=+|.-+; 2.. &+;+O.G.@+#+>+,+9 '+. ] ^ ^ ^ ^ ",
"$+%+|.}.)+7.2.. !+~+G.@+#+>+U {+]+. ] ^ ^ ^ ^ ",
"*+=+|.}.x.d.e.f.. }.^+@+#+>+/+{+]+. ] ^ ^ ^ ^ ",
"$+%+|.b.k.l.m.{ n.. (+_+#+:+U ( ]+. ] ^ ^ ^ ^ ",
"*+=+|.5.c.l.^ m.s.t.. <+[+:+t ( ]+. ] ^ ^ ^ ^ ",
"}+|+w...x.y.l.^ z.A.B.. 1+2+t ( ]+. ] ^ ^ ^ ^ ",
"3+. E.F.x.k.l.^ e.! G.H.. C.4+( ]+. ] ^ ^ ^ 5+",
"6+7+L.M.N.y.l.^ e.O.P.Q.H.. 8+9+]+. ] ^ ^ ^ ++",
"0+a+>.. U.V.l.^ e.O.G.W.X.Y.. b+'+. ] ^ ^ ^ c+",
"$+ +!.~.. .+++^ e.O.G.@+l #+Y.. d+. ] ^ ^ ^ c+",
"*+=+/.(.~.. &+++e.O.G.@+#+p.#+e+d+. ] ^ ^ ^ c+",
"$+%+}.|.1.2.. &+;+O.G.@+#+>+f+g+h+. ] ^ ^ ^ c+",
"*+=+|.5.6.i+2.. !+~+G.@+#+:+t ( ]+. ] ^ ^ ^ c+",
"j+k+|.b.x.l+e.f.. }.^+@+#+:+t ( ]+. ] ^ ^ ^ c+",
"m+n+o+p+x.k.q+{ n.. (+_+#+:+U ( ]+. ] ^ ^ ^ c+",
"r+s+t+l+x.y.l.m.s.t.. <+[+:+t ( ]+. ] ^ ^ ^ c+",
"u+. v+F.5.w+l.^ z.A.B.. 1+2+t ( ]+. ] ^ ^ ^ c+",
"x+y+. z+7.A+l.^ e.! G.H.. C.4+( ]+. ] ^ ^ ^ c+",
"B+C+D+. E+F+q+^ e.O.P.Q.H.. 8+9+]+. ] ^ ^ ^ c+",
"G+H+I+. . n.s.w+e.O.G.W.X.Y.. b+'+. ] ^ ^ ^ c+",
"J+K+L+M+. . N+O+P+O.G.@+l #+Y.. d+. ] ^ ^ ^ c+",
"Q+R+S+T+U+. . V+W+Q.G.@+#+p.#+e+d+. ] ^ ^ ^ c+",
"X+Y+Z+`+ @.@. . +@@@P.@+#+>+f+#@$@. ] ^ ^ ^ c+",
"%@&@*@=@-@;@.@. . 2.8+! #+:+t >@,@. ] ^ ^ ^ c+",
"X '@)@!@~@{@]@.@. . z+^@/@:+t 9 2 . ] ^ ^ ^ c+",
"(@_@:@<@[@}@{@I+|@. . 1@' X.U 9 2 . ] ^ ^ ^ c+",
"` 2@:@3@4@5@6@g+f 7@. . 8@U * 9 2 . ] ^ ^ ^ c+",
"9@0@:@a@b@c@d@. e@f f@. . g@% 1 2 . ] ^ ^ ^ c+",
"` h@:@i@j@k@l@m@. n@o@p@. q@r@9 2 . ] ^ ^ ^ c+",
"s@t@:@u@v@w@x@y@. z@A@B@. q@C@9 2 . ] ^ ^ ^ c+",
"D@E@:@u@F@G@w H@` I@J@K@. q@r@9 2 . ] ^ ^ ^ c+",
". L@:@u@M@N@w O@P@Q@R@K@. q@>@1 2 . ] ^ ^ ^ c+"};
