/* XPM */
static char * bottom_right_inactive_xpm[] = {
"8 9 20 1",
" 	c None",
".	c #542D44",
"+	c #992564",
"@	c #DF1C83",
"#	c #442E3C",
"$	c #2F3031",
"%	c #313232",
"&	c #242525",
"*	c #040003",
"=	c #FE1691",
"-	c #373839",
";	c #353637",
">	c #010001",
",	c #903B69",
"'	c #7F2B67",
")	c #333435",
"!	c #454546",
"~	c #3F3F40",
"{	c #363838",
"]	c #2A2B2C",
".+@#$%&*",
"====-$;>",
",,,')$;>",
"!!~{%$;>",
"$$$$$$;>",
"%%%%%%;>",
"%%%%%%{>",
"]]]]]]$>",
">>>>>>>>"};
