/* XPM */
static char * bottom_inactive_xpm[] = {
"1 9 9 1",
" 	c None",
".	c #161718",
"+	c #FE1691",
"@	c #903B69",
"#	c #454546",
"$	c #2F3031",
"%	c #313232",
"&	c #2A2B2C",
"*	c #010001",
".",
"+",
"@",
"#",
"$",
"%",
"%",
"&",
"*"};
