/* XPM */
static char * close_active_xpm[] = {
"37 13 26 1",
" 	c None",
".	c #383A3A",
"+	c #353637",
"@	c #3E363B",
"#	c #373839",
"$	c #333133",
"%	c #2F3031",
"&	c #494A4B",
"*	c #4D4D4F",
"=	c #505152",
"-	c #565455",
";	c #574250",
">	c #3F3F40",
",	c #424344",
"'	c #3A3C3C",
")	c #454546",
"!	c #4E3846",
"~	c #442E3C",
"{	c #4E462C",
"]	c #3D3E3E",
"^	c #393B3B",
"/	c #2D2D2E",
"(	c #2A2A2B",
"_	c #472825",
":	c #313232",
"<	c #363838",
"                                     ",
"   .+@#@.@.@@@@@@@@@@@@.@.@#@#@#@$%% ",
"  .&&******=----;-----=********&**># ",
" #,;=------------------------=**=*,. ",
" '&**===-----;-----;-----=;=***;;)># ",
" >!&&&;*;&;;*;*;*;;*;*;;*;&;&&)&)>'  ",
" >>,,))!))))!))!)))!))!)))))!)!>>'   ",
" ~>>>,,)){!))!))!)!))!))!{!,,>>]^    ",
" @>>>>,!>!){)){!){){!){,,)>>>>@^     ",
" /(//_//////(_/////////(_//_/$.      ",
" /%$$:$$$$$$$$$$$$$$$$$$$$$$$+#      ",
" <<####.<@#.##.#@#@.@#.######.       ",
"                                     "};
