/* XPM */
static char * close_prelight_xpm[] = {
"37 13 13 1",
" 	c None",
".	c #D40B0B",
"+	c #CC0D0D",
"@	c #BE1010",
"#	c #53292B",
"$	c #342E2F",
"%	c #5B3F4D",
"&	c #442E3C",
"*	c #4E462C",
"=	c #2D2D2E",
"-	c #2A2A2B",
";	c #472825",
">	c #512A2A",
"   ...............................+..",
"  ..@............................#$$.",
" ....................................",
" ..%.................................",
" ..............................%%....",
" .....%..................%.%........ ",
"...................................  ",
".&.......*...............*........   ",
"...........*..*..*.*..*..........    ",
".=-==;======-;=========-;==;=#..     ",
".=$##>#######################@.      ",
"...............................      ",
".............                        "};
