/* XPM */
static char * hide_pressed_xpm[] = {
"37 12 25 1",
" 	c None",
".	c #3E363B",
"+	c #373839",
"@	c #383A3A",
"#	c #353637",
"$	c #333133",
"%	c #3A3C3C",
"&	c #494A4B",
"*	c #4D4D4F",
"=	c #505152",
"-	c #565455",
";	c #574250",
">	c #424344",
",	c #3F3F40",
"'	c #454546",
")	c #4E3846",
"!	c #3D3E3E",
"~	c #4E462C",
"{	c #2F3031",
"]	c #2A2A2B",
"^	c #2D2D2E",
"/	c #472825",
"(	c #381B32",
"_	c #313232",
":	c #363838",
"     .+.+.@.@.............@.+.+.+.#$ ",
"   +%&&******=----;-----=********&*; ",
"  +%>;=------------------------=*;*& ",
"  @,&;*===;----;-----;-----;==****;' ",
" @.,)&'&&;*&;*;*;*;;*;*;;*;*&;&'&''! ",
" @!,)>>')'')')'')''')&~&')'')'')>,!  ",
" ...,,,,>''~''')'')'')')'~')'>>,!    ",
" +..,,,,,>)>)'~'~)'~'>)>>)>>~,,,     ",
" {]^]^^^/^^^^^(^^^^]/^^]/^^^(^^.     ",
" ${{{__$_$$$$$$$$$$$$$$$_$$$$$$#     ",
" +::+++++++++@@:.@.@+@+@:+:@:@+      ",
"                                     "};
