/* XPM */
static char * hide_prelight_xpm[] = {
"37 12 42 1",
" 	c None",
".	c #F9F22D",
"+	c #7F7736",
"@	c #7C7436",
"#	c #DFD92E",
"$	c #7D7536",
"%	c #E0DA2E",
"&	c #ACA933",
"*	c #918143",
"=	c #565641",
"-	c #5F5D3C",
";	c #AAA637",
">	c #E6DF2E",
",	c #4E3846",
"'	c #A5A138",
")	c #8B8936",
"!	c #F4ED2D",
"~	c #7B7A38",
"{	c #4E462C",
"]	c #807E37",
"^	c #F5EE2D",
"/	c #F1EA2D",
"(	c #454546",
"_	c #7C7A38",
":	c #CDC830",
"<	c #F6F02D",
"[	c #424344",
"}	c #C9C530",
"|	c #E6E02E",
"1	c #472825",
"2	c #3F2331",
"3	c #7E7636",
"4	c #E4DE2E",
"5	c #E3DD2E",
"6	c #EBE52D",
"7	c #F3EC2D",
"8	c #F0E92D",
"9	c #EFE82D",
"0	c #EAE42E",
"a	c #E8E12E",
"b	c #E7E12E",
"c	c #EEE72D",
"    .+.@.@#@#@@@@@@@@$++++%+.+.+.+...",
"  ..&.............*................*.",
"  .&=*...........................*...",
" .#-.*....*....*.....*.....*......*; ",
" >@-,.'..*..*.*.*.**.*.**.*..*.'.'') ",
"!#~-,..','',','',''',.{.','','',=-]^ ",
"/@@@.....''{''','','',(,'{','==-_:<  ",
"/.@@......,[,'{({,({'=,==,=={---}    ",
"|.......1.....2.....1...1...2..3<    ",
"4...............................     ",
"5............##.@#@#.#.#...#.#.6     ",
"      <!!!788896670aaab5555%%%%c     "};
