/* XPM */
static char * maximize_active_xpm[] = {
"35 12 28 1",
" 	c None",
".	c #383A3A",
"+	c #373839",
"@	c #353637",
"#	c #3E363B",
"$	c #333133",
"%	c #2D2D2E",
"&	c #494A4B",
"*	c #4D4D4F",
"=	c #505152",
"-	c #565455",
";	c #574250",
">	c #363838",
",	c #3F3F40",
"'	c #585758",
")	c #393B3B",
"!	c #454546",
"~	c #3D3E3E",
"{	c #4E3846",
"]	c #424344",
"^	c #442E3C",
"/	c #4E462C",
"(	c #3A3C3C",
"_	c #2A2A2B",
":	c #381B32",
"<	c #472825",
"[	c #2F3031",
"}	c #313232",
"                                   ",
"    .+@#.#+###########+#+#+#+$%@$% ",
"   .&&*****=--;-----=*******&;+>+# ",
"   ,;=--------'-----------=*=*#+.  ",
"  )!;*==-=-------;----=;=**;*!.+   ",
"  ~{&&&&*;;*;;*;;*;*;;**;&&!!~     ",
" ),,]]!{!!!{!!{!!!{!!!{!!{],,      ",
" #^#,,]!!{!!{!!{!{!!{/!{]],~)      ",
" ##,,,,],/!{]/!!/!{!]!,,,,~(       ",
" _%_%%:%%:%%%%%:%%%_<%%<%%#        ",
" [%[}}$$$$$$$$$$$$$$}$$$$$+        ",
" >>>++....+.++...#.+++>.+.         "};
