/* XPM */
static char * maximize_prelight_xpm[] = {
"35 12 13 1",
" 	c None",
".	c #2DF983",
"+	c #2D764C",
"@	c #2D7C4F",
"#	c #438D63",
"$	c #478462",
"%	c #574250",
"&	c #379B62",
"*	c #4A5935",
"=	c #2A322E",
"-	c #381B32",
";	c #472825",
">	c #2DC76E",
"   ................................",
"   ...........................+..@ ",
"  .........#..$.....#........%.... ",
"  ..%#....................#.#..... ",
"  ..%.##.........$....#$#..%.....  ",
" ........$$.$$.$$.$.$$..%.......   ",
" .............................     ",
"..&..................*........     ",
".........*...*..*............      ",
".=+=++-++-+++++-+++=;++;++..       ",
".>+>.......................        ",
"...........................        "};
