/* XPM */
static char * title_5_active_xpm[] = {
"1 38 15 1",
" 	c None",
".	c #606061",
"+	c #585758",
"@	c #383A3A",
"#	c #373839",
"$	c #363838",
"%	c #393B3B",
"&	c #3A3C3C",
"*	c #DE0599",
"=	c #7F2B67",
"-	c #3F3F40",
";	c #7B225D",
">	c #F900A0",
",	c #C50C91",
"'	c #69676A",
".",
"+",
"@",
"#",
"$",
"$",
"$",
"$",
"$",
"#",
"$",
"$",
"#",
"#",
"#",
"@",
"@",
"@",
"%",
"%",
"%",
"%",
"&",
"&",
"&",
"&",
"&",
"&",
"&",
"&",
"*",
"*",
"=",
"-",
";",
">",
",",
"'"};
