/* XPM */
static char * top_left_active_xpm[] = {
"8 38 16 1",
" 	c None",
".	c #454546",
"+	c #606061",
"@	c #171919",
"#	c #585758",
"$	c #565455",
"%	c #010001",
"&	c #383A3A",
"*	c #333435",
"=	c #373839",
"-	c #313232",
";	c #333133",
">	c #353637",
",	c #393B3B",
"'	c #3A3C3C",
")	c #363838",
".+++++++",
"@#$$$###",
"%&******",
"%&******",
"%=******",
"%=-*****",
"%=******",
"%=--****",
"%=-*****",
"%=******",
"%=--;***",
"%=--****",
"%=-*****",
"%=-*****",
"%&******",
"%&*****>",
"%&*****>",
"%&****>>",
"%&****>>",
"%&***>>>",
"%&***>>>",
"%,**>>>>",
"%,**>>>>",
"%,**>>>>",
"%,*>>>>>",
"%,*>>>>>",
"%,*>>>>>",
"%,*>>>>>",
"%,*>>>>>",
"%,>>>>>>",
"%,>>>>>>",
"%'*>>)))",
"%'>>>))=",
"%'>>>))=",
"%'>>>))=",
"%'>>>))=",
"%'>>>))=",
"%'>>>))="};
