/* XPM */
static char * bottom_left_active_xpm[] = {
"5 6 12 1",
" 	c None",
".	c #090909",
"+	c #111111",
"@	c #646465",
"#	c #FFFFFF",
"$	c #161616",
"%	c #1F1F1F",
"&	c #181818",
"*	c #2E2E2E",
"=	c #303030",
"-	c #070707",
";	c #050504",
".++@#",
".++@#",
".+$%%",
".+&*=",
"-;;;;",
"-;;;;"};
