/* XPM */
static char * bottom_right_active_xpm[] = {
"5 6 12 1",
" 	c None",
".	c #FFFFFF",
"+	c #646465",
"@	c #111111",
"#	c #090909",
"$	c #1F1F1F",
"%	c #161616",
"&	c #303030",
"*	c #2E2E2E",
"=	c #181818",
"-	c #050504",
";	c #070707",
".+@@#",
".+@@#",
"$$%@#",
"&*=@#",
"----;",
"----;"};
