/* XPM */
static char * bottom_active_xpm[] = {
"1 6 5 1",
" 	c None",
".	c #FFFFFF",
"+	c #1F1F1F",
"@	c #303030",
"#	c #050504",
".",
".",
"+",
"@",
"#",
"#"};
