/* XPM */
static char * close_prelight_xpm[] = {
"43 32 56 1",
" 	c None",
".	c #343434",
"+	c #232323",
"@	c #151515",
"#	c #0D0D0D",
"$	c #131313",
"%	c #1F1F1F",
"&	c #303030",
"*	c #030302",
"=	c #373737",
"-	c #545555",
";	c #434344",
">	c #010101",
",	c #111111",
"'	c #868788",
")	c #5E5F60",
"!	c #85878B",
"~	c #646465",
"{	c #070707",
"]	c #040304",
"^	c #0B0B0B",
"/	c #151A1D",
"(	c #141E26",
"_	c #0D1F2E",
":	c #0F0F0F",
"<	c #0F1010",
"[	c #171717",
"}	c #1A1A1A",
"|	c #181818",
"1	c #050504",
"2	c #2E2E2E",
"3	c #160707",
"4	c #280D0D",
"5	c #361212",
"6	c #451717",
"7	c #1C0909",
"8	c #250C0C",
"9	c #301010",
"0	c #220B0B",
"a	c #200B0B",
"b	c #161616",
"c	c #BE3F3F",
"d	c #A93838",
"e	c #602020",
"f	c #411616",
"g	c #571C1C",
"h	c #341111",
"i	c #0D0404",
"j	c #2C0F0F",
"k	c #100505",
"l	c #090909",
"m	c #272727",
"n	c #0B1217",
"o	c #454545",
"p	c #4E4E4F",
"q	c #1C1C1C",
"...........................................",
"..+@####################################$%&",
".+@*=---------------------------;@******>,%",
"'=*)''!!!!!!!!!!!!!!!!!!!!!!!''''~+##{{{]>;",
"@^],//(((_(_(_(_(_(_(_(_(_(_((//:<[}|:{1*=2",
"@^]344555565656565656565656555473$|%}<{*=& ",
"@^134589999999999999999999999807a/%%b{*.&  ",
"@^{378cccccccccccccccccccccccde44++|^1.&   ",
"@^{3749fffgffgfgfgfgfgfgfgff665hh+|^{&&    ",
"@^{i74566666g66g6g6g6g6g6g6g665hj[^{&&     ",
"@^{ik3a44hhhhhhhhhhhhhhhhhhh44403^l2&}     ",
"@m{ll^##<n##n#nnnnnnnnnn#n#n###^ll2.}      ",
"@2o))))))))))))))))))))))))))))))p.q       ",
"                                           ",
"                                           ",
"                                           ",
"                                           ",
"                                           ",
"                                           ",
"                                           ",
"                                           ",
"                                           ",
"                                           ",
"                                           ",
"                                           ",
"                                           ",
"                                           ",
"                                           ",
"                                           ",
"                                           ",
"                                           ",
"                                           "};
