/* XPM */
static char * close_active_xpm[] = {
"43 32 51 1",
" 	c None",
".	c #343434",
"+	c #232323",
"@	c #151515",
"#	c #0D0D0D",
"$	c #131313",
"%	c #1F1F1F",
"&	c #303030",
"*	c #030302",
"=	c #373737",
"-	c #545555",
";	c #434344",
">	c #010101",
",	c #111111",
"'	c #868788",
")	c #5E5F60",
"!	c #85878B",
"~	c #646465",
"{	c #070707",
"]	c #040304",
"^	c #0B0B0B",
"/	c #151A1D",
"(	c #141E26",
"_	c #0D1F2E",
":	c #0F0F0F",
"<	c #0F1010",
"[	c #171717",
"}	c #1A1A1A",
"|	c #181818",
"1	c #050504",
"2	c #2E2E2E",
"3	c #0B1217",
"4	c #12293B",
"5	c #193347",
"6	c #091720",
"7	c #021F37",
"8	c #072745",
"9	c #061B2A",
"0	c #11181E",
"a	c #161616",
"b	c #0099FF",
"c	c #0687DF",
"d	c #084D72",
"e	c #073456",
"f	c #234057",
"g	c #1B262E",
"h	c #090909",
"i	c #272727",
"j	c #454545",
"k	c #4E4E4F",
"l	c #1C1C1C",
"...........................................",
"..+@####################################$%&",
".+@*=---------------------------;@******>,%",
"'=*)''!!!!!!!!!!!!!!!!!!!!!!!''''~+##{{{]>;",
"@^],//(((_(_(_(_(_(_(_(_(_(_((//:<[}|:{1*=2",
"@^]3(_444454545454545454545444_63$|%}<{*=& ",
"@^13(4788888888888888888888887960/%%a{*.&  ",
"@^{367bbbbbbbbbbbbbbbbbbbbbbbcd_(++|^1.&   ",
"@^{36_8eeefeefefefefefefefee554gg+|^{&&    ",
"@^{^6(455555f55f5f5f5f5f5f5f554g%[^{&&     ",
"@^{^#30((ggggggggggggggggggg(((|<^h2&}     ",
"@i{hh^##<3##3#3333333333#3#3###^hh2.}      ",
"@2j))))))))))))))))))))))))))))))k.l       ",
"                                           ",
"                                           ",
"                                           ",
"                                           ",
"                                           ",
"                                           ",
"                                           ",
"                                           ",
"                                           ",
"                                           ",
"                                           ",
"                                           ",
"                                           ",
"                                           ",
"                                           ",
"                                           ",
"                                           ",
"                                           ",
"                                           "};
