/* XPM */
static char * hide_prelight_xpm[] = {
"29 32 55 1",
" 	c None",
".	c #343434",
"+	c #303030",
"@	c #1C1C1C",
"#	c #0F1010",
"$	c #0D0D0D",
"%	c #1A1A1A",
"&	c #2E2E2E",
"*	c #1F1F1F",
"=	c #030302",
"-	c #3B3B3C",
";	c #545555",
">	c #090909",
",	c #434344",
"'	c #050504",
")	c #070707",
"!	c #0F0F0F",
"~	c #48494A",
"{	c #868788",
"]	c #85878B",
"^	c #818284",
"/	c #232323",
"(	c #7E7E7D",
"_	c #808281",
":	c #2B2B2A",
"<	c #181818",
"[	c #131313",
"}	c #151A1D",
"|	c #141E26",
"1	c #0B0B0B",
"2	c #161507",
"3	c #28260D",
"4	c #363312",
"5	c #454117",
"6	c #373737",
"7	c #151515",
"8	c #1C1B09",
"9	c #22200B",
"0	c #25230C",
"a	c #302D10",
"b	c #3F3F40",
"c	c #040304",
"d	c #A9A138",
"e	c #BEB53F",
"f	c #413F16",
"g	c #343211",
"h	c #57531C",
"i	c #111111",
"j	c #1E1C0A",
"k	c #24220C",
"l	c #100F05",
"m	c #0B1217",
"n	c #171717",
"o	c #161616",
"p	c #5E5F60",
".............................",
"+@#$$$$$$$$$$$$$$$$$$$$$$%&..",
"*$======-;;;;;;;;;;;;;;;+>@+.",
",='))$!~{{{]]]]]]]]]]]]{^-/(_",
"&:=)$<%[><}|||||||||||||}1)[[",
"<.%'!@*[!2344454545454433$>[[",
" *61)</@7890aaaaaaaaaaa43$>[[",
"  /bc1@/*33deeeeeeeeeeef8$>[[",
"   :6)#*/g45fhfhffffff508$>[[",
"    &:)i*gg5555h5h5h55432>>[[",
"     .@>$jk33gggggg3g332l>>[[",
"     *6#>11$$#mm$m$###$1>)%no",
"      /,ppppppppppppppppp;6<n",
"                             ",
"                             ",
"                             ",
"                             ",
"                             ",
"                             ",
"                             ",
"                             ",
"                             ",
"                             ",
"                             ",
"                             ",
"                             ",
"                             ",
"                             ",
"                             ",
"                             ",
"                             ",
"                             "};
