/* XPM */
static char * hide_active_xpm[] = {
"29 32 51 1",
" 	c None",
".	c #343434",
"+	c #303030",
"@	c #1C1C1C",
"#	c #0F1010",
"$	c #0D0D0D",
"%	c #1A1A1A",
"&	c #2E2E2E",
"*	c #1F1F1F",
"=	c #030302",
"-	c #3B3B3C",
";	c #545555",
">	c #090909",
",	c #434344",
"'	c #050504",
")	c #070707",
"!	c #0F0F0F",
"~	c #48494A",
"{	c #868788",
"]	c #85878B",
"^	c #818284",
"/	c #232323",
"(	c #7E7E7D",
"_	c #808281",
":	c #2B2B2A",
"<	c #181818",
"[	c #131313",
"}	c #151A1D",
"|	c #141E26",
"1	c #0B0B0B",
"2	c #0B1217",
"3	c #12293B",
"4	c #193347",
"5	c #0D1F2E",
"6	c #373737",
"7	c #151515",
"8	c #091720",
"9	c #061B2A",
"0	c #021F37",
"a	c #072745",
"b	c #3F3F40",
"c	c #040304",
"d	c #0687DF",
"e	c #0099FF",
"f	c #073456",
"g	c #1B262E",
"h	c #234057",
"i	c #111111",
"j	c #161616",
"k	c #171717",
"l	c #5E5F60",
".............................",
"+@#$$$$$$$$$$$$$$$$$$$$$$%&..",
"*$======-;;;;;;;;;;;;;;;+>@+.",
",='))$!~{{{]]]]]]]]]]]]{^-/(_",
"&:=)$<%[><}|||||||||||||}1)[[",
"<.%'!@*[!2|3334343434335|$>[[",
" *61)</@7890aaaaaaaaaaa3|$>[[",
"  /bc1@/*|5deeeeeeeeeeef8$>[[",
"   :6)#*/g34fhfhffffff408$>[[",
"    &:)i*gg4444h4h4h44352>>[[",
"     .@>$j}||gggggg|g||2$>>[[",
"     *6#>11$$#22$2$###$1>)%kj",
"      /,lllllllllllllllll;6<k",
"                             ",
"                             ",
"                             ",
"                             ",
"                             ",
"                             ",
"                             ",
"                             ",
"                             ",
"                             ",
"                             ",
"                             ",
"                             ",
"                             ",
"                             ",
"                             ",
"                             ",
"                             ",
"                             "};
