/* XPM */
static char * maximize_prelight_xpm[] = {
"25 32 44 1",
" 	c None",
".	c #343434",
"+	c #303030",
"@	c #1C1C1C",
"#	c #111111",
"$	c #0D0D0D",
"%	c #1F1F1F",
"&	c #4B4B4B",
"*	c #545555",
"=	c #2B2B2A",
"-	c #232323",
";	c #737476",
">	c #868788",
",	c #85878B",
"'	c #808281",
")	c #090909",
"!	c #151515",
"~	c #151A1D",
"{	c #141E26",
"]	c #131313",
"^	c #040D07",
"/	c #0B2012",
"(	c #0D2817",
"_	c #12361E",
":	c #174527",
"<	c #0B0B0B",
"[	c #030A06",
"}	c #10301B",
"|	c #07160C",
"1	c #0B2213",
"2	c #38A961",
"3	c #3FBE6D",
"4	c #1C5731",
"5	c #236A3D",
"6	c #11341E",
"7	c #1C5530",
"8	c #051009",
"9	c #070707",
"0	c #0F1010",
"a	c #0B1217",
"b	c #161616",
"c	c #4E4E4F",
"d	c #5E5F60",
"e	c #171717",
".........................",
"+@#$$$$$$$$$$$$$$$$$$#@+.",
"%$%&****************&%$%.",
"=-;>,,,,,,,,,,,,,,,,>;-='",
"))!~{{{{{{{{{{{{{{{{~!))]",
")^/(__:_:_:_:_:_:___(/<)]",
")[/__}}}}}}}}}}}}}}__/))]",
")^|123333333333333321|))]",
")^(:4555555555555554:(<)]",
")[/6::4444444444447:6/))]",
")[8|((((6666666(((((|8))]",
"%9))$$0000a$a$a000$$))9%b",
".cddddddddddddddddddddc.e",
"                         ",
"                         ",
"                         ",
"                         ",
"                         ",
"                         ",
"                         ",
"                         ",
"                         ",
"                         ",
"                         ",
"                         ",
"                         ",
"                         ",
"                         ",
"                         ",
"                         ",
"                         ",
"                         "};
