/* XPM */
static char * maximize_pressed_xpm[] = {
"25 32 40 1",
" 	c None",
".	c #343434",
"+	c #303030",
"@	c #1C1C1C",
"#	c #111111",
"$	c #0D0D0D",
"%	c #1F1F1F",
"&	c #4B4B4B",
"*	c #545555",
"=	c #2B2B2A",
"-	c #232323",
";	c #737476",
">	c #868788",
",	c #85878B",
"'	c #808281",
")	c #090909",
"!	c #151515",
"~	c #151A1D",
"{	c #141E26",
"]	c #131313",
"^	c #0B0B0B",
"/	c #11181E",
"(	c #12293B",
"_	c #193347",
":	c #072745",
"<	c #0B1217",
"[	c #061B2A",
"}	c #0687DF",
"|	c #0099FF",
"1	c #234057",
"2	c #294F69",
"3	c #1B262E",
"4	c #2F3D47",
"5	c #0D1F2E",
"6	c #070707",
"7	c #0F1010",
"8	c #161616",
"9	c #4E4E4F",
"0	c #5E5F60",
"a	c #171717",
".........................",
"+@#$$$$$$$$$$$$$$$$$$#@+.",
"%$%&****************&%$%.",
"=-;>,,,,,,,,,,,,,,,,>;-='",
"))!~{{{{{{{{{{{{{{{{~!))]",
")^/{((_(_(_(_(_(_((({/^)]",
"))/((::::::::::::::((/))]",
")^<[}||||||||||||||}[<))]",
")^{_1222222222222221_{^)]",
"))/3__1111111111114_3/))]",
"))$<{{{53333333{5{{{<$))]",
"%6))$$7777<$<$<777$$))6%8",
".9000000000000000000009.a",
"                         ",
"                         ",
"                         ",
"                         ",
"                         ",
"                         ",
"                         ",
"                         ",
"                         ",
"                         ",
"                         ",
"                         ",
"                         ",
"                         ",
"                         ",
"                         ",
"                         ",
"                         ",
"                         "};
