/* XPM */
static char * right_active_xpm[] = {
"6 1 5 1",
" 	c None",
".	c #FFFFFF",
"+	c #646465",
"@	c #111111",
"#	c #090909",
"..+@@#"};
