/* XPM */
static char * title_1_inactive_xpm[] = {
"1 32 5 1",
" 	c None",
".	c #343434",
"+	c #868788",
"@	c #151515",
"#	c #CFC2C2",
".",
".",
".",
"+",
"@",
"@",
"@",
"@",
"@",
"@",
"@",
"@",
"@",
"@",
"@",
"@",
"@",
"@",
"@",
"@",
"@",
"@",
"@",
"@",
"@",
"@",
"@",
"@",
"@",
"@",
"@",
"#"};
