/* XPM */
static char * top_right_active_xpm[] = {
"6 32 13 1",
" 	c None",
".	c #343434",
"+	c #373737",
"@	c #272727",
"#	c #0F1010",
"$	c #868788",
"%	c #3F3F40",
"&	c #0B0B0B",
"*	c #151515",
"=	c #111111",
"-	c #090909",
";	c #FFFFFF",
">	c #646465",
".....+",
".....@",
"....+#",
"$$$$%&",
"****=-",
"****=-",
"****=-",
"****=-",
"****=-",
"****=-",
"****=-",
"****=-",
"****=-",
"****=-",
"****=-",
"****=-",
"****=-",
"****=-",
"****=-",
"****=-",
"****=-",
"****=-",
"****=-",
"****=-",
"****=-",
"****=-",
"****=-",
"****=-",
"****=-",
"****=-",
"****=-",
";;>*=-"};
