/* XPM */
static char * top_left_active_xpm[] = {
"5 32 13 1",
" 	c None",
".	c #373737",
"+	c #343434",
"@	c #272727",
"#	c #0F1010",
"$	c #0B0B0B",
"%	c #3F3F40",
"&	c #868788",
"*	c #090909",
"=	c #111111",
"-	c #151515",
";	c #646465",
">	c #FFFFFF",
".++++",
"@++++",
"#.+++",
"$%&&&",
"*=---",
"*=---",
"*=---",
"*=---",
"*=---",
"*=---",
"*=---",
"*=---",
"*=---",
"*=---",
"*=---",
"*=---",
"*=---",
"*=---",
"*=---",
"*=---",
"*=---",
"*=---",
"*=---",
"*=---",
"*=---",
"*=---",
"*=---",
"*=---",
"*=---",
"*=---",
"*=---",
"*=-;>"};
