/* XPM */
static char * bottom_inactive_xpm[] = {
"1 52 23 1",
" 	c None",
".	c #302718",
"+	c #2E2517",
"@	c #2B2316",
"#	c #272012",
"$	c #251E12",
"%	c #201A10",
"&	c #1D180E",
"*	c #1A160E",
"=	c #1D1913",
"-	c #1F1C14",
";	c #441506",
">	c #59200B",
",	c #812103",
"'	c #531405",
")	c #190801",
"!	c #030203",
"~	c #050403",
"{	c #0C0B09",
"]	c #101010",
"^	c #141212",
"/	c #060504",
"(	c #020102",
".",
".",
".",
".",
".",
".",
".",
".",
".",
".",
".",
".",
".",
".",
".",
".",
".",
".",
"+",
"@",
"@",
"#",
"$",
"%",
"&",
"*",
"*",
"*",
"*",
"=",
"-",
";",
">",
",",
"'",
")",
"!",
"!",
"~",
"{",
"]",
"^",
"{",
"/",
"(",
" ",
" ",
" ",
" ",
" ",
" ",
" "};
