/* XPM */
static char * close_prelight_xpm[] = {
"31 18 33 1",
" 	c None",
".	c #300101",
"+	c #2E0101",
"@	c #280101",
"#	c #1E0101",
"$	c #0B0000",
"%	c #070000",
"&	c #010000",
"*	c #6B0404",
"=	c #650404",
"-	c #520303",
";	c #7E0505",
">	c #600303",
",	c #5C0303",
"'	c #500303",
")	c #4C0303",
"!	c #480303",
"~	c #560303",
"{	c #730404",
"]	c #260101",
"^	c #470202",
"/	c #390202",
"(	c #450202",
"_	c #430202",
":	c #410202",
"<	c #3B0202",
"[	c #3D0202",
"}	c #050000",
"|	c #4A0303",
"1	c #110000",
"2	c #170000",
"3	c #150000",
"4	c #330202",
".++++@@@@@@@@@@@@@@@@@@@@@@++..",
"#$%%%%%%%%%%%%%%%%%%%%%%%%%%$@.",
"&**=========================-$+",
"+;=>>>>>>>>>>>>>>>>>>>,>>>>=;&+",
"+=,'''''''''''''''')!!!!!!!~{&+",
"]{~)))))))))))))))))!!!!!!!'{&@",
"]{~))))^)))/)))))))^))!!!!!~{&@",
"]{,)/)^^)/))))/))/))))!!!!!'{&@",
"]{,))))))))^))))^)))))))!!!~{&@",
"]{~^^^^^^^^^^^^^^^^^^^^!!!!'=&@",
"]='(^^^^^^((^^^(((^^^(^^^^^'>&@",
"]>)_(:(:(:(((:(__(:(:(_<[[[!>&@",
"]=!<<<<<<<</<<<<<<<<</<<<<<(>&@",
"+=)<<<<<<<<<<<<<<<<<<<<[[[[!=&+",
"+*=~~~~~~~~~~~~~~~~~~~''''',*}+",
"}~_^^<^^^<^^^^<^^^^^^<<<<<<||$+",
"+1111231111131111311112$$$$$1+.",
"////4444/4/44/4/444444.+.+++..."};
