/* XPM */
static char * hide_pressed_xpm[] = {
"31 18 51 1",
" 	c None",
".	c #201A10",
"+	c #1D180E",
"@	c #1A160E",
"#	c #16120B",
"$	c #090807",
"%	c #060504",
"&	c #030203",
"*	c #403931",
"=	c #3C362A",
"-	c #312C25",
";	c #080704",
">	c #1D1913",
",	c #4E4335",
"'	c #453424",
")	c #3F321C",
"!	c #3D311B",
"~	c #372A14",
"{	c #352812",
"]	c #332713",
"^	c #3C2D1A",
"/	c #493D28",
"(	c #151515",
"_	c #322512",
":	c #361B0A",
"<	c #40220C",
"[	c #352B1B",
"}	c #2F2512",
"|	c #3E3221",
"1	c #31291A",
"2	c #2C2313",
"3	c #2C2212",
"4	c #272012",
"5	c #2A2112",
"6	c #302718",
"7	c #261E0F",
"8	c #271F12",
"9	c #2E2517",
"0	c #342E23",
"a	c #322B1D",
"b	c #383227",
"c	c #050403",
"d	c #262427",
"e	c #2D261A",
"f	c #212020",
"g	c #2E281F",
"h	c #0C0B09",
"i	c #130C06",
"j	c #0D0D0D",
"k	c #252016",
"l	c #1F1C14",
".++++@@@@@@@@@@@@@@@@@@@@@@++..",
"#$%%%%%%%%%%%%%%%%%%%%%%%%%%$@.",
"&**=========================-;+",
">,')))))))))))))))))))!))))',&+",
">'!~~~~~~~~~~~~~~~~{]]]]]]]^/&+",
"(/^{{{{{{{{{{{{{{{{{]]]]]]]~/&@",
"(/^{{{{_{{{:{{{{{{{_{{]]]]]^/&@",
"(/!{:{_<{:{{{{:{{:{{{{]]]]]~/&@",
"(/!{{{{{{{{<{{{{<{{{{{{{]]]^/&@",
"(/^____________________]]]]~'&@",
"('[}______}}___}}}___}_____~|&@",
"(|12}3}3}3}}}3}22}3}3}245556|&@",
"(=64444444474444444447448889|&@",
">=14444444444444444444455556=&+",
">*=0000000000000000000a[[[[b*c+",
"c0deefeeefeeeefeeeeeeffffffgg$+",
">hhhhijhhhhhjhhhhjhhhhi$$$$$h+.",
"kkkkllllklkllklkllllll.>.+++..."};
