/* XPM */
static char * hide_prelight_xpm[] = {
"31 18 21 1",
" 	c None",
".	c #665400",
"+	c #645300",
"@	c #5C4C00",
"#	c #544500",
"$	c #524400",
"%	c #8A7200",
"&	c #887100",
"*	c #7E6800",
"=	c #987E00",
"-	c #866F00",
";	c #846D00",
">	c #7A6500",
",	c #826C00",
"'	c #907700",
")	c #766200",
"!	c #705D00",
"~	c #725E00",
"{	c #564700",
"]	c #5A4A00",
"^	c #6A5800",
".....++++++++++++++++++++++....",
"@#$$$$$$$$$$$$$$$$$$$$$$$$$$#+.",
"$%%&&&&&&&&&&&&&&&&&&&&&&&&&*#.",
".=&-------------------;----&=$.",
".&;****************>>>>>>>>,'$.",
"+',>>>>>>>>>>>>>>>>>>>>>>>>*'$+",
"+',>>>>)>>>!>>>>>>>)>>>>>>>,'$+",
"+';>!>))>!>>>>!>>!>>>>>>>>>*'$+",
"+';>>>>>>>>)>>>>)>>>>>>>>>>,'$+",
"+',))))))))))))))))))))>>>>*&$+",
"+&*))))))))))))))))))))))))*-$+",
"+->))~)~)~)))~))))~)~))!!!!>-$+",
"+&>!!!!!!!!!!!!!!!!!!!!!!!!)-$+",
".&>!!!!!!!!!!!!!!!!!!!!!!!!>&$.",
".%&,,,,,,,,,,,,,,,,,,,*****;%$.",
"$,)))!)))!))))!))))))!!!!!!>>#.",
".{{{{]]{{{{{]{{{{]{{{{]#####{..",
"!!!!^^^^!^!^^!^!^^^^^^........."};
