/* XPM */
static char * left_active_xpm[] = {
"29 1 25 1",
" 	c None",
".	c #020200",
"+	c #1B150C",
"@	c #1D180E",
"#	c #201A10",
"$	c #221C11",
"%	c #251E12",
"&	c #272012",
"*	c #282116",
"=	c #322B1D",
"-	c #71361D",
";	c #DC5324",
">	c #EE5A27",
",	c #F85E29",
"'	c #F55C29",
")	c #E85826",
"!	c #D45023",
"~	c #BB461C",
"{	c #983A19",
"]	c #000000",
"^	c #18140C",
"/	c #16120B",
"(	c #1A160E",
"_	c #1A1611",
":	c #1F1C14",
".+@@#$$%&*=-;>,')!~{]]^//^(_:"};
