/* XPM */
static char * maximize_prelight_xpm[] = {
"31 18 25 1",
" 	c None",
".	c #071201",
"+	c #061001",
"@	c #060E01",
"#	c #040B00",
"$	c #010300",
"%	c #000100",
"&	c #000000",
"*	c #122C03",
"=	c #112B02",
"-	c #0E2302",
";	c #163603",
">	c #102902",
",	c #102702",
"'	c #0D2102",
")	c #0D1F02",
"!	c #0F2502",
"~	c #133003",
"{	c #0C1D02",
"]	c #091801",
"^	c #0B1C01",
"/	c #0A1A01",
"(	c #020500",
"_	c #030700",
":	c #081401",
".++++@@@@@@@@@@@@@@@@@@@@@@++..",
"#$%%%%%%%%%%%%%%%%%%%%%%%%%%$@.",
"&**=========================-$+",
"+;=>>>>>>>>>>>>>>>>>>>,>>>>=;&+",
"+=,----------------')))))))!~&+",
"@~!''''''''''''''''')))))))-~&@",
"@~!''''{''']'''''''{'')))))!~&@",
"@~,']'{{']'''']'']'''')))))-~&@",
"@~,''''''''{''''{''''''')))!~&@",
"@~!{{{{{{{{{{{{{{{{{{{{))))-=&@",
"@=-^{{{{{{^^{{{^^^{{{^{{{{{->&@",
"@>'^^/^/^/^^^/^^^^/^/^^]]]])>&@",
"@=)]]]]]]]]]]]]]]]]]]]]]]]]^>&@",
"+=']]]]]]]]]]]]]]]]]]]]]]]])=&+",
"+*=!!!!!!!!!!!!!!!!!!!-----,*%+",
"%!^{{]{{{]{{{{]{{{{{{]]]]]]))$+",
"+((((__(((((_((((_((((_$$$$$(+.",
"]]]]::::]:]::]:]::::::.+.+++..."};
