/* XPM */
static char * right_active_xpm[] = {
"29 1 25 1",
" 	c None",
".	c #1F1C14",
"+	c #1A1611",
"@	c #1A160E",
"#	c #18140C",
"$	c #16120B",
"%	c #000000",
"&	c #983A19",
"*	c #BB461C",
"=	c #D45023",
"-	c #E85826",
";	c #F55C29",
">	c #F85E29",
",	c #EE5A27",
"'	c #DC5324",
")	c #71361D",
"!	c #322B1D",
"~	c #282116",
"{	c #272012",
"]	c #251E12",
"^	c #221C11",
"/	c #201A10",
"(	c #1D180E",
"_	c #1B150C",
":	c #020200",
".+@#$$#%%&*=-;>,')!~{]^^/((_:"};
