/* XPM */
static char * title_2_inactive_xpm[] = {
"1 64 16 1",
" 	c None",
".	c #101010",
"+	c #151515",
"@	c #652009",
"#	c #CB430A",
"$	c #EB4610",
"%	c #DE4F13",
"&	c #71361D",
"*	c #342E23",
"=	c #312C25",
"-	c #2E281F",
";	c #282116",
">	c #252016",
",	c #271F12",
"'	c #251E12",
")	c #221C11",
" ",
" ",
" ",
" ",
" ",
" ",
" ",
" ",
" ",
" ",
".",
"+",
"+",
"+",
"+",
"+",
"+",
"@",
"#",
"$",
"%",
"#",
"&",
"*",
"=",
"-",
";",
">",
",",
"'",
")",
"'",
"'",
"'",
"'",
"'",
"'",
"'",
"'",
"'",
"'",
"'",
"'",
"'",
"'",
"'",
"'",
"'",
"'",
"'",
"'",
"'",
"'",
"'",
"'",
"'",
"'",
"'",
"'",
"'",
"'",
"'",
"'",
"'"};
